<svg width="34" height="24" viewBox="0 0 34 24" fill="none" xmlns="http://www.w3.org/2000/svg">
<path fill-rule="evenodd" clip-rule="evenodd" d="M31.6261 1.5C30.2311 1.5 28.9694 2.32839 28.4147 3.60837L27.0001 6.87291V7H26.945L22.8283 16.5H5.18365L0.209961 6H26.2885L27.4971 3.21077C28.2103 1.56507 29.8326 0.5 31.6261 0.5H34.0001V1.5H31.6261ZM25.8551 7H1.79016L5.81648 15.5H22.1718L25.8551 7ZM8.00006 19.5C7.17163 19.5 6.50006 20.1716 6.50006 21C6.50006 21.8284 7.17163 22.5 8.00006 22.5C8.82849 22.5 9.50006 21.8284 9.50006 21C9.50006 20.1716 8.82849 19.5 8.00006 19.5ZM5.50006 21C5.50006 19.6193 6.61935 18.5 8.00006 18.5C9.38077 18.5 10.5001 19.6193 10.5001 21C10.5001 22.3807 9.38077 23.5 8.00006 23.5C6.61935 23.5 5.50006 22.3807 5.50006 21ZM20.0001 19.5C19.1716 19.5 18.5001 20.1716 18.5001 21C18.5001 21.8284 19.1716 22.5 20.0001 22.5C20.8285 22.5 21.5001 21.8284 21.5001 21C21.5001 20.1716 20.8285 19.5 20.0001 19.5ZM17.5001 21C17.5001 19.6193 18.6193 18.5 20.0001 18.5C21.3808 18.5 22.5001 19.6193 22.5001 21C22.5001 22.3807 21.3808 23.5 20.0001 23.5C18.6193 23.5 17.5001 22.3807 17.5001 21Z" fill="#262626"/>
</svg>
