<svg width="15" height="15" viewBox="0 0 15 15" fill="none" xmlns="http://www.w3.org/2000/svg">
<path fill-rule="evenodd" clip-rule="evenodd" d="M11.1558 3.88099C9.77755 2.5059 7.58734 2.50454 6.26357 3.8253C4.9398 5.14606 4.94117 7.33129 6.31939 8.70638C7.69762 10.0815 9.88783 10.0828 11.2116 8.76207C12.5354 7.44131 12.534 5.25608 11.1558 3.88099ZM4.84775 2.4127C6.97698 0.288311 10.4352 0.336818 12.5716 2.46839C14.708 4.59997 14.7567 8.05029 12.6274 10.1747C10.7389 12.0589 7.80492 12.2337 5.675 10.7619L1.8898 14.5385L0.473979 13.1259L4.25917 9.34931C2.78398 7.22423 2.95923 4.29692 4.84775 2.4127Z" fill="#262626"/>
</svg>
