<svg width="10" height="16" viewBox="0 0 10 16" fill="none" xmlns="http://www.w3.org/2000/svg">
<path fill-rule="evenodd" clip-rule="evenodd" d="M4.08565 1.47527C4.67742 0.853912 5.48539 0.5 6.33333 0.5C7.18128 0.5 7.98925 0.853912 8.58102 1.47527C9.172 2.09581 9.5 2.93244 9.5 3.8V10.8C9.5 12.0389 9.03153 13.2316 8.1905 14.1147C7.34867 14.9986 6.20156 15.5 5 15.5C3.79844 15.5 2.65133 14.9986 1.8095 14.1147C0.968472 13.2316 0.5 12.0389 0.5 10.8V5.137C0.5 4.86086 0.723858 4.637 1 4.637C1.27614 4.637 1.5 4.86086 1.5 5.137V10.8C1.5 11.789 1.87438 12.7328 2.53364 13.425C3.19211 14.1164 4.07983 14.5 5 14.5C5.92017 14.5 6.80789 14.1164 7.46636 13.425C8.12562 12.7328 8.5 11.789 8.5 10.8V3.8C8.5 3.18234 8.26609 2.5946 7.85688 2.16493C7.44846 1.73609 6.89988 1.5 6.33333 1.5C5.76679 1.5 5.2182 1.73609 4.80978 2.16493C4.40057 2.5946 4.16667 3.18234 4.16667 3.8V10.2274C4.16667 10.3489 4.18948 10.4687 4.23328 10.5797C4.27706 10.6907 4.34064 10.79 4.41926 10.8725C4.49783 10.955 4.58978 11.0191 4.68917 11.0623C4.7885 11.1055 4.89405 11.1274 5 11.1274C5.21292 11.1274 5.42237 11.0388 5.58074 10.8725C5.7399 10.7054 5.83333 10.4738 5.83333 10.2274V5.2C5.83333 4.92386 6.05719 4.7 6.33333 4.7C6.60948 4.7 6.83333 4.92386 6.83333 5.2V10.2274C6.83333 10.7237 6.64581 11.2042 6.30488 11.5622C5.96315 11.921 5.49432 12.1274 5 12.1274C4.75576 12.1274 4.51454 12.0769 4.29034 11.9793C4.0662 11.8819 3.86418 11.7397 3.69512 11.5622C3.52612 11.3847 3.39327 11.1754 3.30304 10.9466C3.21283 10.7179 3.16667 10.4736 3.16667 10.2274V3.8C3.16667 2.93244 3.49466 2.09581 4.08565 1.47527Z" fill="#262626"/>
</svg>
