<svg width="28" height="19" viewBox="0 0 28 19" fill="none" xmlns="http://www.w3.org/2000/svg">
<path fill-rule="evenodd" clip-rule="evenodd" d="M22.7519 3.31376C23.0922 2.5008 23.8522 2 24.6655 2H26.4999C27.0522 2 27.4999 1.55228 27.4999 0.999999C27.4999 0.447714 27.0522 0 26.4999 0H24.6655C23.015 0 21.5464 1.01397 20.907 2.54155L20.1291 4.4H2.55718C1.10046 4.4 0.132422 5.90746 0.738498 7.23211L3.3007 12.8321C3.62626 13.5437 4.33688 14 5.11938 14H16.9481C17.7543 14 18.4817 13.5159 18.793 12.7722L22.7519 3.31376ZM2.55718 6.4H19.292L16.9481 12H5.11938L2.55718 6.4ZM6.49994 19C7.32837 19 7.99994 18.3284 7.99994 17.5C7.99994 16.6716 7.32837 16 6.49994 16C5.67151 16 4.99994 16.6716 4.99994 17.5C4.99994 18.3284 5.67151 19 6.49994 19ZM15.4999 19C16.3284 19 16.9999 18.3284 16.9999 17.5C16.9999 16.6716 16.3284 16 15.4999 16C14.6715 16 13.9999 16.6716 13.9999 17.5C13.9999 18.3284 14.6715 19 15.4999 19Z" fill="#262626"/>
</svg>
