<svg width="20" height="20" viewBox="0 0 20 20" fill="none" xmlns="http://www.w3.org/2000/svg">
<path fill-rule="evenodd" clip-rule="evenodd" d="M15.9902 4.0099C13.3103 1.33003 8.9654 1.33003 6.28553 4.0099C3.60567 6.68976 3.60567 11.0347 6.28553 13.7145C8.9654 16.3944 13.3103 16.3944 15.9902 13.7145C18.67 11.0347 18.67 6.68976 15.9902 4.0099ZM4.87132 2.59568C8.33223 -0.865228 13.9435 -0.865228 17.4044 2.59568C20.8653 6.0566 20.8653 11.6678 17.4044 15.1288C14.1825 18.3506 9.09718 18.5732 5.61788 15.7964L1.70718 19.7071L0.292969 18.2929L4.20367 14.3822C1.42692 10.9029 1.64948 5.81753 4.87132 2.59568ZM10.1379 9.86222V13.0246H12.1379V9.86222H15.3002V7.86222H12.1379V4.69987H10.1379V7.86222H6.9755V9.86222H10.1379Z" fill="#262626"/>
</svg>
