<svg width="30" height="30" viewBox="0 0 30 30" fill="none" xmlns="http://www.w3.org/2000/svg">
<path fill-rule="evenodd" clip-rule="evenodd" d="M16.5414 0.0320344C20.0146 0.245597 23.2707 1.9541 25.6585 4.30328C28.4805 7.29316 30 10.9237 30 15.195C30 18.612 28.6976 21.8154 26.5268 24.5917C24.3561 27.1545 21.317 29.0765 17.8438 29.7172C14.3706 30.3579 10.8974 29.9308 7.8584 28.2223C4.81936 26.5138 2.43154 23.951 1.12909 20.7476C-0.173358 17.5442 -0.390432 13.9136 0.69494 10.7102C1.78031 7.29316 3.73398 4.51685 6.77303 2.59478C9.595 0.672722 13.0682 -0.181528 16.5414 0.0320344ZM17.6268 27.5816C20.4487 26.9409 23.0536 25.446 25.0073 23.0968C26.7439 20.7476 27.8293 17.9713 27.6122 14.9814C27.6122 11.5644 26.3097 8.14741 23.9219 5.79822C21.7512 3.6626 19.1463 2.38122 16.1072 2.16766C13.2853 1.9541 10.2462 2.59478 7.8584 4.30328C5.47058 6.01178 3.73398 8.36097 2.86569 11.3508C1.99739 14.1272 1.99739 17.117 3.29983 19.8933C4.60228 22.6697 6.55595 24.8053 9.16085 26.3002C11.7657 27.7951 14.8048 28.2223 17.6268 27.5816Z" fill="#69D243"/>
<path fill-rule="evenodd" clip-rule="evenodd" d="M22.4411 11.5063L13.7029 20.0029L7.50857 13.9088L9.04352 12.3987L13.7029 16.9827L20.9061 9.99614L22.4411 11.5063Z" fill="#69D243"/>
</svg>
