<svg width="49" height="49" viewBox="0 0 49 49" fill="none" xmlns="http://www.w3.org/2000/svg">
<path d="M24.4934 16.3299C19.9947 16.3299 16.3234 20.0012 16.3234 24.5C16.3234 28.9988 19.9947 32.6701 24.4934 32.6701C28.9921 32.6701 32.6634 28.9988 32.6634 24.5C32.6634 20.0012 28.9921 16.3299 24.4934 16.3299ZM48.9973 24.5C48.9973 21.1167 49.0279 17.7641 48.8379 14.3869C48.6479 10.4643 47.7531 6.98291 44.8847 4.11448C42.0102 1.23991 38.535 0.351184 34.6124 0.161181C31.2292 -0.0288227 27.8766 0.00182308 24.4995 0.00182308C21.1163 0.00182308 17.7637 -0.0288227 14.3867 0.161181C10.4641 0.351184 6.98279 1.24604 4.1144 4.11448C1.23989 6.98904 0.351177 10.4643 0.161178 14.3869C-0.0288222 17.7702 0.00182304 21.1228 0.00182304 24.5C0.00182304 27.8772 -0.0288222 31.2359 0.161178 34.6131C0.351177 38.5357 1.24602 42.0171 4.1144 44.8855C6.98891 47.7601 10.4641 48.6488 14.3867 48.8388C17.7699 49.0288 21.1224 48.9982 24.4995 48.9982C27.8828 48.9982 31.2353 49.0288 34.6124 48.8388C38.535 48.6488 42.0163 47.754 44.8847 44.8855C47.7592 42.011 48.6479 38.5357 48.8379 34.6131C49.034 31.2359 48.9973 27.8833 48.9973 24.5ZM24.4934 37.0709C17.537 37.0709 11.9228 31.4566 11.9228 24.5C11.9228 17.5434 17.537 11.9291 24.4934 11.9291C31.4499 11.9291 37.064 17.5434 37.064 24.5C37.064 31.4566 31.4499 37.0709 24.4934 37.0709ZM37.5789 14.3501C35.9547 14.3501 34.6431 13.0385 34.6431 11.4143C34.6431 9.79006 35.9547 8.47843 37.5789 8.47843C39.2031 8.47843 40.5147 9.79006 40.5147 11.4143C40.5152 11.8 40.4396 12.1819 40.2922 12.5384C40.1448 12.8948 39.9286 13.2186 39.6559 13.4913C39.3832 13.764 39.0594 13.9803 38.7029 14.1276C38.3465 14.275 37.9646 14.3506 37.5789 14.3501Z" fill="#999999"/>
</svg>
