<svg width="32" height="54" viewBox="0 0 32 54" fill="none" xmlns="http://www.w3.org/2000/svg">
<path d="M16.0012 0C8.13846 0 1.74221 6.25163 1.74221 13.9371C1.74221 21.6219 8.13846 27.8708 16.0012 27.8708C23.8636 27.8708 30.2567 21.6219 30.2567 13.9371C30.2567 6.25163 23.8637 0 16.0012 0ZM16.0012 8.16583C19.2553 8.16583 21.9016 10.756 21.9016 13.9371C21.9016 17.1168 19.2554 19.705 16.0012 19.705C12.7464 19.705 10.0973 17.1168 10.0973 13.9371C10.0973 10.756 12.7464 8.16583 16.0012 8.16583ZM4.24533 28.3449C2.83459 28.3235 1.44734 29.0032 0.642592 30.2569C-0.587229 32.1667 0.00191176 34.6868 1.95113 35.888C4.52943 37.4692 7.3272 38.5911 10.2286 39.2377L2.26015 47.0306C0.628892 48.626 0.630273 51.2098 2.26186 52.8052C3.07964 53.6015 4.14622 54 5.21552 54C6.2837 54 7.35388 53.6009 8.16917 52.8036L15.9978 45.1474L23.8334 52.8036C25.4632 54.3985 28.1062 54.3985 29.7389 52.8036C31.3709 51.2092 31.3709 48.6226 29.7389 47.0307L21.767 39.2395C24.6692 38.5928 27.4679 37.4704 30.0444 35.8881C31.9975 34.6868 32.5875 32.164 31.3581 30.2569C30.1273 28.3467 27.5503 27.7712 25.5958 28.9744C19.7584 32.5637 12.237 32.5614 6.40142 28.9744C5.7297 28.5608 4.98428 28.3562 4.24533 28.3449Z" fill="#999999"/>
</svg>