<svg width="70" height="45" viewBox="0 0 70 45" fill="none" xmlns="http://www.w3.org/2000/svg">
<path d="M3.25717 7.21633e-05C1.45887 7.21633e-05 0 1.49267 0 3.3343V41.6658C0 43.5071 1.45908 45 3.25717 45H66.7428C68.5411 45 70 43.5074 70 41.6658V3.33422C70 1.49288 68.5409 0 66.7428 0H3.2571L3.25717 7.21633e-05ZM22.9534 5.41683C26.9491 5.41683 30.6187 6.83985 33.4993 9.21682C31.0758 11.4366 29.2681 14.3531 28.3762 17.6588H29.7741C30.5972 14.9317 32.0927 12.5037 34.0637 10.5783C36.0348 12.5037 37.5301 14.9317 38.3534 17.6588H39.7731C38.8689 14.3705 37.0587 11.4715 34.6369 9.26612C37.523 6.85898 41.2071 5.41676 45.22 5.41676C54.4803 5.41676 61.9871 13.102 61.9871 22.5829C61.9871 32.0637 54.4803 39.749 45.22 39.749C41.1404 39.749 37.3996 38.2584 34.4925 35.7787C37.093 33.4628 39.0101 30.3582 39.8869 26.8263H38.5196C37.7411 29.7907 36.1742 32.4272 34.0636 34.489C31.9531 32.4272 30.3884 29.7907 29.6099 26.8263H28.3083C29.1902 30.307 31.0823 33.3682 33.6436 35.6624C30.7419 38.1113 27.0158 39.5832 22.9533 39.5832C13.693 39.5832 6.18624 31.935 6.18624 22.5C6.18624 13.0651 13.693 5.41683 22.9534 5.41683ZM43.9621 17.4841C41.9475 17.4841 39.9875 19.2871 39.9875 22.6724C39.9875 24.9173 41.0461 26.3986 43.1287 26.3986C43.7175 26.3988 44.6556 26.1523 44.6556 26.1523L44.9662 24.1907C44.9662 24.1907 44.1101 24.634 43.5225 24.634C42.2845 24.634 41.7878 23.6594 41.7878 22.612C41.7878 20.4872 42.8529 19.318 44.0387 19.318C44.9279 19.318 45.6421 19.8331 45.6421 19.8331L45.9265 17.9252C45.9265 17.9252 44.8693 17.4841 43.9621 17.4841H43.9621ZM60.8999 17.6499L59.1478 17.6543L58.7715 20.0145C58.7715 20.0145 58.1128 19.0986 57.0828 19.0986C55.4812 19.0986 54.1471 21.0462 54.1471 23.286C54.1471 24.7318 54.8571 26.15 56.3128 26.15C57.3598 26.15 57.9403 25.4134 57.9403 25.4134L57.8637 26.0425H59.5656L60.8999 17.6499ZM10.7143 17.6744L9.31874 26.0873H11.0009L12.0641 19.7436L12.2216 26.0873H13.4247L15.6691 19.7436L14.6737 26.0873H16.4609L17.8391 17.6744H15.0741L13.3525 22.8359L13.2628 17.6745H10.7144L10.7143 17.6744ZM28.2887 18.2208C28.2507 18.2599 27.2716 24.0398 27.2716 24.7437C27.2716 25.786 27.8423 26.2516 28.6453 26.2441C29.2207 26.239 29.6663 26.0911 29.8725 26.0291C29.894 26.0231 29.9359 26.0112 29.9359 26.0112L30.1525 24.5064C30.0347 24.5064 29.8613 24.5579 29.7084 24.5579C29.1088 24.5579 29.0424 24.2314 29.0806 23.9891L29.5641 20.9192H30.4762L30.6971 19.2553H29.8375L30.0125 18.2208H28.2887ZM48.6215 19.0673C47.4474 19.0673 46.5478 19.4636 46.5478 19.4636L46.2984 21.0087C46.2984 21.0087 47.0414 20.6929 48.1644 20.6929C48.8019 20.6929 49.269 20.7676 49.269 21.311C49.269 21.641 49.2121 21.7633 49.2121 21.7633C49.2121 21.7633 48.708 21.7186 48.475 21.7186C46.9943 21.7186 45.4387 22.3828 45.4387 24.381C45.4387 25.9554 46.4599 26.3157 47.0925 26.3157C48.3005 26.3157 48.8215 25.4942 48.849 25.4917L48.7921 26.1769H50.2994L50.9731 21.2327C50.9733 19.1347 49.2277 19.0672 48.6215 19.0672V19.0673ZM20.3481 19.0762C19.1697 19.0762 18.2656 19.4726 18.2656 19.4726L18.0162 21.0177C18.0162 21.0177 18.7617 20.7019 19.8887 20.7019C20.5287 20.7019 20.9978 20.7769 20.9978 21.3199C20.9978 21.6498 20.9409 21.7723 20.9409 21.7723C20.9409 21.7723 20.4353 21.7275 20.2016 21.7275C18.7153 21.7275 17.1544 22.3907 17.1544 24.3877C17.1544 25.9613 18.1777 26.3225 18.8125 26.3225C20.025 26.3225 20.5478 25.5008 20.5756 25.4984L20.5187 26.1836H22.0325L22.7084 21.2416C22.7084 19.1449 20.9565 19.0762 20.3481 19.0762V19.0762ZM25.6943 19.0762C24.4289 19.0762 23.1437 19.5991 23.1437 21.3849C23.1437 23.4083 25.2853 23.2039 25.2853 24.0563C25.2853 24.6252 24.6876 24.6721 24.2266 24.6721C23.4286 24.6721 22.711 24.3899 22.7084 24.4034L22.4787 25.9485C22.52 25.9616 22.9644 26.1657 24.3994 26.1657C24.7847 26.1657 26.9871 26.2658 26.9871 23.9175C26.9871 21.722 24.9484 22.1572 24.9484 21.2752C24.9484 20.836 25.2794 20.6975 25.8868 20.6975C26.128 20.6975 27.0572 20.7759 27.0572 20.7759L27.2716 19.215C27.2716 19.2153 26.672 19.0762 25.6944 19.0762H25.6943ZM33.6043 19.0762C31.8459 19.0766 30.5441 21.0122 30.5441 23.1987C30.5441 25.7223 32.1752 26.3225 33.565 26.3225C34.8478 26.3225 35.4134 26.0291 35.4134 26.0291L35.7196 24.3071C35.7196 24.3071 34.7438 24.746 33.8625 24.746C31.9846 24.746 32.3137 23.3151 32.3137 23.3151H35.8684C35.8684 23.3151 36.0981 22.1587 36.0981 21.6872C36.0981 20.5106 35.5245 19.0762 33.6044 19.0762H33.6043ZM39.9722 19.1501C39.18 19.1501 38.5918 20.2407 38.5918 20.2407L38.7493 19.2397H37.1043L35.9997 26.15H37.8175C38.3323 23.1991 38.4263 20.803 39.655 21.2416C39.87 20.0994 40.0787 19.6582 40.3134 19.1748C40.3134 19.1748 40.2031 19.1501 39.9721 19.1501H39.9722ZM54.7005 19.1501C53.9084 19.1501 53.3203 20.2407 53.3203 20.2407L53.4778 19.2397H51.8328L50.728 26.15H52.5437C53.0588 23.1991 53.1552 20.803 54.3834 21.2416C54.5988 20.0994 54.8073 19.6582 55.0419 19.1748C55.0419 19.1748 54.9315 19.1501 54.7006 19.1501H54.7005ZM33.5956 20.6348C34.5942 20.6348 34.4115 21.7887 34.4115 21.882H32.445C32.445 21.7629 32.631 20.6348 33.5956 20.6348H33.5956ZM57.3584 20.7691C57.994 20.7689 58.3209 21.2084 58.3209 22.2425C58.3209 23.1808 57.8587 24.4347 56.9012 24.4347C56.2657 24.4347 55.9671 23.8975 55.9671 23.0554C55.9671 21.6783 56.5826 20.7691 57.3584 20.7691H57.3584ZM48.6237 23.1203C48.883 23.1206 48.9366 23.1464 48.9803 23.1584C48.974 23.1573 48.9728 23.1586 48.9978 23.1629C49.0306 23.4706 48.8161 24.914 47.7793 24.914C47.2447 24.914 47.1078 24.4788 47.1078 24.222C47.1078 23.7213 47.3624 23.1203 48.6237 23.1203ZM20.3503 23.127C20.6448 23.1274 20.6769 23.1611 20.7266 23.1696C20.7595 23.4772 20.5441 24.9184 19.5037 24.9184C18.967 24.9184 18.8278 24.4853 18.8278 24.2287C18.8278 23.7283 19.084 23.127 20.3503 23.127Z" fill="#999999"/>
</svg>
