<svg width="70" height="45" viewBox="0 0 70 45" fill="none" xmlns="http://www.w3.org/2000/svg">
<path fill-rule="evenodd" clip-rule="evenodd" d="M0 3.3343C0 1.49267 1.45887 7.21633e-05 3.25717 7.21633e-05L66.7428 0C68.5409 0 70 1.49288 70 3.33422V41.6658C70 43.5074 68.5411 45 66.7428 45H3.25717C1.45908 45 0 43.5071 0 41.6658V3.3343ZM13.6336 16.1964C13.6064 16.1969 13.5813 16.1973 13.5583 16.1974L8.63451 16.1975V30.9175H13.3925V22.2363H13.7116L16.3639 30.9175H19.9437L22.5961 22.2428H22.9152V30.9175H27.6732V16.1975L23.0049 16.1975C22.9687 16.1975 22.9292 16.1969 22.8869 16.1963C22.2221 16.1871 20.851 16.168 20.2821 18.1142C19.9285 19.3237 19.279 21.5842 18.3334 24.8957H17.9743C17.0926 21.7547 16.45 19.4942 16.0466 18.1142C15.4768 16.1646 14.1687 16.1872 13.6336 16.1964ZM34.5056 24.8787V16.1975H29.6482V30.9176H34.2525C34.2525 30.9176 35.6506 30.789 36.2769 29.3749L39.44 22.2363H39.8196V30.9176H44.6769V16.1975H40.0726C40.0726 16.1975 38.7378 16.3196 38.1115 17.7402L34.8851 24.8787H34.5056ZM56.3051 26.5327C58.6609 26.5327 60.7887 25.1388 61.4662 23.1926H46.5921V30.9176H51.2112V26.5327H56.3051ZM46.3499 16.1975H56.5279C60.4441 16.1975 62.3371 19.5564 61.7872 22.2802H52.2585C49.3763 22.2802 46.5921 19.4747 46.3499 16.1975Z" fill="#999999"/>
</svg>
