<svg width="48" height="48" viewBox="0 0 48 48" fill="none" xmlns="http://www.w3.org/2000/svg">
<path d="M0.00963211 48L3.25443 36.0768C1.11636 32.4116 -0.00693751 28.2432 3.22374e-05 24C3.22374e-05 10.7448 10.7448 0 24 0C37.2552 0 48 10.7448 48 24C48 37.2552 37.2552 48 24 48C19.7587 48.0068 15.592 46.8844 11.928 44.748L0.00963211 48ZM15.3384 12.7392C15.0285 12.7584 14.7256 12.8401 14.448 12.9792C14.1877 13.1266 13.95 13.3109 13.7424 13.5264C13.4544 13.7976 13.2912 14.0328 13.116 14.2608C12.229 15.4152 11.7519 16.8322 11.76 18.288C11.7648 19.464 12.072 20.6088 12.552 21.6792C13.5336 23.844 15.1488 26.136 17.2824 28.26C17.796 28.7712 18.2976 29.2848 18.8376 29.7624C21.4858 32.0939 24.6414 33.7753 28.0536 34.6728L29.4192 34.8816C29.8632 34.9056 30.3072 34.872 30.7536 34.8504C31.4526 34.8143 32.1351 34.625 32.7528 34.296C33.0671 34.1341 33.3738 33.9579 33.672 33.768C33.672 33.768 33.7752 33.7008 33.972 33.552C34.296 33.312 34.4952 33.1416 34.764 32.8608C34.9632 32.6544 35.136 32.412 35.268 32.136C35.4552 31.7448 35.6424 30.9984 35.7192 30.3768C35.7768 29.9016 35.76 29.6424 35.7528 29.4816C35.7432 29.2248 35.5296 28.9584 35.2968 28.8456L33.9 28.2192C33.9 28.2192 31.812 27.3096 30.5376 26.7288C30.4032 26.6702 30.2592 26.6369 30.1128 26.6304C29.9486 26.6135 29.7827 26.632 29.6262 26.6846C29.4697 26.7371 29.3263 26.8226 29.2056 26.9352V26.9304C29.1936 26.9304 29.0328 27.0672 27.2976 29.1696C27.198 29.3034 27.0608 29.4045 26.9035 29.4601C26.7462 29.5157 26.576 29.5232 26.4144 29.4816C26.258 29.4398 26.1048 29.3868 25.956 29.3232C25.6584 29.1984 25.5552 29.1504 25.3512 29.0616L25.3392 29.0568C23.9662 28.4573 22.695 27.6476 21.5712 26.6568C21.2688 26.3928 20.988 26.1048 20.7 25.8264C19.7558 24.9222 18.9329 23.8992 18.252 22.7832L18.1104 22.5552C18.0087 22.402 17.9265 22.2367 17.8656 22.0632C17.7744 21.7104 18.012 21.4272 18.012 21.4272C18.012 21.4272 18.5952 20.7888 18.8664 20.4432C19.0922 20.156 19.3029 19.8572 19.4976 19.548C19.7808 19.092 19.8696 18.624 19.7208 18.2616C19.0488 16.62 18.3528 14.9856 17.6376 13.3632C17.496 13.0416 17.076 12.8112 16.6944 12.7656C16.5648 12.7512 16.4352 12.7368 16.3056 12.7272C15.9833 12.7112 15.6603 12.7168 15.3384 12.7392Z" fill="#999999"/>
</svg>
