<svg width="680" height="670" viewBox="0 0 680 670" fill="none" xmlns="http://www.w3.org/2000/svg">
<path d="M217.395 36.2844C285.037 35.9858 429.101 35.5677 464.221 36.2844M193.205 37.6284C186.784 55.0988 171.613 97.4757 162.296 127.22M490.202 37.6284C496.622 55.0988 511.793 97.4757 521.111 127.22M359.032 305.841L348.085 316.788L340.584 309.288L342.014 307.859L348.024 313.869L357.542 304.351L359.032 305.841ZM52.9937 318.155L56.3607 314.799C57.6078 304.607 60.7753 283.105 63.469 278.631C63.469 294.291 61.9725 314.053 75.4408 328.222C88.9091 342.391 95.2692 348.357 104.248 356.56C113.227 364.763 152.884 393.847 155.128 395.338C147.945 401.602 142.907 406.151 141.286 407.643C139.415 406.027 134.178 402.273 128.192 400.185C120.709 397.575 104.248 393.101 100.507 391.982C96.7657 390.864 84.7938 387.881 72.4479 371.475C60.1019 355.068 54.4901 338.662 52.9937 318.155ZM632.653 318.155L629.286 314.799C628.039 304.607 624.872 283.105 622.178 278.631C622.178 294.291 623.675 314.053 610.206 328.222C596.738 342.391 590.378 348.357 581.399 356.56C572.42 364.763 532.763 393.847 530.519 395.338C537.702 401.602 542.74 406.151 544.361 407.643C546.232 406.027 551.469 402.273 557.455 400.185C564.938 397.575 581.399 393.101 585.14 391.982C588.881 390.864 600.853 387.881 613.199 371.475C625.545 355.068 631.157 338.662 632.653 318.155ZM110.333 283.856C122.008 297.682 153.326 329.882 185.199 348.078C244.742 350.219 314.793 351.051 342.375 351.2C369.958 351.051 440.008 350.219 499.552 348.078C531.425 329.882 562.743 297.682 574.418 283.856C570.916 274.936 566.538 257.543 564.786 249.961C559.532 251.448 544.384 255.313 525.821 258.881C507.257 262.449 395.789 266.314 342.375 267.801C288.962 266.314 177.494 262.449 158.93 258.881C140.367 255.313 125.218 251.448 119.964 249.961C118.213 257.543 113.835 274.936 110.333 283.856Z" stroke="white"/>
</svg>
