<svg width="280" height="200" viewBox="0 0 280 200" fill="none" xmlns="http://www.w3.org/2000/svg">
<path d="M128.375 162.255H50.0007V93.5623H128.375L128.375 162.255ZM53.3154 158.941H125.061V96.877H53.3154V158.941Z" fill="#262626"/>
<path d="M169.471 108.384H167.827V103.898C166.371 103.898 165.191 102.718 165.191 101.262C165.191 99.807 166.371 98.6269 167.827 98.6269V93.0271H155.399V108.384H153.754C148.068 108.384 143.442 113.01 143.442 118.695V162.793H179.783V118.695C179.783 113.01 175.158 108.384 169.471 108.384ZM176.469 159.478H146.758V118.695C146.758 114.837 149.896 111.698 153.754 111.698H169.472C173.33 111.698 176.469 114.836 176.469 118.695L176.469 159.478Z" fill="#262626"/>
<path fill-rule="evenodd" clip-rule="evenodd" d="M128.248 39L124.798 49.5855C124.585 50.2386 124.538 50.9356 124.662 51.6138C124.662 51.6139 124.662 51.6137 124.662 51.6138L125.183 54.4651C125.516 56.2818 125.517 58.1438 125.187 59.9611L124.66 62.8644C124.66 62.8646 124.66 62.8643 124.66 62.8644C124.537 63.5426 124.584 64.2381 124.799 64.8871L124.8 64.8916L128.179 75.2169C128.219 75.3406 128.336 75.4267 128.469 75.4267H177.474C177.605 75.4267 177.721 75.3435 177.763 75.2201L181.408 64.5292C181.408 64.5291 181.408 64.5293 181.408 64.5292C181.552 64.1043 181.586 63.6498 181.506 63.2092L180.85 59.6012C180.563 58.0217 180.564 56.4022 180.854 54.8222C180.854 54.8221 180.854 54.8223 180.854 54.8222L181.504 51.2675C181.585 50.8255 181.552 50.3707 181.408 49.947L177.69 39H128.248ZM124.486 37.6354C124.999 36.0644 126.463 35 128.118 35H177.818C179.456 35 180.909 36.0424 181.436 37.5909L185.195 48.6599C185.559 49.7305 185.642 50.876 185.439 51.9866L184.788 55.5426C184.586 56.6475 184.585 57.7807 184.786 58.886L185.442 62.4934C185.442 62.4935 185.442 62.4933 185.442 62.4934C185.644 63.6052 185.558 64.7501 185.194 65.8193L181.549 76.5108C180.955 78.2542 179.317 79.4267 177.474 79.4267H128.469C126.608 79.4267 124.956 78.2311 124.377 76.4602L121 66.1403C121 66.1394 120.999 66.1385 120.999 66.1376C120.575 64.8504 120.483 63.4795 120.724 62.15L121.252 59.246C121.252 59.246 121.252 59.246 121.252 59.246C121.495 57.9038 121.494 56.5279 121.249 55.1851C121.249 55.1851 121.249 55.1851 121.249 55.1851L120.727 52.3338C120.484 51.0037 120.575 49.6325 120.995 48.3449C120.995 48.3448 120.995 48.3451 120.995 48.3449C120.995 48.3447 120.995 48.3441 120.995 48.344L124.486 37.6354Z" fill="#262626"/>
<path fill-rule="evenodd" clip-rule="evenodd" d="M178.906 66.0374H127.534V62.0374H178.906V66.0374Z" fill="#262626"/>
<path fill-rule="evenodd" clip-rule="evenodd" d="M178.906 52.4443H127.534V48.4443H178.906V52.4443Z" fill="#262626"/>
<path d="M98.7306 77.274C98.7306 66.6737 90.1058 58.0488 79.5054 58.0488H77.848V93.3709L50 93.1859V162.13H79.1401C89.6557 162.13 98.4409 153.747 98.7233 143.444C98.728 143.264 98.7247 143.085 98.7247 142.905H98.73L98.7306 77.274ZM81.1627 61.449C89.1598 62.281 95.4159 69.0602 95.4159 77.274C95.4159 85.4879 89.1598 92.2671 81.1627 93.0991V61.449ZM81.1627 96.429C87.0854 95.9205 92.2471 92.7132 95.4159 88.0481V132.114C94.7881 131.193 94.0801 130.316 93.2852 129.5C90.0222 126.146 85.7668 124.139 81.1627 123.75V96.429ZM95.4106 143.354C95.1766 151.879 87.8783 158.815 79.1408 158.815H53.3153V96.5225L77.8487 96.6862V126.994H79.5061C83.8384 126.994 87.8889 128.705 90.9106 131.811C93.931 134.916 95.5293 139.015 95.4106 143.354Z" fill="#0049FF"/>
<path d="M178.457 97.3256C177.694 97.3256 177.007 96.7953 176.839 96.0197C176.645 95.1247 177.212 94.2423 178.107 94.0474L179.726 93.6954C180.624 93.5045 181.504 94.0693 181.698 94.9629C181.893 95.8579 181.325 96.7403 180.431 96.9352L178.811 97.2872C178.693 97.313 178.574 97.3256 178.457 97.3256Z" fill="#0049FF"/>
<path d="M186.761 95.5218C185.998 95.5218 185.311 94.9914 185.143 94.2158C184.948 93.3208 185.516 92.4384 186.41 92.2435L189.751 91.517C190.645 91.3293 191.529 91.8902 191.724 92.7845C191.918 93.6795 191.35 94.5618 190.456 94.7567L187.115 95.4833C186.996 95.5085 186.877 95.5218 186.761 95.5218ZM196.785 93.3434C196.022 93.3434 195.335 92.813 195.167 92.0367C194.973 91.1424 195.54 90.2594 196.435 90.0651L199.776 89.3392C200.67 89.1496 201.553 89.7124 201.748 90.6074C201.942 91.5017 201.375 92.3847 200.48 92.579L197.139 93.3049C197.019 93.3301 196.901 93.3434 196.785 93.3434ZM206.809 91.1656C206.046 91.1656 205.36 90.6353 205.191 89.8596C204.997 88.9646 205.564 88.0823 206.459 87.8874L209.8 87.1608C210.695 86.9699 211.578 87.5347 211.772 88.4283C211.967 89.3233 211.399 90.2057 210.505 90.4006L207.163 91.1272C207.044 91.1523 206.926 91.1656 206.809 91.1656ZM216.834 88.9865C216.071 88.9865 215.384 88.4562 215.216 87.6805C215.021 86.7856 215.589 85.9032 216.483 85.7083L219.824 84.9817C220.72 84.7941 221.602 85.3549 221.797 86.2493C221.991 87.1442 221.423 88.0266 220.529 88.2215L217.188 88.9481C217.068 88.9739 216.95 88.9865 216.834 88.9865Z" fill="#0049FF"/>
<path d="M226.857 86.8082C226.094 86.8082 225.407 86.2778 225.239 85.5022C225.045 84.6072 225.612 83.7249 226.506 83.53L228.126 83.1779C229.024 82.9863 229.903 83.5512 230.098 84.4455C230.292 85.3404 229.725 86.2228 228.831 86.4177L227.211 86.7697C227.092 86.7956 226.974 86.8082 226.857 86.8082Z" fill="#0049FF"/>
<path d="M180.08 106.348C179.963 106.348 179.845 106.335 179.726 106.31L178.107 105.958C177.212 105.763 176.645 104.88 176.839 103.985C177.035 103.092 177.917 102.529 178.811 102.718L180.431 103.07C181.325 103.265 181.893 104.147 181.698 105.042C181.529 105.818 180.843 106.348 180.08 106.348Z" fill="#0049FF"/>
<path d="M220.178 115.061C220.061 115.061 219.943 115.048 219.825 115.023L216.483 114.296C215.589 114.101 215.022 113.219 215.216 112.324C215.411 111.43 216.298 110.867 217.188 111.056L220.529 111.783C221.424 111.978 221.991 112.86 221.797 113.755C221.627 114.531 220.941 115.061 220.178 115.061ZM210.154 112.883C210.037 112.883 209.919 112.869 209.8 112.844L206.459 112.118C205.565 111.923 204.997 111.04 205.192 110.145C205.387 109.252 206.273 108.687 207.164 108.878L210.505 109.605C211.399 109.799 211.967 110.682 211.773 111.577C211.603 112.352 210.917 112.883 210.154 112.883ZM200.129 110.704C200.013 110.704 199.895 110.691 199.777 110.666L196.436 109.94C195.541 109.746 194.973 108.863 195.167 107.968C195.362 107.073 196.248 106.512 197.139 106.7L200.48 107.426C201.375 107.62 201.943 108.503 201.748 109.398C201.579 110.174 200.892 110.704 200.129 110.704ZM190.105 108.527C189.988 108.527 189.87 108.513 189.751 108.488L186.41 107.762C185.516 107.567 184.948 106.684 185.142 105.789C185.338 104.896 186.222 104.332 187.115 104.522L190.456 105.248C191.35 105.443 191.918 106.326 191.723 107.221C191.554 107.996 190.868 108.527 190.105 108.527Z" fill="#0049FF"/>
<path d="M228.48 116.866C228.363 116.866 228.245 116.852 228.126 116.827L226.507 116.475C225.612 116.28 225.045 115.398 225.239 114.503C225.435 113.609 226.317 113.047 227.211 113.235L228.831 113.587C229.725 113.782 230.293 114.665 230.098 115.56C229.929 116.335 229.243 116.866 228.48 116.866Z" fill="#0049FF"/>
<path d="M180.116 101.622H178.459C177.543 101.622 176.802 100.88 176.802 99.9644C176.802 99.0489 177.543 98.3071 178.459 98.3071H180.116C181.032 98.3071 181.774 99.0489 181.774 99.9644C181.774 100.88 181.032 101.622 180.116 101.622Z" fill="#0049FF"/>
<path d="M220.15 101.622H216.814C215.898 101.622 215.156 100.88 215.156 99.9643C215.156 99.0488 215.898 98.3069 216.814 98.3069H220.15C221.065 98.3069 221.807 99.0488 221.807 99.9643C221.807 100.88 221.065 101.622 220.15 101.622ZM210.141 101.622H206.805C205.89 101.622 205.148 100.88 205.148 99.9643C205.148 99.0488 205.89 98.3069 206.805 98.3069H210.141C211.057 98.3069 211.799 99.0488 211.799 99.9643C211.799 100.88 211.057 101.622 210.141 101.622ZM200.133 101.622H196.797C195.881 101.622 195.14 100.88 195.14 99.9643C195.14 99.0488 195.881 98.3069 196.797 98.3069H200.133C201.048 98.3069 201.79 99.0488 201.79 99.9643C201.79 100.88 201.048 101.622 200.133 101.622ZM190.125 101.622H186.789C185.874 101.622 185.132 100.88 185.132 99.9643C185.132 99.0488 185.874 98.3069 186.789 98.3069H190.125C191.041 98.3069 191.782 99.0488 191.782 99.9643C191.782 100.88 191.041 101.622 190.125 101.622Z" fill="#0049FF"/>
<path d="M228.479 101.622H226.821C225.906 101.622 225.164 100.88 225.164 99.9643C225.164 99.0488 225.906 98.3069 226.821 98.3069H228.479C229.394 98.3069 230.136 99.0488 230.136 99.9643C230.136 100.88 229.394 101.622 228.479 101.622Z" fill="#0049FF"/>
</svg>
