<svg width="280" height="200" viewBox="0 0 280 200" fill="none" xmlns="http://www.w3.org/2000/svg">
<path d="M211.047 164.419C207.438 164.419 204.513 161.61 204.513 158.145V134.797H217.581V158.145C217.581 161.61 214.656 164.419 211.047 164.419Z" fill="#0049FF"/>
<path d="M193.186 121.355C193.186 123.486 191.431 125.213 189.266 125.213C187.101 125.213 185.345 123.485 185.345 121.355C185.345 119.224 189.266 112.144 189.266 112.144C189.266 112.144 193.186 119.224 193.186 121.355Z" fill="#0049FF"/>
<path d="M210.958 166.315C206.524 166.315 202.916 162.707 202.916 158.273V128.242H205.804V158.273C205.804 161.115 208.116 163.427 210.958 163.427C213.8 163.427 216.112 161.115 216.112 158.273V128.242H219V158.273C219 162.707 215.393 166.315 210.958 166.315Z" fill="#262626"/>
<path d="M188.745 166.315C184.311 166.315 180.703 162.707 180.703 158.273V128.242H183.591V158.273C183.591 161.115 185.903 163.427 188.745 163.427C191.587 163.427 193.899 161.115 193.899 158.273V128.242H196.787V158.273C196.787 162.707 193.179 166.315 188.745 166.315Z" fill="#262626"/>
<path d="M196.671 86.0101C196.671 81.5517 192.953 77.9623 188.45 78.1748C184.594 78.3565 181.37 81.4327 181.022 85.2786C180.762 88.1534 182.054 90.7413 184.154 92.3035C186.221 93.8401 187.36 96.3282 187.36 98.904V106.046H190.261V98.9324C190.261 96.2603 191.587 93.8198 193.685 92.1647C195.503 90.7303 196.671 88.5075 196.671 86.0101Z" fill="#262626"/>
<path d="M182.132 57.8294C180.728 58.0678 179.388 58.4976 178.141 59.0983C179.323 57.7481 180.811 56.6661 182.524 55.9483C186.967 54.0868 192.07 55.0522 195.523 58.4099L197.542 56.3442C193.258 52.1757 186.923 50.9772 181.403 53.2888C178.432 54.5334 176.007 56.661 174.403 59.3476C173.607 56.2593 170.8 53.9674 167.459 53.9674C167.026 53.9674 166.603 54.0124 166.191 54.0862L133.316 38.5076C131.66 35.1689 128.217 32.8613 124.236 32.8613C119.307 32.8613 115.194 36.391 114.291 41.0477L66.7348 80.6596C66.2951 80.9816 65.8756 81.3278 65.4822 81.7035L65.3676 81.7993L65.3717 81.8039C63.0655 84.0566 61.6289 87.1916 61.6289 90.6573C61.6289 93.689 62.7288 96.4668 64.5466 98.6238L64.542 98.6266L112.877 166.161L176.338 166.151V163.266L144.938 163.271C144.651 160.019 143.407 157.038 141.488 154.609L141.497 154.601L141.268 154.33C141.251 154.309 141.233 154.289 141.216 154.269L89.1179 92.4617L124.902 53.047C125.766 52.9893 126.6 52.8254 127.391 52.5663L161.508 65.1214C162.799 67.0273 164.985 68.2829 167.46 68.2829C168.51 68.2829 169.506 68.051 170.406 67.6447C169.065 69.4433 168.156 71.5968 167.879 73.9788C167.037 81.2274 172.264 87.8091 179.533 88.6498L179.866 85.7837C174.182 85.1264 170.094 79.9799 170.753 74.3112C171.411 68.6424 176.568 64.5599 182.256 65.2218C187.94 65.879 192.028 71.0255 191.369 76.6943L194.243 77.0267C195.085 69.778 189.858 63.1964 182.589 62.3557C180.896 62.1612 179.239 62.2985 177.682 62.7111C179.129 61.6834 180.808 60.9806 182.618 60.6736C187.37 59.864 192.12 61.9633 194.716 66.0158L197.154 64.4618C193.929 59.4313 188.039 56.8283 182.132 57.8294ZM67.3134 83.9372L68.596 82.8691C70.1466 81.7826 72.031 81.1386 74.0658 81.1386C79.3285 81.1386 83.6099 85.4086 83.6099 90.6573C83.6099 92.7588 82.9151 94.6971 81.7539 96.2735L80.437 97.7242C78.7453 99.2429 76.5155 100.177 74.0653 100.177C68.8032 100.176 64.5218 95.9059 64.5218 90.6573C64.5218 88.037 65.5898 85.6602 67.3134 83.9372ZM115.147 163.276C115.871 156.515 121.623 151.232 128.59 151.232C132.727 151.232 136.434 153.097 138.917 156.025L139.066 156.202C140.681 158.174 141.747 160.608 142.034 163.272L115.147 163.276ZM96.3379 105.512L120.472 134.143L109.111 135.017L94.2134 115.901L96.3379 105.512ZM93.9623 102.694L91.1128 116.625L107.783 138.012L122.763 136.861L132.941 148.935C131.554 148.554 130.096 148.347 128.59 148.347C120.871 148.347 114.383 153.691 112.64 160.863L70.9826 102.66C71.9708 102.912 73.0001 103.061 74.0658 103.061C77.2873 103.061 80.2172 101.823 82.4285 99.8113L82.4377 99.8194L82.5205 99.7282C83.0441 99.2429 83.5237 98.7138 83.9571 98.146L87.1577 94.6203L93.9623 102.694ZM86.4819 91.0664C86.4866 90.9296 86.5028 90.7958 86.5028 90.6579C86.5028 83.8414 80.9595 78.2938 74.133 78.2575L114.28 44.8168C114.978 48.5612 117.747 51.5842 121.357 52.654L86.4819 91.0664ZM124.236 50.189C120.244 50.189 116.995 46.9495 116.995 42.9674C116.995 38.9854 120.244 35.7465 124.236 35.7465C128.229 35.7465 131.477 38.9859 131.477 42.968C131.477 46.9501 128.229 50.189 124.236 50.189ZM160.283 61.1243C160.283 61.2858 160.296 61.444 160.307 61.6032L130.728 50.7181C132.951 48.863 134.37 46.0782 134.37 42.9674C134.37 42.7026 134.35 42.4418 134.33 42.1821L162.813 55.6783C161.268 56.9922 160.283 58.9448 160.283 61.1243ZM167.46 65.3978C165.097 65.3978 163.175 63.4809 163.175 61.1249C163.175 58.7688 165.097 56.8519 167.46 56.8519C169.822 56.8519 171.744 58.7688 171.744 61.1249C171.744 63.4809 169.822 65.3978 167.46 65.3978Z" fill="#262626"/>
<path d="M73.8263 94.7194C76.2321 94.7194 78.1825 92.7691 78.1825 90.3632C78.1825 87.9573 76.2321 86.007 73.8263 86.007C71.4204 86.007 69.4701 87.9573 69.4701 90.3632C69.4701 92.7691 71.4204 94.7194 73.8263 94.7194Z" fill="#262626"/>
<path d="M124.358 46.8012C126.283 46.8012 127.843 45.0459 127.843 42.8806C127.843 40.7153 126.283 38.96 124.358 38.96C122.434 38.96 120.873 40.7153 120.873 42.8806C120.873 45.0459 122.434 46.8012 124.358 46.8012Z" fill="#262626"/>
</svg>
