<svg width="1760" height="210" viewBox="0 0 1760 210" fill="none" xmlns="http://www.w3.org/2000/svg">
<rect width="1760" height="210" fill="white"/>
<path d="M331.604 79.8182C328.02 78.584 329.551 85.709 330.904 89.1452C331.651 91.4127 333.676 95.4005 334.684 95.4566C335.944 95.5268 336.294 89.5659 336.014 87.6024C335.734 85.6388 336.084 81.361 331.604 79.8182Z" stroke="#999999" stroke-linecap="round" stroke-linejoin="round"/>
<path d="M126.991 55.4846V51.7678C128.811 49.5939 135.237 43.5629 146.381 36.8307C163.111 27.4337 170.111 25.4701 182.082 24.0676C191.658 22.9455 217.373 22.7585 229.034 22.8053L227.512 67.827L135.671 75.4007M234.092 62.848C234.069 64.0635 234.456 66.3824 236.192 65.9336C238.362 65.3725 240.252 61.3051 251.452 57.1676C262.652 53.0301 264.612 52.6094 265.872 52.3289C267.132 52.0483 258.102 35.2178 252.152 29.8881C247.392 25.6244 239.412 22.8053 234.678 22.8053L234.092 62.848Z" stroke="#999999" stroke-linecap="round" stroke-linejoin="round"/>
<path d="M96.3304 117.336C93.2504 117.336 92.2004 119.44 92.0604 120.492C92.4804 121.614 93.1104 122.526 96.6804 122.526M96.3304 117.336C99.4105 117.336 100.367 119.206 100.46 120.141C100.39 120.936 99.5365 122.526 96.6804 122.526M96.3304 117.336L252.712 106.887M96.6804 122.526L217.852 112.708M288.132 92.7916L293.033 92.2306C293.993 92.0739 295.72 92.5516 295.275 95.5967M285.122 104.292C285.962 104.199 288.006 103.928 289.462 103.591C291.632 102.9 293.176 101.547 294.193 99.3134M286.592 100.295C286.872 100.183 291.776 99.5939 294.193 99.3134M294.193 99.3134C294.62 98.3756 294.954 97.2823 295.203 96.0174C295.231 95.872 295.255 95.7318 295.275 95.5967M288.132 96.4382L295.275 95.5967M322.013 21.5422C318.373 21.7994 311.415 24.0528 312.703 31.0094C313.991 37.9661 326.4 61.9589 332.443 73.0858C329.847 71.27 325.336 67.9913 322.013 65.2585M303.253 15.7217C300.406 17.4047 295.217 22.1313 297.233 27.5732C299.753 34.3755 315.853 58.6396 318.233 61.7252C318.883 62.5687 320.288 63.8401 322.013 65.2585M322.013 65.2585C317.463 66.7689 308.797 71.557 310.533 78.6259C312.703 87.4619 318.793 100.155 326.003 111.445M326.003 111.445C331.155 109.201 334.776 107.238 335.943 106.537L326.003 111.445ZM326.003 111.445C322.62 113.316 315.125 118.472 312.213 124.138M332.443 76.1013C330.226 73.2494 324.435 68.6538 319.003 73.0858C312.213 78.6259 326.773 101.207 329.923 102.75C332.443 103.984 335.36 100.739 336.503 98.9628M14.2896 177.996V187.674C15.3396 187.3 17.5516 185.696 17.9996 182.274C18.4476 178.852 20.3796 177.575 21.2896 177.365M96.3304 178.627C96.6104 178.796 101.954 179.352 104.591 179.609M255.582 179.609H264.472M343.643 172.667H349.033V177.996H338.393M281.902 103.591C281.926 104.783 283.47 107.041 289.462 106.537C296.953 105.905 299.893 102.96 301.713 98.1914C303.533 93.4228 300.173 88.584 294.363 88.9346C288.552 89.2853 286.382 89.7761 284.632 93.563C283.232 96.5925 282.229 101.511 281.902 103.591Z" stroke="#999999" stroke-linecap="round" stroke-linejoin="round"/>
<path d="M24.3005 88.094C24.7905 87.9537 33.7506 84.6577 38.0207 87.2524C42.2907 89.8471 39.4207 94.6157 38.0207 97.0702C36.7761 99.2522 29.8332 107.475 25.7005 111.343M15.6904 115.163C17.4404 116.075 20.5905 115.514 24.3005 112.568C24.7123 112.241 25.1845 111.826 25.7005 111.343M25.7005 111.343C29.5272 115.094 37.9927 123.2 41.2407 125.612" stroke="#999999" stroke-linecap="round" stroke-linejoin="round"/>
<path d="M119.57 150.717L200.841 145.317C207.911 144.849 224.809 141.348 235.842 131.081C241.386 125.92 244.405 122.385 245.222 121.263" stroke="#999999" stroke-linecap="round" stroke-linejoin="round"/>
<path d="M30.8804 84.1668C40.9781 81.455 59.3814 76.9222 75.4708 73.9541M97.6611 71.053C94.4995 71.1513 90.6251 71.5506 86.321 72.1607M86.321 72.1607C100.998 59.2621 134.383 30.7578 150.512 19.9302M86.321 72.1607C82.9254 72.6421 79.2624 73.2546 75.4708 73.9541M75.4708 73.9541L63.6407 72.5256M75.4708 73.9541L78.9709 69.44" stroke="#999999" stroke-linecap="round" stroke-linejoin="round"/>
<path d="M107.111 80.3093C145.658 76.9899 223.704 70.3512 227.512 70.3512C233.182 70.3512 237.102 69.5097 241.232 72.0343C245.362 74.5589 247.042 75.751 251.452 76.1017C254.98 76.3822 270.329 76.2185 277.562 76.1017M107.111 80.3093C102.35 80.6599 92.5224 81.3472 91.2904 81.2911C89.7504 81.221 89.7504 79.3275 90.6604 77.925C91.3884 76.8029 95.4904 72.9693 97.4504 71.1927C100.569 68.5692 104.49 65.2789 108.651 61.8024M107.111 80.3093C107.367 74.8906 108.035 63.603 108.651 61.8024M107.111 80.3093C105.711 83.0209 102.756 90.8144 102.14 100.296C101.37 112.147 104.31 132.484 106.34 140.408C107.965 146.748 112.291 161.096 114.251 167.478M277.562 76.1017C274.856 66.9383 267.454 45.7646 259.502 34.3759C249.562 20.1401 234.792 19.5089 228.632 19.5089C222.472 19.5089 188.241 18.8076 171.511 22.314C154.781 25.8204 139.521 37.3213 137.281 38.4433C135.935 39.1175 121.207 51.3086 108.651 61.8024M277.562 76.1017C278.822 84.8676 279.452 87.4623 269.792 107.168C262.117 122.824 247.594 140.295 237.596 150.366M114.251 167.478C111.404 167.968 105.318 168.95 103.75 168.95M114.251 167.478L207.982 164.252C212.742 164.041 223.998 162.204 230.942 156.538C232.726 155.082 235.009 152.972 237.596 150.366M10.5795 176.314C9.80946 174.631 8.33944 169.203 8.61945 160.956C8.96945 150.647 13.3095 137.042 26.6097 127.575C39.9098 118.108 51.7399 116.986 60.56 117.617C69.3801 118.248 85.9003 122.526 95.4204 134.728C103.75 145.405 105.571 149.455 108.371 154.504M237.596 150.366L259.712 139.497C264.216 132.04 279.046 117.126 302.343 117.126C331.463 117.126 343.153 136.551 346.303 141.951C348.823 146.271 350.713 154.644 351.343 158.291H347.773" stroke="#999999" stroke-linecap="round" stroke-linejoin="round"/>
<path d="M104.311 170.282L255.303 167.477" stroke="#999999" stroke-linecap="round" stroke-linejoin="round"/>
<path d="M104.154 179.469H254.809H255.779V167.81C255.866 153.041 265.379 123.504 302.742 123.504C334.154 123.504 345.586 146.996 347.376 158.742C347.678 162.628 347.143 170.984 342.589 173.316C351.451 166.644 351.904 167.227 351.904 158.742C351.904 150.256 350.545 137.366 341.877 123.504C333.209 109.643 335.409 108.542 335.861 104.267C336.314 99.9915 337.931 90.5993 335.861 83.4093C333.791 76.2194 332.498 74.6001 331.786 69.9363C331.217 66.2054 323.959 40.3562 320.401 27.898C321.35 27.5093 323.299 26.3304 323.506 24.724C323.765 22.716 322.73 20.3194 319.69 19.3478C316.649 18.3762 285.794 9.76123 221.819 9.76123C176.797 9.76123 157.391 15.1159 153.316 17.7932L78.5379 69.4829C77.8048 68.5761 76.1315 66.8661 75.3035 67.2806C74.2686 67.7988 69.8052 70.325 66.7002 71.2318C63.5953 72.1387 34.3569 80.6888 24.0717 87.8788C15.8436 93.6307 14.2609 99.9483 14.4981 102.388L15.6624 104.008C15.5115 107.138 15.3778 113.84 16.0505 115.602C16.8915 117.804 8.22345 129.593 6.60629 135.617C5.45862 139.892 4.34225 141.123 4.01882 150.515V163.535C3.88945 165.694 4.36813 170.764 7.31784 173.769C10.2676 176.775 12.8161 177.742 13.7217 177.85V163.535C14.4117 150.062 24.0457 123.116 57.0618 123.116C90.0778 123.116 101.739 152.696 103.442 167.486L103.608 170.283L104.154 179.469Z" stroke="#999999" stroke-linecap="round" stroke-linejoin="round"/>
<ellipse cx="58.4608" cy="170.914" rx="37.8004" ry="37.8687" stroke="#999999" stroke-linecap="round" stroke-linejoin="round"/>
<ellipse cx="58.4607" cy="170.914" rx="28.8403" ry="28.8924" stroke="#999999" stroke-linecap="round" stroke-linejoin="round"/>
<ellipse cx="301.223" cy="170.914" rx="28.8403" ry="28.8924" stroke="#999999" stroke-linecap="round" stroke-linejoin="round"/>
<ellipse cx="301.223" cy="170.914" rx="37.8004" ry="37.8687" stroke="#999999" stroke-linecap="round" stroke-linejoin="round"/>
<path d="M115.161 69.0885C111.913 69.0885 110.727 71.2391 110.541 72.3144C110.541 76.8025 117.821 76.2415 127.551 76.4519C137.281 76.6623 137.631 73.4364 137.981 72.3144C138.331 71.1923 137.141 63.3381 136.231 60.1823C135.321 57.0266 132.871 53.7306 124.611 56.1149C116.351 58.4993 115.931 63.0575 115.161 69.0885Z" stroke="#999999" stroke-linecap="round" stroke-linejoin="round"/>
<path d="M253.063 60.8845C245.615 62.1749 243.706 66.4246 243.683 68.3882C243.683 71.614 248.373 73.1568 250.543 74.0684C252.713 74.9801 262.583 74.5593 267.343 74.4191C272.103 74.2788 273.503 71.8244 273.293 69.44C273.083 67.0557 271.333 62.5676 270.003 60.043C268.673 57.5184 262.373 59.2716 253.063 60.8845Z" stroke="#999999" stroke-linecap="round" stroke-linejoin="round"/>
<path d="M612.517 185.132C637.087 184.056 698.716 181.85 748.669 181.625C798.621 181.401 833.229 181.532 844.29 181.625M1024.61 146.281C1019.64 154.252 1008.23 171.345 1002.35 175.945M1009.35 175.314C1010.75 174.052 1017.75 167.6 1026.08 152.733M1017.4 139.9C1017.56 140.811 1017.44 143.069 1015.65 144.808C1010.4 147.333 990.381 148.806 989.961 148.806C990.194 148.502 991.165 147.417 993.181 145.51C995.197 143.602 1010.17 140.975 1017.4 139.9ZM1017.4 139.9L1020.55 139.198" stroke="#999999" stroke-linecap="round" stroke-linejoin="round"/>
<path d="M645.977 108.483L765.818 105.467M765.818 105.467C766.775 106.239 771.67 107.669 783.598 107.22C798.509 106.659 800.679 105.818 802.499 104.626M765.818 105.467C766.751 103.299 768.799 101.748 772.258 100.603M765.818 105.467L774.848 105.26M802.499 104.626C803.158 104.194 803.725 103.551 804.124 102.873M802.499 104.626L774.848 105.26M802.499 104.626C808.402 104.464 821.777 104.365 828.049 105.26C835.889 106.379 838.689 107.781 838.969 112.55C839.249 117.319 833.929 126.996 822.939 145.159C811.949 163.322 796.899 165.496 792.699 166.618C788.499 167.74 762.738 170.616 729.418 171.247C702.762 171.752 641.59 173.047 614.337 173.631C612.727 173.467 609.059 172.761 607.267 171.247M772.258 100.603C775.287 99.6 779.397 98.9082 784.788 98.3844C796.339 97.2624 803.059 99.226 804.249 99.9272C805.008 100.375 804.827 101.678 804.124 102.873M772.258 100.603C774.568 101.079 780.462 101.961 785.558 101.68C790.655 101.4 793.515 100.395 794.309 99.9272C797.241 99.7787 802.856 100.062 803.941 102.171M804.124 102.873C804.115 102.619 804.051 102.386 803.941 102.171M774.848 105.26C775.735 104.464 779.706 102.873 788.499 102.873C797.291 102.873 802.457 102.405 803.941 102.171M791.229 157.642C797.085 145.323 809.373 119.647 811.669 115.495C812.684 113.659 813.595 112.183 814.574 111.007M791.229 157.642C790.645 159.091 790.487 162.144 794.519 162.761C799.559 163.533 807.259 159.185 811.949 155.678C815.701 152.873 820.326 146.562 822.169 143.757C824.759 139.479 830.639 130.152 835.049 121.456C839.459 112.761 837.779 109.815 835.959 108.483C834.139 107.15 826.789 106.449 821.679 107.22C818.377 107.719 816.361 108.861 814.574 111.007M791.229 157.642C790.949 158.203 790.809 159.451 792.489 159.956C794.939 160.517 802.149 156.59 805.509 154.486C806.397 153.93 807.545 152.957 808.869 151.63M814.574 111.007C814.819 110.721 818.879 107.992 824.829 107.992C829.58 107.992 831.698 109.468 832.109 110.955M832.109 110.955C832.213 111.33 832.208 111.706 832.109 112.059C831.77 113.271 830.126 118.104 827.085 124.472M832.109 110.955C831.129 110.341 830.289 110.236 826.439 110.166C823.359 110.11 821.236 112.573 820.559 113.812L815.309 123.56C815.332 123.864 815.575 124.472 816.359 124.472C817.143 124.472 823.836 124.472 827.085 124.472M827.085 124.472C826.332 126.048 825.493 127.718 824.568 129.451M824.568 129.451C823.824 130.842 823.025 132.273 822.169 133.729C817.586 141.517 812.549 147.94 808.869 151.63M824.568 129.451H813.909C813.465 129.451 812.397 129.829 811.669 131.344C810.941 132.859 805.812 143.57 803.339 148.736C802.882 149.741 802.4 151.892 804.124 152.453C805.848 153.014 808.005 152.138 808.869 151.63" stroke="#999999" stroke-linecap="round" stroke-linejoin="round"/>
<path d="M682.588 82.325C680.768 82.3952 676.568 82.9562 675.518 84.2185C674.468 85.4808 672.438 89.1274 672.088 89.9689C671.738 90.8104 667.328 91.652 662.918 91.3715C661.671 91.2921 660.725 90.9943 660.019 90.6M682.588 82.325C684.408 82.2549 689.169 81.764 691.339 79.4498C692.342 78.3797 693.301 76.1999 693.564 73.8396M682.588 82.325C683.732 81.951 686.438 80.8523 688.119 79.4498C690.219 77.6967 688.819 76.9252 680.768 77.1356C672.718 77.346 667.048 78.468 664.528 79.4498C662.512 80.2353 660.682 87.2106 660.019 90.6M657.942 74.7513C658.065 73.2199 660.013 71.7767 661.728 69.7722C663.828 67.3178 672.088 64.0218 676.848 63.3907C681.608 62.7595 685.809 63.04 690.639 66.336C693.235 68.1079 693.869 71.0957 693.564 73.8396M657.942 74.7513C657.914 75.095 657.979 75.4432 658.158 75.8032C659.138 77.7667 660.468 78.9589 659.558 81.203C658.648 83.447 656.758 85.06 658.158 88.2157C658.234 88.8353 658.726 89.879 660.019 90.6M657.942 74.7513L693.564 73.8396" stroke="#999999" stroke-linecap="round" stroke-linejoin="round"/>
<path d="M588.786 84.8504C576.186 84.121 572.849 89.8294 572.756 92.7748C572.194 94.9488 576.186 102.452 587.386 102.452C601.176 102.242 603.486 93.4058 603.346 92.1436C603.206 90.8813 604.536 85.762 588.786 84.8504Z" stroke="#999999" stroke-linecap="round" stroke-linejoin="round"/>
<path d="M690.778 30.852C692.761 31.8571 696.77 34.3303 696.938 36.1816C697.148 38.4958 692.598 41.5113 690.778 42.5632C688.958 43.6151 648.218 69.2116 632.957 80.9229M632.957 80.9229C631.005 80.8339 628.016 80.6257 624.487 80.3492M632.957 80.9229L640.727 81.3408M624.487 80.3492C614.656 79.5789 600.63 78.2792 593.127 77.5568C595.134 76.5983 599.357 74.6254 600.197 74.401C601.037 74.1766 604.14 74.8218 605.587 75.1724C606.03 74.9153 607.169 74.5553 608.177 75.1724C609.437 75.9438 612.867 75.5932 617.207 76.9256C621.547 78.258 623.367 79.0041 624.487 80.3492ZM643.387 81.4839C653.234 74.2374 675.574 58.2016 686.158 52.0304C699.388 44.3164 701.348 42.7736 701.908 41.1607C702.468 39.5477 704.428 36.8128 700.998 33.1662C698.254 30.2489 695.281 29.8002 694.838 29.8704M643.387 81.4839C644.554 81.4839 646.135 81.4839 647.868 81.4839M643.387 81.4839L640.727 81.3408M659.348 81.4839C657.055 81.4839 652.024 81.4839 647.868 81.4839M647.868 81.4839L658.158 74.1908M671.248 64.7937C680.651 58.5758 701.404 45.2563 709.188 41.7219C709.188 38.0051 709.048 36.6026 707.088 34.4286M640.727 81.3408C634.381 84.8482 621.239 94.4856 619.447 104.977C617.207 118.09 617.697 134.57 618.187 146.422C618.579 155.903 620.777 166.361 621.827 170.405M621.827 170.405L738.448 167.39C745.962 167.226 763.635 165.637 774.219 160.588C787.449 154.276 800.679 128.75 801.659 126.366C802.639 123.981 809.499 109.325 810.479 104.696C810.721 103.552 810.998 102.194 811.239 100.699M621.827 170.405L600.617 171.107M802.709 77.2764C803.643 77.9543 805.817 79.5345 807.049 80.4321C808.589 81.5542 809.219 82.536 810.479 85.4112C812.376 90.321 811.973 96.1451 811.239 100.699M802.709 77.2764C811.203 76.9725 829.631 75.6915 835.4 72.9986M802.709 77.2764H794.309M811.239 100.699C823.376 100.091 850.044 99.0579 859.62 99.7873C871.59 100.699 885.31 105.818 889.09 107.221M782.269 77.2764H788.779M835.4 72.9986C835.4 74.6817 836.8 74.4713 837.71 74.4012C838.62 74.3311 859.41 72.0169 867.32 70.8247C869.062 70.5621 870.764 70.2757 872.36 69.9393M835.4 72.9986C835.82 71.0584 835.904 66.5469 832.879 64.0223M882.51 63.3211C882.346 66.9301 878.012 68.7483 872.36 69.9393M886.22 63.3211C887.55 64.7879 886.64 68.1651 872.36 69.9393M832.879 64.0223C831.339 60.2355 831.339 58.7628 830.219 57.1499M832.879 64.0223C829.609 65.1565 822.308 67.9461 814.469 71.5775M798.579 75.5232C799.559 75.4531 801.379 75.5232 807.399 75.0323C809.742 73.8201 812.13 72.6613 814.469 71.5775M798.579 75.5232C797.599 75.5933 795.219 74.6817 794.309 77.2764M798.579 75.5232C798.9 75.5069 804.251 73.9588 808.099 72.5412M794.309 77.2764H788.779M807.749 37.3038C807.749 37.0467 807.847 36.1257 811.039 41.5115C815.029 48.2437 816.289 63.4613 816.149 65.5651C816.009 67.669 814.049 69.7728 811.039 71.3156C810.33 71.6792 809.286 72.104 808.099 72.5412M812.369 33.2365C812.299 33.5871 815.519 41.792 817.339 54.2045C819.159 66.6171 817.829 66.9677 817.339 68.23C816.947 69.2398 815.263 70.8824 814.469 71.5775M800.539 43.475C802.336 46.2801 806.223 54.2045 807.399 63.4613C808.015 69.0715 808.123 71.8521 808.099 72.5412M789.409 44.4568C788.639 45.6724 787.141 50.053 787.309 57.8511C787.477 65.6493 787.846 68.3001 788.009 68.6507C788.522 70.4741 789.395 74.7518 788.779 77.2764" stroke="#999999" stroke-linecap="round" stroke-linejoin="round"/>
<path d="M486.236 187.656C486.516 189.199 487.132 192.72 487.356 194.459C492.284 193.337 494.776 192.636 495.406 192.425V184.992H498.836M584.587 184.992H593.057C593.804 184.851 595.577 184.879 596.697 186.114C596.697 188.133 599.777 189.012 601.317 189.199" stroke="#999999" stroke-linecap="round" stroke-linejoin="round"/>
<path d="M465.865 115.495C471.815 112.83 485.605 103.363 486.655 102.592C487.705 101.82 503.665 89.6883 493.095 90.2493C484.639 90.6981 468.478 100.067 461.455 104.696C460.708 105.233 457.745 107.374 451.865 111.638C445.985 115.902 443.955 119.492 443.675 120.755C445.285 122.648 459.915 118.16 465.865 115.495ZM465.865 115.495C466.005 115.776 468.105 117.88 471.185 117.88C471.877 117.88 473.949 117.88 476.785 117.88M503.245 117.88C496.3 117.88 484.042 117.88 476.785 117.88M476.785 117.88C478.862 120.007 483.939 124.261 487.635 124.261C491.331 124.261 495.242 124.261 496.735 124.261M481.755 119.913C482.432 120.661 484.555 122.143 487.635 122.087C490.715 122.031 493.445 122.064 494.425 122.087L496.175 119.913H481.755Z" stroke="#999999" stroke-linecap="round" stroke-linejoin="round"/>
<path d="M969.451 180.854L997.382 176.857L998.642 175.945L1007.95 174.052C1011.8 174.286 1019.74 173.842 1020.69 170.195C1021.88 165.637 1027.48 155.609 1028.04 153.855C1028.49 152.453 1027.02 151.868 1026.22 151.752C1026.46 151.354 1026.92 150.181 1026.92 148.666C1026.92 147.151 1025.38 146.445 1024.61 146.282C1024.92 145.604 1025.03 143.869 1023.07 142.354C1020.62 140.461 1020.62 138.427 1020.69 137.726C1020.76 137.025 1022.23 117.6 1021.67 110.867C1021.11 104.135 1012.57 99.9275 1011.1 97.5431C1009.63 95.1588 1011.52 94.1069 1013.55 92.1433C1015.58 90.1798 1017.19 86.8838 1014.81 85.6916C1012.43 84.4995 999.832 84.78 991.222 84.78C964.621 75.6634 955.381 75.453 932.841 69.7026C914.809 65.1022 891.4 63.2041 881.95 62.8301C881.6 62.386 880.158 61.3154 877.19 60.586C865.262 57.5004 840.767 56.9628 830.01 57.0797C827.933 52.2409 823.416 41.6517 821.96 38.005C820.14 33.4468 814.82 33.1663 811.74 32.9559C809.276 32.7876 807.866 34.6156 807.47 35.5506C807.236 35.3402 805.972 35.0457 802.78 35.5506C799.588 36.0555 799.49 38.6128 799.84 39.8284C800.446 41.488 801.478 44.569 800.75 43.6152C799.84 42.4231 797.18 42.3529 794.169 42.5633C791.761 42.7316 790.226 43.8957 789.759 44.4568C789.526 44.4801 788.457 44.583 786.049 44.8074C783.039 45.0879 782.409 47.1917 781.009 51.5396C779.609 55.8875 780.659 65.6352 781.639 68.7909C782.423 71.3155 782.479 75.0323 782.409 76.5751L691.478 79.6607C692.598 78.5153 694.586 75.2146 693.578 71.1753C692.57 67.1359 688.398 64.6301 686.438 63.882C689.775 61.638 697.428 56.4626 701.349 53.7136C705.269 50.9646 707.742 48.2203 708.489 47.1917C709.329 46.6073 711.093 45.0178 711.429 43.3347C712.829 44.1061 715.559 44.1061 717.239 42.9841C718.919 41.862 720.249 40.5296 721.509 38.8466C722.769 37.1635 721.089 35.4805 717.869 33.8675C714.649 32.2546 711.709 33.4468 707.859 34.2883C705.969 33.0961 703.099 30.9923 701.349 30.1508C699.598 29.3092 699.668 30.5715 698.478 30.1508C697.288 29.73 696.448 28.6781 690.638 30.9923C662.778 40.8101 608.738 71.4558 606.077 72.8583C603.417 74.2609 603.697 73.77 601.947 73.6998C600.547 73.6437 599.684 74.4245 599.427 74.8219C598.821 74.8452 596.949 75.2146 594.317 76.5049C584.293 75.8317 580.481 76.2244 579.827 76.5049C574.717 77.7672 561.067 80.5162 547.347 81.4138C530.197 82.5359 523.967 83.3073 502.546 87.585C481.126 91.8628 470.626 98.3846 459.706 105.467C427.786 118.581 415.885 131.415 414.905 132.467C413.925 133.518 413.855 134.64 413.785 137.446C413.715 140.251 414.205 143.897 414.625 145.931C415.045 147.965 415.185 148.876 414.625 149.227C413.505 149.732 413.365 150.746 413.435 151.191C413.669 153.785 414.191 159.606 414.415 162.13C414.695 164.234 415.862 164.398 416.585 164.585L420.366 165.637C419.339 166.104 417.65 167.18 414.905 168.302C411.475 169.704 411.965 170.966 411.895 171.878C411.825 172.79 413.085 172.72 412.525 174.964C412.077 176.759 413.225 177.582 413.855 177.769C418.452 179.218 430.306 182.565 440.946 184.361C451.586 186.156 475.573 187.961 486.236 188.638C482.736 169.985 483.716 159.536 484.976 150.98C486.236 142.425 490.366 130.293 500.866 119.703C511.366 109.114 528.727 103.223 541.047 103.223C553.367 103.223 563.447 106.239 573.387 112.41C583.327 118.581 591.657 131.415 596.907 148.456C601.107 162.088 601.364 181.018 600.967 188.779H622.598L853.95 187.306M969.451 180.854C970.175 178.587 971.649 171.682 971.761 162.201C971.901 150.349 967.981 126.997 950.621 114.654C933.261 102.312 918.141 101.821 913.871 101.821C909.601 101.821 894.971 101.4 877.89 112.901C860.81 124.402 855.63 144.248 854.86 151.261C854.244 156.871 853.997 177.629 853.95 187.306M969.451 180.854L962.5 184.767V181.723L959.841 177.919M853.95 187.306H862.243C865.661 185.527 865.661 184.767 868.699 181.723" stroke="#999999" stroke-linecap="round" stroke-linejoin="round"/>
<path d="M937.67 107.501L966.091 100.278M966.091 100.278C968.471 101.891 975.275 104.99 983.451 104.486C993.671 103.854 1006.34 102.662 1008.09 101.47C1009.49 100.516 1008.67 96.6781 1008.09 94.8781C1007.51 93.8496 1005.39 91.3577 1001.58 89.6186C1001.18 89.4361 1000.77 89.2484 1000.35 89.0576M966.091 100.278C964.224 99.039 960.211 96.2246 959.091 94.8781C957.691 93.1951 956.291 90.951 960.771 89.0576C965.251 87.1641 977.291 81.4137 984.081 82.7461C986.993 83.3071 989.821 84.3356 990.871 84.7798C992.646 85.5749 996.773 87.4299 1000.35 89.0576M1000.35 89.0576C1001.02 88.8472 1003.5 88.3001 1008.09 87.7952C1012.68 87.2903 1015.18 86.7433 1015.86 86.5329M967.001 93.756L968.821 95.5793C976.474 95.3222 992.621 94.2469 1001.02 93.756C1000.74 92.9706 1000.46 92.26 1000.35 92.0028C992.145 92.5872 973.989 93.756 967.001 93.756ZM970.291 96.7715C970.571 96.9398 971.387 97.7767 971.761 98.1741C980.418 97.613 998.501 96.7154 1001.58 96.491C1001.58 95.5793 1001.3 94.8781 1001.3 94.8781C1001.3 94.8781 977.179 96.475 970.291 96.7715Z" stroke="#999999" stroke-linecap="round" stroke-linejoin="round"/>
<ellipse cx="541.326" cy="158.904" rx="41.2304" ry="41.305" stroke="#999999" stroke-linecap="round" stroke-linejoin="round"/>
<ellipse cx="913.17" cy="158.904" rx="41.2304" ry="41.305" stroke="#999999" stroke-linecap="round" stroke-linejoin="round"/>
<ellipse cx="541.396" cy="158.834" rx="49.9805" ry="50.0709" stroke="#999999" stroke-linecap="round" stroke-linejoin="round"/>
<ellipse cx="913.241" cy="158.834" rx="49.9805" ry="50.0709" stroke="#999999" stroke-linecap="round" stroke-linejoin="round"/>
<path d="M413.786 139.128C415.077 139.236 416.804 139.381 418.686 139.541M412.456 171.317C419.316 172.579 440.596 173.561 444.866 173.491C446.928 173.457 447.632 172.262 447.737 170.966M412.456 173C417.706 173.982 429.172 176.086 433.036 176.647C437.866 177.348 440.036 177.979 442.836 180.714C445.076 182.902 446.803 184.758 447.386 185.412M419.946 165.216C420.115 165.255 420.931 165.316 422.186 165.388M446.344 165.987C444.433 161.22 441.568 154.021 440.176 150.349C439.984 149.842 439.786 149.351 439.582 148.876M446.344 165.987C446.739 166.974 447.094 167.856 447.386 168.582C447.617 169.221 447.806 170.116 447.737 170.966M446.344 165.987C444.588 166.07 441.645 166.055 438.345 165.987M415.046 146.562C416.309 146.778 418.274 147.073 420.716 147.381M439.582 148.876C439.229 148.054 438.856 147.28 438.464 146.562M439.582 148.876C433.91 148.724 428.29 148.247 423.726 147.739M438.464 146.562C436.603 143.158 434.279 140.987 431.286 140.671C429.009 140.431 423.368 139.939 418.686 139.541M438.464 146.562C425.901 145.791 419.946 144.809 419.526 144.668C419.269 143.634 418.742 141.161 418.686 139.541M420.716 147.381C422.046 151.783 425.028 160.826 426.316 161.78C426.944 162.245 428.819 162.629 430.936 162.922M420.716 147.381C421.653 147.5 422.661 147.62 423.726 147.739M437.236 163.533C435.646 163.437 433.158 163.23 430.936 162.922M433.036 148.876C432.592 149.694 431.972 151.864 433.036 153.995C434.1 156.127 437.019 162.878 438.345 165.987M438.345 165.987C434.548 165.909 430.279 165.761 426.806 165.612M423.726 147.739C425.429 152.362 429.256 161.872 430.936 162.922M426.806 165.612C427.016 165.621 429.046 167.67 430.166 169.774M426.806 165.612C424.986 165.534 423.386 165.456 422.186 165.388M430.166 169.774C432.71 170.055 439.785 170.686 447.737 170.966M430.166 169.774C428.439 169.564 424.79 169.087 424.006 168.862C423.054 167.067 422.396 165.798 422.186 165.388" stroke="#999999" stroke-linecap="round" stroke-linejoin="round"/>
<path d="M1100.74 149.813C1100.88 150.234 1101.51 153.109 1101.51 155.213C1101.51 157.317 1101.44 158.579 1103.54 158.579C1105.22 158.579 1110.12 157.55 1112.36 157.036" stroke="#999999" stroke-linecap="round" stroke-linejoin="round"/>
<path d="M1086.74 133.473L1145.26 131.164M1154.29 130.808L1145.26 131.164M1145.26 131.164C1144.75 132.238 1143.29 134.861 1141.55 136.769C1139.38 139.153 1137.98 139.013 1135.6 139.223C1133.7 139.392 1102.23 140.041 1086.74 140.345M1096.05 123.164C1096.18 123.164 1098.2 123.114 1101.3 123.036M1098.22 117.133C1098.99 114.468 1102.91 110.05 1104.31 108.016C1105.43 106.39 1106.83 105.796 1107.39 105.702C1109.2 105.718 1111.64 105.735 1114.18 105.747M1101.3 123.036C1109 122.84 1123.34 122.469 1131.68 122.252C1132.71 122.089 1135.08 121.369 1136.37 119.798C1137.98 117.834 1138.05 116.782 1136.37 114.258C1135.03 112.238 1131.75 108.741 1130.28 107.245C1129.72 106.684 1128.15 105.59 1126.36 105.702C1125.15 105.778 1119.46 105.773 1114.18 105.747M1101.3 123.036C1102.93 118.62 1107.8 108.981 1114.18 105.747M1112.36 110.681H1128.67C1129.49 110.751 1131.46 111.326 1132.8 113.066C1134.14 114.805 1134.95 116.034 1135.18 116.432C1135.23 116.759 1134.82 117.428 1132.8 117.484C1130.78 117.54 1121.65 117.507 1117.33 117.484H1107.39C1107.51 116.362 1108.66 113.43 1112.36 110.681Z" stroke="#999999" stroke-linecap="round" stroke-linejoin="round"/>
<ellipse cx="1594.39" cy="161.735" rx="47.1805" ry="47.2658" stroke="#999999" stroke-linecap="round" stroke-linejoin="round"/>
<ellipse cx="1197.76" cy="161.735" rx="47.1805" ry="47.2658" stroke="#999999" stroke-linecap="round" stroke-linejoin="round"/>
<ellipse cx="1197.76" cy="161.734" rx="31.6403" ry="31.6975" stroke="#999999" stroke-linecap="round" stroke-linejoin="round"/>
<ellipse cx="1594.39" cy="161.734" rx="31.6403" ry="31.6975" stroke="#999999" stroke-linecap="round" stroke-linejoin="round"/>
<path d="M1144.21 175.339V167.765C1144.21 156.826 1145.93 146.166 1152.79 133.333C1159.65 120.499 1172.93 114.208 1177.18 112.575C1183.02 110.331 1197.4 106.083 1215.68 111.523C1234.3 117.063 1246.76 135.226 1249.14 146.166C1251.52 157.106 1252.29 170.64 1252.92 178.705C1253.43 185.157 1255.84 187.938 1256.98 188.523C1259.57 186.98 1264.81 183.558 1265.03 182.211C1265.26 180.865 1267.64 180.482 1268.81 180.458C1339.16 179.243 1485.46 176.657 1507.86 176.04C1535.86 175.269 1535.23 176.671 1537.75 176.812C1540.27 176.952 1540.41 173.165 1539.64 170.5C1538.87 167.835 1540.06 156.054 1540.41 152.127C1540.76 148.2 1542.44 135.577 1555.39 121.972C1568.34 108.367 1587.24 107.245 1592.91 107.245C1598.58 107.245 1614.75 108.157 1628.13 118.466C1641.5 128.774 1647.24 141.538 1648.36 152.127C1649.48 162.716 1651.23 172.464 1652.07 178.845C1652.74 183.951 1654.96 183.03 1655.99 181.931C1657.78 179.43 1661.56 174.217 1662.29 173.375C1663.2 172.323 1662.15 170.781 1661.38 170.009C1660.61 169.238 1661.03 167.905 1662.71 166.994C1664.39 166.082 1678.6 164.329 1685.74 163.347C1692.88 162.365 1716.68 161.033 1718.92 160.191C1721.16 159.35 1729.84 157.456 1735.58 156.334C1741.32 155.212 1747.2 151.215 1747.97 150.093C1748.74 148.971 1748.32 147.989 1747.2 146.797C1746.08 145.605 1745.38 144.132 1745.17 143.221C1744.96 142.309 1746.78 139.925 1749.37 137.4C1751.44 135.38 1752 133.239 1752.03 132.421C1752.14 131.182 1752.31 128.143 1752.03 125.899C1751.68 123.094 1753.08 120.289 1753.43 120.009C1753.71 119.784 1753.92 118.653 1753.99 118.115C1754.03 117.671 1753.99 116.642 1753.43 116.081C1752.73 115.38 1752.52 114.749 1752.38 112.645C1752.26 110.962 1750.93 110.167 1750.28 109.98C1749.27 109.653 1746.76 108.802 1744.75 108.017C1742.73 107.231 1742.88 105.399 1743.21 104.58C1743.67 101.986 1744.63 95.7164 1744.75 91.3966C1744.89 85.9968 1744.26 84.6643 1742.37 81.5086C1740.48 78.3529 1737.96 70.709 1736.56 66.291C1735.16 61.873 1735.16 60.7509 1725.85 59.4886C1718.4 58.4788 1673.28 56.1225 1651.65 55.0706C1642.13 50.1617 1616.29 37.9736 1589.13 28.4924C1555.18 16.6409 1548.81 13.8358 1538.8 12.3631C1503.1 7.59449 1432.33 8.78666 1408.46 10.5398C1384.59 12.293 1376.96 12.3631 1358.13 21.4096C1339.3 30.456 1276.86 66.4313 1273.15 68.5351C1269.44 70.6389 1266.92 71.4806 1261.88 70.8494C1256.84 70.2183 1256.84 69.0261 1194.33 78.353C1118.81 90.8685 1104.19 102.826 1101.46 105.052L1101.44 105.072C1099.31 106.811 1099.57 107.806 1099.97 108.087C1100.16 108.321 1100.24 109.461 1099.06 112.154C1097.88 114.847 1096.28 121.084 1095.63 123.866C1095 124.45 1093.03 126.012 1090.17 127.582C1087.31 129.153 1086.55 130.995 1086.53 131.72C1086.27 133.683 1085.8 138.073 1085.97 139.925C1086.18 142.239 1086.74 143.571 1087.58 145.465C1088.42 147.358 1089.89 153.6 1089.47 159.07C1089.05 164.539 1090.1 164.96 1090.87 166.713C1091.64 168.467 1092.48 171.763 1096.54 172.253C1099.79 172.646 1129.67 174.474 1144.21 175.339Z" stroke="#999999" stroke-linecap="round" stroke-linejoin="round"/>
<path d="M1267.13 70.92C1269.49 71.8083 1276.16 72.575 1284 68.5357C1293.8 63.4865 1359.46 25.197 1365.9 21.4102C1361.98 21.4102 1359.23 21.4102 1358.34 21.4102" stroke="#999999" stroke-linecap="round" stroke-linejoin="round"/>
<path d="M1319 73.0931L1297.44 73.8645C1296.6 73.8946 1297.09 73.3628 1297.44 73.0931C1298.63 72.2516 1301.54 70.2599 1303.67 69.0257C1306.33 67.4829 1311.79 63.4155 1311.93 61.8026C1312.07 60.1896 1313.96 58.4365 1315.99 56.6132C1318.02 54.7899 1321.8 52.4757 1324.6 52.6159C1326.84 52.7281 1327.59 54.299 1327.68 55.0704C1327.75 56.4496 1327.85 59.8391 1327.68 62.3636C1327.47 65.5194 1328.31 68.044 1325.65 69.9374C1323.52 71.4521 1320.33 72.6724 1319 73.0931Z" stroke="#999999" stroke-linecap="round" stroke-linejoin="round"/>
<path d="M1091.01 167.134H1144.21" stroke="#999999" stroke-linecap="round" stroke-linejoin="round"/>
<path d="M1110.61 149.603H1090.87C1091.85 152.197 1092.13 154.652 1092.13 155.703V160.472C1094.3 160.542 1099.62 160.64 1103.54 160.472C1107.46 160.304 1109.89 159.046 1110.61 158.438C1112.62 156.966 1116.5 153.572 1116 151.776C1115.5 149.981 1112.2 149.579 1110.61 149.603Z" stroke="#999999" stroke-linecap="round" stroke-linejoin="round"/>
<path d="M1251.45 164.118L1284.63 163.448M1438.91 160.331C1437.37 151.659 1434.25 132.954 1434.08 127.512C1433.87 120.709 1434.01 86.9081 1435.83 79.6148C1437.29 73.7803 1438.49 70.3113 1438.91 69.3061M1438.91 160.331L1284.63 163.448M1438.91 160.331H1534.67M1540.2 160.331H1534.67M1438.91 69.3061L1446.96 17.1314M1438.91 69.3061L1287.37 76.5994M1438.91 69.3061L1572.61 62.9946C1573.73 62.9479 1575.88 62.5318 1575.48 61.2415M1446.96 17.1314C1445.82 17.1404 1444.58 17.1525 1443.25 17.168M1446.96 17.1314C1448.14 17.1295 1449.43 17.1285 1450.81 17.1288M1324.67 52.5457C1326.94 50.9562 1334.95 45.6312 1348.89 37.0476C1372.62 23.3026 1380.39 21.5494 1391.45 19.5157C1399.62 18.0142 1427.38 17.3529 1443.25 17.168M1311.79 61.2415L1294.22 73.8644H1297.09M1319.49 73.0229L1434.5 67.4127L1443.25 17.168M1450.81 17.1288C1466.19 17.1319 1493.01 17.2852 1502.05 17.9028C1514.37 18.7443 1524.24 25.8973 1535.16 34.3827C1543.9 41.171 1557.84 54.0417 1563.72 59.6285C1564.35 60.0493 1564.86 60.9609 1561.83 61.2415C1558.81 61.522 1482.13 64.9114 1444.16 66.5711L1450.81 17.1288ZM1575.48 61.2415C1574.99 59.6285 1570.86 56.1222 1567.71 52.8963C1564.56 49.6704 1537.82 28.3517 1524.03 21.4091C1510.24 14.4665 1498.9 15.5184 1489.59 15.2379C1480.28 14.9574 1427.64 14.8171 1406.78 16.36C1385.92 17.9028 1378.5 19.3755 1361 28.2115C1347 35.2804 1309.44 60.3298 1292.4 71.971C1291.16 72.938 1289.16 74.6715 1287.37 76.5994M1575.48 61.2415C1576.63 61.2648 1579.39 63.4716 1581.29 72.1112C1583.67 82.9108 1584.65 90.695 1583.81 96.5155C1582.97 102.336 1574.78 105.211 1569.74 107.245C1564.7 109.279 1547.41 116.923 1541.04 132.491C1534.67 148.059 1534.67 152.898 1534.67 160.331M1284.63 163.448C1282.95 159.09 1279.42 149.153 1278.75 144.272C1277.91 138.171 1276.44 116.221 1277.49 104.72C1278.54 93.2196 1282.25 85.9263 1283.86 81.6486C1284.46 80.0649 1285.84 78.26 1287.37 76.5994M1251.45 132.491C1251.29 130.878 1252.04 127.652 1256.35 127.652C1260.66 127.652 1447.94 123.024 1541.04 120.709C1542.21 120.616 1544.4 120.948 1543.84 123.024C1543.28 125.099 1541.18 126.881 1540.2 127.512C1539.76 127.886 1538.03 128.634 1534.67 128.634C1531.31 128.634 1347.73 132.608 1256.35 134.595C1254.95 134.712 1252.01 134.454 1251.45 132.491Z" stroke="#999999" stroke-linecap="round" stroke-linejoin="round"/>
<path d="M1402.58 87.3991C1399.56 87.6796 1399.13 91.5366 1399.29 93.4301C1399.46 97.0205 1401.18 97.9182 1402.02 97.9183C1408.37 97.8481 1421.37 97.6798 1422.6 97.5676C1424.14 97.4274 1426.24 97.4273 1426.1 92.1678C1425.99 87.9601 1424.28 87.0017 1423.44 87.0485C1417.75 87.0485 1405.61 87.1186 1402.58 87.3991Z" stroke="#999999" stroke-linecap="round" stroke-linejoin="round"/>
<path d="M1550.52 81.8605C1547.5 82.1411 1547.07 85.9981 1547.23 87.8915C1547.4 91.482 1549.12 92.3797 1549.96 92.3797C1556.31 92.3096 1569.31 92.1412 1570.54 92.029C1572.08 91.8888 1574.18 91.8887 1574.04 86.6292C1573.93 82.4216 1572.22 81.4632 1571.38 81.5099C1565.69 81.5099 1553.55 81.58 1550.52 81.8605Z" stroke="#999999" stroke-linecap="round" stroke-linejoin="round"/>
<ellipse cx="1423.02" cy="93.0103" rx="1.26001" ry="1.26229" stroke="#999999" stroke-linecap="round" stroke-linejoin="round"/>
<path d="M1752.45 115.029C1742.7 115.703 1711.8 116.759 1697.57 117.203C1681.09 117.624 1647.49 118.522 1644.86 118.746C1642.22 118.971 1643.76 121.084 1644.86 122.112C1645.58 123.211 1647.7 125.408 1650.39 125.408C1653.07 125.408 1691.41 124.053 1710.24 123.375L1752.45 120.64M1721.37 100.162C1722.02 107.105 1723.2 123.739 1722.7 134.735C1722.07 148.48 1722.42 153.599 1721.37 155.493C1720.53 157.008 1717.33 159.677 1715.84 160.823C1686.16 161.945 1680.35 160.823 1679.23 158.789C1678.33 157.162 1659.21 158.111 1649.76 158.789C1650.39 158.744 1655.92 154.792 1703.24 152.267C1741.09 150.247 1749.62 149.649 1749.16 149.602M1721.37 100.162H1744.26M1721.37 100.162L1712.06 86.4175C1710.8 84.4306 1709.03 80.3725 1712.06 80.0359C1715.08 79.6993 1733.01 79.4749 1741.6 79.4048M1744.26 92.6588C1738.14 92.729 1725.26 92.8973 1722.63 93.0095C1719.99 93.1217 1719.06 92.4952 1718.92 92.168L1715.84 87.1889C1715.63 86.698 1715.74 85.7303 1717.87 85.7864C1719.99 85.8425 1736.02 85.2955 1743.77 85.015" stroke="#999999" stroke-linecap="round" stroke-linejoin="round"/>
<rect x="1609.64" y="72.3921" width="21.1402" height="20.0564" stroke="#999999" stroke-linecap="round" stroke-linejoin="round"/>
<path d="M1555.25 16.8512C1554.51 16.7343 1551.98 16.5707 1547.83 16.8512C1543.69 17.1317 1544.71 19.3991 1545.73 20.4978L1613.77 53.668C1615.55 54.8836 1621.5 57.2445 1631.13 56.964C1640.77 56.6835 1649.75 56.0991 1653.04 55.842" stroke="#999999" stroke-linecap="round" stroke-linejoin="round"/>
<path d="M1147.22 93.3597L1136.02 95.7441L1137.91 93.3597L1144.07 91.4663L1147.22 93.3597Z" stroke="#999999" stroke-linecap="round" stroke-linejoin="round"/>
</svg>
