<svg viewBox="0 0 64 64" fill="none" xmlns="http://www.w3.org/2000/svg">
<path d="M16.125 57.8343C16.0937 55.5426 15.925 50.5843 15.5 49.0843C14.9687 47.2093 13.9687 43.0531 10.8437 39.8656C8.34378 37.3156 3.51044 32.7197 1.40628 30.7406C0.812525 30.126 0.0125254 28.5468 1.56253 27.1468C3.50003 25.3968 5.37503 26.4281 6.46878 27.1468C7.34378 27.7218 12.0312 30.9297 13.5 31.3359C14.9688 31.7422 17.6562 32.0547 17.6562 32.0547M11.6875 28.7422L10.5 8.11719C10.5 6.69333 11.6543 5.53907 13.0781 5.53907C14.502 5.53907 15.6562 6.69333 15.6562 8.11719L17.375 24.1641C17.375 24.5351 17.6758 24.8359 18.0469 24.8359C18.4179 24.8359 18.7188 24.5351 18.7188 24.1641L17.3754 3.67701M17.3754 3.67701C17.3751 3.6935 17.375 3.71001 17.375 3.72657M17.3754 3.67701C17.4019 2.13794 18.6577 0.898438 20.2031 0.898438C21.7651 0.898438 23.0312 2.16463 23.0312 3.72657L24.7656 23.9766C24.7656 24.3476 25.0664 24.6485 25.4375 24.6485C25.8086 24.6485 26.1094 24.3476 26.1094 23.9766L25.1406 7.03125C25.1406 5.49521 26.1136 4.28941 27.6496 4.28941C29.1857 4.28941 30.4277 5.49521 30.4277 7.03125L31.4902 24.2735C31.4902 24.6445 31.7911 24.9453 32.1621 24.9453C32.5332 24.9453 32.834 24.6445 32.834 24.2735L32.7246 10.6953C32.7246 9.47425 33.8102 8.33594 35.0312 8.33594C36.2523 8.33594 37.4219 9.47425 37.4219 10.6953L37.9688 38.9297C37.9375 40.2943 37.575 43.7422 36.375 46.6172C34.875 50.2109 35.5 49.3359 35.9375 56.1485" stroke="#262626" stroke-width="1.25"/>
<path d="M3.6959 29.4286C3.97127 29.4079 4.17777 29.168 4.15713 28.8926C4.13649 28.6172 3.89653 28.4107 3.62116 28.4314C3.34579 28.452 3.13929 28.692 3.15993 28.9674C3.18057 29.2427 3.42053 29.4492 3.6959 29.4286Z" fill="#0049FF"/>
<path d="M5.67045 29.2801C5.94582 29.2595 6.15232 29.0195 6.13168 28.7442C6.11104 28.4688 5.87108 28.2623 5.59571 28.2829C5.32034 28.3036 5.11384 28.5435 5.13448 28.8189C5.15512 29.0943 5.39508 29.3008 5.67045 29.2801Z" fill="#0049FF"/>
<path d="M5.81846 31.2528C6.09383 31.2322 6.30033 30.9922 6.27969 30.7168C6.25905 30.4415 6.01909 30.235 5.74372 30.2556C5.46835 30.2762 5.26185 30.5162 5.28249 30.7916C5.30313 31.0669 5.54309 31.2734 5.81846 31.2528Z" fill="#0049FF"/>
<path d="M7.79307 31.1044C8.06844 31.0837 8.27494 30.8438 8.2543 30.5684C8.23366 30.293 7.9937 30.0865 7.71833 30.1072C7.44296 30.1278 7.23646 30.3678 7.2571 30.6431C7.27774 30.9185 7.5177 31.125 7.79307 31.1044Z" fill="#0049FF"/>
<path d="M7.94108 33.0809C8.21645 33.0603 8.42295 32.8203 8.40231 32.545C8.38167 32.2696 8.14171 32.0631 7.86634 32.0837C7.59097 32.1044 7.38447 32.3443 7.40511 32.6197C7.42575 32.8951 7.66571 33.1016 7.94108 33.0809Z" fill="#0049FF"/>
<path d="M9.91569 32.9325C10.1911 32.9118 10.3976 32.6719 10.3769 32.3965C10.3563 32.1211 10.1163 31.9146 9.84095 31.9353C9.56558 31.9559 9.35908 32.1959 9.37972 32.4713C9.40036 32.7466 9.64032 32.9531 9.91569 32.9325Z" fill="#0049FF"/>
<path d="M10.0637 34.9051C10.3391 34.8845 10.5456 34.6445 10.5249 34.3692C10.5043 34.0938 10.2643 33.8873 9.98896 33.9079C9.71359 33.9286 9.50709 34.1685 9.52773 34.4439C9.54837 34.7193 9.78833 34.9258 10.0637 34.9051Z" fill="#0049FF"/>
<path d="M12.0382 34.7567C12.3136 34.7361 12.5201 34.4961 12.4995 34.2207C12.4788 33.9454 12.2389 33.7389 11.9635 33.7595C11.6881 33.7801 11.4816 34.0201 11.5023 34.2955C11.5229 34.5708 11.7629 34.7773 12.0382 34.7567Z" fill="#0049FF"/>
<path d="M12.1863 36.7333C12.4616 36.7126 12.6681 36.4727 12.6475 36.1973C12.6268 35.9219 12.3869 35.7154 12.1115 35.7361C11.8361 35.7567 11.6296 35.9967 11.6503 36.272C11.6709 36.5474 11.9109 36.7539 12.1863 36.7333Z" fill="#0049FF"/>
<path d="M12.0888 8.9403C12.3642 8.91966 12.5707 8.6797 12.55 8.40433C12.5294 8.12896 12.2894 7.92246 12.014 7.9431C11.7387 7.96374 11.5322 8.2037 11.5528 8.47907C11.5735 8.75444 11.8134 8.96094 12.0888 8.9403Z" fill="#0049FF"/>
<path d="M12.2368 10.913C12.5122 10.8923 12.7187 10.6524 12.698 10.377C12.6774 10.1016 12.4374 9.89511 12.1621 9.91575C11.8867 9.93639 11.6802 10.1764 11.7008 10.4517C11.7215 10.7271 11.9614 10.9336 12.2368 10.913Z" fill="#0049FF"/>
<path d="M12.3847 12.8895C12.6601 12.8689 12.8666 12.6289 12.846 12.3535C12.8253 12.0782 12.5854 11.8717 12.31 11.8923C12.0346 11.913 11.8281 12.1529 11.8488 12.4283C11.8694 12.7037 12.1094 12.9102 12.3847 12.8895Z" fill="#0049FF"/>
<path d="M12.5328 14.8661C12.8081 14.8454 13.0146 14.6055 12.994 14.3301C12.9733 14.0547 12.7334 13.8482 12.458 13.8689C12.1826 13.8895 11.9761 14.1295 11.9968 14.4049C12.0174 14.6802 12.2574 14.8867 12.5328 14.8661Z" fill="#0049FF"/>
<path d="M12.6809 16.8387C12.9563 16.8181 13.1628 16.5781 13.1421 16.3028C13.1215 16.0274 12.8815 15.8209 12.6061 15.8415C12.3308 15.8622 12.1243 16.1021 12.1449 16.3775C12.1656 16.6529 12.4055 16.8594 12.6809 16.8387Z" fill="#0049FF"/>
<path d="M12.8288 18.8114C13.1041 18.7908 13.3106 18.5508 13.29 18.2754C13.2694 18.0001 13.0294 17.7936 12.754 17.8142C12.4787 17.8348 12.2722 18.0748 12.2928 18.3502C12.3134 18.6255 12.5534 18.832 12.8288 18.8114Z" fill="#0049FF"/>
<path d="M12.9768 20.788C13.2522 20.7673 13.4587 20.5274 13.438 20.252C13.4174 19.9766 13.1774 19.7701 12.902 19.7908C12.6267 19.8114 12.4202 20.0514 12.4408 20.3267C12.4615 20.6021 12.7014 20.8086 12.9768 20.788Z" fill="#0049FF"/>
<path d="M13.1248 22.7606C13.4002 22.74 13.6067 22.5 13.586 22.2246C13.5654 21.9493 13.3254 21.7428 13.0501 21.7634C12.7747 21.784 12.5682 22.024 12.5888 22.2994C12.6095 22.5748 12.8494 22.7813 13.1248 22.7606Z" fill="#0049FF"/>
<path d="M13.2727 24.7372C13.5481 24.7165 13.7546 24.4766 13.734 24.2012C13.7133 23.9258 13.4734 23.7193 13.198 23.74C12.9226 23.7606 12.7161 24.0006 12.7368 24.2759C12.7574 24.5513 12.9974 24.7578 13.2727 24.7372Z" fill="#0049FF"/>
<path d="M13.4209 26.7137C13.6962 26.6931 13.9027 26.4531 13.8821 26.1778C13.8615 25.9024 13.6215 25.6959 13.3461 25.7165C13.0708 25.7372 12.8643 25.9771 12.8849 26.2525C12.9055 26.5279 13.1455 26.7344 13.4209 26.7137Z" fill="#0049FF"/>
<path d="M13.5689 28.6864C13.8443 28.6658 14.0508 28.4258 14.0301 28.1504C14.0095 27.8751 13.7695 27.6686 13.4941 27.6892C13.2188 27.7098 13.0123 27.9498 13.0329 28.2252C13.0536 28.5005 13.2935 28.707 13.5689 28.6864Z" fill="#0049FF"/>
<path d="M14.1609 36.5848C14.4362 36.5642 14.6427 36.3242 14.6221 36.0489C14.6015 35.7735 14.3615 35.567 14.0861 35.5876C13.8108 35.6083 13.6043 35.8482 13.6249 36.1236C13.6455 36.399 13.8855 36.6055 14.1609 36.5848Z" fill="#0049FF"/>
<path d="M14.0002 34.6239C14.2755 34.6033 14.482 34.3633 14.4614 34.0879C14.4408 33.8126 14.2008 33.6061 13.9254 33.6267C13.6501 33.6473 13.4436 33.8873 13.4642 34.1627C13.4848 34.438 13.7248 34.6445 14.0002 34.6239Z" fill="#0049FF"/>
<path d="M14.3089 38.5575C14.5842 38.5368 14.7907 38.2969 14.7701 38.0215C14.7495 37.7461 14.5095 37.5396 14.2341 37.5603C13.9588 37.5809 13.7523 37.8209 13.7729 38.0963C13.7935 38.3716 14.0335 38.5781 14.3089 38.5575Z" fill="#0049FF"/>
<path d="M14.0634 8.79186C14.3388 8.77122 14.5453 8.53126 14.5246 8.25589C14.504 7.98052 14.264 7.77402 13.9887 7.79466C13.7133 7.8153 13.5068 8.05526 13.5274 8.33063C13.5481 8.606 13.788 8.8125 14.0634 8.79186Z" fill="#0049FF"/>
<path d="M14.2113 10.7645C14.4867 10.7439 14.6932 10.5039 14.6726 10.2285C14.6519 9.95318 14.412 9.74668 14.1366 9.76732C13.8612 9.78796 13.6547 10.0279 13.6754 10.3033C13.696 10.5787 13.936 10.7852 14.2113 10.7645Z" fill="#0049FF"/>
<path d="M14.3594 12.7411C14.6347 12.7204 14.8412 12.4805 14.8206 12.2051C14.7999 11.9297 14.56 11.7232 14.2846 11.7439C14.0092 11.7645 13.8027 12.0045 13.8234 12.2799C13.844 12.5552 14.084 12.7617 14.3594 12.7411Z" fill="#0049FF"/>
<path d="M14.5075 14.7176C14.7829 14.697 14.9894 14.457 14.9687 14.1817C14.9481 13.9063 14.7081 13.6998 14.4327 13.7204C14.1574 13.7411 13.9509 13.981 13.9715 14.2564C13.9922 14.5318 14.2321 14.7383 14.5075 14.7176Z" fill="#0049FF"/>
<path d="M14.6554 16.6903C14.9307 16.6697 15.1372 16.4297 15.1166 16.1543C15.096 15.879 14.856 15.6725 14.5806 15.6931C14.3053 15.7137 14.0988 15.9537 14.1194 16.2291C14.14 16.5044 14.38 16.7109 14.6554 16.6903Z" fill="#0049FF"/>
<path d="M14.8034 18.663C15.0788 18.6423 15.2853 18.4024 15.2646 18.127C15.244 17.8516 15.004 17.6451 14.7286 17.6658C14.4533 17.6864 14.2468 17.9264 14.2674 18.2017C14.2881 18.4771 14.528 18.6836 14.8034 18.663Z" fill="#0049FF"/>
<path d="M14.9514 20.6395C15.2268 20.6189 15.4333 20.3789 15.4126 20.1035C15.392 19.8282 15.152 19.6217 14.8767 19.6423C14.6013 19.663 14.3948 19.9029 14.4154 20.1783C14.4361 20.4537 14.676 20.6602 14.9514 20.6395Z" fill="#0049FF"/>
<path d="M15.0993 22.6161C15.3747 22.5954 15.5812 22.3555 15.5606 22.0801C15.5399 21.8047 15.3 21.5982 15.0246 21.6189C14.7492 21.6395 14.5427 21.8795 14.5634 22.1549C14.584 22.4302 14.824 22.6367 15.0993 22.6161Z" fill="#0049FF"/>
<path d="M15.2474 24.5887C15.5227 24.5681 15.7292 24.3281 15.7086 24.0528C15.6879 23.7774 15.448 23.5709 15.1726 23.5915C14.8972 23.6122 14.6907 23.8521 14.7114 24.1275C14.732 24.4029 14.972 24.6094 15.2474 24.5887Z" fill="#0049FF"/>
<path d="M15.3954 26.5614C15.6707 26.5408 15.8772 26.3008 15.8566 26.0254C15.836 25.7501 15.596 25.5436 15.3206 25.5642C15.0453 25.5848 14.8388 25.8248 14.8594 26.1002C14.88 26.3755 15.12 26.582 15.3954 26.5614Z" fill="#0049FF"/>
<path d="M15.5434 28.538C15.8187 28.5173 16.0252 28.2774 16.0046 28.002C15.984 27.7266 15.744 27.5201 15.4686 27.5408C15.1933 27.5614 14.9868 27.8014 15.0074 28.0767C15.028 28.3521 15.268 28.5586 15.5434 28.538Z" fill="#0049FF"/>
<path d="M16.1354 36.4364C16.4107 36.4158 16.6172 36.1758 16.5966 35.9004C16.5759 35.6251 16.336 35.4186 16.0606 35.4392C15.7852 35.4598 15.5787 35.6998 15.5994 35.9752C15.62 36.2505 15.86 36.457 16.1354 36.4364Z" fill="#0049FF"/>
<path d="M16.2834 38.409C16.5587 38.3884 16.7652 38.1484 16.7446 37.8731C16.724 37.5977 16.484 37.3912 16.2086 37.4118C15.9333 37.4325 15.7268 37.6725 15.7474 37.9478C15.768 38.2232 16.008 38.4297 16.2834 38.409Z" fill="#0049FF"/>
<path d="M16.4315 40.3856C16.7069 40.365 16.9134 40.125 16.8927 39.8496C16.8721 39.5743 16.6321 39.3678 16.3568 39.3884C16.0814 39.409 15.8749 39.649 15.8955 39.9244C15.9162 40.1998 16.1561 40.4063 16.4315 40.3856Z" fill="#0049FF"/>
<path d="M16.5794 42.3622C16.8548 42.3415 17.0613 42.1016 17.0407 41.8262C17.02 41.5508 16.7801 41.3443 16.5047 41.365C16.2293 41.3856 16.0228 41.6256 16.0435 41.9009C16.0641 42.1763 16.3041 42.3828 16.5794 42.3622Z" fill="#0049FF"/>
<path d="M17.518 28.3895C17.7934 28.3689 17.9999 28.1289 17.9792 27.8535C17.9586 27.5782 17.7186 27.3717 17.4432 27.3923C17.1679 27.413 16.9614 27.6529 16.982 27.9283C17.0027 28.2037 17.2426 28.4102 17.518 28.3895Z" fill="#0049FF"/>
<path d="M17.666 30.3661C17.9414 30.3454 18.1479 30.1055 18.1272 29.8301C18.1066 29.5547 17.8666 29.3482 17.5913 29.3689C17.3159 29.3895 17.1094 29.6295 17.13 29.9049C17.1507 30.1802 17.3906 30.3867 17.666 30.3661Z" fill="#0049FF"/>
<path d="M18.11 36.288C18.3853 36.2673 18.5918 36.0274 18.5712 35.752C18.5506 35.4766 18.3106 35.2701 18.0352 35.2908C17.7599 35.3114 17.5534 35.5514 17.574 35.8267C17.5946 36.1021 17.8346 36.3086 18.11 36.288Z" fill="#0049FF"/>
<path d="M18.258 38.2645C18.5333 38.2439 18.7398 38.0039 18.7192 37.7285C18.6986 37.4532 18.4586 37.2467 18.1832 37.2673C17.9079 37.288 17.7014 37.5279 17.722 37.8033C17.7426 38.0787 17.9826 38.2852 18.258 38.2645Z" fill="#0049FF"/>
<path d="M18.406 40.2411C18.6814 40.2204 18.8879 39.9805 18.8673 39.7051C18.8466 39.4297 18.6067 39.2232 18.3313 39.2439C18.0559 39.2645 17.8494 39.5045 17.8701 39.7799C17.8907 40.0552 18.1307 40.2617 18.406 40.2411Z" fill="#0049FF"/>
<path d="M18.554 42.2098C18.8294 42.1892 19.0359 41.9492 19.0152 41.6739C18.9946 41.3985 18.7546 41.192 18.4793 41.2126C18.2039 41.2333 17.9974 41.4732 18.018 41.7486C18.0387 42.024 18.2786 42.2305 18.554 42.2098Z" fill="#0049FF"/>
<path d="M19.4926 28.245C19.768 28.2243 19.9745 27.9844 19.9538 27.709C19.9332 27.4336 19.6932 27.2271 19.4179 27.2478C19.1425 27.2684 18.936 27.5084 18.9566 27.7838C18.9773 28.0591 19.2172 28.2656 19.4926 28.245Z" fill="#0049FF"/>
<path d="M19.6405 30.2137C19.9159 30.1931 20.1224 29.9531 20.1018 29.6778C20.0811 29.4024 19.8412 29.1959 19.5658 29.2165C19.2904 29.2372 19.0839 29.4771 19.1046 29.7525C19.1252 30.0279 19.3652 30.2344 19.6405 30.2137Z" fill="#0049FF"/>
<path d="M19.7886 32.1903C20.0639 32.1697 20.2704 31.9297 20.2498 31.6543C20.2291 31.379 19.9892 31.1725 19.7138 31.1931C19.4384 31.2137 19.2319 31.4537 19.2526 31.7291C19.2732 32.0044 19.5132 32.2109 19.7886 32.1903Z" fill="#0049FF"/>
<path d="M19.9366 34.1669C20.2119 34.1462 20.4184 33.9063 20.3978 33.6309C20.3772 33.3555 20.1372 33.149 19.8618 33.1697C19.5865 33.1903 19.38 33.4303 19.4006 33.7056C19.4212 33.981 19.6612 34.1875 19.9366 34.1669Z" fill="#0049FF"/>
<path d="M20.0846 36.1434C20.3599 36.1228 20.5664 35.8828 20.5458 35.6075C20.5252 35.3321 20.2852 35.1256 20.0098 35.1462C19.7345 35.1669 19.528 35.4068 19.5486 35.6822C19.5692 35.9576 19.8092 36.1641 20.0846 36.1434Z" fill="#0049FF"/>
<path d="M20.2326 38.1122C20.508 38.0915 20.7145 37.8516 20.6938 37.5762C20.6732 37.3008 20.4332 37.0943 20.1578 37.115C19.8825 37.1356 19.676 37.3756 19.6966 37.6509C19.7173 37.9263 19.9572 38.1328 20.2326 38.1122Z" fill="#0049FF"/>
<path d="M20.3806 40.0887C20.656 40.0681 20.8625 39.8281 20.8418 39.5528C20.8212 39.2774 20.5812 39.0709 20.3059 39.0915C20.0305 39.1122 19.824 39.3521 19.8446 39.6275C19.8653 39.9029 20.1052 40.1094 20.3806 40.0887Z" fill="#0049FF"/>
<path d="M20.5285 42.0653C20.8039 42.0447 21.0104 41.8047 20.9898 41.5293C20.9691 41.254 20.7292 41.0475 20.4538 41.0681C20.1784 41.0887 19.9719 41.3287 19.9926 41.6041C20.0132 41.8794 20.2532 42.0859 20.5285 42.0653Z" fill="#0049FF"/>
<path d="M19.2618 6.36608C19.5371 6.34544 19.7436 6.10548 19.723 5.83011C19.7024 5.55474 19.4624 5.34824 19.187 5.36888C18.9116 5.38952 18.7051 5.62948 18.7258 5.90485C18.7464 6.18022 18.9864 6.38672 19.2618 6.36608Z" fill="#0049FF"/>
<path d="M19.0711 4.39342C19.3465 4.37278 19.553 4.13282 19.5324 3.85745C19.5117 3.58208 19.2718 3.37558 18.9964 3.39622C18.721 3.41686 18.5145 3.65683 18.5352 3.9322C18.5558 4.20757 18.7958 4.41406 19.0711 4.39342Z" fill="#0049FF"/>
<path d="M19.4098 8.33874C19.6851 8.3181 19.8916 8.07813 19.871 7.80276C19.8504 7.52739 19.6104 7.32089 19.335 7.34153C19.0597 7.36217 18.8532 7.60214 18.8738 7.87751C18.8944 8.15288 19.1344 8.35938 19.4098 8.33874Z" fill="#0049FF"/>
<path d="M19.5578 10.3153C19.8332 10.2947 20.0397 10.0547 20.019 9.77933C19.9984 9.50396 19.7584 9.29746 19.483 9.3181C19.2077 9.33874 19.0012 9.5787 19.0218 9.85407C19.0424 10.1294 19.2824 10.3359 19.5578 10.3153Z" fill="#0049FF"/>
<path d="M19.7058 12.288C19.9812 12.2673 20.1877 12.0274 20.167 11.752C20.1464 11.4766 19.9064 11.2701 19.631 11.2908C19.3557 11.3114 19.1492 11.5514 19.1698 11.8267C19.1905 12.1021 19.4304 12.3086 19.7058 12.288Z" fill="#0049FF"/>
<path d="M19.8538 14.2645C20.1292 14.2439 20.3357 14.0039 20.315 13.7285C20.2944 13.4532 20.0544 13.2467 19.7791 13.2673C19.5037 13.288 19.2972 13.5279 19.3178 13.8033C19.3385 14.0787 19.5784 14.2852 19.8538 14.2645Z" fill="#0049FF"/>
<path d="M20.0018 16.2411C20.2771 16.2204 20.4836 15.9805 20.463 15.7051C20.4423 15.4297 20.2024 15.2232 19.927 15.2439C19.6516 15.2645 19.4451 15.5045 19.4658 15.7799C19.4864 16.0552 19.7264 16.2617 20.0018 16.2411Z" fill="#0049FF"/>
<path d="M20.1498 18.2098C20.4251 18.1892 20.6316 17.9492 20.611 17.6739C20.5904 17.3985 20.3504 17.192 20.075 17.2126C19.7996 17.2333 19.5931 17.4732 19.6138 17.7486C19.6344 18.024 19.8744 18.2305 20.1498 18.2098Z" fill="#0049FF"/>
<path d="M20.2978 20.1903C20.5731 20.1697 20.7796 19.9297 20.759 19.6543C20.7384 19.379 20.4984 19.1725 20.223 19.1931C19.9477 19.2137 19.7412 19.4537 19.7618 19.7291C19.7824 20.0044 20.0224 20.2109 20.2978 20.1903Z" fill="#0049FF"/>
<path d="M20.4458 22.163C20.7212 22.1423 20.9277 21.9024 20.907 21.627C20.8864 21.3516 20.6464 21.1451 20.371 21.1658C20.0957 21.1864 19.8892 21.4264 19.9098 21.7017C19.9304 21.9771 20.1704 22.1836 20.4458 22.163Z" fill="#0049FF"/>
<path d="M20.5938 24.1395C20.8692 24.1189 21.0757 23.8789 21.055 23.6035C21.0344 23.3282 20.7944 23.1217 20.519 23.1423C20.2437 23.163 20.0372 23.4029 20.0578 23.6783C20.0785 23.9537 20.3184 24.1602 20.5938 24.1395Z" fill="#0049FF"/>
<path d="M20.7418 26.1083C21.0172 26.0876 21.2237 25.8477 21.203 25.5723C21.1824 25.2969 20.9424 25.0904 20.6671 25.1111C20.3917 25.1317 20.1852 25.3717 20.2058 25.647C20.2265 25.9224 20.4664 26.1289 20.7418 26.1083Z" fill="#0049FF"/>
<path d="M21.4671 28.0924C21.7425 28.0717 21.949 27.8318 21.9284 27.5564C21.9077 27.281 21.6678 27.0745 21.3924 27.0952C21.117 27.1158 20.9105 27.3558 20.9312 27.6311C20.9518 27.9065 21.1918 28.113 21.4671 28.0924Z" fill="#0049FF"/>
<path d="M21.6152 30.0692C21.8905 30.0486 22.097 29.8086 22.0764 29.5332C22.0557 29.2579 21.8158 29.0514 21.5404 29.072C21.265 29.0926 21.0585 29.3326 21.0792 29.608C21.0998 29.8833 21.3398 30.0898 21.6152 30.0692Z" fill="#0049FF"/>
<path d="M21.7632 32.0419C22.0385 32.0212 22.245 31.7813 22.2244 31.5059C22.2038 31.2305 21.9638 31.024 21.6884 31.0447C21.4131 31.0653 21.2066 31.3053 21.2272 31.5806C21.2478 31.856 21.4878 32.0625 21.7632 32.0419Z" fill="#0049FF"/>
<path d="M21.9112 34.0184C22.1865 33.9978 22.393 33.7578 22.3724 33.4825C22.3518 33.2071 22.1118 33.0006 21.8364 33.0212C21.5611 33.0419 21.3546 33.2818 21.3752 33.5572C21.3958 33.8326 21.6358 34.0391 21.9112 34.0184Z" fill="#0049FF"/>
<path d="M22.0592 35.9911C22.3346 35.9704 22.5411 35.7305 22.5204 35.4551C22.4998 35.1797 22.2598 34.9732 21.9844 34.9939C21.7091 35.0145 21.5026 35.2545 21.5232 35.5299C21.5439 35.8052 21.7838 36.0117 22.0592 35.9911Z" fill="#0049FF"/>
<path d="M22.2072 37.9676C22.4826 37.947 22.6891 37.707 22.6684 37.4317C22.6478 37.1563 22.4078 36.9498 22.1325 36.9704C21.8571 36.9911 21.6506 37.231 21.6712 37.5064C21.6919 37.7818 21.9318 37.9883 22.2072 37.9676Z" fill="#0049FF"/>
<path d="M22.3551 39.9403C22.6305 39.9197 22.837 39.6797 22.8164 39.4043C22.7957 39.129 22.5558 38.9225 22.2804 38.9431C22.005 38.9637 21.7985 39.2037 21.8192 39.4791C21.8398 39.7544 22.0798 39.9609 22.3551 39.9403Z" fill="#0049FF"/>
<path d="M22.5032 41.9169C22.7785 41.8962 22.985 41.6563 22.9644 41.3809C22.9437 41.1055 22.7038 40.899 22.4284 40.9197C22.153 40.9403 21.9465 41.1803 21.9672 41.4556C21.9878 41.731 22.2278 41.9375 22.5032 41.9169Z" fill="#0049FF"/>
<path d="M21.2364 6.21764C21.5117 6.197 21.7182 5.95704 21.6976 5.68167C21.677 5.4063 21.437 5.1998 21.1616 5.22044C20.8863 5.24108 20.6798 5.48104 20.7004 5.75641C20.721 6.03178 20.961 6.23828 21.2364 6.21764Z" fill="#0049FF"/>
<path d="M21.0458 4.24108C21.3211 4.22044 21.5276 3.98048 21.507 3.70511C21.4863 3.42974 21.2464 3.22324 20.971 3.24388C20.6956 3.26452 20.4891 3.50448 20.5098 3.77985C20.5304 4.05522 20.7704 4.26172 21.0458 4.24108Z" fill="#0049FF"/>
<path d="M21.3843 8.1903C21.6596 8.16966 21.8661 7.9297 21.8455 7.65433C21.8248 7.37896 21.5849 7.17246 21.3095 7.1931C21.0341 7.21374 20.8276 7.4537 20.8483 7.72907C20.8689 8.00444 21.1089 8.21094 21.3843 8.1903Z" fill="#0049FF"/>
<path d="M21.5324 10.1669C21.8078 10.1462 22.0143 9.90626 21.9936 9.63089C21.973 9.35552 21.733 9.14902 21.4576 9.16966C21.1823 9.1903 20.9758 9.43026 20.9964 9.70563C21.0171 9.981 21.257 10.1875 21.5324 10.1669Z" fill="#0049FF"/>
<path d="M21.6804 12.1434C21.9558 12.1228 22.1623 11.8828 22.1416 11.6075C22.121 11.3321 21.881 11.1256 21.6057 11.1462C21.3303 11.1669 21.1238 11.4068 21.1444 11.6822C21.1651 11.9576 21.405 12.1641 21.6804 12.1434Z" fill="#0049FF"/>
<path d="M21.8283 14.1122C22.1037 14.0915 22.3102 13.8516 22.2896 13.5762C22.2689 13.3008 22.029 13.0943 21.7536 13.115C21.4782 13.1356 21.2717 13.3756 21.2924 13.6509C21.313 13.9263 21.553 14.1328 21.8283 14.1122Z" fill="#0049FF"/>
<path d="M21.9764 16.0926C22.2517 16.072 22.4582 15.832 22.4376 15.5567C22.4169 15.2813 22.177 15.0748 21.9016 15.0954C21.6262 15.1161 21.4197 15.356 21.4404 15.6314C21.461 15.9068 21.701 16.1133 21.9764 16.0926Z" fill="#0049FF"/>
<path d="M22.1244 18.0653C22.3997 18.0447 22.6062 17.8047 22.5856 17.5293C22.565 17.254 22.325 17.0475 22.0496 17.0681C21.7743 17.0887 21.5678 17.3287 21.5884 17.6041C21.609 17.8794 21.849 18.0859 22.1244 18.0653Z" fill="#0049FF"/>
<path d="M22.2724 20.0419C22.5478 20.0212 22.7542 19.7813 22.7336 19.5059C22.713 19.2305 22.473 19.024 22.1976 19.0447C21.9223 19.0653 21.7158 19.3053 21.7364 19.5806C21.757 19.856 21.997 20.0625 22.2724 20.0419Z" fill="#0049FF"/>
<path d="M22.4204 22.0106C22.6958 21.99 22.9023 21.75 22.8816 21.4746C22.861 21.1993 22.621 20.9928 22.3456 21.0134C22.0703 21.034 21.8638 21.274 21.8844 21.5494C21.9051 21.8248 22.145 22.0313 22.4204 22.0106Z" fill="#0049FF"/>
<path d="M22.5684 23.9911C22.8438 23.9704 23.0503 23.7305 23.0296 23.4551C23.009 23.1797 22.769 22.9732 22.4937 22.9939C22.2183 23.0145 22.0118 23.2545 22.0324 23.5299C22.0531 23.8052 22.293 24.0117 22.5684 23.9911Z" fill="#0049FF"/>
<path d="M22.7164 25.9637C22.9917 25.9431 23.1982 25.7031 23.1776 25.4278C23.1569 25.1524 22.917 24.9459 22.6416 24.9665C22.3662 24.9872 22.1597 25.2271 22.1804 25.5025C22.201 25.7779 22.441 25.9844 22.7164 25.9637Z" fill="#0049FF"/>
<path d="M23.4418 27.9442C23.7171 27.9236 23.9236 27.6836 23.903 27.4082C23.8823 27.1329 23.6424 26.9264 23.367 26.947C23.0916 26.9676 22.8851 27.2076 22.9058 27.483C22.9264 27.7583 23.1664 27.9648 23.4418 27.9442Z" fill="#0049FF"/>
<path d="M23.5898 29.9208C23.8651 29.9001 24.0716 29.6602 24.051 29.3848C24.0304 29.1094 23.7904 28.9029 23.515 28.9236C23.2396 28.9442 23.0332 29.1842 23.0538 29.4595C23.0744 29.7349 23.3144 29.9414 23.5898 29.9208Z" fill="#0049FF"/>
<path d="M23.7378 31.8973C24.0131 31.8767 24.2196 31.6367 24.199 31.3614C24.1784 31.086 23.9384 30.8795 23.663 30.9001C23.3877 30.9208 23.1812 31.1607 23.2018 31.4361C23.2224 31.7115 23.4624 31.918 23.7378 31.8973Z" fill="#0049FF"/>
<path d="M23.8858 33.87C24.1612 33.8493 24.3677 33.6094 24.347 33.334C24.3264 33.0586 24.0864 32.8521 23.811 32.8728C23.5357 32.8934 23.3292 33.1334 23.3498 33.4088C23.3705 33.6841 23.6104 33.8906 23.8858 33.87Z" fill="#0049FF"/>
<path d="M24.0338 35.8426C24.3092 35.822 24.5157 35.582 24.495 35.3067C24.4744 35.0313 24.2344 34.8248 23.9591 34.8454C23.6837 34.8661 23.4772 35.106 23.4978 35.3814C23.5185 35.6568 23.7584 35.8633 24.0338 35.8426Z" fill="#0049FF"/>
<path d="M24.1817 37.8192C24.4571 37.7986 24.6636 37.5586 24.643 37.2832C24.6223 37.0079 24.3824 36.8014 24.107 36.822C23.8316 36.8426 23.6251 37.0826 23.6458 37.358C23.6664 37.6333 23.9064 37.8398 24.1817 37.8192Z" fill="#0049FF"/>
<path d="M24.3298 39.7958C24.6051 39.7751 24.8116 39.5352 24.791 39.2598C24.7703 38.9844 24.5304 38.7779 24.255 38.7986C23.9796 38.8192 23.7731 39.0592 23.7938 39.3345C23.8144 39.6099 24.0544 39.8164 24.3298 39.7958Z" fill="#0049FF"/>
<path d="M24.4778 41.7645C24.7531 41.7439 24.9596 41.5039 24.939 41.2285C24.9184 40.9532 24.6784 40.7467 24.403 40.7673C24.1277 40.788 23.9212 41.0279 23.9418 41.3033C23.9624 41.5787 24.2024 41.7852 24.4778 41.7645Z" fill="#0049FF"/>
<path d="M25.6081 27.7993C25.8839 27.7861 26.0969 27.5518 26.0837 27.276C26.0706 27.0002 25.8363 26.7872 25.5605 26.8004C25.2846 26.8136 25.0717 27.0478 25.0849 27.3237C25.098 27.5995 25.3323 27.8124 25.6081 27.7993Z" fill="#0049FF"/>
<path d="M25.5644 29.7723C25.8397 29.7517 26.0462 29.5117 26.0256 29.2364C26.005 28.961 25.765 28.7545 25.4896 28.7751C25.2143 28.7958 25.0078 29.0357 25.0284 29.3111C25.049 29.5865 25.289 29.793 25.5644 29.7723Z" fill="#0049FF"/>
<path d="M25.7124 31.745C25.9878 31.7243 26.1943 31.4844 26.1736 31.209C26.153 30.9336 25.913 30.7271 25.6376 30.7478C25.3623 30.7684 25.1558 31.0084 25.1764 31.2838C25.197 31.5591 25.437 31.7656 25.7124 31.745Z" fill="#0049FF"/>
<path d="M25.8604 33.7215C26.1358 33.7009 26.3423 33.4609 26.3216 33.1856C26.301 32.9102 26.061 32.7037 25.7856 32.7243C25.5103 32.745 25.3038 32.985 25.3244 33.2603C25.3451 33.5357 25.585 33.7422 25.8604 33.7215Z" fill="#0049FF"/>
<path d="M26.0084 35.6981C26.2838 35.6775 26.4903 35.4375 26.4696 35.1621C26.449 34.8868 26.209 34.6803 25.9337 34.7009C25.6583 34.7215 25.4518 34.9615 25.4724 35.2369C25.4931 35.5123 25.733 35.7188 26.0084 35.6981Z" fill="#0049FF"/>
<path d="M26.1564 37.6708C26.4317 37.6501 26.6382 37.4102 26.6176 37.1348C26.5969 36.8594 26.357 36.6529 26.0816 36.6736C25.8062 36.6942 25.5997 36.9342 25.6204 37.2095C25.641 37.4849 25.881 37.6914 26.1564 37.6708Z" fill="#0049FF"/>
<path d="M26.3044 39.6434C26.5797 39.6228 26.7862 39.3828 26.7656 39.1075C26.745 38.8321 26.505 38.6256 26.2296 38.6462C25.9542 38.6669 25.7477 38.9068 25.7684 39.1822C25.789 39.4576 26.029 39.6641 26.3044 39.6434Z" fill="#0049FF"/>
<path d="M26.4524 41.62C26.7277 41.5993 26.9342 41.3594 26.9136 41.084C26.893 40.8086 26.653 40.6021 26.3776 40.6228C26.1023 40.6434 25.8958 40.8834 25.9164 41.1588C25.937 41.4341 26.177 41.6406 26.4524 41.62Z" fill="#0049FF"/>
<path d="M26.4924 7.86608C26.7677 7.84544 26.9742 7.60548 26.9536 7.33011C26.9329 7.05474 26.693 6.84824 26.4176 6.86888C26.1422 6.88952 25.9357 7.12948 25.9564 7.40485C25.977 7.68022 26.217 7.88672 26.4924 7.86608Z" fill="#0049FF"/>
<path d="M26.6404 9.83483C26.9157 9.81419 27.1222 9.57423 27.1016 9.29886C27.081 9.02349 26.841 8.81699 26.5656 8.83763C26.2902 8.85827 26.0837 9.09823 26.1044 9.3736C26.125 9.64897 26.365 9.85547 26.6404 9.83483Z" fill="#0049FF"/>
<path d="M26.7884 11.8114C27.0637 11.7908 27.2702 11.5508 27.2496 11.2754C27.229 11.0001 26.989 10.7936 26.7136 10.8142C26.4383 10.8348 26.2318 11.0748 26.2524 11.3502C26.273 11.6255 26.513 11.832 26.7884 11.8114Z" fill="#0049FF"/>
<path d="M26.9364 13.788C27.2118 13.7673 27.4183 13.5274 27.3976 13.252C27.377 12.9766 27.137 12.7701 26.8616 12.7908C26.5863 12.8114 26.3798 13.0514 26.4004 13.3267C26.421 13.6021 26.661 13.8086 26.9364 13.788Z" fill="#0049FF"/>
<path d="M27.0844 15.7645C27.3598 15.7439 27.5663 15.5039 27.5456 15.2285C27.525 14.9532 27.285 14.7467 27.0096 14.7673C26.7343 14.788 26.5278 15.0279 26.5484 15.3033C26.5691 15.5787 26.809 15.7852 27.0844 15.7645Z" fill="#0049FF"/>
<path d="M27.2324 17.7372C27.5078 17.7165 27.7143 17.4766 27.6936 17.2012C27.673 16.9258 27.433 16.7193 27.1577 16.74C26.8823 16.7606 26.6758 17.0006 26.6964 17.2759C26.7171 17.5513 26.957 17.7578 27.2324 17.7372Z" fill="#0049FF"/>
<path d="M27.3804 19.7098C27.6557 19.6892 27.8622 19.4492 27.8416 19.1739C27.8209 18.8985 27.581 18.692 27.3056 18.7126C27.0302 18.7333 26.8237 18.9732 26.8444 19.2486C26.865 19.524 27.105 19.7305 27.3804 19.7098Z" fill="#0049FF"/>
<path d="M27.5284 21.6864C27.8037 21.6658 28.0102 21.4258 27.9896 21.1504C27.969 20.8751 27.729 20.6686 27.4536 20.6892C27.1782 20.7098 26.9717 20.9498 26.9924 21.2252C27.013 21.5005 27.253 21.707 27.5284 21.6864Z" fill="#0049FF"/>
<path d="M27.6764 23.659C27.9517 23.6384 28.1582 23.3984 28.1376 23.1231C28.117 22.8477 27.877 22.6412 27.6016 22.6618C27.3263 22.6825 27.1198 22.9225 27.1404 23.1978C27.161 23.4732 27.401 23.6797 27.6764 23.659Z" fill="#0049FF"/>
<path d="M27.8244 25.6356C28.0998 25.615 28.3063 25.375 28.2856 25.0996C28.265 24.8243 28.025 24.6178 27.7496 24.6384C27.4743 24.659 27.2678 24.899 27.2884 25.1744C27.309 25.4498 27.549 25.6563 27.8244 25.6356Z" fill="#0049FF"/>
<path d="M27.5861 27.7016C27.862 27.6884 28.0749 27.4542 28.0618 27.1783C28.0486 26.9025 27.8143 26.6896 27.5385 26.7027C27.2627 26.7159 27.0497 26.9502 27.0629 27.226C27.076 27.5018 27.3103 27.7148 27.5861 27.7016Z" fill="#0049FF"/>
<path d="M27.539 29.6239C27.8144 29.6033 28.0209 29.3633 28.0002 29.0879C27.9796 28.8126 27.7396 28.6061 27.4642 28.6267C27.1889 28.6473 26.9824 28.8873 27.003 29.1627C27.0236 29.438 27.2636 29.6445 27.539 29.6239Z" fill="#0049FF"/>
<path d="M27.687 31.6005C27.9624 31.5798 28.1689 31.3399 28.1482 31.0645C28.1276 30.7891 27.8876 30.5826 27.6122 30.6033C27.3369 30.6239 27.1304 30.8639 27.151 31.1392C27.1717 31.4146 27.4116 31.6211 27.687 31.6005Z" fill="#0049FF"/>
<path d="M27.8349 33.5731C28.1103 33.5525 28.3168 33.3125 28.2962 33.0371C28.2755 32.7618 28.0356 32.5553 27.7602 32.5759C27.4848 32.5965 27.2783 32.8365 27.299 33.1119C27.3196 33.3873 27.5596 33.5938 27.8349 33.5731Z" fill="#0049FF"/>
<path d="M27.983 35.5497C28.2583 35.529 28.4648 35.2891 28.4442 35.0137C28.4235 34.7383 28.1836 34.5318 27.9082 34.5525C27.6328 34.5731 27.4263 34.8131 27.447 35.0884C27.4676 35.3638 27.7076 35.5703 27.983 35.5497Z" fill="#0049FF"/>
<path d="M28.131 37.5223C28.4063 37.5017 28.6128 37.2617 28.5922 36.9864C28.5716 36.711 28.3316 36.5045 28.0562 36.5251C27.7808 36.5458 27.5743 36.7857 27.595 37.0611C27.6156 37.3365 27.8556 37.543 28.131 37.5223Z" fill="#0049FF"/>
<path d="M28.279 39.4989C28.5543 39.4783 28.7608 39.2383 28.7402 38.9629C28.7196 38.6876 28.4796 38.4811 28.2042 38.5017C27.9289 38.5223 27.7224 38.7623 27.743 39.0377C27.7636 39.313 28.0036 39.5195 28.279 39.4989Z" fill="#0049FF"/>
<path d="M28.427 41.4715C28.7024 41.4509 28.9089 41.2109 28.8882 40.9356C28.8676 40.6602 28.6276 40.4537 28.3522 40.4743C28.0769 40.495 27.8704 40.735 27.891 41.0103C27.9116 41.2857 28.1516 41.4922 28.427 41.4715Z" fill="#0049FF"/>
<path d="M28.4669 7.71374C28.7423 7.6931 28.9488 7.45313 28.9281 7.17776C28.9075 6.90239 28.6675 6.69589 28.3922 6.71653C28.1168 6.73717 27.9103 6.97714 27.9309 7.25251C27.9516 7.52788 28.1915 7.73438 28.4669 7.71374Z" fill="#0049FF"/>
<path d="M28.6148 9.68639C28.8902 9.66575 29.0967 9.42579 29.0761 9.15042C29.0554 8.87505 28.8155 8.66855 28.5401 8.68919C28.2647 8.70983 28.0582 8.94979 28.0789 9.22516C28.0995 9.50053 28.3395 9.70703 28.6148 9.68639Z" fill="#0049FF"/>
<path d="M28.763 11.663C29.0384 11.6423 29.2449 11.4024 29.2242 11.127C29.2036 10.8516 28.9636 10.6451 28.6882 10.6658C28.4129 10.6864 28.2064 10.9264 28.227 11.2017C28.2476 11.4771 28.4876 11.6836 28.763 11.663Z" fill="#0049FF"/>
<path d="M28.911 13.6395C29.1864 13.6189 29.3929 13.3789 29.3722 13.1035C29.3516 12.8282 29.1116 12.6217 28.8362 12.6423C28.5609 12.663 28.3544 12.9029 28.375 13.1783C28.3957 13.4537 28.6356 13.6602 28.911 13.6395Z" fill="#0049FF"/>
<path d="M29.0589 15.6122C29.3342 15.5915 29.5407 15.3516 29.5201 15.0762C29.4995 14.8008 29.2595 14.5943 28.9841 14.615C28.7088 14.6356 28.5023 14.8756 28.5229 15.1509C28.5435 15.4263 28.7835 15.6328 29.0589 15.6122Z" fill="#0049FF"/>
<path d="M29.2069 17.5887C29.4823 17.5681 29.6888 17.3281 29.6681 17.0528C29.6475 16.7774 29.4075 16.5709 29.1321 16.5915C28.8568 16.6122 28.6503 16.8521 28.6709 17.1275C28.6916 17.4029 28.9315 17.6094 29.2069 17.5887Z" fill="#0049FF"/>
<path d="M29.355 19.5614C29.6303 19.5408 29.8368 19.3008 29.8162 19.0254C29.7956 18.7501 29.5556 18.5436 29.2802 18.5642C29.0048 18.5848 28.7983 18.8248 28.819 19.1002C28.8396 19.3755 29.0796 19.582 29.355 19.5614Z" fill="#0049FF"/>
<path d="M29.503 21.538C29.7783 21.5173 29.9848 21.2774 29.9642 21.002C29.9436 20.7266 29.7036 20.5201 29.4282 20.5408C29.1529 20.5614 28.9464 20.8014 28.967 21.0767C28.9876 21.3521 29.2276 21.5586 29.503 21.538Z" fill="#0049FF"/>
<path d="M29.651 23.5145C29.9264 23.4939 30.1329 23.2539 30.1122 22.9785C30.0916 22.7032 29.8516 22.4967 29.5762 22.5173C29.3009 22.538 29.0944 22.7779 29.115 23.0533C29.1356 23.3287 29.3756 23.5352 29.651 23.5145Z" fill="#0049FF"/>
<path d="M29.799 25.4872C30.0744 25.4665 30.2809 25.2266 30.2602 24.9512C30.2396 24.6758 29.9996 24.4693 29.7242 24.49C29.4489 24.5106 29.2424 24.7506 29.263 25.0259C29.2837 25.3013 29.5236 25.5078 29.799 25.4872Z" fill="#0049FF"/>
<path d="M29.5639 27.6079C29.8398 27.5947 30.0527 27.3604 30.0395 27.0846C30.0264 26.8088 29.7921 26.5958 29.5163 26.609C29.2404 26.6221 29.0275 26.8564 29.0407 27.1322C29.0538 27.4081 29.2881 27.621 29.5639 27.6079Z" fill="#0049FF"/>
<path d="M29.5902 29.538C29.8656 29.5173 30.0721 29.2774 30.0514 29.002C30.0308 28.7266 29.7908 28.5201 29.5154 28.5408C29.2401 28.5614 29.0336 28.8014 29.0542 29.0767C29.0749 29.3521 29.3148 29.5586 29.5902 29.538Z" fill="#0049FF"/>
<path d="M29.6616 31.452C29.937 31.4314 30.1435 31.1914 30.1228 30.916C30.1022 30.6407 29.8622 30.4342 29.5869 30.4548C29.3115 30.4755 29.105 30.7154 29.1256 30.9908C29.1463 31.2662 29.3862 31.4727 29.6616 31.452Z" fill="#0049FF"/>
<path d="M29.8096 33.4247C30.0849 33.404 30.2914 33.1641 30.2708 32.8887C30.2501 32.6133 30.0102 32.4068 29.7348 32.4275C29.4594 32.4481 29.2529 32.6881 29.2736 32.9634C29.2942 33.2388 29.5342 33.4453 29.8096 33.4247Z" fill="#0049FF"/>
<path d="M29.9576 35.3973C30.2329 35.3767 30.4394 35.1367 30.4188 34.8614C30.3982 34.586 30.1582 34.3795 29.8828 34.4001C29.6074 34.4208 29.4009 34.6607 29.4216 34.9361C29.4422 35.2115 29.6822 35.418 29.9576 35.3973Z" fill="#0049FF"/>
<path d="M30.1056 37.3739C30.3809 37.3533 30.5874 37.1133 30.5668 36.8379C30.5462 36.5626 30.3062 36.3561 30.0308 36.3767C29.7555 36.3973 29.549 36.6373 29.5696 36.9127C29.5902 37.188 29.8302 37.3945 30.1056 37.3739Z" fill="#0049FF"/>
<path d="M30.2536 39.3505C30.529 39.3298 30.7355 39.0899 30.7148 38.8145C30.6942 38.5391 30.4542 38.3326 30.1788 38.3533C29.9035 38.3739 29.697 38.6139 29.7176 38.8892C29.7382 39.1646 29.9782 39.3711 30.2536 39.3505Z" fill="#0049FF"/>
<path d="M30.4016 41.327C30.677 41.3064 30.8835 41.0664 30.8628 40.791C30.8422 40.5157 30.6022 40.3092 30.3268 40.3298C30.0515 40.3505 29.845 40.5904 29.8656 40.8658C29.8863 41.1412 30.1262 41.3477 30.4016 41.327Z" fill="#0049FF"/>
<path d="M31.9798 27.5141C32.2556 27.5009 32.4686 27.2667 32.4554 26.9908C32.4423 26.715 32.208 26.5021 31.9322 26.5152C31.6563 26.5284 31.4434 26.7627 31.4566 27.0385C31.4697 27.3143 31.704 27.5273 31.9798 27.5141Z" fill="#0049FF"/>
<path d="M31.9195 29.3895C32.1948 29.3689 32.4013 29.1289 32.3807 28.8535C32.3601 28.5782 32.1201 28.3717 31.8447 28.3923C31.5694 28.413 31.3629 28.6529 31.3835 28.9283C31.4041 29.2037 31.6441 29.4102 31.9195 29.3895Z" fill="#0049FF"/>
<path d="M31.8455 31.3036C32.1209 31.2829 32.3274 31.043 32.3067 30.7676C32.2861 30.4922 32.0461 30.2857 31.7708 30.3064C31.4954 30.327 31.2889 30.567 31.3095 30.8424C31.3302 31.1177 31.5701 31.3242 31.8455 31.3036Z" fill="#0049FF"/>
<path d="M31.9195 33.2762C32.1948 33.2556 32.4013 33.0156 32.3807 32.7403C32.3601 32.4649 32.1201 32.2584 31.8447 32.279C31.5694 32.2997 31.3629 32.5396 31.3835 32.815C31.4041 33.0904 31.6441 33.2969 31.9195 33.2762Z" fill="#0049FF"/>
<path d="M31.9934 35.2528C32.2688 35.2322 32.4753 34.9922 32.4547 34.7168C32.434 34.4415 32.1941 34.235 31.9187 34.2556C31.6433 34.2762 31.4368 34.5162 31.4575 34.7916C31.4781 35.0669 31.7181 35.2734 31.9934 35.2528Z" fill="#0049FF"/>
<path d="M31.9934 37.2294C32.2688 37.2087 32.4753 36.9688 32.4547 36.6934C32.434 36.418 32.1941 36.2115 31.9187 36.2322C31.6433 36.2528 31.4368 36.4928 31.4575 36.7681C31.4781 37.0435 31.7181 37.25 31.9934 37.2294Z" fill="#0049FF"/>
<path d="M32.2282 39.202C32.5036 39.1814 32.7101 38.9414 32.6894 38.666C32.6688 38.3907 32.4288 38.1842 32.1534 38.2048C31.8781 38.2255 31.6716 38.4654 31.6922 38.7408C31.7129 39.0162 31.9528 39.2227 32.2282 39.202Z" fill="#0049FF"/>
<path d="M32.3762 41.1747C32.6516 41.154 32.8581 40.9141 32.8374 40.6387C32.8168 40.3633 32.5768 40.1568 32.3015 40.1775C32.0261 40.1981 31.8196 40.4381 31.8402 40.7134C31.8609 40.9888 32.1008 41.1953 32.3762 41.1747Z" fill="#0049FF"/>
<path d="M34.0697 27.5141C34.3456 27.5009 34.5585 27.2667 34.5453 26.9908C34.5322 26.715 34.2979 26.5021 34.0221 26.5152C33.7462 26.5284 33.5333 26.7627 33.5465 27.0385C33.5596 27.3143 33.7939 27.5273 34.0697 27.5141Z" fill="#0049FF"/>
<path d="M34.0835 29.3505C34.3588 29.3298 34.5653 29.0899 34.5447 28.8145C34.5241 28.5391 34.2841 28.3326 34.0087 28.3533C33.7334 28.3739 33.5269 28.6139 33.5475 28.8892C33.5681 29.1646 33.8081 29.3711 34.0835 29.3505Z" fill="#0049FF"/>
<path d="M34.0835 31.2489C34.3588 31.2283 34.5653 30.9883 34.5447 30.7129C34.5241 30.4376 34.2841 30.2311 34.0087 30.2517C33.7334 30.2723 33.5269 30.5123 33.5475 30.7877C33.5681 31.063 33.8081 31.2695 34.0835 31.2489Z" fill="#0049FF"/>
<path d="M34.0835 33.2255C34.3588 33.2048 34.5653 32.9649 34.5447 32.6895C34.5241 32.4141 34.2841 32.2076 34.0087 32.2283C33.7334 32.2489 33.5269 32.4889 33.5475 32.7642C33.5681 33.0396 33.8081 33.2461 34.0835 33.2255Z" fill="#0049FF"/>
<path d="M34.0835 35.1981C34.3588 35.1775 34.5653 34.9375 34.5447 34.6621C34.5241 34.3868 34.2841 34.1803 34.0087 34.2009C33.7334 34.2215 33.5269 34.4615 33.5475 34.7369C33.5681 35.0123 33.8081 35.2188 34.0835 35.1981Z" fill="#0049FF"/>
<path d="M34.0835 37.1708C34.3588 37.1501 34.5653 36.9102 34.5447 36.6348C34.5241 36.3594 34.2841 36.1529 34.0087 36.1736C33.7334 36.1942 33.5269 36.4342 33.5475 36.7095C33.5681 36.9849 33.8081 37.1914 34.0835 37.1708Z" fill="#0049FF"/>
<path d="M34.2028 39.0536C34.4782 39.0329 34.6847 38.793 34.664 38.5176C34.6434 38.2422 34.4034 38.0357 34.1281 38.0564C33.8527 38.077 33.6462 38.317 33.6668 38.5924C33.6875 38.8677 33.9274 39.0742 34.2028 39.0536Z" fill="#0049FF"/>
<path d="M34.3507 41.0262C34.6261 41.0056 34.8326 40.7656 34.8119 40.4903C34.7913 40.2149 34.5513 40.0084 34.2759 40.029C34.0006 40.0497 33.7941 40.2896 33.8147 40.565C33.8354 40.8404 34.0753 41.0469 34.3507 41.0262Z" fill="#0049FF"/>
<path d="M34.1096 11.3787C34.3857 11.3743 34.606 11.147 34.6016 10.8709C34.5973 10.5948 34.3699 10.3745 34.0938 10.3788C33.8177 10.3832 33.5974 10.6105 33.6018 10.8867C33.6061 11.1628 33.8335 11.3831 34.1096 11.3787Z" fill="#0049FF"/>
<path d="M34.1408 13.3592C34.4169 13.3548 34.6372 13.1274 34.6328 12.8513C34.6285 12.5752 34.4011 12.3549 34.125 12.3593C33.8489 12.3637 33.6286 12.591 33.633 12.8671C33.6373 13.1432 33.8647 13.3635 34.1408 13.3592Z" fill="#0049FF"/>
<path d="M34.1719 15.3435C34.448 15.3392 34.6683 15.1118 34.664 14.8357C34.6596 14.5596 34.4322 14.3393 34.1561 14.3437C33.88 14.348 33.6597 14.5754 33.6641 14.8515C33.6684 15.1276 33.8958 15.3479 34.1719 15.3435Z" fill="#0049FF"/>
<path d="M34.2035 17.3162C34.4796 17.3118 34.6999 17.0845 34.6955 16.8084C34.6912 16.5323 34.4638 16.312 34.1877 16.3163C33.9116 16.3207 33.6913 16.548 33.6956 16.8242C33.7 17.1003 33.9274 17.3206 34.2035 17.3162Z" fill="#0049FF"/>
<path d="M34.2346 19.2967C34.5107 19.2923 34.731 19.0649 34.7266 18.7888C34.7223 18.5127 34.4949 18.2924 34.2188 18.2968C33.9427 18.3012 33.7224 18.5285 33.7268 18.8046C33.7311 19.0807 33.9585 19.301 34.2346 19.2967Z" fill="#0049FF"/>
<path d="M34.2658 21.281C34.5419 21.2767 34.7622 21.0493 34.7578 20.7732C34.7535 20.4971 34.5261 20.2768 34.25 20.2812C33.9739 20.2855 33.7536 20.5129 33.758 20.789C33.7623 21.0651 33.9897 21.2854 34.2658 21.281Z" fill="#0049FF"/>
<path d="M34.2972 23.2576C34.5733 23.2532 34.7936 23.0259 34.7893 22.7498C34.7849 22.4737 34.5575 22.2534 34.2814 22.2577C34.0053 22.2621 33.785 22.4895 33.7894 22.7656C33.7937 23.0417 34.0211 23.262 34.2972 23.2576Z" fill="#0049FF"/>
<path d="M34.3285 25.2342C34.6046 25.2298 34.8249 25.0024 34.8205 24.7263C34.8162 24.4502 34.5888 24.2299 34.3127 24.2343C34.0366 24.2387 33.8163 24.466 33.8206 24.7421C33.825 25.0182 34.0524 25.2385 34.3285 25.2342Z" fill="#0049FF"/>
<path d="M36.0893 11.3514C36.3654 11.347 36.5857 11.1196 36.5813 10.8435C36.577 10.5674 36.3496 10.3471 36.0735 10.3515C35.7974 10.3558 35.5771 10.5832 35.5814 10.8593C35.5858 11.1354 35.8132 11.3557 36.0893 11.3514Z" fill="#0049FF"/>
<path d="M36.1209 13.324C36.397 13.3197 36.6173 13.0923 36.6129 12.8162C36.6086 12.5401 36.3812 12.3198 36.1051 12.3241C35.829 12.3285 35.6087 12.5559 35.6131 12.832C35.6174 13.1081 35.8448 13.3284 36.1209 13.324Z" fill="#0049FF"/>
<path d="M36.152 15.3045C36.4281 15.3001 36.6484 15.0728 36.6441 14.7966C36.6397 14.5205 36.4123 14.3002 36.1362 14.3046C35.8601 14.309 35.6398 14.5363 35.6442 14.8124C35.6485 15.0885 35.8759 15.3088 36.152 15.3045Z" fill="#0049FF"/>
<path d="M36.152 27.406C36.4281 27.4017 36.6484 27.1743 36.6441 26.8982C36.6397 26.6221 36.4123 26.4018 36.1362 26.4062C35.8601 26.4105 35.6398 26.6379 35.6442 26.914C35.6485 27.1901 35.8759 27.4104 36.152 27.406Z" fill="#0049FF"/>
<path d="M36.1832 17.2889C36.4593 17.2845 36.6796 17.0571 36.6752 16.781C36.6709 16.5049 36.4435 16.2846 36.1674 16.289C35.8913 16.2933 35.671 16.5207 35.6754 16.7968C35.6797 17.0729 35.9071 17.2932 36.1832 17.2889Z" fill="#0049FF"/>
<path d="M36.1832 29.3904C36.4593 29.3861 36.6796 29.1587 36.6752 28.8826C36.6709 28.6065 36.4435 28.3862 36.1674 28.3905C35.8913 28.3949 35.671 28.6223 35.6754 28.8984C35.6797 29.1745 35.9071 29.3948 36.1832 29.3904Z" fill="#0049FF"/>
<path d="M36.2146 19.2654C36.4907 19.2611 36.711 19.0337 36.7066 18.7576C36.7023 18.4815 36.4749 18.2612 36.1988 18.2655C35.9227 18.2699 35.7024 18.4973 35.7067 18.7734C35.7111 19.0495 35.9385 19.2698 36.2146 19.2654Z" fill="#0049FF"/>
<path d="M36.2146 31.367C36.4907 31.3626 36.711 31.1353 36.7066 30.8591C36.7023 30.583 36.4749 30.3627 36.1988 30.3671C35.9227 30.3715 35.7024 30.5988 35.7067 30.8749C35.7111 31.151 35.9385 31.3713 36.2146 31.367Z" fill="#0049FF"/>
<path d="M36.2146 21.2654C36.4907 21.2611 36.711 21.0337 36.7066 20.7576C36.7023 20.4815 36.4749 20.2612 36.1988 20.2655C35.9227 20.2699 35.7024 20.4973 35.7067 20.7734C35.7111 21.0495 35.9385 21.2698 36.2146 21.2654Z" fill="#0049FF"/>
<path d="M36.2146 33.367C36.4907 33.3626 36.711 33.1353 36.7066 32.8591C36.7023 32.583 36.4749 32.3627 36.1988 32.3671C35.9227 32.3715 35.7024 32.5988 35.7067 32.8749C35.7111 33.151 35.9385 33.3713 36.2146 33.367Z" fill="#0049FF"/>
<path d="M36.2146 23.2654C36.4907 23.2611 36.711 23.0337 36.7066 22.7576C36.7023 22.4815 36.4749 22.2612 36.1988 22.2655C35.9227 22.2699 35.7024 22.4973 35.7067 22.7734C35.7111 23.0495 35.9385 23.2698 36.2146 23.2654Z" fill="#0049FF"/>
<path d="M36.2146 35.367C36.4907 35.3626 36.711 35.1353 36.7066 34.8591C36.7023 34.583 36.4749 34.3627 36.1988 34.3671C35.9227 34.3715 35.7024 34.5988 35.7067 34.8749C35.7111 35.151 35.9385 35.3713 36.2146 35.367Z" fill="#0049FF"/>
<path d="M36.2146 25.2654C36.4907 25.2611 36.711 25.0337 36.7066 24.7576C36.7023 24.4815 36.4749 24.2612 36.1988 24.2655C35.9227 24.2699 35.7024 24.4973 35.7067 24.7734C35.7111 25.0495 35.9385 25.2698 36.2146 25.2654Z" fill="#0049FF"/>
<path d="M36.2146 37.367C36.4907 37.3626 36.711 37.1353 36.7066 36.8591C36.7023 36.583 36.4749 36.3627 36.1988 36.3671C35.9227 36.3715 35.7024 36.5988 35.7067 36.8749C35.7111 37.151 35.9385 37.3713 36.2146 37.367Z" fill="#0049FF"/>
<path d="M47.2031 59.8532C47.7969 56.8063 49.3605 51.7791 52.6237 48.7332C55.2342 46.2965 60.2665 41.9193 62.4563 40.0354C63.0767 39.4477 63.9459 37.9055 62.4595 36.4382C60.6014 34.6041 58.6826 35.5512 57.558 36.2208C56.6584 36.7565 52.3765 39.0263 50.348 40.0942L46.164 40.6281M51.5618 36.7072L54.3741 17.0312C54.4372 15.6088 53.3352 14.4045 51.9127 14.3414C50.4903 14.2783 49.286 15.3803 49.2229 16.8027L46.7947 32.7577C46.7782 33.1284 46.4644 33.4156 46.0937 33.3991C45.723 33.3827 45.4358 33.0688 45.4522 32.6981L47.7022 12.2907M47.7022 12.2907C47.744 10.752 46.5442 9.45803 45.0004 9.38955C43.44 9.32033 42.1189 10.5292 42.0497 12.0896L39.4196 32.2428C39.4032 32.6135 39.0893 32.9007 38.7186 32.8843C38.3479 32.8678 38.0607 32.554 38.0772 32.1833L39.7959 15.2976C39.864 13.763 38.6752 12.4639 37.1407 12.3958M47.7022 12.2907C47.7017 12.3072 47.7011 12.3237 47.7004 12.3403" stroke="#262626" stroke-width="1.25"/>
<path d="M59.9222 38.4533C59.648 38.4206 59.4522 38.1718 59.4849 37.8976C59.5176 37.6234 59.7664 37.4276 60.0406 37.4603C60.3148 37.493 60.5106 37.7418 60.4779 38.016C60.4452 38.2902 60.1964 38.486 59.9222 38.4533Z" fill="#0049FF"/>
<path d="M57.9559 38.2228C57.6817 38.1901 57.4859 37.9413 57.5186 37.6671C57.5513 37.3929 57.8001 37.1971 58.0743 37.2298C58.3485 37.2625 58.5443 37.5113 58.5116 37.7855C58.4789 38.0597 58.2301 38.2555 57.9559 38.2228Z" fill="#0049FF"/>
<path d="M57.7214 40.1876C57.4472 40.1549 57.2514 39.9061 57.2841 39.6319C57.3168 39.3577 57.5656 39.162 57.8398 39.1947C58.114 39.2274 58.3098 39.4762 58.2771 39.7504C58.2444 40.0246 57.9956 40.2204 57.7214 40.1876Z" fill="#0049FF"/>
<path d="M55.7552 39.9533C55.481 39.9206 55.2852 39.6718 55.3179 39.3976C55.3506 39.1234 55.5994 38.9276 55.8736 38.9603C56.1478 38.993 56.3436 39.2418 56.3109 39.516C56.2782 39.7902 56.0294 39.986 55.7552 39.9533Z" fill="#0049FF"/>
<path d="M55.5208 41.9181C55.2466 41.8854 55.0508 41.6366 55.0835 41.3624C55.1162 41.0882 55.365 40.8924 55.6392 40.9252C55.9134 40.9579 56.1092 41.2067 56.0765 41.4809C56.0437 41.7551 55.795 41.9508 55.5208 41.9181Z" fill="#0049FF"/>
<path d="M53.5544 41.6876C53.2802 41.6549 53.0844 41.4061 53.1171 41.1319C53.1498 40.8577 53.3986 40.662 53.6728 40.6947C53.947 40.7274 54.1428 40.9762 54.1101 41.2504C54.0774 41.5246 53.8286 41.7204 53.5544 41.6876Z" fill="#0049FF"/>
<path d="M53.3199 43.6486C53.0457 43.6159 52.85 43.3671 52.8827 43.0929C52.9154 42.8187 53.1642 42.6229 53.4384 42.6556C53.7126 42.6883 53.9084 42.9371 53.8757 43.2113C53.8429 43.4855 53.5941 43.6813 53.3199 43.6486Z" fill="#0049FF"/>
<path d="M51.3539 43.4103C51.0797 43.3776 50.884 43.1288 50.9167 42.8546C50.9494 42.5804 51.1982 42.3846 51.4724 42.4173C51.7466 42.45 51.9424 42.6988 51.9096 42.973C51.8769 43.2472 51.6281 43.443 51.3539 43.4103Z" fill="#0049FF"/>
<path d="M51.1193 45.379C50.8451 45.3463 50.6493 45.0975 50.682 44.8233C50.7147 44.5491 50.9635 44.3534 51.2377 44.3861C51.5119 44.4188 51.7077 44.6676 51.675 44.9418C51.6423 45.216 51.3935 45.4118 51.1193 45.379Z" fill="#0049FF"/>
<path d="M52.4368 17.6173C52.1626 17.5846 51.9668 17.3358 51.9995 17.0616C52.0322 16.7874 52.281 16.5917 52.5552 16.6244C52.8294 16.6571 53.0252 16.9059 52.9925 17.1801C52.9598 17.4543 52.711 17.65 52.4368 17.6173Z" fill="#0049FF"/>
<path d="M52.2023 19.5822C51.9281 19.5495 51.7323 19.3007 51.765 19.0265C51.7977 18.7523 52.0465 18.5565 52.3207 18.5892C52.5949 18.6219 52.7907 18.8707 52.758 19.1449C52.7253 19.4191 52.4765 19.6149 52.2023 19.5822Z" fill="#0049FF"/>
<path d="M51.9677 21.5509C51.6935 21.5182 51.4977 21.2694 51.5304 20.9952C51.5631 20.721 51.8119 20.5253 52.0861 20.558C52.3603 20.5907 52.5561 20.8395 52.5234 21.1137C52.4906 21.3879 52.2418 21.5836 51.9677 21.5509Z" fill="#0049FF"/>
<path d="M51.7331 23.5197C51.4589 23.487 51.2631 23.2382 51.2958 22.964C51.3285 22.6898 51.5773 22.494 51.8515 22.5267C52.1257 22.5594 52.3215 22.8082 52.2888 23.0824C52.2561 23.3566 52.0073 23.5524 51.7331 23.5197Z" fill="#0049FF"/>
<path d="M51.4986 25.4806C51.2244 25.4479 51.0286 25.1991 51.0613 24.9249C51.094 24.6507 51.3428 24.4549 51.617 24.4877C51.8912 24.5204 52.087 24.7692 52.0543 25.0434C52.0216 25.3176 51.7728 25.5133 51.4986 25.4806Z" fill="#0049FF"/>
<path d="M51.264 27.4494C50.9898 27.4167 50.794 27.1679 50.8267 26.8937C50.8594 26.6195 51.1082 26.4237 51.3824 26.4564C51.6566 26.4891 51.8524 26.7379 51.8197 27.0121C51.787 27.2863 51.5382 27.4821 51.264 27.4494Z" fill="#0049FF"/>
<path d="M51.0296 29.4142C50.7554 29.3815 50.5596 29.1327 50.5923 28.8585C50.6251 28.5843 50.8739 28.3885 51.1481 28.4212C51.4222 28.454 51.618 28.7028 51.5853 28.9769C51.5526 29.2511 51.3038 29.4469 51.0296 29.4142Z" fill="#0049FF"/>
<path d="M50.795 31.379C50.5208 31.3463 50.3251 31.0975 50.3578 30.8233C50.3905 30.5491 50.6393 30.3534 50.9135 30.3861C51.1877 30.4188 51.3835 30.6676 51.3507 30.9418C51.318 31.216 51.0692 31.4118 50.795 31.379Z" fill="#0049FF"/>
<path d="M50.5605 33.3478C50.2863 33.3151 50.0905 33.0663 50.1232 32.7921C50.1559 32.5179 50.4047 32.3221 50.6789 32.3548C50.9531 32.3875 51.1489 32.6363 51.1162 32.9105C51.0835 33.1847 50.8347 33.3805 50.5605 33.3478Z" fill="#0049FF"/>
<path d="M50.3256 35.3205C50.0514 35.2877 49.8556 35.0389 49.8883 34.7647C49.921 34.4906 50.1698 34.2948 50.444 34.3275C50.7182 34.3602 50.914 34.609 50.8813 34.8832C50.8486 35.1574 50.5998 35.3532 50.3256 35.3205Z" fill="#0049FF"/>
<path d="M50.0912 37.2853C49.817 37.2526 49.6212 37.0038 49.6539 36.7296C49.6866 36.4554 49.9354 36.2596 50.2096 36.2923C50.4838 36.325 50.6796 36.5738 50.6469 36.848C50.6142 37.1222 50.3654 37.318 50.0912 37.2853Z" fill="#0049FF"/>
<path d="M49.8567 39.2462C49.5825 39.2135 49.3867 38.9647 49.4194 38.6905C49.4521 38.4163 49.7009 38.2206 49.9751 38.2533C50.2493 38.286 50.4451 38.5348 50.4124 38.809C50.3797 39.0832 50.1309 39.2789 49.8567 39.2462Z" fill="#0049FF"/>
<path d="M49.153 45.1486C48.8788 45.1159 48.683 44.8671 48.7157 44.5929C48.7484 44.3187 48.9972 44.1229 49.2714 44.1556C49.5456 44.1883 49.7414 44.4371 49.7087 44.7113C49.676 44.9855 49.4272 45.1813 49.153 45.1486Z" fill="#0049FF"/>
<path d="M49.3997 43.1915C49.1255 43.1588 48.9297 42.91 48.9624 42.6358C48.9951 42.3616 49.2439 42.1659 49.5181 42.1986C49.7923 42.2313 49.9881 42.4801 49.9554 42.7543C49.9227 43.0285 49.6739 43.2243 49.3997 43.1915Z" fill="#0049FF"/>
<path d="M48.9186 47.1095C48.6444 47.0768 48.4487 46.828 48.4814 46.5538C48.5141 46.2796 48.7629 46.0838 49.0371 46.1166C49.3113 46.1493 49.5071 46.3981 49.4743 46.6723C49.4416 46.9465 49.1928 47.1422 48.9186 47.1095Z" fill="#0049FF"/>
<path d="M48.6841 49.0783C48.4099 49.0456 48.2141 48.7968 48.2468 48.5226C48.2795 48.2484 48.5283 48.0526 48.8025 48.0853C49.0767 48.118 49.2725 48.3668 49.2398 48.641C49.2071 48.9152 48.9583 49.111 48.6841 49.0783Z" fill="#0049FF"/>
<path d="M50.4704 17.3869C50.1962 17.3542 50.0004 17.1054 50.0331 16.8312C50.0659 16.557 50.3146 16.3612 50.5888 16.3939C50.863 16.4266 51.0588 16.6754 51.0261 16.9496C50.9934 17.2238 50.7446 17.4196 50.4704 17.3869Z" fill="#0049FF"/>
<path d="M50.2361 19.3478C49.9619 19.3151 49.7662 19.0663 49.7989 18.7921C49.8316 18.5179 50.0804 18.3221 50.3546 18.3548C50.6288 18.3875 50.8246 18.6363 50.7918 18.9105C50.7591 19.1847 50.5103 19.3805 50.2361 19.3478Z" fill="#0049FF"/>
<path d="M50.0015 21.3165C49.7273 21.2838 49.5315 21.035 49.5642 20.7608C49.5969 20.4866 49.8457 20.2909 50.1199 20.3236C50.3941 20.3563 50.5899 20.6051 50.5572 20.8793C50.5245 21.1535 50.2757 21.3493 50.0015 21.3165Z" fill="#0049FF"/>
<path d="M49.7668 23.2814C49.4926 23.2487 49.2969 22.9999 49.3296 22.7257C49.3623 22.4515 49.6111 22.2557 49.8853 22.2884C50.1595 22.3211 50.3553 22.5699 50.3226 22.8441C50.2898 23.1183 50.041 23.3141 49.7668 23.2814Z" fill="#0049FF"/>
<path d="M49.5325 25.2462C49.2583 25.2135 49.0625 24.9647 49.0952 24.6905C49.1279 24.4163 49.3767 24.2206 49.6509 24.2533C49.9251 24.286 50.1209 24.5348 50.0882 24.809C50.0555 25.0832 49.8067 25.2789 49.5325 25.2462Z" fill="#0049FF"/>
<path d="M49.2978 27.215C49.0236 27.1823 48.8278 26.9335 48.8605 26.6593C48.8932 26.3851 49.142 26.1893 49.4162 26.222C49.6904 26.2547 49.8862 26.5035 49.8535 26.7777C49.8208 27.0519 49.572 27.2477 49.2978 27.215Z" fill="#0049FF"/>
<path d="M49.0634 29.1798C48.7892 29.1471 48.5934 28.8983 48.6261 28.6241C48.6588 28.3499 48.9076 28.1542 49.1818 28.1869C49.456 28.2196 49.6518 28.4684 49.6191 28.7426C49.5864 29.0168 49.3376 29.2125 49.0634 29.1798Z" fill="#0049FF"/>
<path d="M48.8287 31.1486C48.5545 31.1159 48.3587 30.8671 48.3914 30.5929C48.4241 30.3187 48.6729 30.1229 48.9471 30.1556C49.2213 30.1883 49.4171 30.4371 49.3844 30.7113C49.3517 30.9855 49.1029 31.1813 48.8287 31.1486Z" fill="#0049FF"/>
<path d="M48.5941 33.1173C48.3199 33.0846 48.1241 32.8358 48.1568 32.5616C48.1895 32.2874 48.4383 32.0917 48.7125 32.1244C48.9867 32.1571 49.1825 32.4059 49.1498 32.6801C49.1171 32.9543 48.8683 33.15 48.5941 33.1173Z" fill="#0049FF"/>
<path d="M48.3596 35.0822C48.0854 35.0495 47.8896 34.8007 47.9223 34.5265C47.955 34.2523 48.2038 34.0565 48.478 34.0892C48.7522 34.1219 48.948 34.3707 48.9153 34.6449C48.8826 34.9191 48.6338 35.1149 48.3596 35.0822Z" fill="#0049FF"/>
<path d="M48.1249 37.047C47.8507 37.0143 47.655 36.7655 47.6877 36.4913C47.7204 36.2171 47.9692 36.0213 48.2434 36.0541C48.5176 36.0868 48.7134 36.3356 48.6806 36.6098C48.6479 36.884 48.3991 37.0797 48.1249 37.047Z" fill="#0049FF"/>
<path d="M47.8906 39.0119C47.6164 38.9792 47.4206 38.7304 47.4533 38.4562C47.486 38.182 47.7348 37.9862 48.009 38.0189C48.2832 38.0516 48.479 38.3004 48.4463 38.5746C48.4136 38.8488 48.1648 39.0446 47.8906 39.0119Z" fill="#0049FF"/>
<path d="M47.187 44.9103C46.9128 44.8776 46.717 44.6288 46.7497 44.3546C46.7824 44.0804 47.0312 43.8846 47.3054 43.9173C47.5796 43.95 47.7754 44.1988 47.7427 44.473C47.7099 44.7472 47.4611 44.943 47.187 44.9103Z" fill="#0049FF"/>
<path d="M46.9526 46.8751C46.6784 46.8424 46.4826 46.5936 46.5153 46.3194C46.548 46.0452 46.7968 45.8495 47.071 45.8822C47.3452 45.9149 47.541 46.1637 47.5083 46.4379C47.4756 46.7121 47.2268 46.9079 46.9526 46.8751Z" fill="#0049FF"/>
<path d="M46.7178 48.8478C46.4436 48.8151 46.2478 48.5663 46.2805 48.2921C46.3132 48.0179 46.562 47.8221 46.8362 47.8548C47.1104 47.8875 47.3062 48.1363 47.2735 48.4105C47.2408 48.6847 46.992 48.8805 46.7178 48.8478Z" fill="#0049FF"/>
<path d="M46.159 36.8087C45.8848 36.776 45.689 36.5272 45.7217 36.253C45.7545 35.9788 46.0032 35.7831 46.2774 35.8158C46.5516 35.8485 46.7474 36.0973 46.7147 36.3715C46.682 36.6457 46.4332 36.8414 46.159 36.8087Z" fill="#0049FF"/>
<path d="M45.9244 38.7775C45.6502 38.7448 45.4544 38.496 45.4871 38.2218C45.5198 37.9476 45.7686 37.7518 46.0428 37.7845C46.317 37.8172 46.5128 38.066 46.4801 38.3402C46.4474 38.6144 46.1986 38.8102 45.9244 38.7775Z" fill="#0049FF"/>
<path d="M45.2208 44.6759C44.9466 44.6432 44.7508 44.3944 44.7835 44.1202C44.8162 43.846 45.065 43.6503 45.3392 43.683C45.6134 43.7157 45.8092 43.9645 45.7765 44.2387C45.7438 44.5129 45.495 44.7086 45.2208 44.6759Z" fill="#0049FF"/>
<path d="M44.986 46.6486C44.7118 46.6159 44.516 46.3671 44.5487 46.0929C44.5814 45.8187 44.8302 45.6229 45.1044 45.6556C45.3786 45.6883 45.5744 45.9371 45.5417 46.2113C45.509 46.4855 45.2602 46.6813 44.986 46.6486Z" fill="#0049FF"/>
<path d="M44.7516 48.6095C44.4774 48.5768 44.2816 48.328 44.3143 48.0538C44.347 47.7796 44.5958 47.5838 44.87 47.6166C45.1442 47.6493 45.34 47.8981 45.3073 48.1723C45.2746 48.4465 45.0258 48.6422 44.7516 48.6095Z" fill="#0049FF"/>
<path d="M44.1924 36.5822C43.9182 36.5495 43.7225 36.3007 43.7552 36.0265C43.7879 35.7523 44.0367 35.5565 44.3109 35.5892C44.5851 35.6219 44.7809 35.8707 44.7481 36.1449C44.7154 36.4191 44.4666 36.6149 44.1924 36.5822Z" fill="#0049FF"/>
<path d="M43.9582 38.5431C43.684 38.5104 43.4882 38.2616 43.5209 37.9874C43.5536 37.7132 43.8024 37.5174 44.0766 37.5502C44.3508 37.5829 44.5466 37.8317 44.5139 38.1059C44.4812 38.3801 44.2324 38.5758 43.9582 38.5431Z" fill="#0049FF"/>
<path d="M43.7237 40.508C43.4495 40.4752 43.2537 40.2264 43.2864 39.9522C43.3191 39.6781 43.5679 39.4823 43.8421 39.515C44.1163 39.5477 44.3121 39.7965 44.2794 40.0707C44.2467 40.3449 43.9979 40.5407 43.7237 40.508Z" fill="#0049FF"/>
<path d="M43.4891 42.4767C43.2149 42.444 43.0191 42.1952 43.0518 41.921C43.0845 41.6468 43.3333 41.451 43.6075 41.4837C43.8817 41.5165 44.0775 41.7653 44.0448 42.0394C44.0121 42.3136 43.7633 42.5094 43.4891 42.4767Z" fill="#0049FF"/>
<path d="M43.2543 44.4455C42.9801 44.4127 42.7843 44.1639 42.817 43.8897C42.8497 43.6156 43.0985 43.4198 43.3727 43.4525C43.6469 43.4852 43.8427 43.734 43.81 44.0082C43.7773 44.2824 43.5285 44.4782 43.2543 44.4455Z" fill="#0049FF"/>
<path d="M43.0201 46.4064C42.7459 46.3737 42.5501 46.1249 42.5828 45.8507C42.6155 45.5765 42.8643 45.3807 43.1385 45.4134C43.4127 45.4461 43.6085 45.6949 43.5758 45.9691C43.5431 46.2433 43.2943 46.4391 43.0201 46.4064Z" fill="#0049FF"/>
<path d="M42.7856 48.3712C42.5114 48.3385 42.3156 48.0897 42.3483 47.8155C42.381 47.5413 42.6298 47.3456 42.904 47.3783C43.1782 47.411 43.374 47.6598 43.3413 47.934C43.3086 48.2082 43.0598 48.4039 42.7856 48.3712Z" fill="#0049FF"/>
<path d="M45.3835 14.7345C45.1093 14.7018 44.9136 14.453 44.9463 14.1788C44.979 13.9046 45.2278 13.7088 45.502 13.7416C45.7762 13.7743 45.972 14.0231 45.9392 14.2973C45.9065 14.5715 45.6577 14.7672 45.3835 14.7345Z" fill="#0049FF"/>
<path d="M45.6608 12.7697C45.3866 12.737 45.1908 12.4882 45.2235 12.214C45.2562 11.9398 45.505 11.744 45.7792 11.7767C46.0534 11.8094 46.2492 12.0582 46.2165 12.3324C46.1838 12.6066 45.935 12.8024 45.6608 12.7697Z" fill="#0049FF"/>
<path d="M45.1492 16.6994C44.875 16.6667 44.6792 16.4179 44.7119 16.1437C44.7446 15.8695 44.9934 15.6737 45.2676 15.7064C45.5418 15.7391 45.7376 15.9879 45.7049 16.2621C45.6722 16.5363 45.4234 16.7321 45.1492 16.6994Z" fill="#0049FF"/>
<path d="M44.9147 18.6642C44.6405 18.6315 44.4447 18.3827 44.4774 18.1085C44.5101 17.8343 44.7589 17.6385 45.0331 17.6712C45.3073 17.704 45.5031 17.9528 45.4704 18.2269C45.4377 18.5011 45.1889 18.6969 44.9147 18.6642Z" fill="#0049FF"/>
<path d="M44.6801 20.633C44.4059 20.6002 44.2101 20.3514 44.2428 20.0772C44.2755 19.8031 44.5243 19.6073 44.7985 19.64C45.0727 19.6727 45.2685 19.9215 45.2358 20.1957C45.203 20.4699 44.9543 20.6657 44.6801 20.633Z" fill="#0049FF"/>
<path d="M44.4456 22.5939C44.1714 22.5612 43.9756 22.3124 44.0083 22.0382C44.041 21.764 44.2898 21.5682 44.564 21.6009C44.8382 21.6336 45.034 21.8824 45.0013 22.1566C44.9686 22.4308 44.7198 22.6266 44.4456 22.5939Z" fill="#0049FF"/>
<path d="M44.2108 24.5665C43.9366 24.5338 43.7408 24.285 43.7735 24.0108C43.8062 23.7366 44.055 23.5409 44.3292 23.5736C44.6034 23.6063 44.7992 23.8551 44.7665 24.1293C44.7338 24.4035 44.485 24.5993 44.2108 24.5665Z" fill="#0049FF"/>
<path d="M43.9767 26.5236C43.7025 26.4909 43.5067 26.2421 43.5394 25.9679C43.5721 25.6937 43.8209 25.4979 44.0951 25.5306C44.3693 25.5633 44.5651 25.8121 44.5324 26.0863C44.4997 26.3605 44.2509 26.5563 43.9767 26.5236Z" fill="#0049FF"/>
<path d="M43.7417 28.5001C43.4675 28.4674 43.2717 28.2186 43.3044 27.9444C43.3372 27.6702 43.586 27.4745 43.8601 27.5072C44.1343 27.5399 44.3301 27.7887 44.2974 28.0629C44.2647 28.3371 44.0159 28.5329 43.7417 28.5001Z" fill="#0049FF"/>
<path d="M43.5074 30.4611C43.2332 30.4284 43.0375 30.1796 43.0702 29.9054C43.1029 29.6312 43.3517 29.4354 43.6259 29.4681C43.9001 29.5008 44.0959 29.7496 44.0632 30.0238C44.0304 30.298 43.7816 30.4938 43.5074 30.4611Z" fill="#0049FF"/>
<path d="M43.2728 32.4298C42.9986 32.3971 42.8028 32.1483 42.8355 31.8741C42.8682 31.5999 43.117 31.4042 43.3912 31.4369C43.6654 31.4696 43.8612 31.7184 43.8285 31.9926C43.7958 32.2668 43.547 32.4625 43.2728 32.4298Z" fill="#0049FF"/>
<path d="M43.0385 34.3908C42.7643 34.3581 42.5685 34.1093 42.6012 33.8351C42.6339 33.5609 42.8827 33.3651 43.1569 33.3978C43.4311 33.4305 43.6269 33.6793 43.5942 33.9535C43.5614 34.2277 43.3127 34.4235 43.0385 34.3908Z" fill="#0049FF"/>
<path d="M42.2265 36.3439C41.9523 36.3112 41.7565 36.0624 41.7892 35.7882C41.822 35.514 42.0708 35.3182 42.345 35.3509C42.6191 35.3836 42.8149 35.6324 42.7822 35.9066C42.7495 36.1808 42.5007 36.3766 42.2265 36.3439Z" fill="#0049FF"/>
<path d="M41.9919 38.3087C41.7177 38.276 41.522 38.0272 41.5547 37.753C41.5874 37.4788 41.8362 37.2831 42.1104 37.3158C42.3846 37.3485 42.5804 37.5973 42.5476 37.8715C42.5149 38.1457 42.2661 38.3414 41.9919 38.3087Z" fill="#0049FF"/>
<path d="M41.7576 40.2736C41.4834 40.2409 41.2876 39.9921 41.3203 39.7179C41.353 39.4437 41.6018 39.2479 41.876 39.2806C42.1502 39.3133 42.346 39.5621 42.3133 39.8363C42.2806 40.1105 42.0318 40.3063 41.7576 40.2736Z" fill="#0049FF"/>
<path d="M41.5228 42.2423C41.2486 42.2096 41.0528 41.9608 41.0855 41.6866C41.1182 41.4124 41.367 41.2167 41.6412 41.2494C41.9154 41.2821 42.1112 41.5309 42.0785 41.8051C42.0458 42.0793 41.797 42.275 41.5228 42.2423Z" fill="#0049FF"/>
<path d="M41.2883 44.2072C41.0141 44.1745 40.8183 43.9257 40.851 43.6515C40.8837 43.3773 41.1325 43.1815 41.4067 43.2142C41.6809 43.2469 41.8767 43.4957 41.844 43.7699C41.8113 44.0441 41.5625 44.2399 41.2883 44.2072Z" fill="#0049FF"/>
<path d="M41.0539 46.172C40.7797 46.1393 40.5839 45.8905 40.6166 45.6163C40.6493 45.3421 40.8981 45.1463 41.1723 45.1791C41.4465 45.2118 41.6423 45.4606 41.6096 45.7348C41.5769 46.009 41.3281 46.2047 41.0539 46.172Z" fill="#0049FF"/>
<path d="M40.8192 48.1408C40.545 48.1081 40.3492 47.8593 40.3819 47.5851C40.4146 47.3109 40.6634 47.1151 40.9376 47.1478C41.2118 47.1805 41.4076 47.4293 41.3749 47.7035C41.3421 47.9777 41.0934 48.1735 40.8192 48.1408Z" fill="#0049FF"/>
<path d="M43.4175 14.4962C43.1433 14.4635 42.9476 14.2147 42.9803 13.9405C43.013 13.6663 43.2618 13.4706 43.536 13.5033C43.8102 13.536 44.006 13.7848 43.9732 14.059C43.9405 14.3332 43.6917 14.5289 43.4175 14.4962Z" fill="#0049FF"/>
<path d="M43.6946 12.5353C43.4204 12.5026 43.2246 12.2538 43.2573 11.9796C43.29 11.7054 43.5388 11.5096 43.813 11.5423C44.0872 11.575 44.283 11.8238 44.2503 12.098C44.2176 12.3722 43.9688 12.568 43.6946 12.5353Z" fill="#0049FF"/>
<path d="M43.183 16.465C42.9088 16.4323 42.713 16.1835 42.7457 15.9093C42.7784 15.6351 43.0272 15.4393 43.3014 15.472C43.5756 15.5047 43.7714 15.7535 43.7387 16.0277C43.706 16.3019 43.4572 16.4977 43.183 16.465Z" fill="#0049FF"/>
<path d="M42.9485 18.4298C42.6743 18.3971 42.4785 18.1483 42.5112 17.8741C42.5439 17.5999 42.7927 17.4042 43.0669 17.4369C43.3411 17.4696 43.5369 17.7184 43.5042 17.9926C43.4715 18.2668 43.2227 18.4625 42.9485 18.4298Z" fill="#0049FF"/>
<path d="M42.7139 20.3947C42.4397 20.362 42.2439 20.1132 42.2766 19.839C42.3093 19.5648 42.5581 19.369 42.8323 19.4017C43.1065 19.4344 43.3023 19.6832 43.2696 19.9574C43.2369 20.2316 42.9881 20.4274 42.7139 20.3947Z" fill="#0049FF"/>
<path d="M42.4796 22.3556C42.2054 22.3229 42.0096 22.0741 42.0423 21.7999C42.075 21.5257 42.3238 21.3299 42.598 21.3627C42.8722 21.3954 43.068 21.6442 43.0353 21.9184C43.0025 22.1926 42.7538 22.3883 42.4796 22.3556Z" fill="#0049FF"/>
<path d="M42.2448 24.3283C41.9706 24.2956 41.7748 24.0468 41.8075 23.7726C41.8402 23.4984 42.089 23.3026 42.3632 23.3353C42.6374 23.368 42.8332 23.6168 42.8005 23.891C42.7677 24.1652 42.5189 24.361 42.2448 24.3283Z" fill="#0049FF"/>
<path d="M42.0104 26.2931C41.7362 26.2604 41.5404 26.0116 41.5731 25.7374C41.6058 25.4632 41.8546 25.2674 42.1288 25.3002C42.403 25.3329 42.5988 25.5817 42.5661 25.8559C42.5334 26.1301 42.2846 26.3258 42.0104 26.2931Z" fill="#0049FF"/>
<path d="M41.7757 28.2619C41.5015 28.2292 41.3057 27.9804 41.3384 27.7062C41.3711 27.432 41.6199 27.2362 41.8941 27.2689C42.1683 27.3016 42.3641 27.5504 42.3314 27.8246C42.2987 28.0988 42.0499 28.2946 41.7757 28.2619Z" fill="#0049FF"/>
<path d="M41.5414 30.2228C41.2672 30.1901 41.0714 29.9413 41.1041 29.6671C41.1368 29.3929 41.3856 29.1971 41.6598 29.2298C41.934 29.2625 42.1298 29.5113 42.0971 29.7855C42.0644 30.0597 41.8156 30.2555 41.5414 30.2228Z" fill="#0049FF"/>
<path d="M41.3065 32.1994C41.0323 32.1667 40.8365 31.9179 40.8692 31.6437C40.9019 31.3695 41.1507 31.1737 41.4249 31.2064C41.6991 31.2391 41.8949 31.4879 41.8622 31.7621C41.8295 32.0363 41.5807 32.2321 41.3065 32.1994Z" fill="#0049FF"/>
<path d="M41.072 34.1603C40.7978 34.1276 40.602 33.8788 40.6347 33.6046C40.6674 33.3304 40.9162 33.1346 41.1904 33.1673C41.4646 33.2 41.6604 33.4488 41.6277 33.723C41.595 33.9972 41.3462 34.193 41.072 34.1603Z" fill="#0049FF"/>
<path d="M40.2604 36.1095C39.9862 36.0768 39.7904 35.828 39.8231 35.5538C39.8558 35.2796 40.1046 35.0838 40.3788 35.1166C40.653 35.1493 40.8488 35.3981 40.8161 35.6723C40.7834 35.9465 40.5346 36.1422 40.2604 36.1095Z" fill="#0049FF"/>
<path d="M40.0259 38.0744C39.7517 38.0417 39.5559 37.7929 39.5886 37.5187C39.6213 37.2445 39.8701 37.0487 40.1443 37.0814C40.4185 37.1141 40.6143 37.3629 40.5816 37.6371C40.5489 37.9113 40.3001 38.1071 40.0259 38.0744Z" fill="#0049FF"/>
<path d="M39.7912 40.0392C39.517 40.0065 39.3212 39.7577 39.3539 39.4835C39.3867 39.2093 39.6354 39.0135 39.9096 39.0462C40.1838 39.079 40.3796 39.3278 40.3469 39.6019C40.3142 39.8761 40.0654 40.0719 39.7912 40.0392Z" fill="#0049FF"/>
<path d="M39.5566 42.008C39.2824 41.9752 39.0866 41.7264 39.1193 41.4522C39.152 41.1781 39.4008 40.9823 39.675 41.015C39.9492 41.0477 40.145 41.2965 40.1123 41.5707C40.0796 41.8449 39.8308 42.0407 39.5566 42.008Z" fill="#0049FF"/>
<path d="M39.3223 43.9689C39.0481 43.9362 38.8523 43.6874 38.885 43.4132C38.9177 43.139 39.1665 42.9432 39.4407 42.9759C39.7149 43.0086 39.9107 43.2574 39.878 43.5316C39.8453 43.8058 39.5965 44.0016 39.3223 43.9689Z" fill="#0049FF"/>
<path d="M39.0875 45.9415C38.8133 45.9088 38.6175 45.66 38.6502 45.3858C38.6829 45.1116 38.9317 44.9159 39.2059 44.9486C39.4801 44.9813 39.6759 45.2301 39.6432 45.5043C39.6105 45.7785 39.3617 45.9743 39.0875 45.9415Z" fill="#0049FF"/>
<path d="M38.8528 47.9103C38.5786 47.8776 38.3829 47.6288 38.4156 47.3546C38.4483 47.0804 38.6971 46.8846 38.9713 46.9173C39.2455 46.95 39.4413 47.1988 39.4085 47.473C39.3758 47.7472 39.127 47.943 38.8528 47.9103Z" fill="#0049FF"/>
</svg>
