<svg viewBox="0 0 30 30" fill="none" xmlns="http://www.w3.org/2000/svg">
<path d="M15.185 12.1237C13.498 12.1237 12.1213 13.5005 12.1213 15.1875C12.1213 16.8745 13.498 18.2513 15.185 18.2513C16.872 18.2513 18.2488 16.8745 18.2488 15.1875C18.2488 13.5005 16.872 12.1237 15.185 12.1237ZM24.374 15.1875C24.374 13.9188 24.3855 12.6615 24.3142 11.3951C24.243 9.9241 23.9074 8.61859 22.8318 7.54293C21.7538 6.46497 20.4506 6.13169 18.9797 6.06044C17.711 5.98919 16.4537 6.00068 15.1873 6.00068C13.9186 6.00068 12.6614 5.98919 11.395 6.06044C9.92403 6.13169 8.61854 6.46726 7.5429 7.54293C6.46496 8.62089 6.13169 9.9241 6.06044 11.3951C5.98919 12.6638 6.00068 13.9211 6.00068 15.1875C6.00068 16.4539 5.98919 17.7135 6.06044 18.9799C6.13169 20.4509 6.46726 21.7564 7.5429 22.8321C8.62084 23.91 9.92403 24.2433 11.395 24.3146C12.6637 24.3858 13.9209 24.3743 15.1873 24.3743C16.456 24.3743 17.7133 24.3858 18.9797 24.3146C20.4506 24.2433 21.7561 23.9077 22.8318 22.8321C23.9097 21.7541 24.243 20.4509 24.3142 18.9799C24.3878 17.7135 24.374 16.4562 24.374 15.1875ZM15.185 19.9016C12.5764 19.9016 10.471 17.7962 10.471 15.1875C10.471 12.5788 12.5764 10.4734 15.185 10.4734C17.7937 10.4734 19.899 12.5788 19.899 15.1875C19.899 17.7962 17.7937 19.9016 15.185 19.9016ZM20.0921 11.3813C19.483 11.3813 18.9912 10.8894 18.9912 10.2804C18.9912 9.67127 19.483 9.17941 20.0921 9.17941C20.7012 9.17941 21.193 9.67127 21.193 10.2804C21.1932 10.425 21.1648 10.5682 21.1096 10.7019C21.0543 10.8355 20.9732 10.957 20.871 11.0592C20.7687 11.1615 20.6473 11.2426 20.5136 11.2979C20.38 11.3531 20.2367 11.3815 20.0921 11.3813Z" fill="#999999"/>
</svg>
