<svg viewBox="0 0 130 22" fill="none" xmlns="http://www.w3.org/2000/svg">
<path d="M15.2586 14.1461C16.8104 13.6055 17.5954 12.6193 17.5954 11.2056C17.5954 10.0113 17.0399 9.03414 15.9449 8.29901C14.8936 7.59103 13.4543 7.23817 11.6683 7.23817H4.36156V0H4.01493C2.95048 0.00119733 1.92997 0.418385 1.17729 1.16004C0.424605 1.9017 0.00121513 2.90725 0 3.95611L0 16.6229C0 18.0049 0.0665711 18.1746 0.0665711 18.1746C0.236506 19.0848 0.724363 19.9076 1.44554 20.5005C2.16671 21.0934 3.07572 21.4188 4.01493 21.4205H11.6683C13.7756 21.4205 15.394 21.0699 16.489 20.38C17.6207 19.6607 18.1946 18.6564 18.1946 17.3942C18.1831 15.7543 17.2006 14.6663 15.2586 14.1461ZM3.67289 0.698936V7.21329C2.85627 7.12835 2.10046 6.74857 1.55113 6.14715C1.0018 5.54573 0.697849 4.76524 0.697849 3.95611C0.697849 3.14698 1.0018 2.36649 1.55113 1.76507C2.10046 1.16365 2.85627 0.783872 3.67289 0.698936ZM0.688667 6.1728C1.02366 6.66186 1.46561 7.07074 1.98203 7.3694C2.49845 7.66806 3.07622 7.84891 3.67289 7.89865V13.5218C3.0765 13.5716 2.49897 13.7522 1.98261 14.0505C1.46625 14.3487 1.02414 14.757 0.688667 15.2454V6.1728ZM16.101 19.8077C15.1323 20.4252 13.6402 20.7374 11.6683 20.7374H4.01493C3.13214 20.7374 2.28551 20.3918 1.66128 19.7767C1.03706 19.1616 0.686372 18.3274 0.686372 17.4576C0.686372 16.5877 1.03706 15.7535 1.66128 15.1384C2.28551 14.5233 3.13214 14.1778 4.01493 14.1778H4.36156V7.95068L11.6683 7.91675C13.3142 7.91675 14.6204 8.23342 15.557 8.85997C16.4936 9.48653 16.9022 10.233 16.9022 11.2011C16.9022 12.6985 15.7659 13.567 13.429 13.852V14.5306C16.1538 14.7727 17.4784 15.7091 17.4784 17.3942C17.4898 18.4234 17.0353 19.2128 16.101 19.8077Z" fill="white"/>
<path d="M37.1272 12.6634C39.1521 12.8401 40.1662 13.5855 40.1662 14.89C40.1729 15.2693 40.0768 15.6435 39.8876 15.974C39.6984 16.3044 39.4231 16.5791 39.0901 16.7696C38.3695 17.229 37.3 17.4571 35.8718 17.4571H29.1938V8.05604H35.8718C37.0717 8.05604 38.0206 8.29058 38.7152 8.75325C39.0366 8.9447 39.3017 9.21559 39.4841 9.53908C39.6666 9.86257 39.7601 10.2274 39.7553 10.5975C39.7553 11.7606 38.8793 12.4492 37.1272 12.6634ZM32.0307 10.2055V11.6963H35.7381C36.0421 11.713 36.3444 11.6427 36.6087 11.4939C36.7068 11.4381 36.7885 11.3581 36.8456 11.2618C36.9028 11.1654 36.9335 11.0561 36.9348 10.9445C36.9348 10.4497 36.5403 10.2055 35.7512 10.2055H32.0307ZM35.6012 15.3077C36.056 15.3331 36.5117 15.2743 36.9446 15.1342C37.063 15.08 37.1633 14.9936 37.2336 14.8852C37.3038 14.7767 37.3412 14.6508 37.3412 14.5221C37.3412 14.3934 37.3038 14.2675 37.2336 14.159C37.1633 14.0506 37.063 13.9642 36.9446 13.91C36.5557 13.7745 36.1435 13.7155 35.7316 13.7365H32.0307V15.3077H35.6012Z" fill="white"/>
<path d="M49.5277 17.4574L46.4072 14.132H44.6334V17.4574H41.7965V8.05627H48.5821C49.5889 8.01786 50.5828 8.28965 51.4255 8.8338C52.1798 9.3543 52.5569 10.1383 52.5569 11.1857C52.5569 12.8607 51.5787 13.8246 49.6223 14.0773L53.1112 17.4638L49.5277 17.4574ZM44.6334 10.2764V12.0211H48.4517C48.7749 12.0377 49.0962 11.963 49.3777 11.8058C49.4856 11.7374 49.5729 11.6417 49.6303 11.5286C49.6876 11.4155 49.713 11.2893 49.7038 11.1632C49.7049 11.0362 49.6738 10.911 49.6135 10.7988C49.5531 10.6866 49.4654 10.591 49.3582 10.5206C49.0845 10.3482 48.7631 10.264 48.4386 10.2796L44.6334 10.2764Z" fill="white"/>
<path d="M55.5242 16.3297C54.9772 15.9086 54.5408 15.3644 54.2514 14.7427C53.9621 14.1211 53.8282 13.4401 53.8612 12.7569C53.8282 12.0737 53.9621 11.3928 54.2514 10.7711C54.5408 10.1494 54.9772 9.60521 55.5242 9.18411C56.6393 8.32732 58.1925 7.89893 60.1837 7.89893C62.175 7.89893 63.7281 8.32732 64.8433 9.18411C65.3926 9.60385 65.8316 10.1475 66.1233 10.7692C66.4149 11.391 66.5508 12.0727 66.5193 12.7569C66.5508 13.4412 66.4149 14.1229 66.1233 14.7446C65.8316 15.3664 65.3926 15.91 64.8433 16.3297C63.7238 17.1865 62.1706 17.6149 60.1837 17.6149C58.1969 17.6149 56.6437 17.1865 55.5242 16.3297ZM57.6013 10.8677C57.3144 11.0941 57.0828 11.3811 56.9236 11.7075C56.7645 12.034 56.6819 12.3915 56.6819 12.7537C56.6819 13.1159 56.7645 13.4734 56.9236 13.7998C57.0828 14.1263 57.3144 14.4133 57.6013 14.6397C58.2143 15.1088 59.0751 15.3433 60.1837 15.3433C61.2924 15.3433 62.1532 15.1088 62.7662 14.6397C63.0531 14.4133 63.2847 14.1263 63.4439 13.7998C63.603 13.4734 63.6856 13.1159 63.6856 12.7537C63.6856 12.3915 63.603 12.034 63.4439 11.7075C63.2847 11.3811 63.0531 11.0941 62.7662 10.8677C62.1532 10.3965 61.2924 10.1608 60.1837 10.1608C59.0751 10.1608 58.2143 10.3975 57.6013 10.8709V10.8677Z" fill="white"/>
<path d="M77.0123 8.05604H79.7252V17.4571H74.8994L70.9767 9.6336V17.4571H68.2638V8.05604H73.0734L76.9862 15.8699L77.0123 8.05604Z" fill="white"/>
<path d="M81.1828 10.3404V8.05604H92.0573V10.3404H88.0368V17.4571H85.2032V10.3404H81.1828Z" fill="white"/>
<path d="M93.5278 17.4571V8.05604H103.245V10.2312H96.3647V11.6545H101.732V13.6948H96.3647V15.282H103.502V17.4571H93.5278Z" fill="white"/>
<path d="M113.001 17.4574L109.88 14.132H108.11V17.4574H105.276V8.05626H112.062C113.068 8.01789 114.06 8.28969 114.902 8.8338C115.652 9.3543 116.027 10.1383 116.027 11.1857C116.027 12.8607 115.049 13.8246 113.092 14.0773L116.578 17.4638L113.001 17.4574ZM108.11 10.2764V12.021H111.925C112.248 12.0384 112.57 11.9637 112.851 11.8058C112.959 11.7379 113.047 11.6423 113.104 11.5291C113.162 11.4158 113.187 11.2894 113.177 11.1632C113.177 11.036 113.146 10.9107 113.085 10.7985C113.024 10.6864 112.936 10.5909 112.828 10.5206C112.554 10.3482 112.233 10.264 111.909 10.2796L108.11 10.2764Z" fill="white"/>
<path d="M118.997 16.3297C118.448 15.91 118.009 15.3664 117.717 14.7446C117.426 14.1229 117.29 13.4412 117.321 12.7569C117.29 12.0727 117.426 11.391 117.717 10.7692C118.009 10.1475 118.448 9.60385 118.997 9.18411C120.115 8.32732 121.668 7.89893 123.657 7.89893C125.646 7.89893 127.2 8.32732 128.32 9.18411C128.868 9.60439 129.307 10.1481 129.599 10.7697C129.89 11.3913 130.026 12.0728 129.996 12.7569C130.026 13.4411 129.89 14.1225 129.599 14.7441C129.307 15.3657 128.868 15.9094 128.32 16.3297C127.202 17.1865 125.648 17.6149 123.657 17.6149C121.666 17.6149 120.113 17.1865 118.997 16.3297ZM121.074 10.8677C120.788 11.0941 120.556 11.3811 120.397 11.7075C120.238 12.034 120.155 12.3915 120.155 12.7537C120.155 13.1159 120.238 13.4734 120.397 13.7998C120.556 14.1263 120.788 14.4133 121.074 14.6397C121.687 15.1088 122.548 15.3433 123.657 15.3433C124.766 15.3433 125.63 15.1099 126.249 14.6429C126.536 14.4165 126.768 14.1295 126.927 13.8031C127.086 13.4766 127.169 13.1191 127.169 12.7569C127.169 12.3947 127.086 12.0372 126.927 11.7108C126.768 11.3843 126.536 11.0973 126.249 10.8709C125.636 10.3997 124.775 10.1641 123.667 10.1641C122.558 10.1641 121.694 10.3997 121.074 10.8709V10.8677Z" fill="white"/>
</svg>
