<svg viewBox="0 0 30 30" fill="none" xmlns="http://www.w3.org/2000/svg">
<path d="M15.0004 4.875C12.0519 4.875 9.65333 7.21936 9.65333 10.1014C9.65333 12.9832 12.0519 15.3265 15.0004 15.3265C17.9489 15.3265 20.3463 12.9832 20.3463 10.1014C20.3463 7.21936 17.9489 4.875 15.0004 4.875ZM15.0004 7.93718C16.2208 7.93718 17.2131 8.90852 17.2131 10.1014C17.2131 11.2938 16.2208 12.2644 15.0004 12.2644C13.7799 12.2644 12.7865 11.2938 12.7865 10.1014C12.7865 8.90852 13.7799 7.93718 15.0004 7.93718ZM10.592 15.5043C10.063 15.4963 9.54275 15.7512 9.24097 16.2213C8.77979 16.9375 9.00072 17.8825 9.73167 18.333C10.6985 18.926 11.7477 19.3467 12.8357 19.5891L9.84755 22.5115C9.23583 23.1097 9.23635 24.0787 9.8482 24.677C10.1549 24.9756 10.5548 25.125 10.9558 25.125C11.3564 25.125 11.7577 24.9753 12.0634 24.6763L14.9992 21.8053L17.9375 24.6763C18.5487 25.2744 19.5398 25.2744 20.1521 24.6763C20.7641 24.0785 20.7641 23.1085 20.1521 22.5115L17.1626 19.5898C18.251 19.3473 19.3005 18.9264 20.2667 18.333C20.9991 17.8826 21.2203 16.9365 20.7593 16.2213C20.2977 15.505 19.3314 15.2892 18.5984 15.7404C16.4094 17.0864 13.5889 17.0855 11.4005 15.7404C11.1486 15.5853 10.8691 15.5086 10.592 15.5043Z" fill="#999999"/>
</svg>
