<svg viewBox="0 0 30 30" fill="none" xmlns="http://www.w3.org/2000/svg">
<path fill-rule="evenodd" clip-rule="evenodd" d="M1.875 8.37536C1.875 7.68475 2.42208 7.12503 3.09644 7.12503L26.9036 7.125C27.5778 7.125 28.125 7.68483 28.125 8.37533V22.7497C28.125 23.4403 27.5779 24 26.9036 24H3.09644C2.42215 24 1.875 23.4402 1.875 22.7497V8.37536ZM6.98758 13.1986C6.97741 13.1988 6.96799 13.199 6.95938 13.199L5.11294 13.1991V18.7191H6.8972V15.4636H7.01684L8.01148 18.7191H9.3539L10.3485 15.466H10.4682V18.7191H12.2524V13.1991L10.5018 13.1991C10.4883 13.1991 10.4735 13.1988 10.4576 13.1986C10.2083 13.1952 9.69411 13.188 9.48079 13.9178C9.3482 14.3714 9.10462 15.2191 8.75002 16.4609H8.61536C8.28471 15.283 8.04375 14.4353 7.89248 13.9178C7.67878 13.1867 7.18826 13.1952 6.98758 13.1986ZM14.8146 16.4545V13.1991H12.9931V18.7191H14.7197C14.7197 18.7191 15.244 18.6709 15.4788 18.1406L16.665 15.4636H16.8073V18.7191H18.6289V13.1991H16.9022C16.9022 13.1991 16.4017 13.2449 16.1668 13.7776L14.9569 16.4545H14.8146ZM22.9894 17.0748C23.8728 17.0748 24.6708 16.5521 24.9248 15.8222H19.347V18.7191H21.0792V17.0748H22.9894ZM19.2562 13.1991H23.073C24.5415 13.1991 25.2514 14.4587 25.0452 15.4801H21.472C20.3911 15.4801 19.347 14.428 19.2562 13.1991Z" fill="#999999"/>
</svg>
