<svg viewBox="0 0 30 30" fill="none" xmlns="http://www.w3.org/2000/svg">
<path d="M3.09644 7.12503C2.42208 7.12503 1.875 7.68475 1.875 8.37536V22.7497C1.875 23.4402 2.42215 24 3.09644 24H26.9036C27.5779 24 28.125 23.4403 28.125 22.7497V8.37533C28.125 7.68483 27.5778 7.125 26.9036 7.125H3.09641L3.09644 7.12503ZM10.4825 9.15631C11.9809 9.15631 13.357 9.68994 14.4372 10.5813C13.5284 11.4137 12.8505 12.5074 12.5161 13.7471H13.0403C13.349 12.7244 13.9097 11.8139 14.6489 11.0919C15.388 11.8139 15.9488 12.7244 16.2575 13.7471H16.7899C16.4508 12.5139 15.772 11.4268 14.8638 10.5998C15.9461 9.69712 17.3277 9.15628 18.8325 9.15628C22.3051 9.15628 25.1202 12.0383 25.1202 15.5936C25.1202 19.1489 22.3051 22.0309 18.8325 22.0309C17.3026 22.0309 15.8998 21.4719 14.8097 20.542C15.7849 19.6736 16.5038 18.5093 16.8326 17.1848H16.3198C16.0279 18.2965 15.4403 19.2852 14.6489 20.0584C13.8574 19.2852 13.2707 18.2965 12.9787 17.1848H12.4906C12.8213 18.4901 13.5309 19.6381 14.4914 20.4984C13.4032 21.4167 12.0059 21.9687 10.4825 21.9687C7.00989 21.9687 4.19484 19.1006 4.19484 15.5625C4.19484 12.0244 7.00989 9.15631 10.4825 9.15631ZM18.3608 13.6815C17.6053 13.6815 16.8703 14.3577 16.8703 15.6272C16.8703 16.469 17.2673 17.0245 18.0483 17.0245C18.2691 17.0245 18.6209 16.9321 18.6209 16.9321L18.7373 16.1965C18.7373 16.1965 18.4163 16.3628 18.1959 16.3628C17.7317 16.3628 17.5454 15.9973 17.5454 15.6045C17.5454 14.8077 17.9448 14.3693 18.3895 14.3693C18.723 14.3693 18.9908 14.5624 18.9908 14.5624L19.0975 13.847C19.0975 13.847 18.701 13.6815 18.3608 13.6815H18.3608ZM24.7125 13.7437L24.0554 13.7454L23.9143 14.6304C23.9143 14.6304 23.6673 14.287 23.281 14.287C22.6804 14.287 22.1802 15.0173 22.1802 15.8573C22.1802 16.3994 22.4464 16.9312 22.9923 16.9312C23.3849 16.9312 23.6026 16.655 23.6026 16.655L23.5739 16.8909H24.2121L24.7125 13.7437ZM5.89287 13.7529L5.36953 16.9077H6.00034L6.39903 14.5288L6.45809 16.9077H6.90925L7.7509 14.5288L7.37765 16.9077H8.04784L8.56465 13.7529H7.52777L6.88218 15.6885L6.84856 13.7529H5.8929L5.89287 13.7529ZM12.4833 13.9578C12.469 13.9725 12.1018 16.1399 12.1018 16.4039C12.1018 16.7948 12.3158 16.9693 12.617 16.9665C12.8328 16.9646 12.9999 16.9092 13.0772 16.8859C13.0853 16.8837 13.101 16.8792 13.101 16.8792L13.1822 16.3149C13.138 16.3149 13.073 16.3342 13.0156 16.3342C12.7908 16.3342 12.7659 16.2118 12.7802 16.1209L12.9615 14.9697H13.3036L13.3864 14.3457H13.0641L13.1297 13.9578H12.4833ZM20.1081 14.2752C19.6678 14.2752 19.3304 14.4239 19.3304 14.4239L19.2369 15.0033C19.2369 15.0033 19.5155 14.8849 19.9366 14.8849C20.1757 14.8849 20.3509 14.9129 20.3509 15.1166C20.3509 15.2404 20.3295 15.2863 20.3295 15.2863C20.3295 15.2863 20.1405 15.2695 20.0531 15.2695C19.4979 15.2695 18.9145 15.5186 18.9145 16.2679C18.9145 16.8583 19.2975 16.9934 19.5347 16.9934C19.9877 16.9934 20.183 16.6853 20.1934 16.6844L20.172 16.9413H20.7373L20.9899 15.0872C20.99 14.3005 20.3354 14.2752 20.1081 14.2752V14.2752ZM9.50553 14.2786C9.06363 14.2786 8.72459 14.4272 8.72459 14.4272L8.63109 15.0066C8.63109 15.0066 8.91065 14.8882 9.33327 14.8882C9.57325 14.8882 9.74918 14.9163 9.74918 15.12C9.74918 15.2437 9.72784 15.2896 9.72784 15.2896C9.72784 15.2896 9.53823 15.2728 9.45058 15.2728C8.89322 15.2728 8.3079 15.5215 8.3079 16.2704C8.3079 16.8605 8.69162 16.9959 8.92968 16.9959C9.38436 16.9959 9.58042 16.6878 9.59086 16.6869L9.56952 16.9438H10.1372L10.3906 15.0906C10.3906 14.3043 9.73369 14.2786 9.50553 14.2786V14.2786ZM11.5104 14.2786C11.0358 14.2786 10.5539 14.4747 10.5539 15.1443C10.5539 15.9031 11.357 15.8265 11.357 16.1461C11.357 16.3595 11.1329 16.3771 10.96 16.3771C10.6607 16.3771 10.3916 16.2712 10.3906 16.2763L10.3045 16.8557C10.32 16.8606 10.4866 16.9371 11.0248 16.9371C11.1692 16.9371 11.9952 16.9747 11.9952 16.094C11.9952 15.2707 11.2306 15.4339 11.2306 15.1032C11.2306 14.9385 11.3548 14.8865 11.5826 14.8865C11.673 14.8865 12.0215 14.9159 12.0215 14.9159L12.1018 14.3306C12.1018 14.3307 11.877 14.2786 11.5104 14.2786H11.5104ZM14.4766 14.2786C13.8172 14.2787 13.329 15.0046 13.329 15.8245C13.329 16.7709 13.9407 16.9959 14.4619 16.9959C14.9429 16.9959 15.155 16.8859 15.155 16.8859L15.2699 16.2402C15.2699 16.2402 14.9039 16.4048 14.5734 16.4048C13.8692 16.4048 13.9926 15.8682 13.9926 15.8682H15.3256C15.3256 15.8682 15.4118 15.4345 15.4118 15.2577C15.4118 14.8165 15.1967 14.2786 14.4766 14.2786H14.4766ZM16.8646 14.3063C16.5675 14.3063 16.3469 14.7152 16.3469 14.7152L16.406 14.3399H15.7891L15.3749 16.9313H16.0565C16.2496 15.8247 16.2849 14.9261 16.7456 15.0906C16.8263 14.6623 16.9045 14.4968 16.9925 14.3155C16.9925 14.3155 16.9512 14.3063 16.8645 14.3063H16.8646ZM22.3877 14.3063C22.0907 14.3063 21.8701 14.7152 21.8701 14.7152L21.9292 14.3399H21.3123L20.898 16.9313H21.5789C21.772 15.8247 21.8082 14.9261 22.2688 15.0906C22.3496 14.6623 22.4277 14.4968 22.5157 14.3155C22.5157 14.3155 22.4743 14.3063 22.3877 14.3063H22.3877ZM14.4733 14.863C14.8478 14.863 14.7793 15.2958 14.7793 15.3308H14.0419C14.0419 15.2861 14.1116 14.863 14.4734 14.863H14.4733ZM23.3844 14.9134C23.6228 14.9133 23.7453 15.0782 23.7453 15.4659C23.7453 15.8178 23.572 16.288 23.2129 16.288C22.9747 16.288 22.8627 16.0866 22.8627 15.7708C22.8627 15.2544 23.0935 14.9134 23.3844 14.9134H23.3844ZM20.1089 15.7951C20.2061 15.7952 20.2262 15.8049 20.2426 15.8094C20.2402 15.809 20.2398 15.8095 20.2492 15.8111C20.2615 15.9265 20.1811 16.4677 19.7922 16.4677C19.5918 16.4677 19.5404 16.3046 19.5404 16.2083C19.5404 16.0205 19.6359 15.7951 20.1089 15.7951ZM9.50637 15.7976C9.6168 15.7978 9.62885 15.8104 9.64746 15.8136C9.6598 15.929 9.57905 16.4694 9.1889 16.4694C8.98764 16.4694 8.93543 16.307 8.93543 16.2108C8.93543 16.0231 9.0315 15.7976 9.50637 15.7976Z" fill="#999999"/>
</svg>
