<svg viewBox="0 0 30 30" fill="none" xmlns="http://www.w3.org/2000/svg">
<path fill-rule="evenodd" clip-rule="evenodd" d="M1.875 8.37536C1.875 7.68475 2.42208 7.12503 3.09644 7.12503L26.9036 7.125C27.5778 7.125 28.125 7.68483 28.125 8.37533V22.7497C28.125 23.4403 27.5779 24 26.9036 24H3.09644C2.42215 24 1.875 23.4402 1.875 22.7497V8.37536ZM17.7899 12.7193C18.2368 12.7162 18.6807 12.795 19.1006 12.9521L19.1358 12.9437L18.9308 14.1372L18.7953 14.075C18.4487 13.9257 18.0753 13.8533 17.6996 13.8627C17.135 13.8627 16.8649 14.1075 16.8649 14.3365C16.8649 14.5952 17.1802 14.7659 17.6888 15.0209C18.5252 15.414 18.9227 15.8897 18.91 16.5194C18.8983 17.6608 17.8938 18.4036 16.3573 18.4036C15.7033 18.3925 15.0701 18.2636 14.7187 18.1134L14.9237 16.8782L15.1035 16.9644C15.5886 17.1712 15.9038 17.2538 16.481 17.2538C16.9011 17.2538 17.3527 17.0869 17.3563 16.7187C17.3581 16.4767 17.1676 16.3061 16.5976 16.0353C16.042 15.772 15.3077 15.3278 15.3167 14.5396C15.3239 13.4667 16.3446 12.7193 17.7899 12.7193ZM21.722 12.8195H22.8511L24.0345 18.3266H22.6795C22.6795 18.3266 22.544 17.6942 22.4997 17.5004L20.6245 17.4986L20.3174 18.3266H18.7808L20.9524 13.2766C21.106 12.9187 21.3706 12.8195 21.722 12.8195ZM14.7024 12.7731H13.2382V12.7713L12.324 18.2831H13.7865L14.7024 12.7731ZM9.67286 16.575L9.5211 15.81H9.5202V15.8128L9.00531 13.2822C8.9195 12.9317 8.66206 12.8287 8.34229 12.8158H5.98558L5.9657 12.9317C6.465 13.0527 6.94796 13.2361 7.40376 13.4778C7.46977 13.5196 7.51787 13.5856 7.53835 13.6624L8.80298 18.3192H10.3503L12.6547 12.8195H11.1037L9.67286 16.575ZM21.0449 16.371H22.2613L21.9225 14.7816L21.8223 14.3059C21.7738 14.4413 21.7024 14.6316 21.661 14.7421C21.6391 14.8004 21.6256 14.8365 21.6281 14.8308L21.0449 16.371Z" fill="#999999"/>
</svg>
