<svg viewBox="0 0 30 30" fill="none" xmlns="http://www.w3.org/2000/svg">
<path d="M13.701 9.0005C14.4513 8.99293 15.1852 9.0739 15.5432 9.08394C16.8703 9.12112 17.1047 9.77445 17.0877 10.3118C17.0629 11.0989 16.5427 14.428 17.5066 14.7527C18.9113 14.0216 19.8532 11.751 20.5391 10.3118C20.8861 9.58389 20.8312 9.54772 21.6308 9.54675L24.8073 9.54202C25.5722 9.5411 25.5424 9.51499 25.7874 9.8191C26.3573 10.5264 23.9889 13.4685 23.2239 14.282C21.8122 15.7833 22.6359 16.3646 22.8633 16.5709C23.9168 17.527 24.9347 18.5185 25.5674 19.4329C26.0704 20.1598 25.8627 20.8367 25.2229 20.8623L21.8168 20.9992C20.6865 21.0445 18.929 19.0723 18.6485 18.6426C18.4216 18.2882 17.3282 17.844 17.2252 18.7496L17.0813 20.0137C16.9767 20.9173 16.2913 20.8962 15.7502 20.9189C12.0036 21.0758 10.7277 19.6874 8.84093 17.6382C7.45813 15.7347 6.13853 13.8203 5.04505 11.527C4.71775 10.8406 4.54438 10.337 4.5 9.80328C5.0502 9.38471 6.98142 9.565 8.2781 9.53723C8.63276 9.52962 8.87206 9.72743 9.05927 10.1213C9.78977 11.6583 10.5864 13.1677 11.6406 14.5023C12.0996 14.9139 12.5054 15.0652 12.708 14.2284C12.8256 14.2179 12.8162 12.8321 12.8228 11.7868C12.8274 11.069 12.7408 10.2083 11.4918 9.81114C11.7444 9.16658 12.7364 9.01023 13.701 9.0005Z" fill="#999999"/>
</svg>
