<svg width="680" height="670" viewBox="0 0 680 670" fill="none" xmlns="http://www.w3.org/2000/svg">
<path d="M56.3612 314.799L52.9941 318.155C54.4906 338.662 60.1024 355.068 72.4484 371.475C84.7943 387.881 96.7661 390.864 100.507 391.982C104.249 393.101 120.71 397.575 128.192 400.185C134.178 402.274 139.416 406.027 141.286 407.643C142.908 406.151 147.946 401.602 155.129 395.338C152.884 393.847 113.227 364.763 104.249 356.56C95.2697 348.357 88.9096 342.391 75.4413 328.222C61.973 314.053 63.4695 294.291 63.4695 278.631C60.7758 283.105 57.6083 304.607 56.3612 314.799Z" stroke="white" stroke-width="2"/>
<path d="M629.287 314.799L632.654 318.155C631.157 338.662 625.546 355.068 613.2 371.475C600.854 387.881 588.882 390.864 585.141 391.982C581.4 393.101 564.938 397.575 557.456 400.185C551.47 402.274 546.232 406.027 544.362 407.643C542.741 406.151 537.702 401.602 530.519 395.338C532.764 393.847 572.421 364.763 581.4 356.56C590.378 348.357 596.738 342.391 610.207 328.222C623.675 314.053 622.179 294.291 622.179 278.631C624.872 283.105 628.04 304.607 629.287 314.799Z" stroke="white" stroke-width="2"/>
<path opacity="0.5" d="M75.4414 328.222L104.249 356.56L155.129 395.338M610.207 328.222L581.4 356.56L530.519 395.338M110.333 283.856C122.008 297.682 153.327 329.882 185.2 348.078C244.743 350.219 314.793 351.051 342.376 351.2C369.958 351.051 440.009 350.219 499.552 348.078C531.425 329.882 562.744 297.682 574.419 283.856C570.916 274.936 566.538 257.543 564.787 249.961C559.533 251.448 544.385 255.313 525.821 258.881C507.258 262.449 395.79 266.314 342.376 267.801C288.962 266.314 177.494 262.449 158.931 258.881C140.367 255.313 125.219 251.448 119.965 249.961C118.214 257.543 113.836 274.936 110.333 283.856Z" stroke="white" stroke-width="2"/>
</svg>
