<svg viewBox="0 0 110 18" xmlns="http://www.w3.org/2000/svg">
<path d="M64.7825 8.84124V5.905L78.6505 5.905V8.84124H73.5244V17.9965H69.9085V8.84124H64.7825Z" fill="#262626"/>
<path d="M80.0425 17.9835V5.91806L93.9533 5.91806V8.8216H83.6485V10.5382H91.6501V13.3502H83.6485V15.0897H93.9039V17.9835H80.0425Z" fill="#262626"/>
<path d="M106.417 13.602C106.252 13.857 106.045 14.0892 105.789 14.2985C105.068 14.8837 104.058 15.1747 102.758 15.1747C101.459 15.1747 100.449 14.8837 99.728 14.2985C99.0075 13.7132 98.6489 12.9317 98.6489 11.9508C98.6489 10.9698 99.0075 10.1884 99.728 9.60309C100.449 9.0178 101.455 8.7268 102.758 8.7268C104.058 8.7268 105.068 9.0178 105.789 9.60309C106.042 9.80908 106.249 10.0412 106.414 10.2963H110C109.717 9.17148 109.128 8.2396 108.227 7.50718C106.917 6.43797 105.094 5.905 102.762 5.905C100.429 5.905 98.6061 6.44124 97.2966 7.50718C95.9871 8.57639 95.3291 10.0576 95.3291 11.9508C95.3291 13.844 95.9838 15.3252 97.2966 16.3944C98.6061 17.4636 100.429 17.9965 102.762 17.9965C105.094 17.9965 106.917 17.4603 108.227 16.3944C109.128 15.6587 109.72 14.7301 110 13.602H106.417V13.602Z" fill="#262626"/>
<path d="M39.8735 6.50082C42.0088 6.50082 43.6769 6.98147 44.8778 7.94605C46.0787 8.91063 46.6775 10.2447 46.6775 11.9515C46.6775 13.6583 46.0787 14.9924 44.8778 15.9569C43.6769 16.9215 42.0088 17.4022 39.8735 17.4022C37.7382 17.4022 36.0701 16.9215 34.8692 15.9569C33.6683 14.9924 33.0695 13.6583 33.0695 11.9515C33.0695 10.2447 33.6683 8.91063 34.8692 7.94605C36.0701 6.98474 37.7382 6.50082 39.8735 6.50082ZM39.8735 5.92207C37.6197 5.92207 35.8167 6.4485 34.5237 7.49156C33.1846 8.5673 32.5068 10.0681 32.5068 11.9548C32.5068 13.8414 33.1846 15.3422 34.5237 16.418C35.82 17.4578 37.6197 17.9875 39.8735 17.9875C42.1273 17.9875 43.9303 17.461 45.2233 16.418C46.5624 15.3422 47.2402 13.8414 47.2402 11.9548C47.2402 10.0681 46.5624 8.5673 45.2233 7.49156C43.9303 6.4485 42.1273 5.92207 39.8735 5.92207Z" fill="#0049FF"/>
<path d="M63.3427 5.91479V17.9867H57.0388L52.755 9.384V17.9867H48.616V17.408H52.1726V8.82161H53.1268L57.4007 17.408H62.7603V6.49681H60.0558V15.0897H59.105L54.8278 6.49681H48.616V5.91479H55.1897L59.4735 14.5208V5.91479H63.3427Z" fill="#0049FF"/>
<path d="M13.4896 11.7384C14.3615 11.1891 14.9373 10.1068 14.9373 9.01144C14.9373 7.3079 13.5423 5.92153 11.8281 5.92153L3.67839 5.92153L3.67839 0L3.38886 0C1.52005 0 0 1.51063 0 3.36785L0 14.6289C0 14.6289 0 14.6289 0 14.6322C0 14.6616 0 14.6943 0 14.727C0.0493523 16.5319 1.59573 18 3.45137 18H13.1573C14.9307 18 16.3718 16.5678 16.3718 14.8054C16.3718 13.151 15.1051 11.9052 13.4896 11.7384ZM3.09604 0.595095L3.09604 5.86267C1.68456 5.7188 0.585648 4.80654 0.585648 3.36785C0.585648 1.92916 1.68456 0.742234 3.09604 0.595095ZM0.585648 5.02234C1.14168 5.83978 2.05306 6.3564 3.09604 6.44796V11.2774C2.28337 11.3461 1.53321 11.6959 0.960726 12.2845C0.819249 12.4283 0.694223 12.5787 0.585648 12.7422L0.585648 5.02234ZM13.1573 17.4147H3.45137C1.91158 17.4147 0.62513 16.2016 0.585648 14.7074C0.585648 14.6812 0.585648 14.655 0.585648 14.6289C0.585648 13.8965 0.865311 13.2098 1.37858 12.6866C1.91158 12.1406 2.62554 11.8431 3.38886 11.8431H3.68168V6.50354L11.8314 6.50354C13.2231 6.50354 14.355 7.62834 14.355 9.01144C14.355 10.3946 13.2264 11.6371 11.8347 11.6371V12.2485L13.1606 12.3008C14.4043 12.2485 15.7927 13.3569 15.7927 14.7989C15.7895 16.2441 14.6083 17.4147 13.1573 17.4147Z" fill="#0049FF"/>
<path d="M17.7862 17.9933V17.4113L21.2113 17.4047V13.3371H23.7776L27.5613 17.408H31.0653L26.9164 13.3502L27.5119 13.2717C29.7295 12.984 30.8087 11.9246 30.8087 10.0314C30.8087 8.84123 30.404 7.97801 29.5716 7.39599C28.7161 6.8009 27.6139 6.49681 26.2946 6.49681L16.3813 6.49681V5.91479L26.2913 5.91479C27.7324 5.91479 28.9497 6.25158 29.9039 6.91861C30.8909 7.60853 31.391 8.65485 31.391 10.0281C31.391 12.0587 30.3053 13.311 28.1601 13.7491L32.4899 17.9835H27.3047L23.521 13.9126H21.7937V17.9835L17.7862 17.9933Z" fill="#0049FF"/>
</svg>
