<svg viewBox="0 0 130 21" fill="none" xmlns="http://www.w3.org/2000/svg">
<path d="M15.2585 13.8684C16.8103 13.3384 17.5954 12.3716 17.5954 10.9856C17.5954 9.81478 17.0399 8.85681 15.9449 8.13611C14.8935 7.44203 13.4542 7.09609 11.6683 7.09609H4.36155V0H4.01492C2.95047 0.00117383 1.92997 0.410173 1.17728 1.13727C0.424605 1.86437 0.00121513 2.85019 0 3.87846L0 16.2966C0 17.6515 0.066571 17.8178 0.066571 17.8178C0.236506 18.7102 0.724361 19.5169 1.44553 20.0981C2.16671 20.6793 3.07572 20.9984 4.01492 21H11.6683C13.7756 21 15.394 20.6563 16.4889 19.9799C17.6207 19.2748 18.1945 18.2902 18.1945 17.0528C18.1831 15.4451 17.2006 14.3785 15.2585 13.8684ZM3.67288 0.685216V7.0717C2.85626 6.98843 2.10045 6.61611 1.55113 6.02649C1.0018 5.43688 0.697848 4.67171 0.697848 3.87846C0.697848 3.08521 1.0018 2.32004 1.55113 1.73042C2.10045 1.14081 2.85626 0.768485 3.67288 0.685216ZM0.688666 6.05164C1.02366 6.53109 1.4656 6.93195 1.98202 7.22475C2.49844 7.51754 3.07622 7.69484 3.67288 7.74361V13.2564C3.07649 13.3052 2.49897 13.4823 1.98261 13.7747C1.46625 14.0671 1.02414 14.4673 0.688666 14.9461V6.05164ZM16.101 19.4189C15.1323 20.0243 13.6402 20.3303 11.6683 20.3303H4.01492C3.13213 20.3303 2.2855 19.9915 1.66128 19.3885C1.03706 18.7855 0.68637 17.9677 0.68637 17.1149C0.68637 16.2621 1.03706 15.4443 1.66128 14.8412C2.2855 14.2382 3.13213 13.8995 4.01492 13.8995H4.36155V7.79462L11.6683 7.76135C13.3142 7.76135 14.6204 8.07181 15.557 8.68606C16.4935 9.30032 16.9021 10.0321 16.9021 10.9812C16.9021 12.4492 15.7658 13.3007 13.429 13.5801V14.2454C16.1538 14.4827 17.4783 15.4007 17.4783 17.0528C17.4898 18.0618 17.0353 18.8357 16.101 19.4189Z" fill="#0049FF"/>
<path d="M37.1267 12.4147C39.1516 12.588 40.1657 13.3187 40.1657 14.5976C40.1724 14.9695 40.0762 15.3363 39.8871 15.6603C39.6979 15.9842 39.4226 16.2535 39.0896 16.4403C38.369 16.8907 37.2995 17.1143 35.8713 17.1143H29.1934V7.89777H35.8713C37.0712 7.89777 38.0201 8.12771 38.7146 8.5813C39.0361 8.76899 39.3011 9.03457 39.4836 9.35171C39.666 9.66885 39.7595 10.0265 39.7548 10.3893C39.7548 11.5296 38.8788 12.2047 37.1267 12.4147ZM32.0302 10.005V11.4666H35.7376C36.0416 11.4829 36.3439 11.414 36.6082 11.2681C36.7063 11.2135 36.788 11.135 36.8451 11.0406C36.9023 10.9461 36.933 10.8389 36.9343 10.7295C36.9343 10.2444 36.5397 10.005 35.7507 10.005H32.0302ZM35.6007 15.0071C36.0555 15.032 36.5112 14.9743 36.9441 14.837C37.0625 14.7839 37.1628 14.6992 37.2331 14.5929C37.3033 14.4866 37.3407 14.3631 37.3407 14.2369C37.3407 14.1108 37.3033 13.9873 37.2331 13.881C37.1628 13.7746 37.0625 13.6899 36.9441 13.6369C36.5552 13.504 36.143 13.4462 35.7311 13.4668H32.0302V15.0071H35.6007Z" fill="#262626"/>
<path d="M49.5272 17.1146L46.4067 13.8544H44.6329V17.1146H41.796V7.898H48.5816C49.5883 7.86034 50.5822 8.12679 51.4249 8.66027C52.1792 9.17055 52.5564 9.93913 52.5564 10.966C52.5564 12.6081 51.5782 13.5531 49.6217 13.8009L53.1107 17.1209L49.5272 17.1146ZM44.6329 10.0746V11.785H48.4511C48.7743 11.8013 49.0956 11.728 49.3772 11.5739C49.4851 11.5069 49.5724 11.413 49.6297 11.3022C49.6871 11.1913 49.7125 11.0676 49.7033 10.9439C49.7043 10.8195 49.6733 10.6967 49.6129 10.5867C49.5526 10.4767 49.4649 10.383 49.3576 10.314C49.0839 10.1449 48.7626 10.0624 48.4381 10.0777L44.6329 10.0746Z" fill="#262626"/>
<path d="M55.5236 16.009C54.9767 15.5962 54.5402 15.0627 54.2509 14.4532C53.9615 13.8437 53.8277 13.1761 53.8607 12.5064C53.8277 11.8366 53.9615 11.169 54.2509 10.5595C54.5402 9.95007 54.9767 9.41653 55.5236 9.0037C56.6388 8.16373 58.192 7.74374 60.1832 7.74374C62.1744 7.74374 63.7276 8.16373 64.8427 9.0037C65.3921 9.4152 65.831 9.94815 66.1227 10.5577C66.4144 11.1672 66.5502 11.8355 66.5188 12.5064C66.5502 13.1772 66.4144 13.8455 66.1227 14.455C65.831 15.0646 65.3921 15.5975 64.8427 16.009C63.7232 16.849 62.17 17.269 60.1832 17.269C58.1963 17.269 56.6431 16.849 55.5236 16.009ZM57.6007 10.6542C57.3138 10.8762 57.0822 11.1576 56.9231 11.4776C56.7639 11.7977 56.6813 12.1482 56.6813 12.5032C56.6813 12.8583 56.7639 13.2088 56.9231 13.5288C57.0822 13.8489 57.3138 14.1303 57.6007 14.3522C58.2137 14.8121 59.0745 15.042 60.1832 15.042C61.2918 15.042 62.1527 14.8121 62.7657 14.3522C63.0526 14.1303 63.2842 13.8489 63.4433 13.5288C63.6024 13.2088 63.6851 12.8583 63.6851 12.5032C63.6851 12.1482 63.6024 11.7977 63.4433 11.4776C63.2842 11.1576 63.0526 10.8762 62.7657 10.6542C62.1527 10.1923 61.2918 9.96126 60.1832 9.96126C59.0745 9.96126 58.2137 10.1933 57.6007 10.6574V10.6542Z" fill="#262626"/>
<path d="M77.0117 7.89777H79.7246V17.1143H74.8988L70.9761 9.44436V17.1143H68.2632V7.89777H73.0728L76.9856 15.5583L77.0117 7.89777Z" fill="#262626"/>
<path d="M81.1822 10.1373V7.89777H92.0567V10.1373H88.0362V17.1143H85.2026V10.1373H81.1822Z" fill="#262626"/>
<path d="M93.5272 17.1143V7.89777H103.244V10.0302H96.364V11.4256H101.731V13.4258H96.364V14.9819H103.502V17.1143H93.5272Z" fill="#262626"/>
<path d="M113 17.1146L109.88 13.8544H108.109V17.1146H105.276V7.89799H112.061C113.067 7.86037 114.06 8.12684 114.901 8.66027C115.651 9.17055 116.026 9.93912 116.026 10.966C116.026 12.6081 115.048 13.5531 113.092 13.8009L116.577 17.1209L113 17.1146ZM108.109 10.0746V11.785H111.924C112.247 11.802 112.569 11.7287 112.85 11.5739C112.959 11.5074 113.046 11.4136 113.104 11.3026C113.161 11.1916 113.186 11.0676 113.176 10.9439C113.177 10.8192 113.145 10.6964 113.084 10.5864C113.023 10.4765 112.935 10.3828 112.827 10.314C112.554 10.1449 112.232 10.0624 111.908 10.0777L108.109 10.0746Z" fill="#262626"/>
<path d="M118.997 16.009C118.447 15.5975 118.008 15.0646 117.717 14.455C117.425 13.8455 117.289 13.1772 117.321 12.5064C117.289 11.8355 117.425 11.1672 117.717 10.5577C118.008 9.94815 118.447 9.4152 118.997 9.0037C120.114 8.16373 121.667 7.74374 123.656 7.74374C125.645 7.74374 127.2 8.16373 128.319 9.0037C128.868 9.41573 129.306 9.94878 129.598 10.5582C129.889 11.1676 130.026 11.8357 129.995 12.5064C130.026 13.1771 129.889 13.8451 129.598 14.4545C129.306 15.064 128.868 15.597 128.319 16.009C127.202 16.849 125.647 17.269 123.656 17.269C121.665 17.269 120.112 16.849 118.997 16.009ZM121.074 10.6542C120.787 10.8762 120.555 11.1576 120.396 11.4776C120.237 11.7977 120.154 12.1482 120.154 12.5032C120.154 12.8583 120.237 13.2088 120.396 13.5288C120.555 13.8489 120.787 14.1303 121.074 14.3522C121.687 14.8121 122.548 15.042 123.656 15.042C124.765 15.042 125.629 14.8131 126.249 14.3554C126.535 14.1334 126.767 13.852 126.926 13.532C127.085 13.2119 127.168 12.8614 127.168 12.5064C127.168 12.1513 127.085 11.8008 126.926 11.4808C126.767 11.1607 126.535 10.8793 126.249 10.6574C125.635 10.1954 124.775 9.96442 123.666 9.96442C122.557 9.96442 121.693 10.1954 121.074 10.6574V10.6542Z" fill="#262626"/>
</svg>
