<svg viewBox="0 0 950 500" fill="none" xmlns="http://www.w3.org/2000/svg">
<path d="M189.331 125.327H198.403C197.662 125.327 209.881 71.0813 229.506 26.6478C226.399 27.1591 223.555 27.7626 221.312 28.2948M189.331 125.327H181.555C194.885 78.8201 210.745 42.0143 217.009 29.4249C217.819 29.1789 219.331 28.7647 221.312 28.2948M189.331 125.327C191.705 113.033 201.426 76.4158 221.312 28.2948M129.451 125.142C126.736 124.648 121.009 123.142 119.824 121.068C122.23 115.329 142.04 72.747 156.852 51.0857C160.851 48.5678 163.085 47.3212 163.702 47.0126L142.04 86.8176C138.276 96.3215 130.488 117.514 129.451 126.252M613.221 39.2367C626.181 48.4937 657.432 72.3396 678.76 93.6677C700.088 114.996 706.161 121.439 706.161 121.439M347.29 218.905L352.474 202.242L366.544 188.912L375.832 179.87C376.282 179.121 376.731 177.083 374.934 174.926C372.686 172.229 367.293 169.982 365.945 165.487C364.866 161.892 365.495 155.899 365.945 153.352C366.723 148.942 371.338 148.319 373.136 147.959C375.832 147.42 409.541 147.06 444.148 149.757C433.362 143.015 421.227 138.97 415.833 137.443C411.519 136.222 402.863 134.481 397.277 133C389.625 133.741 372.395 135.666 364.693 137.443C345.735 152.847 329.887 170.768 324.333 177.804C323.962 179.038 322.777 184.247 321 195.207C326.036 195.207 340.625 211.006 347.29 218.905ZM381 194.453L392.691 183.256C393.057 182.413 393.349 180.294 391.595 178.561C389.403 176.394 382.827 172.059 382.461 167.725C382.169 164.258 382.34 160.983 382.461 159.779C382.461 157.853 383.631 154 388.307 154C394.153 154 447.493 154 488.047 159.779C520.49 164.402 559.534 171.096 575 173.865L559.655 191.925C555.88 190.6 545.991 188.53 536.638 190.841C527.286 193.153 507.167 197.102 498.277 198.787C494.38 199.51 482.202 200.665 464.665 199.51C447.128 198.354 401.581 195.657 381 194.453ZM829.685 178.463L839.682 195.866C840.793 195.372 843.533 194.681 845.607 195.866C848.199 197.347 858.937 204.012 862.639 205.864C865.602 207.345 868.564 206.481 869.675 205.864C866.589 196.73 860.196 175.723 859.307 164.763C850.42 170.317 841.533 174.39 829.685 178.463ZM409.5 133C417.359 134.276 440.381 140.779 458.007 150.946C481.971 152.852 545.713 164.5 577.773 170.103L582.296 164.944C609.019 164.47 674.6 163.958 723.138 165.7C771.675 167.442 809.774 169.251 822.756 169.938L827.213 176.997C834.969 174.447 851.759 168.168 856.879 163.456C844.615 159.243 825.357 150.697 817.255 148.062C813.466 145.542 810.894 141.825 806.278 139.486C799.207 135.903 667.921 124.302 477.983 128.095C472.723 131.029 467.098 132.11 458.107 132.432C449.115 132.754 424 132.432 409.5 133ZM283.764 4.4778C286.356 5.09493 290.892 10.68 297.742 19.6502C328.475 19.6502 395.126 16.688 479.179 21.5016C546.422 25.3525 590.88 31.746 604.704 34.4614C596.311 29.5243 575.081 18.6875 557.308 14.8366C535.091 10.023 508.431 7.80129 434.005 4.46877C374.464 1.80276 309.56 3.36696 283.764 4.4778ZM181.474 179.573C182.215 179.326 183.992 178.388 185.177 176.61C186.658 174.389 189.62 176.61 191.101 177.721C192.582 178.832 194.064 180.313 193.323 181.054C192.583 181.794 190.731 183.646 187.028 183.646C184.066 183.646 182.091 180.93 181.474 179.573ZM94.8291 165.421C95.2389 165.169 96.2223 164.212 96.8779 162.399C97.6974 160.133 99.3364 162.399 100.156 163.533C100.975 164.666 101.795 166.177 101.385 166.932C100.975 167.687 99.951 169.576 97.9022 169.576C96.2632 169.576 95.1706 166.806 94.8291 165.421ZM269.416 22.1125C270.342 19.8908 274.045 11.8374 274.045 12.5779C274.045 12.5779 283.302 10.3561 285.894 12.5778C288.486 14.7995 296.262 22.5753 309.592 50.3463C322.922 78.1172 327.365 93.669 332.179 101.445C336.03 107.666 338.967 109.468 339.954 109.591H332.179L322.922 121.44H306.629C307.246 116.873 308.11 105.666 306.629 97.3718C304.778 87.0039 294.78 62.1952 290.337 51.4571C285.894 40.719 278.025 27.4815 269.416 22.1125Z" stroke="white"/>
</svg>
