<svg width="56" height="56" viewBox="0 0 56 56" fill="none" xmlns="http://www.w3.org/2000/svg">
<path d="M11.2372 23.0393V24.8472H1.93488C1.82326 24.8472 1.82326 24.8472 1.82326 24.9651V30.0742C1.82326 30.1921 1.82326 30.1921 1.93488 30.1921H9.37674C9.48837 30.1921 9.48837 30.1921 9.48837 30.0742V28.3843H3.64651V26.7336C3.64651 26.655 3.68372 26.6157 3.75814 26.6157H11.2372C11.3116 26.6157 11.3488 26.6157 11.3488 26.7336V31.9607H1.48837C0.781395 31.9607 0.223256 31.4498 0.0744186 30.7424C0 30.6638 0 30.5459 0 30.4672V24.5328C0 23.7467 0.55814 23.1179 1.30233 23.0393H11.2372ZM35.8326 24.8079H27.1628V26.4978C27.1628 26.6157 27.1628 26.6157 27.2744 26.6157H35.5349C35.6837 26.6157 35.6837 26.6157 35.6837 26.7729V28.3843H27.1256V30.0742C27.1256 30.1921 27.1256 30.1921 27.2372 30.1921H35.8326V31.9607H26.7163C26.0093 31.9607 25.4512 31.4498 25.3395 30.7031V23H35.7953C35.8326 23.6288 35.8326 24.2183 35.8326 24.8079ZM13.0605 23.0393H23.5163V24.8079H14.9581C14.8093 24.8079 14.8465 24.8079 14.8465 24.9258V26.4585C14.8465 26.5764 14.8465 26.5764 14.9581 26.5764H23.3302C23.3674 26.5764 23.4047 26.5764 23.4047 26.655V28.3843H14.9953C14.8465 28.3843 14.8465 28.345 14.8465 28.5415V30.0349C14.8465 30.1528 14.8465 30.1528 14.9581 30.1528H23.4047C23.5535 30.1528 23.5535 30.1135 23.5535 30.31V31.9214H14.4C13.693 31.9214 13.1349 31.3712 13.0605 30.6638V23.0393ZM43.5349 23.0393H45.8419C45.9163 23.0393 45.9535 23.0393 45.9907 23.1179C47.2186 24.4148 48.4465 25.7511 49.7116 27.048C49.7488 27.0873 49.7488 27.1266 49.786 27.1659L53.5442 23.1965C53.5814 23.1572 53.6558 23.1179 53.7302 23.1179H56C55.9628 23.1572 55.9628 23.1965 55.9256 23.1965L50.7163 28.6987C50.6791 28.738 50.6419 28.7773 50.6419 28.8559V31.8821C50.6419 32 50.6419 32 50.5302 32H48.8558V28.8166C48.8558 28.738 48.8186 28.6987 48.7814 28.6594C47.0326 26.8122 45.2837 25.0044 43.5721 23.1572C43.5721 23.0786 43.5349 23.0786 43.5349 23.0393ZM47.0698 30.1921V31.9607H39.107C38.4 31.9607 37.7674 31.3712 37.693 30.6638C37.6558 30.5459 37.6558 30.3886 37.6558 30.2314V23H39.4419V30.0349C39.4419 30.1528 39.4419 30.1528 39.5535 30.1528H46.9581C46.9953 30.1921 47.0326 30.1921 47.0698 30.1921Z" fill="white"/>
</svg>
