<svg width="56" height="56" viewBox="0 0 56 56" fill="none" xmlns="http://www.w3.org/2000/svg">
<path d="M3.59417 24.0201C1.73536 26.4952 0.423555 30.3839 0 32H3.39449L4.05724 30.5053C4.55922 29.5535 5.33116 28.6848 7.55024 28.6798C7.0079 30.0265 6.62187 31.2524 6.42593 32H9.82042L13.5053 24.0201H10.0201C9.35951 24.8997 8.768 25.9908 8.2609 27.0559C7.74705 27.0442 6.6322 27.0847 5.50988 27.2292L6.91605 24.0201H3.59417Z" fill="white"/>
<path fill-rule="evenodd" clip-rule="evenodd" d="M11.1455 32H14.6671C14.9273 31.5032 15.9305 30.4719 17.8619 30.4719H19.2653C19.0908 30.9921 18.9379 31.5368 18.824 32H21.6376L24.4694 24.0201C21.5287 24.0201 19.895 24.0201 17.1721 25.8878C14.2763 27.8887 11.9879 30.8715 11.3312 31.7275C11.2263 31.8642 11.163 31.9844 11.1455 32ZM17.3037 28.7195C17.8353 28.0994 19.6507 25.9821 21.0749 25.9821C20.7812 26.6025 20.2958 27.6967 19.8318 28.8873H17.154C17.1665 28.8795 17.2187 28.8186 17.3037 28.7195Z" fill="white"/>
<path fill-rule="evenodd" clip-rule="evenodd" d="M32.7831 32H36.3047C36.5649 31.5032 37.5681 30.4719 39.4995 30.4719H40.9029C40.7284 30.9921 40.5755 31.5368 40.4616 32H43.2752L46.107 24.0201C43.1663 24.0201 41.5326 24.0201 38.8097 25.8878C35.9139 27.8887 33.6255 30.8715 32.9688 31.7275C32.8639 31.8642 32.8006 31.9844 32.7831 32ZM38.9413 28.7195C39.4729 28.0994 41.2883 25.9821 42.7125 25.9821C42.4188 26.6025 41.9334 27.6967 41.4694 28.8873H38.7916C38.8041 28.8795 38.8563 28.8186 38.9413 28.7195Z" fill="white"/>
<path d="M28.953 24.0201H25.8853L26.5206 32H29.8969L37.884 24.0201H33.9812L29.3887 28.6986L28.953 24.0201Z" fill="white"/>
<path d="M45.8528 30.3022L48.0674 24.0201H52.1336C52.1699 24.0201 52.2062 23.9748 52.2062 24.0201C52.2062 24.0654 52.175 24.0013 52.1336 24.0201C52.0367 24.0641 51.7233 24.4767 51.2441 24.9445C50.7649 25.4124 50.4635 26.1078 50.3728 26.3971C50.1912 26.919 49.7629 28.144 49.5015 28.8684C49.1747 29.7739 49.1203 29.8117 49.1203 29.9814C49.1493 30.2078 49.4107 30.2518 49.5378 30.2456H56L54.5115 32H47.3776C46.5971 32 46.2159 31.6982 45.9073 31.3775C45.6604 31.1209 45.7681 30.5537 45.8528 30.3022Z" fill="white"/>
</svg>
