<svg viewBox="0 0 30 30" fill="none" xmlns="http://www.w3.org/2000/svg">
<path d="M14.9987 23C23.2825 23 30 19.6424 30 15.5012C30 11.3576 23.2825 8 14.9987 8C6.7175 8 0 11.3576 0 15.5012C0 19.6424 6.7175 23 14.9987 23ZM17.8237 19.3202C17.5737 19.8865 17.1425 21.0948 16.1538 21.5781C15.8538 21.7234 15.4825 21.7905 15.1538 21.8039H15C12.2325 21.8039 9.655 21.4255 7.4975 20.786L7.415 20.7555C7.215 20.6908 7.115 20.6005 7.115 20.4894C7.115 20.393 7.16875 20.3186 7.23875 20.2514L7.375 20.133C7.875 19.7278 9.3725 18.6684 12.1975 17.6103C13.1888 17.2429 14.43 16.7815 15.7288 16.5118C16.4888 16.358 19.315 15.9345 17.8237 19.3202ZM25.4 11.7604C25.4537 11.6701 25.525 11.5932 25.6538 11.5871C25.7238 11.5797 25.8187 11.5956 25.9637 11.6847C27.725 12.7429 28.77 14.0671 28.77 15.4988C28.77 18.0838 25.365 20.3076 20.495 21.2779C20.185 21.3389 19.975 21.3365 19.9063 21.2596C19.8563 21.2132 19.8438 21.1302 19.9063 21.0277C19.9428 20.9642 19.9864 20.9049 20.0362 20.8507C22.6862 17.7994 24.7063 13.297 25.28 11.9984C25.3238 11.9081 25.365 11.819 25.4 11.7604ZM12.2213 11.664C12.4713 11.0989 12.9025 9.88934 13.89 9.4109C14.19 9.26444 14.5612 9.19365 14.89 9.18511C14.9662 9.18267 15.02 9.18511 15.04 9.18511C17.8112 9.18511 20.385 9.55858 22.545 10.2018C22.5612 10.2091 22.6112 10.2262 22.6275 10.2323C22.8275 10.2982 22.9275 10.3873 22.9275 10.4984C22.9275 10.5948 22.875 10.6656 22.805 10.7339C22.7607 10.7747 22.7149 10.8138 22.6675 10.8511C22.1713 11.26 20.67 12.3169 17.845 13.3751C16.8513 13.7461 15.6125 14.2038 14.3175 14.4723C13.555 14.631 10.73 15.0496 12.2213 11.664ZM9.5 9.71969C9.8125 9.66111 10.0188 9.66111 10.095 9.738C10.1388 9.78682 10.1513 9.86737 10.0925 9.96989C10.0551 10.0317 10.0116 10.0898 9.9625 10.1432C7.3125 13.1981 5.29125 17.6969 4.715 18.9992C4.67884 19.0803 4.6388 19.1597 4.595 19.2372C4.545 19.3263 4.47125 19.4032 4.345 19.4105C4.275 19.4166 4.17625 19.3971 4.03125 19.3116C2.27125 18.2535 1.225 16.9304 1.225 15.4988C1.225 12.9138 4.63 10.69 9.5 9.71969Z" fill="white"/>
</svg>
