<svg viewBox="0 0 30 30" fill="none" xmlns="http://www.w3.org/2000/svg">
<path d="M17.4038 18.1967C17.4038 18.2538 17.4225 18.286 17.455 18.286C17.4814 18.2825 17.5063 18.2722 17.5275 18.2562L26.8775 12.2392C27.0354 12.1295 27.2247 12.0731 27.4175 12.0781H29.4725C29.7875 12.0781 30 12.2863 30 12.5987V16.4898C30 16.9609 29.895 17.2336 29.475 17.4827L26.9825 18.9702C26.9577 18.9873 26.9288 18.9976 26.8987 19C26.8687 19 26.8388 18.9764 26.8388 18.8909V14.3503C26.8388 14.297 26.8238 14.2623 26.7875 14.2623C26.761 14.2652 26.7358 14.2755 26.715 14.292L19.8825 18.6938C19.7278 18.7982 19.5446 18.8532 19.3575 18.8512H14.8275C14.51 18.8512 14.3 18.643 14.3 18.3281V12.7202C14.3 12.6793 14.2813 12.6409 14.245 12.6409C14.219 12.6443 14.1944 12.6546 14.1737 12.6706L9.665 15.3519C9.62 15.3816 9.6075 15.4027 9.6075 15.4238C9.6075 15.4411 9.6175 15.4597 9.6475 15.4919L12.8688 18.6839C12.9113 18.726 12.9413 18.7583 12.9413 18.7942C12.9413 18.824 12.8925 18.8475 12.8363 18.8475H9.925C9.69625 18.8475 9.52 18.8153 9.39625 18.6926L7.44375 16.7588C7.43636 16.75 7.42721 16.7428 7.41688 16.7377C7.40656 16.7326 7.39528 16.7297 7.38375 16.7291C7.36251 16.7302 7.34189 16.7366 7.32375 16.7477L4.06125 18.6938C3.90525 18.7977 3.72035 18.8506 3.5325 18.8451H0.53125C0.21 18.8475 0 18.6368 0 18.3257V14.5077C0 14.0367 0.105 13.7639 0.5275 13.516L3.0375 12.0198C3.05698 12.0076 3.07943 12.0007 3.1025 12C3.1425 12 3.1625 12.0372 3.1625 12.124V17.2361C3.1625 17.2894 3.175 17.3141 3.21375 17.3141C3.2407 17.31 3.26635 17.2998 3.28875 17.2844L11.7587 12.2281C11.923 12.1185 12.1186 12.0645 12.3163 12.0744H16.8763C17.1913 12.0744 17.4038 12.2826 17.4038 12.595L17.4012 18.1955L17.4038 18.1967Z" fill="white"/>
</svg>
