<svg viewBox="0 0 30 30" fill="none" xmlns="http://www.w3.org/2000/svg">
<path d="M21.295 19.1277H21.2862C21.12 19.1663 20.9825 19.0723 21.0212 18.9988C21.1737 18.6614 21.3563 18.1795 21.3888 18.0542C21.54 17.5518 21.4838 17.206 21.0225 16.8349C20.7475 16.6181 20.4388 16.4108 20.16 16.2193C20.0288 16.106 20.1037 15.9964 20.145 15.9578C20.225 15.8807 20.325 15.8169 20.4025 15.759C20.6275 15.5964 20.7662 15.6181 20.97 15.6386C21.285 15.6795 21.5988 15.7241 21.9125 15.7771C22.2163 15.8374 22.2787 15.7301 22.3525 15.5253L22.53 15.0133C22.6388 14.7193 22.4925 14.6542 22.2675 14.6494L19.2762 14.5374C19.0237 14.5217 18.9225 14.5952 18.83 14.6554C18.38 14.9687 17.93 15.2795 17.4787 15.5916C17.245 15.7434 17.345 15.847 17.4038 15.9506L17.6562 16.3494C17.8588 16.6675 17.7812 16.7554 17.605 16.941C17.47 17.0735 17.3225 17.194 17.1675 17.3012L17.1137 17.3374C16.6512 17.653 16.1762 17.7952 15.7712 17.8614C14.8012 17.9904 13.89 18.0096 13.0862 18.0229C11.3004 18.0479 9.51477 17.9638 7.74 17.7711C7.67158 17.7625 7.60213 17.7754 7.54183 17.8077C7.48153 17.84 7.43357 17.8901 7.405 17.9506L7.13 18.5289C7.11168 18.5667 7.0792 18.5964 7.03908 18.6121C6.99896 18.6277 6.95418 18.6281 6.91375 18.6133C4.35125 17.7349 2.735 16.4446 2.735 15.0072C2.735 13.0205 5.81875 11.3145 10.2188 10.5855C10.3088 10.5687 10.36 10.6036 10.3813 10.6217C10.4775 10.7 10.575 10.7783 10.6687 10.8602C10.73 10.9108 10.7163 10.9627 10.7025 11.0048L7.975 16.747C7.895 16.9422 8.06875 17.0036 8.12875 17.0036C9.735 17.0831 11.3112 17.0554 12.7475 16.9193C14.3225 16.7855 15.3125 16.4578 16.535 15.7361C17.4753 15.178 18.3677 14.5483 19.2037 13.853C19.6687 13.4518 19.9087 13.2277 20.21 12.8639C20.7362 12.2108 20.84 11.5627 20.4262 10.8301C20.3812 10.7289 20.5013 10.7157 20.5463 10.7217C24.5388 11.5133 27.2762 13.1361 27.2762 15.0072C27.2762 16.7578 24.8762 18.2904 21.295 19.1277ZM11.4188 11.5277C11.5225 11.6265 11.5988 11.7036 11.6963 11.8024C11.9525 12.0831 12.1563 12.3361 12.1413 12.8169C12.1338 13.1229 11.9825 13.494 11.7687 13.853C11.5562 14.2193 11.3025 14.5627 11.0162 14.8771C10.5975 15.359 10.17 15.5687 9.60375 15.7072C9.50125 15.7265 9.4825 15.6422 9.50375 15.5904L11.2688 11.5554C11.32 11.4675 11.3963 11.5084 11.4188 11.5277ZM15.0513 11.1747C14.9149 10.8165 14.701 10.4904 14.4237 10.2181C14.3955 10.1917 14.3696 10.1631 14.3463 10.1325C14.3288 10.1036 14.2963 10.0506 14.3338 10.0036C14.3838 9.94819 14.4475 9.97349 14.47 9.98554C14.6375 10.0627 15.21 10.3735 15.5175 11.1711C15.7662 11.8145 15.605 12.453 14.9787 13.3048C14.1575 14.4205 13.45 15.2602 11.8212 15.8916C11.11 16.1687 9.94625 16.2711 9.38375 16.2711C9.18875 16.2735 9.0775 16.2506 9.045 16.1795C9.03713 16.1658 9.03322 16.1503 9.03366 16.1346C9.0341 16.1189 9.03887 16.1037 9.0475 16.0904C9.1 16.0229 9.17875 16.0337 9.2475 16.0337C9.88125 16.0337 11.0213 15.8253 11.705 15.5169C13.1425 14.8675 13.86 14.0012 14.4712 13.1699C14.8837 12.612 15.3188 11.8807 15.0513 11.1747ZM17.6013 11.3795C17.5488 11.0217 17.2963 10.7108 17.13 10.5048L16.9987 10.3422C16.9562 10.294 16.9088 10.2398 16.9613 10.1855C17.045 10.1036 17.1775 10.2012 17.205 10.2181C17.48 10.3964 17.9588 10.7988 18.0838 11.4855C18.19 12.053 18.0937 12.8807 16.4087 14.2458C16.3175 14.3181 16.2263 14.3952 16.13 14.4771C15.425 15.0675 14.5488 15.8036 12.615 16.4169C11.945 16.6277 10.6762 16.7819 9.5975 16.7819C9.40125 16.7819 9.22125 16.7759 9.06 16.7651C8.88 16.753 8.82625 16.6928 8.8125 16.6446C8.80846 16.6316 8.8076 16.6178 8.80999 16.6045C8.81238 16.5911 8.81794 16.5784 8.82625 16.5675C8.85125 16.5361 8.90125 16.5169 8.96375 16.5157C10.7663 16.4795 11.3888 16.3711 12.4675 16.0386C14.0737 15.5422 15.2425 14.6253 16.0787 13.8819C17.7512 12.3964 17.6525 11.7349 17.6013 11.3795ZM15 9C6.715 9 0 11.6855 0 15C0 18.3133 6.715 21 15 21C23.285 21 30 18.3133 30 15C30 11.6867 23.285 9 15 9Z" fill="white"/>
</svg>
