<svg viewBox="0 0 30 30" fill="none" xmlns="http://www.w3.org/2000/svg">
<path d="M25.72 19.179L25.7075 19.2139C24.1488 23.7495 19.8513 26.7911 15.0063 26.7911C10.1613 26.7911 5.85625 23.7433 4.30375 19.2089L4.29125 19.1728H0.8875V19.5824L2.30375 19.748C3.17875 19.8476 3.3625 20.2336 3.60125 20.7191L3.66125 20.8386C5.70875 25.19 10.1663 28 15.0113 28C19.8575 28 24.315 25.19 26.3625 20.8449L26.4225 20.7266C26.66 20.241 26.845 19.8551 27.72 19.7542L29.1375 19.5874V19.179H25.72ZM4.30375 11.7799C5.8625 7.24427 10.1613 4.19771 15.0063 4.19771C19.8513 4.19771 24.155 7.24427 25.7087 11.7799L25.7213 11.8147H29.1312V11.4064L27.7137 11.2408C26.8387 11.1399 26.655 10.7552 26.4163 10.2684L26.3575 10.1489C24.31 5.81001 19.85 3 15.0063 3C10.155 3 5.7025 5.81001 3.655 10.1614L3.595 10.2796C3.3575 10.7652 3.1725 11.1511 2.2975 11.252L0.88125 11.4176V11.8272H4.28625L4.30375 11.7799ZM21.6312 13.7545L19.4525 17.2343H20.3925L20.78 16.6118H23.3212L23.7087 17.2343H24.6425L22.4638 13.7545H21.6312ZM22.9225 15.9532H21.1787L22.0538 14.5538L22.9225 15.9532ZM26.435 14.626L29.0238 17.2343H30V13.7545H29.2325V16.3503L26.655 13.7545H25.6612V17.2343H26.435V14.626ZM0 17.2343H0.77375V14.626L3.36875 17.2343H4.345V13.7545H3.57125V16.3503L0.99375 13.7545H0V17.2343ZM6.05375 13.7545H6.8275V17.2343H6.0525L6.05375 13.7545ZM11.6613 16.4985C11.6363 16.5047 11.5413 16.5047 11.5063 16.5047H8.42875V17.2169H11.5538C11.5775 17.2169 11.7625 17.2169 11.7975 17.2107C12.435 17.1509 12.7262 16.623 12.7262 16.1611C12.7262 15.6868 12.4225 15.1775 11.845 15.124C11.7325 15.1116 11.6375 15.1116 11.595 15.1116H9.55375C9.47792 15.114 9.40205 15.1082 9.3275 15.0941C9.16625 15.0518 9.1075 14.9099 9.1075 14.7916C9.1075 14.6845 9.16625 14.5426 9.3325 14.4953C9.40313 14.4804 9.47538 14.4745 9.5475 14.4778H12.4937V13.7781H9.5C9.375 13.7781 9.28 13.7831 9.2025 13.7956C8.95865 13.8255 8.73467 13.9446 8.57411 14.1298C8.41355 14.3151 8.32788 14.5532 8.33375 14.7978C8.33375 15.2248 8.60125 15.7229 9.19 15.8063C9.2975 15.8175 9.44625 15.8175 9.5125 15.8175H11.5C11.5362 15.8175 11.625 15.8175 11.6425 15.8237C11.8687 15.8523 11.9462 16.0192 11.9462 16.1673C11.9482 16.2478 11.9201 16.3262 11.8675 16.3873C11.8149 16.4485 11.7414 16.4881 11.6613 16.4985ZM17.4825 16.4985C17.4575 16.5047 17.3625 16.5047 17.3212 16.5047H14.25V17.2169H17.375C17.3987 17.2169 17.5837 17.2169 17.6187 17.2107C18.2562 17.1509 18.5475 16.623 18.5475 16.1611C18.5475 15.6868 18.2438 15.1775 17.6663 15.124C17.5538 15.1116 17.4587 15.1116 17.4162 15.1116H15.375C15.2992 15.114 15.2233 15.1082 15.1488 15.0941C14.9875 15.0518 14.9287 14.9099 14.9287 14.7916C14.9287 14.6845 14.9875 14.5426 15.1537 14.4953C15.2244 14.4804 15.2966 14.4745 15.3688 14.4778H18.315V13.7781H15.3212C15.1962 13.7781 15.1012 13.7831 15.0237 13.7956C14.7799 13.8255 14.5559 13.9446 14.3954 14.1298C14.2348 14.3151 14.1491 14.5532 14.155 14.7978C14.155 15.2248 14.4225 15.7229 15.0125 15.8063C15.1188 15.8175 15.2675 15.8175 15.3338 15.8175H17.3212C17.3575 15.8175 17.4462 15.8175 17.4637 15.8237C17.69 15.8523 17.7675 16.0192 17.7675 16.1673C17.7681 16.2475 17.7395 16.3251 17.6872 16.386C17.6348 16.4468 17.5621 16.4868 17.4825 16.4985Z" fill="white"/>
</svg>
