<svg viewBox="0 0 682 514" fill="none" xmlns="http://www.w3.org/2000/svg">
<path d="M385.971 403.29C385.898 403.294 385.831 403.306 385.761 403.326L371.883 407.295C371.796 407.32 371.705 407.333 371.615 407.333H308.131C308.04 407.333 307.95 407.32 307.862 407.295L293.985 403.326C293.915 403.306 293.847 403.294 293.775 403.29C261.6 401.483 187.28 391.994 134.675 368.411C134.52 368.341 134.385 368.23 134.285 368.093C114.848 341.337 102.547 331.417 82.1659 292.044C66.1944 261.19 48.683 219.546 42.6627 201.33C42.4566 200.707 42.9297 200.083 43.5888 200.083H57.3104C57.5582 200.083 57.7805 200.163 57.9631 200.33C80.3144 220.739 182.082 250.109 340.922 250.109C499.857 250.109 597.88 221.211 623.25 200.298C623.427 200.153 623.635 200.083 623.865 200.083H637.617C638.276 200.083 638.749 200.707 638.543 201.33C632.523 219.546 615.011 261.19 599.04 292.044C578.659 331.417 566.357 341.337 546.92 368.093C546.821 368.23 546.686 368.341 546.531 368.411C493.921 391.994 418.149 401.483 385.971 403.29Z" stroke="#0049FF"/>
<path d="M340.922 360.285C354.547 360.285 365.592 366.009 365.592 373.07C365.592 380.131 354.547 385.855 340.922 385.855C327.297 385.855 316.252 380.131 316.252 373.07C316.252 366.009 327.297 360.285 340.922 360.285Z" stroke="#0049FF"/>
<path d="M195.9 512.947C196.001 512.982 196.108 513 196.216 513H263.553C264.382 513 264.832 512.034 264.297 511.404L194.79 429.515C194.662 429.364 194.49 429.256 194.299 429.205L166.764 421.862C166.266 421.73 165.751 422.006 165.589 422.493L159.123 441.868C159.084 441.985 159.068 442.108 159.075 442.231L162.588 500.919C162.611 501.311 162.87 501.65 163.243 501.778L195.9 512.947Z" stroke="#0049FF"/>
<path d="M486.766 512.947C486.664 512.982 486.558 513 486.45 513H419.112C418.284 513 417.834 512.034 418.369 511.404L487.876 429.515C488.004 429.364 488.175 429.256 488.367 429.205L515.902 421.862C516.399 421.73 516.915 422.006 517.077 422.493L523.542 441.868C523.581 441.985 523.598 442.108 523.59 442.231L520.078 500.919C520.055 501.311 519.796 501.65 519.423 501.778L486.766 512.947Z" stroke="#0049FF"/>
<path d="M44.7513 270.604C44.7106 270.553 44.6752 270.498 44.6455 270.44L9.60442 201.902C9.23212 201.174 8.20178 201.209 7.9056 201.971C6.60424 205.319 4.27795 211.82 1.8607 219.481C-1.91569 231.448 10.9533 249.145 16.9483 270.527C21.6392 287.258 17.0294 326.439 15.1549 342.138C15.0882 342.697 15.5133 343.18 16.0776 343.206L33.3646 344.015C33.6418 344.027 33.9115 343.922 34.1057 343.724L37.4297 340.344C38.1155 339.646 39.2893 340.282 39.0749 341.234L37.013 350.397C36.8006 351.341 35.4839 351.427 35.1493 350.519L34.0622 347.568C33.9084 347.15 33.4888 346.89 33.0447 346.938L16.0669 348.751C15.525 348.809 15.1362 349.297 15.2125 349.835C15.7378 353.532 17.0647 361.19 19.1465 368.841C22.0065 379.352 19.2141 386.97 14.0676 396.016C9.95051 403.252 10.7479 408.957 11.6613 410.905L25.4904 432.277C25.8426 432.821 26.6147 432.876 27.0083 432.36C30.3774 427.951 35.7456 418.436 38.8497 414.742C43.0595 409.732 47.3176 406.828 51.9906 412.948C83.5523 449.482 129.011 486.506 152.796 499.488C153.439 499.839 154.197 499.363 154.197 498.633C154.196 482.775 154.145 459.216 152.628 453.832C152.56 453.591 121.656 383.559 105.772 347.727C105.554 347.237 104.986 347.034 104.494 347.253L87.2848 354.885C86.8451 355.08 86.6145 355.565 86.7421 356.028L89.4465 365.826C89.7462 366.912 88.26 367.548 87.675 366.585L73.9618 343.999C73.3552 342.999 74.712 341.981 75.5087 342.838L83.5257 351.456C83.8897 351.847 84.5026 351.872 84.8974 351.512L98.3944 339.188C98.7714 338.844 98.8168 338.268 98.4983 337.869L44.7513 270.604Z" stroke="#0049FF"/>
<path d="M637.428 270.604C637.468 270.553 637.504 270.498 637.533 270.44L672.574 201.902C672.947 201.174 673.977 201.209 674.273 201.971C675.575 205.319 677.901 211.82 680.318 219.481C684.095 231.448 671.226 249.145 665.231 270.527C660.54 287.258 665.15 326.439 667.024 342.138C667.091 342.697 666.666 343.18 666.101 343.206L648.814 344.015C648.537 344.027 648.267 343.922 648.073 343.724L644.749 340.344C644.063 339.646 642.89 340.282 643.104 341.234L645.166 350.397C645.378 351.341 646.695 351.427 647.03 350.519L648.117 347.568C648.271 347.15 648.69 346.89 649.134 346.938L666.112 348.751C666.654 348.809 667.043 349.297 666.966 349.835C666.441 353.532 665.114 361.19 663.032 368.841C660.172 379.352 662.965 386.97 668.111 396.016C672.228 403.252 671.431 408.957 670.518 410.905L656.688 432.277C656.336 432.821 655.564 432.876 655.171 432.36C651.802 427.951 646.433 418.436 643.329 414.742C639.119 409.732 634.861 406.828 630.188 412.948C598.627 449.482 553.167 486.506 529.383 499.488C528.74 499.839 527.982 499.363 527.982 498.633C527.983 482.775 528.034 459.216 529.551 453.832C529.619 453.591 560.523 383.559 576.407 347.727C576.625 347.237 577.193 347.034 577.685 347.253L594.894 354.885C595.334 355.08 595.564 355.565 595.437 356.028L592.732 365.826C592.433 366.912 593.919 367.548 594.504 366.585L608.217 343.999C608.824 342.999 607.467 341.981 606.67 342.838L598.653 351.456C598.289 351.847 597.676 351.872 597.281 351.512L583.784 339.188C583.408 338.844 583.362 338.268 583.681 337.869L637.428 270.604Z" stroke="#0049FF"/>
<path d="M141.365 35.4325C139.475 35.6814 137.858 34.0972 138.073 32.2104L139.932 15.844C140.082 14.5278 141.074 13.4819 142.392 13.3009C175.248 8.78498 258.785 0.466128 348.524 1.02698C438.078 1.58667 510.467 10.4984 537.562 15.2108C538.762 15.4196 539.677 16.3523 539.892 17.5468L542.829 33.8184C543.185 35.7891 541.516 37.5271 539.528 37.2318C509.67 32.797 436.809 24.6764 352.547 23.3148C267.186 21.9355 178.657 30.5206 141.365 35.4325Z" stroke="#0049FF"/>
<path d="M560.848 183.444C561.37 183.386 561.862 183.749 561.937 184.267L566.751 217.588C566.825 218.099 566.528 218.57 566.019 218.668C533.509 224.914 426.788 238.906 332.896 238.876C239.064 238.847 141.637 224.379 113.793 217.079C113.317 216.954 113.055 216.503 113.126 216.018L118.116 181.881C118.193 181.354 118.695 180.989 119.225 181.065C151.945 185.766 162.598 197.16 332.881 197.214C503.723 197.267 512.245 188.885 560.848 183.444Z" stroke="#0049FF"/>
<path d="M143.024 128.148C142.54 128.124 142.147 127.749 142.102 127.268L139.704 101.197C139.648 100.591 140.159 100.085 140.766 100.143L298.353 115.261C298.853 115.308 299.233 115.726 299.233 116.226V134.745C299.233 135.3 298.768 135.741 298.212 135.714L143.024 128.148Z" stroke="#0049FF"/>
<path d="M538.182 128.148C538.666 128.124 539.059 127.749 539.103 127.268L541.502 101.197C541.558 100.591 541.047 100.085 540.439 100.143L382.852 115.261C382.353 115.308 381.972 115.726 381.972 116.226V134.745C381.972 135.3 382.438 135.741 382.993 135.714L538.182 128.148Z" stroke="#0049FF"/>
<path d="M140.396 94.7333C139.921 94.6869 139.55 94.304 139.52 93.8293L137.726 65.5065C137.687 64.8867 138.234 64.3904 138.85 64.4877L298.413 89.6918C298.885 89.7665 299.233 90.1727 299.233 90.6496V109.171C299.233 109.744 298.738 110.192 298.165 110.136L140.396 94.7333Z" stroke="#0049FF"/>
<path d="M540.81 94.7333C541.285 94.6869 541.656 94.304 541.686 93.8293L543.48 65.5065C543.519 64.8867 542.971 64.3904 542.356 64.4877L382.793 89.6918C382.32 89.7665 381.972 90.1727 381.972 90.6496V109.171C381.972 109.744 382.468 110.192 383.041 110.136L540.81 94.7333Z" stroke="#0049FF"/>
<path d="M94.8026 53.0678C96.4221 56.8793 96.827 61.4621 96.827 63.2771C96.827 65.0921 96.4221 69.675 94.8026 73.4865C92.7783 78.2509 94.2965 78.9315 96.3209 80.2928C98.3452 81.654 102.9 83.6959 107.961 83.6959C113.022 83.6959 117.577 81.654 119.601 80.2928C121.625 78.9315 123.144 78.2509 121.119 73.4865C119.5 69.675 119.095 65.0921 119.095 63.2771C119.095 61.4621 119.5 56.8793 121.119 53.0678C123.144 48.3034 121.625 47.6228 119.601 46.2615C117.577 44.9003 113.022 42.8584 107.961 42.8584C102.9 42.8584 98.3452 44.9003 96.3209 46.2615C94.2965 47.6228 92.7783 48.3034 94.8026 53.0678Z" stroke="#0049FF"/>
<path d="M562.033 53.0678C563.653 56.8793 564.058 61.4621 564.058 63.2771C564.058 65.0921 563.653 69.675 562.033 73.4865C560.009 78.2509 561.527 78.9315 563.552 80.2928C565.576 81.654 570.131 83.6959 575.192 83.6959C580.252 83.6959 584.807 81.654 586.832 80.2928C588.856 78.9315 590.374 78.2509 588.35 73.4865C586.73 69.675 586.326 65.0921 586.326 63.2771C586.326 61.4621 586.73 56.8793 588.35 53.0678C590.374 48.3034 588.856 47.6228 586.832 46.2615C584.807 44.9003 580.252 42.8584 575.192 42.8584C570.131 42.8584 565.576 44.9003 563.552 46.2615C561.527 47.6228 560.009 48.3034 562.033 53.0678Z" stroke="#0049FF"/>
<path d="M94.8026 98.7547C96.4221 102.471 96.827 106.939 96.827 108.709C96.827 110.478 96.4221 114.947 94.8026 118.663C92.7783 123.308 94.2965 123.972 96.3209 125.299C98.3452 126.626 102.9 128.617 107.961 128.617C113.022 128.617 117.577 126.626 119.601 125.299C121.625 123.972 123.144 123.308 121.119 118.663C119.5 114.947 119.095 110.478 119.095 108.709C119.095 106.939 119.5 102.471 121.119 98.7547C123.144 94.1095 121.625 93.4458 119.601 92.1186C117.577 90.7914 113.022 88.8006 107.961 88.8006C102.9 88.8006 98.3452 90.7914 96.3209 92.1186C94.2965 93.4458 92.7783 94.1095 94.8026 98.7547Z" stroke="#0049FF"/>
<path d="M562.033 98.7547C563.653 102.471 564.058 106.939 564.058 108.709C564.058 110.478 563.653 114.947 562.033 118.663C560.009 123.308 561.527 123.972 563.552 125.299C565.576 126.626 570.131 128.617 575.192 128.617C580.252 128.617 584.807 126.626 586.832 125.299C588.856 123.972 590.374 123.308 588.35 118.663C586.73 114.947 586.326 110.478 586.326 108.709C586.326 106.939 586.73 102.471 588.35 98.7547C590.374 94.1095 588.856 93.4458 586.832 92.1186C584.807 90.7914 580.252 88.8006 575.192 88.8006C570.131 88.8006 565.576 90.7914 563.552 92.1186C561.527 93.4458 560.009 94.1095 562.033 98.7547Z" stroke="#0049FF"/>
<path d="M297.89 144.986C298.376 144.966 298.811 145.309 298.897 145.788L305.436 182.072C305.543 182.665 305.088 183.208 304.485 183.208L260.16 183.208C259.934 183.208 259.714 183.128 259.537 182.987C254.628 179.083 249.816 178.119 238.901 177.297C187.543 175 107.882 169.403 80.9644 166.07C59.8635 163.456 20.1918 160.755 1.90755 159.664C1.31839 159.629 0.907217 159.084 1.0181 158.507L6.81809 128.324C6.90538 127.869 7.30296 127.542 7.76743 127.542H28.0589C28.1144 127.542 28.1722 127.547 28.227 127.557C48.4457 131.047 48.4669 134.694 152.12 142.625C254.852 150.486 270.452 146.094 297.89 144.986Z" stroke="#0049FF"/>
<path d="M383.251 144.986C382.765 144.966 382.33 145.309 382.243 145.788L375.705 182.072C375.598 182.665 376.053 183.208 376.656 183.208H420.981C421.207 183.208 421.426 183.128 421.603 182.987C426.513 179.083 431.325 178.119 442.24 177.297C493.598 175 573.259 169.403 600.177 166.07C621.277 163.456 660.949 160.755 679.233 159.664C679.822 159.629 680.234 159.084 680.123 158.507L674.323 128.324C674.235 127.869 673.838 127.542 673.373 127.542L653.082 127.542C653.026 127.542 652.969 127.547 652.914 127.557C632.695 131.047 632.674 134.694 529.021 142.625C426.289 150.486 410.689 146.094 383.251 144.986Z" stroke="#0049FF"/>
</svg>
