<svg width="281" height="211" viewBox="0 0 281 211" fill="none" xmlns="http://www.w3.org/2000/svg">
<path d="M158.453 164.852C158.423 164.854 158.395 164.859 158.367 164.867L152.673 166.487C152.637 166.497 152.6 166.503 152.563 166.503H126.516C126.478 166.503 126.441 166.497 126.405 166.487L120.712 164.867C120.683 164.859 120.655 164.854 120.625 164.852C107.424 164.115 76.9312 160.241 55.3475 150.614C55.2839 150.586 55.2287 150.541 55.1878 150.485C47.2129 139.563 42.1656 135.513 33.8035 119.441C27.2505 106.847 20.0656 89.8472 17.5956 82.4117C17.511 82.1572 17.7051 81.9024 17.9755 81.9024H23.6054C23.7071 81.9024 23.7983 81.9351 23.8732 82.0032C33.0438 90.3345 74.7986 102.323 139.97 102.323C205.18 102.323 245.398 90.5271 255.807 81.9904C255.88 81.9309 255.965 81.9024 256.059 81.9024H261.702C261.972 81.9024 262.166 82.1571 262.082 82.4117C259.612 89.8472 252.427 106.847 245.874 119.441C237.512 135.513 232.464 139.563 224.49 150.485C224.449 150.541 224.393 150.586 224.33 150.614C202.744 160.241 171.655 164.115 158.453 164.852Z" stroke="#0049FF"/>
<path d="M139.97 147.298C145.56 147.298 150.092 149.634 150.092 152.516C150.092 155.399 145.56 157.735 139.97 157.735C134.379 157.735 129.848 155.399 129.848 152.516C129.848 149.634 134.379 147.298 139.97 147.298Z" stroke="#0049FF"/>
<path d="M80.4678 209.615C80.5095 209.629 80.5534 209.636 80.5975 209.636L108.226 209.636C108.566 209.636 108.75 209.242 108.531 208.985L80.0126 175.557C79.96 175.496 79.8896 175.452 79.8109 175.431L68.5136 172.434C68.3095 172.379 68.098 172.492 68.0314 172.691L65.3787 180.6C65.3627 180.648 65.356 180.698 65.359 180.748L66.8 204.705C66.8096 204.865 66.9159 205.003 67.069 205.055L80.4678 209.615Z" stroke="#0049FF"/>
<path d="M199.809 209.615C199.767 209.629 199.723 209.636 199.679 209.636H172.051C171.711 209.636 171.526 209.242 171.746 208.985L200.264 175.557C200.316 175.496 200.387 175.452 200.465 175.431L211.763 172.434C211.967 172.379 212.178 172.492 212.245 172.691L214.898 180.6C214.914 180.648 214.92 180.698 214.917 180.748L213.476 204.705C213.467 204.865 213.36 205.003 213.207 205.055L199.809 209.615Z" stroke="#0049FF"/>
<path d="M18.4525 110.689C18.4358 110.669 18.4213 110.646 18.4091 110.623L4.03193 82.645C3.87918 82.3477 3.45644 82.3621 3.33491 82.6732C2.80097 84.04 1.84651 86.6937 0.854729 89.8207C-0.694704 94.7058 4.58538 101.93 7.04507 110.658C8.96972 117.488 7.07834 133.482 6.30926 139.89C6.28189 140.118 6.4563 140.315 6.68785 140.326L13.7806 140.656C13.8943 140.661 14.005 140.618 14.0846 140.537L15.4485 139.157C15.7298 138.873 16.2115 139.132 16.1235 139.521L15.2775 143.261C15.1904 143.646 14.6501 143.682 14.5129 143.311L14.0668 142.106C14.0037 141.936 13.8316 141.83 13.6493 141.849L6.68343 142.589C6.46111 142.613 6.30157 142.812 6.33291 143.032C6.5484 144.541 7.09285 147.667 7.947 150.79C9.12045 155.081 7.97472 158.19 5.86316 161.883C4.17393 164.837 4.50111 167.166 4.87585 167.961L10.5499 176.685C10.6944 176.907 11.0111 176.929 11.1727 176.719C12.5549 174.919 14.7575 171.035 16.0311 169.527C17.7584 167.482 19.5054 166.296 21.4227 168.795C34.3723 183.708 53.0239 198.821 62.7827 204.121C63.0462 204.264 63.3575 204.07 63.3575 203.772C63.3568 197.298 63.3362 187.681 62.7137 185.484C62.6858 185.385 50.0059 156.798 43.4889 142.171C43.3996 141.971 43.1665 141.889 42.9646 141.978L35.9037 145.093C35.7233 145.173 35.6287 145.371 35.6811 145.56L36.7907 149.559C36.9136 150.003 36.3038 150.262 36.0638 149.869L30.4374 140.649C30.1885 140.241 30.7452 139.826 31.0721 140.175L34.3614 143.694C34.5107 143.853 34.7622 143.863 34.9242 143.716L40.462 138.686C40.6166 138.545 40.6352 138.31 40.5046 138.147L18.4525 110.689Z" stroke="#0049FF"/>
<path d="M261.624 110.689C261.641 110.669 261.655 110.646 261.667 110.623L276.045 82.645C276.197 82.3477 276.62 82.3621 276.742 82.6732C277.276 84.04 278.23 86.6937 279.222 89.8207C280.771 94.7058 275.491 101.93 273.031 110.658C271.107 117.488 272.998 133.482 273.767 139.89C273.795 140.118 273.62 140.315 273.389 140.326L266.296 140.656C266.182 140.661 266.072 140.618 265.992 140.537L264.628 139.157C264.347 138.873 263.865 139.132 263.953 139.521L264.799 143.261C264.886 143.646 265.426 143.682 265.564 143.311L266.01 142.106C266.073 141.936 266.245 141.83 266.427 141.849L273.393 142.589C273.615 142.613 273.775 142.812 273.744 143.032C273.528 144.541 272.984 147.667 272.13 150.79C270.956 155.081 272.102 158.19 274.213 161.883C275.903 164.837 275.575 167.166 275.201 167.961L269.527 176.685C269.382 176.907 269.065 176.929 268.904 176.719C267.522 174.919 265.319 171.035 264.045 169.527C262.318 167.482 260.571 166.296 258.654 168.795C245.704 183.708 227.053 198.821 217.294 204.121C217.03 204.264 216.719 204.07 216.719 203.772C216.72 197.298 216.74 187.681 217.363 185.484C217.391 185.385 230.071 156.798 236.588 142.171C236.677 141.971 236.91 141.889 237.112 141.978L244.173 145.093C244.353 145.173 244.448 145.371 244.396 145.56L243.286 149.559C243.163 150.003 243.773 150.262 244.013 149.869L249.639 140.649C249.888 140.241 249.331 139.826 249.005 140.175L245.715 143.694C245.566 143.853 245.314 143.863 245.152 143.716L239.615 138.686C239.46 138.545 239.441 138.31 239.572 138.147L261.624 110.689Z" stroke="#0049FF"/>
<path d="M58.0924 14.6917C57.3171 14.7933 56.6537 14.1466 56.7417 13.3764L57.5048 6.69559C57.5661 6.15831 57.9733 5.7314 58.5137 5.6575C71.9943 3.81408 106.269 0.418302 143.089 0.647245C179.832 0.875713 209.533 4.51349 220.65 6.43714C221.142 6.52234 221.517 6.9031 221.606 7.39068L222.811 14.0328C222.957 14.8373 222.272 15.5467 221.456 15.4262C209.206 13.6159 179.312 10.301 144.739 9.7452C109.716 9.18215 73.3933 12.6866 58.0924 14.6917Z" stroke="#0049FF"/>
<path d="M230.204 75.1106C230.418 75.0867 230.62 75.235 230.651 75.4463L232.626 89.0482C232.656 89.2569 232.534 89.449 232.326 89.4889C218.987 92.0386 175.2 97.75 136.676 97.738C98.178 97.726 58.2043 91.8201 46.7798 88.8403C46.5844 88.7894 46.4771 88.6054 46.5062 88.4072L48.5534 74.4726C48.585 74.2574 48.7912 74.1083 49.0085 74.1393C62.4333 76.0584 66.8042 80.7095 136.67 80.7313C206.766 80.7531 210.262 77.3315 230.204 75.1106Z" stroke="#0049FF"/>
<path d="M58.7732 52.5384C58.5745 52.5287 58.4132 52.3756 58.395 52.1791L57.4109 41.5369C57.388 41.2898 57.5976 41.083 57.8469 41.1068L122.504 47.2777C122.709 47.2973 122.865 47.4678 122.865 47.6717V55.2315C122.865 55.4577 122.674 55.6379 122.446 55.6269L58.7732 52.5384Z" stroke="#0049FF"/>
<path d="M220.904 52.5384C221.103 52.5287 221.264 52.3756 221.282 52.1791L222.266 41.5369C222.289 41.2898 222.08 41.083 221.83 41.1068L157.173 47.2777C156.969 47.2973 156.812 47.4678 156.812 47.6717V55.2315C156.812 55.4577 157.003 55.6379 157.231 55.6269L220.904 52.5384Z" stroke="#0049FF"/>
<path d="M57.695 38.8985C57.5 38.8795 57.3477 38.7232 57.3354 38.5294L56.5995 26.968C56.5834 26.715 56.808 26.5124 57.0606 26.5521L122.528 36.8405C122.722 36.871 122.865 37.0368 122.865 37.2315V44.7919C122.865 45.0258 122.662 45.2087 122.427 45.1859L57.695 38.8985Z" stroke="#0049FF"/>
<path d="M221.982 38.8985C222.177 38.8795 222.33 38.7232 222.342 38.5294L223.078 26.968C223.094 26.715 222.869 26.5124 222.617 26.5521L157.149 36.8405C156.955 36.871 156.812 37.0368 156.812 37.2315V44.7919C156.812 45.0258 157.016 45.2087 157.251 45.1859L221.982 38.8985Z" stroke="#0049FF"/>
<path d="M38.9883 21.8905C39.6527 23.4463 39.8188 25.3171 39.8188 26.058C39.8188 26.7988 39.6527 28.6696 38.9883 30.2255C38.1577 32.1703 38.7806 32.4481 39.6112 33.0038C40.4418 33.5595 42.3106 34.393 44.387 34.393C46.4635 34.393 48.3323 33.5595 49.1629 33.0038C49.9935 32.4481 50.6164 32.1703 49.7858 30.2255C49.1213 28.6696 48.9552 26.7988 48.9552 26.058C48.9552 25.3171 49.1213 23.4463 49.7858 21.8905C50.6164 19.9456 49.9935 19.6678 49.1629 19.1121C48.3323 18.5565 46.4635 17.723 44.387 17.723C42.3106 17.723 40.4418 18.5565 39.6112 19.1121C38.7806 19.6678 38.1577 19.9456 38.9883 21.8905Z" stroke="#0049FF"/>
<path d="M230.69 21.8905C231.355 23.4463 231.521 25.3171 231.521 26.058C231.521 26.7988 231.355 28.6696 230.69 30.2255C229.86 32.1703 230.483 32.4481 231.313 33.0038C232.144 33.5595 234.013 34.393 236.089 34.393C238.165 34.393 240.034 33.5595 240.865 33.0038C241.695 32.4481 242.318 32.1703 241.488 30.2255C240.823 28.6696 240.657 26.7988 240.657 26.058C240.657 25.3171 240.823 23.4463 241.488 21.8905C242.318 19.9456 241.695 19.6678 240.865 19.1121C240.034 18.5565 238.165 17.723 236.089 17.723C234.013 17.723 232.144 18.5565 231.313 19.1121C230.483 19.6678 229.86 19.9456 230.69 21.8905Z" stroke="#0049FF"/>
<path d="M38.9883 40.54C39.6527 42.057 39.8188 43.881 39.8188 44.6033C39.8188 45.3257 39.6527 47.1497 38.9883 48.6666C38.1577 50.5628 38.7806 50.8337 39.6112 51.3755C40.4418 51.9173 42.3106 52.7299 44.387 52.7299C46.4635 52.7299 48.3323 51.9173 49.1629 51.3755C49.9935 50.8337 50.6164 50.5628 49.7858 48.6666C49.1213 47.1497 48.9552 45.3257 48.9552 44.6033C48.9552 43.881 49.1213 42.057 49.7858 40.54C50.6164 38.6438 49.9935 38.3729 49.1629 37.8311C48.3323 37.2894 46.4635 36.4767 44.387 36.4767C42.3106 36.4767 40.4418 37.2894 39.6112 37.8311C38.7806 38.3729 38.1577 38.6438 38.9883 40.54Z" stroke="#0049FF"/>
<path d="M230.69 40.54C231.355 42.057 231.521 43.881 231.521 44.6033C231.521 45.3257 231.355 47.1497 230.69 48.6666C229.86 50.5628 230.483 50.8337 231.313 51.3755C232.144 51.9173 234.013 52.7299 236.089 52.7299C238.165 52.7299 240.034 51.9173 240.865 51.3755C241.695 50.8337 242.318 50.5628 241.488 48.6666C240.823 47.1497 240.657 45.3257 240.657 44.6033C240.657 43.881 240.823 42.057 241.488 40.54C242.318 38.6438 241.695 38.3729 240.865 37.8311C240.034 37.2894 238.165 36.4767 236.089 36.4767C234.013 36.4767 232.144 37.2894 231.313 37.8311C230.483 38.3729 229.86 38.6438 230.69 40.54Z" stroke="#0049FF"/>
<path d="M122.314 59.4116C122.513 59.4035 122.692 59.5437 122.727 59.7391L125.41 74.5503C125.454 74.7925 125.267 75.0139 125.02 75.0139H106.833C106.741 75.0139 106.651 74.9814 106.578 74.924C104.564 73.3305 102.589 72.9367 98.111 72.6011C77.0389 71.6636 44.3547 69.379 33.3105 68.0181C24.6529 66.9513 8.37588 65.8488 0.873949 65.4033C0.632221 65.3889 0.463519 65.1668 0.509012 64.9312L2.88872 52.6102C2.92453 52.4247 3.08765 52.2911 3.27822 52.2911H11.6037C11.6265 52.2911 11.6502 52.2932 11.6727 52.2971C19.9683 53.7218 19.977 55.2106 62.5052 58.4481C104.656 61.6568 111.056 59.8641 122.314 59.4116Z" stroke="#0049FF"/>
<path d="M157.337 59.4116C157.137 59.4035 156.959 59.5437 156.924 59.7391L154.241 74.5503C154.197 74.7925 154.383 75.0139 154.631 75.0139H172.817C172.91 75.0139 173 74.9814 173.073 74.924C175.087 73.3305 177.061 72.9367 181.54 72.6011C202.612 71.6636 235.296 69.379 246.34 68.0181C254.998 66.9513 271.275 65.8488 278.777 65.4033C279.018 65.3889 279.187 65.1668 279.142 64.9312L276.762 52.6102C276.726 52.4247 276.563 52.2911 276.372 52.2911H268.047C268.024 52.2911 268 52.2932 267.978 52.2971C259.682 53.7218 259.674 55.2106 217.145 58.4481C174.995 61.6568 168.595 59.8641 157.337 59.4116Z" stroke="#0049FF"/>
</svg>
