<svg width="70" height="45" viewBox="0 0 70 45" fill="none" xmlns="http://www.w3.org/2000/svg">
<path fill-rule="evenodd" clip-rule="evenodd" d="M0 3.3343C0 1.49267 1.45887 7.21633e-05 3.25717 7.21633e-05L66.7428 0C68.5409 0 70 1.49288 70 3.33422V41.6658C70 43.5074 68.5411 45 66.7428 45H3.25717C1.45908 45 0 43.5071 0 41.6658V3.3343ZM42.4399 14.9182C43.6317 14.9098 44.8153 15.12 45.9351 15.5389L46.029 15.5166L45.4822 18.6991L45.1209 18.5334C44.1967 18.1352 43.201 17.9422 42.199 17.9671C40.6935 17.9671 39.9733 18.6199 39.9733 19.2307C39.9733 19.9206 40.814 20.3756 42.1701 21.0556C44.4007 22.1041 45.4605 23.3726 45.4268 25.0516C45.3955 28.0956 42.7169 30.0763 38.6195 30.0763C36.8756 30.0466 35.187 29.7029 34.25 29.3023L34.7968 26.0086L35.2761 26.2385C36.5696 26.79 37.4103 27.01 38.9495 27.01C40.0696 27.01 41.274 26.5649 41.2837 25.5833C41.2885 24.9379 40.7802 24.4829 39.2603 23.7608C37.7789 23.0586 35.8205 21.8741 35.8446 19.7722C35.8639 16.9113 38.5858 14.9182 42.4399 14.9182ZM52.9254 15.1853H55.9364L59.092 29.871H55.4788C55.4788 29.871 55.1174 28.1846 54.9994 27.6678L49.9987 27.6628L49.1797 29.871H45.0824L50.8731 16.4043C51.2826 15.4499 51.9884 15.1853 52.9254 15.1853ZM34.2066 15.0616H30.3019V15.0567L27.8642 29.7548H31.7641L34.2066 15.0616ZM20.7944 25.2L20.3897 23.1599H20.3873V23.1674L19.0143 16.4192C18.7854 15.4845 18.0989 15.21 17.2462 15.1754H10.9616L10.9086 15.4845C12.2401 15.8072 13.528 16.2964 14.7435 16.9409C14.9195 17.0524 15.0477 17.2282 15.1024 17.433L18.4747 29.8512H22.601L28.7458 15.1853H24.6099L20.7944 25.2ZM51.1198 24.656H54.3635L53.4602 20.4176L53.1928 19.1491C53.0635 19.5101 52.8733 20.0172 52.7628 20.312C52.7044 20.4676 52.6683 20.5641 52.6749 20.5487L51.1198 24.656Z" fill="#999999"/>
</svg>
