<svg width="578" height="442" viewBox="0 0 578 442" fill="none" xmlns="http://www.w3.org/2000/svg">
<path d="M289.164 252.118C289.095 252.118 289.026 252.118 288.958 252.118M288.958 252.118C172.777 252.121 148.693 254.559 3.87408 225.906C2.42822 225.62 1.12159 226.947 1.51203 228.368C17.1651 285.347 50.6345 312.455 60.5289 318.735C80.3384 331.308 108.529 344.702 146.274 360.589C184.018 376.476 202.818 373.638 223.957 373.638H353.958C373.354 373.638 393.897 376.476 431.641 360.589C469.386 344.702 497.577 331.308 517.386 318.735C527.28 312.455 560.75 285.347 576.403 228.368C576.793 226.947 575.487 225.62 574.041 225.906C429.222 254.559 405.138 252.121 288.958 252.118ZM288.958 252.118C288.889 252.118 288.82 252.118 288.751 252.118M41.064 342.938C94.6904 366.959 144.97 383.765 181.262 390.868C182.491 391.108 183.618 390.162 183.618 388.91V383.92C183.618 382.281 185.48 381.338 186.801 382.307L233.114 416.299C234.363 417.216 234.14 419.144 232.715 419.751L184.253 440.415C183.842 440.591 183.397 440.627 182.964 440.511C143.651 429.976 71.2625 412.156 46.8321 397.626C25.0651 384.68 11.8566 350.495 3.62436 329.299C2.86989 327.356 5.8373 324.781 7.70973 325.695C13.8445 328.693 24.2135 333.643 41.064 342.938ZM536.709 342.938C482.889 366.961 432.428 383.768 396.008 390.869C394.779 391.109 393.653 390.163 393.653 388.911V383.911C393.653 382.274 391.794 381.331 390.472 382.297L343.986 416.297C342.733 417.213 342.956 419.145 344.384 419.752L393.019 440.417C393.43 440.592 393.873 440.627 394.305 440.512C433.755 429.978 506.403 412.156 530.92 397.626C552.768 384.677 566.024 350.482 574.285 329.287C575.041 327.346 572.08 324.771 570.207 325.683C564.054 328.678 553.643 333.63 536.709 342.938ZM287.921 150.761L477.695 146.088C478.724 146.062 479.604 146.822 479.729 147.843L489.231 225.202C489.343 226.112 488.85 226.974 487.985 227.279C465.583 235.168 395.657 244.257 287.921 244.257C180.197 244.257 109.879 235.17 87.4524 227.281C86.5841 226.976 86.0909 226.108 86.2077 225.195L96.1058 147.833C96.2359 146.816 97.114 146.062 98.1389 146.087L287.921 150.761ZM290.286 141.829C212.79 143.197 143.585 128.179 117.202 120.098C116.366 119.842 115.831 119.077 115.832 118.203L115.879 85.9998C115.881 84.6618 117.162 83.7002 118.448 84.0718C148.299 92.7017 220.006 108.643 288.729 108.908C357.613 109.173 427.512 95.0906 456.165 87.449C457.362 87.1301 458.543 87.9533 458.611 89.1892C458.947 95.2457 458.919 107.659 456.88 123.574C456.786 124.308 456.311 124.926 455.613 125.171C436.406 131.932 386.961 140.122 290.286 141.829ZM3.60697 144.223C3.82624 141.418 3.61861 134.636 1.23191 128.667C0.924414 127.898 1.06369 127.006 1.71692 126.496C4.08848 124.648 8.96142 122.108 15.5866 122.108C21.9654 122.108 26.3619 123.926 28.5459 125.334C29.2637 125.797 29.4407 126.717 29.1502 127.52C28.0606 130.534 26.5595 136.408 26.5595 143.479C26.5595 150.241 27.9317 155.172 29.0045 157.715C29.3561 158.548 29.2471 159.547 28.5279 160.095C26.2068 161.866 21.6532 164.2 15.5866 164.2C9.65207 164.2 4.81333 162.494 2.17148 161.154C1.29129 160.708 0.999435 159.639 1.32844 158.708C2.33072 155.874 3.60697 150.664 3.60697 144.223ZM551.154 144.223C551.373 141.418 551.166 134.636 548.779 128.667C548.472 127.898 548.611 127.006 549.264 126.496C551.636 124.648 556.509 122.108 563.134 122.108C569.513 122.108 573.909 123.926 576.093 125.334C576.811 125.797 576.988 126.717 576.697 127.52C575.608 130.534 574.107 136.408 574.107 143.479C574.107 150.241 575.479 155.172 576.552 157.715C576.903 158.548 576.794 159.547 576.075 160.095C573.754 161.866 569.2 164.2 563.134 164.2C557.199 164.2 552.361 162.494 549.719 161.154C548.838 160.708 548.547 159.639 548.876 158.708C549.878 155.874 551.154 150.664 551.154 144.223ZM3.60697 196.219C3.82624 193.414 3.61861 186.632 1.23191 180.663C0.924414 179.894 1.06369 179.001 1.71692 178.492C4.08848 176.644 8.96142 174.104 15.5866 174.104C21.9654 174.104 26.3619 175.922 28.5459 177.33C29.2637 177.793 29.4407 178.713 29.1502 179.516C28.0606 182.53 26.5595 188.404 26.5595 195.475C26.5595 202.237 27.9317 207.168 29.0045 209.711C29.3561 210.544 29.2471 211.543 28.5279 212.091C26.2068 213.862 21.6532 216.196 15.5866 216.196C9.65207 216.196 4.81333 214.49 2.17148 213.15C1.29129 212.704 0.999435 211.635 1.32844 210.704C2.33072 207.87 3.60697 202.66 3.60697 196.219ZM551.154 196.219C551.373 193.414 551.166 186.632 548.779 180.663C548.472 179.894 548.611 179.001 549.264 178.492C551.636 176.644 556.509 174.104 563.134 174.104C569.513 174.104 573.909 175.922 576.093 177.33C576.811 177.793 576.988 178.713 576.697 179.516C575.608 182.53 574.107 188.404 574.107 195.475C574.107 202.237 575.479 207.168 576.552 209.711C576.903 210.544 576.794 211.543 576.075 212.091C573.754 213.862 569.2 216.196 563.134 216.196C557.199 216.196 552.361 214.49 549.719 213.15C548.838 212.704 548.547 211.635 548.876 210.704C549.878 207.87 551.154 202.66 551.154 196.219ZM136.885 78.5999C195.241 94.6472 240.235 97.9517 271.183 99.1722C272.344 99.218 273.289 98.265 273.248 97.1035L272.532 77.2378C272.493 76.1747 271.633 75.3288 270.57 75.2969C252.03 74.7414 218.405 70.4147 195.941 66.1753C172.689 61.7872 125.244 48.0413 91.6904 36.049C58.942 24.3446 45.0044 13.9988 29.6221 1.89636C28.9433 1.36229 27.9962 1.31458 27.3086 1.83728C18.1275 8.81648 8.03657 26.4507 1.93997 34.5464C1.06856 35.7035 1.533 37.4366 2.90973 37.8871C27.8696 46.055 84.5451 64.207 136.885 78.5999ZM437.669 78.5999C379.313 94.6472 334.319 97.9517 303.371 99.1722C302.21 99.218 301.265 98.265 301.307 97.1035L302.023 77.2378C302.061 76.1747 302.922 75.3288 303.985 75.2969C322.524 74.7414 356.149 70.4147 378.613 66.1753C401.865 61.7872 449.31 48.0413 482.864 36.049C515.612 24.3446 529.55 13.9988 544.932 1.89636C545.611 1.36229 546.558 1.31458 547.246 1.83728C556.427 8.81648 566.518 26.4507 572.614 34.5464C573.486 35.7035 573.021 37.4366 571.645 37.8871C546.685 46.055 490.009 64.207 437.669 78.5999ZM498.91 223.939L489.511 143.51C489.398 142.537 490.005 141.625 490.946 141.355L533.113 129.262C534.511 128.861 535.856 130.039 535.643 131.477L522.508 220.11C522.384 220.946 521.748 221.614 520.918 221.779L501.285 225.668C500.14 225.895 499.045 225.098 498.91 223.939ZM76.9574 223.939L86.356 143.51C86.4696 142.537 85.8622 141.625 84.9208 141.355L42.7544 129.262C41.3563 128.861 40.0114 130.039 40.2246 131.477L53.3593 220.11C53.4833 220.946 54.1197 221.614 54.949 221.779L74.5822 225.668C75.727 225.895 76.8219 225.098 76.9574 223.939Z" stroke="#0049FF"/>
</svg>
