<svg viewBox="0 0 26 35" fill="none" xmlns="http://www.w3.org/2000/svg">
<mask id="path-1-inside-1_407_3344" fill="white">
<path fill-rule="evenodd" clip-rule="evenodd" d="M0 13C0 5.8203 5.8203 0 13 0C20.1797 0 26 5.8203 26 13C26 16.9 23.4 27.0267 13 35C2.6 27.0267 0 16.9 0 13ZM13.0001 22.5334C18.2652 22.5334 22.5334 18.2652 22.5334 13.0001C22.5334 7.73495 18.2652 3.46673 13.0001 3.46673C7.73495 3.46673 3.46673 7.73495 3.46673 13.0001C3.46673 18.2652 7.73495 22.5334 13.0001 22.5334Z"/>
</mask>
<path d="M13 35L12.3916 35.7936L13 36.2601L13.6084 35.7936L13 35ZM13 -1C5.26801 -1 -1 5.26801 -1 13H1C1 6.37258 6.37258 1 13 1V-1ZM27 13C27 5.26801 20.732 -1 13 -1V1C19.6274 1 25 6.37258 25 13H27ZM13.6084 35.7936C24.2627 27.6254 27 17.2016 27 13H25C25 16.5984 22.5373 26.428 12.3916 34.2064L13.6084 35.7936ZM-1 13C-1 17.2016 1.73733 27.6254 12.3916 35.7936L13.6084 34.2064C3.46267 26.428 1 16.5984 1 13H-1ZM21.5334 13.0001C21.5334 17.7129 17.7129 21.5334 13.0001 21.5334V23.5334C18.8175 23.5334 23.5334 18.8175 23.5334 13.0001H21.5334ZM13.0001 4.46673C17.7129 4.46673 21.5334 8.28723 21.5334 13.0001H23.5334C23.5334 7.18266 18.8175 2.46673 13.0001 2.46673V4.46673ZM4.46673 13.0001C4.46673 8.28723 8.28723 4.46673 13.0001 4.46673V2.46673C7.18266 2.46673 2.46673 7.18266 2.46673 13.0001H4.46673ZM13.0001 21.5334C8.28723 21.5334 4.46673 17.7129 4.46673 13.0001H2.46673C2.46673 18.8175 7.18266 23.5334 13.0001 23.5334V21.5334Z" fill="#C5C5C5" mask="url(#path-1-inside-1_407_3344)"/>
<path d="M7 9.59996V11.0666L13 8.13329L19 11.0666V9.59996L13 6.66663L7 9.59996Z" fill="#C5C5C5"/>
<path d="M16.75 17.6666V11.0666H14.125V14H11.875V11.0666H9.25V17.6666H16.75Z" fill="#C5C5C5"/>
</svg>
