<svg viewBox="0 0 59 36" fill="none" xmlns="http://www.w3.org/2000/svg">
<path fill-rule="evenodd" clip-rule="evenodd" d="M12.1801 7.45128C11.8531 7.26325 11.4698 7.16923 11.0302 7.16923H8V15.2923H11.2809C11.6518 15.2923 11.9863 15.2328 12.2845 15.1137L12.2937 15.11L12.3182 15.0999C12.3791 15.0744 12.4384 15.0464 12.4962 15.0159C12.845 14.8316 13.1157 14.5703 13.3082 14.2318C13.4045 14.0606 13.4768 13.8734 13.5249 13.6703C13.5723 13.4705 13.5963 13.2553 13.5971 13.0246L13.5971 13.0133C13.5971 12.547 13.4862 12.1408 13.2645 11.7949C13.2324 11.7447 13.1979 11.6958 13.1611 11.6482C13.1235 11.5996 13.0842 11.553 13.043 11.5081C12.9005 11.353 12.7362 11.2205 12.5501 11.1105C12.5002 11.081 12.4488 11.0532 12.3958 11.027L12.3847 11.0215L12.3729 11.0158C12.3496 11.0045 12.3259 10.9935 12.302 10.9829C12.3507 10.9541 12.3978 10.923 12.4432 10.8897C12.4671 10.8721 12.4905 10.854 12.5135 10.8352C12.6514 10.7224 12.7728 10.5873 12.8777 10.4297L12.8915 10.4084L12.8974 10.3991C12.9101 10.3791 12.9225 10.3589 12.9344 10.3386C13.1218 10.0188 13.2156 9.66001 13.2156 9.26205L13.2156 9.25077C13.2138 8.8716 13.123 8.52562 12.9431 8.21282C12.8338 8.02054 12.6982 7.85207 12.5364 7.70741L12.5321 7.70362C12.426 7.60933 12.3087 7.52522 12.1801 7.45128ZM11.0302 7.95334L11.0247 7.95333H8.80659V10.6328H11.0247C11.0548 10.6328 11.0845 10.632 11.114 10.6303C11.1538 10.628 11.1931 10.6242 11.2318 10.6189C11.317 10.6071 11.3994 10.5879 11.479 10.5613C11.5593 10.5344 11.6368 10.5 11.7114 10.4579C11.7231 10.4511 11.7347 10.4442 11.7461 10.4371C11.9201 10.3293 12.0618 10.1895 12.1712 10.0177C12.1817 10.0012 12.192 9.98432 12.2019 9.96718L12.2077 9.95729L12.2099 9.95358C12.3264 9.75279 12.3855 9.52228 12.3872 9.26205L12.3872 9.25077C12.3872 9.0218 12.3412 8.8183 12.2493 8.64025L12.2473 8.63643C12.1855 8.51771 12.1031 8.41035 12.0002 8.31436C11.9378 8.25531 11.8712 8.20351 11.8003 8.15894C11.5834 8.0227 11.3267 7.95417 11.0302 7.95334ZM11.2809 14.4893C11.2169 14.4944 11.1515 14.4969 11.0847 14.4969H8.80659V11.4169H11.2318C11.336 11.4169 11.4361 11.4261 11.5321 11.4445C11.6182 11.461 11.701 11.4849 11.7805 11.5162C11.8628 11.5485 11.9414 11.5888 12.0166 11.6369C12.0709 11.6703 12.1224 11.7063 12.1714 11.7449C12.237 11.7968 12.2979 11.8535 12.3539 11.915C12.4228 11.9906 12.4844 12.0735 12.5387 12.1635C12.5484 12.1796 12.5578 12.1958 12.567 12.2123C12.6998 12.45 12.767 12.717 12.7687 13.0133L12.7687 13.0246C12.7687 13.1776 12.7504 13.3194 12.7137 13.4502C12.6765 13.583 12.6203 13.7044 12.5452 13.8144C12.4071 14.0217 12.2198 14.1848 11.9832 14.3038C11.9709 14.31 11.9584 14.3161 11.9457 14.3221C11.7446 14.4143 11.5229 14.47 11.2809 14.4893Z" fill="#C5C5C5"/>
<path fill-rule="evenodd" clip-rule="evenodd" d="M49.0054 11.505L49.0544 11.5072C49.2151 11.5144 49.3574 11.5286 49.4812 11.5498L49.4889 11.5511L49.4958 11.5523C49.7865 11.6087 50.0444 11.7084 50.2697 11.8513C50.3663 11.9116 50.4538 11.9816 50.5323 12.0613L50.5384 12.0675C50.6432 12.1753 50.7317 12.3007 50.8038 12.4436C50.9346 12.6956 51 13.0115 51 13.3913C51 13.914 50.8692 14.3258 50.6076 14.6267C50.5746 14.6651 50.5405 14.7019 50.5053 14.7369C50.2649 14.9757 49.9719 15.1346 49.6266 15.2133L49.6029 15.2186L49.6017 15.2189C49.4597 15.2496 49.3063 15.2704 49.1416 15.281C49.1071 15.2825 49.0726 15.2839 49.0382 15.2851C48.8989 15.2899 48.7608 15.2923 48.6238 15.2923H46.3785L46.3676 9.2H47.1742V11.4959H48.553L48.5911 11.496C48.7317 11.4964 48.8698 11.4995 49.0054 11.505ZM49.0244 12.2219C49.1336 12.2307 49.2363 12.2463 49.3323 12.2687C49.335 12.2693 49.3378 12.2699 49.3405 12.2705C49.3486 12.2724 49.3567 12.2743 49.3647 12.2763L49.3755 12.279C49.5692 12.3283 49.732 12.4142 49.8639 12.5367L49.868 12.5406C49.8942 12.5651 49.919 12.591 49.9427 12.6185C49.9973 12.6803 50.0421 12.753 50.0771 12.8365L50.0809 12.8456C50.1414 12.994 50.1716 13.1759 50.1716 13.3913C50.1716 13.6758 50.1175 13.9019 50.0094 14.0694L50.0063 14.0743C49.9837 14.1086 49.9589 14.1404 49.9318 14.1697C49.7931 14.32 49.64 14.4258 49.4726 14.4871C49.4517 14.4948 49.43 14.5019 49.4086 14.5082C49.3204 14.5339 49.2218 14.552 49.1127 14.5625L49.0983 14.5638C49.0681 14.5666 49.0371 14.5687 49.0053 14.5703C48.8661 14.5771 48.7389 14.5809 48.6238 14.5815L48.5911 14.5815H47.1742V12.2067H48.5911C48.711 12.2067 48.8364 12.2104 48.9672 12.2179C48.9696 12.2181 48.9719 12.2182 48.9743 12.2184C48.9909 12.2194 49.008 12.2206 49.0244 12.2219Z" fill="#C5C5C5"/>
<path fill-rule="evenodd" clip-rule="evenodd" d="M26.799 14.0513C26.9176 13.8174 27.0055 13.5629 27.0627 13.2876C27.1158 13.0317 27.1424 12.7579 27.1424 12.4662C27.1424 11.887 27.0388 11.3737 26.8317 10.9262C26.6589 10.5527 26.4241 10.2474 26.1274 10.0101C26.0685 9.96306 26.0072 9.91865 25.9434 9.87692C25.5619 9.62496 25.1059 9.49897 24.5754 9.49897C24.5149 9.49897 24.4549 9.50075 24.3956 9.5043C24.0825 9.52305 23.786 9.59124 23.506 9.70887C23.4569 9.72952 23.4082 9.75169 23.3601 9.77538C23.0641 9.92258 22.8144 10.1274 22.6111 10.3898C22.5895 10.4176 22.5684 10.4462 22.5479 10.4753C22.5197 10.5153 22.4925 10.5565 22.4663 10.599C22.4709 10.5378 22.4765 10.4774 22.4831 10.418C22.4921 10.3361 22.503 10.2559 22.5157 10.1774L22.5203 10.1495C22.5603 9.91182 22.6173 9.68964 22.6913 9.48294L22.6952 9.47227C22.7141 9.42001 22.7341 9.36874 22.7552 9.31846C22.7967 9.22163 22.8429 9.13117 22.8935 9.04706C22.925 8.99483 22.9582 8.94505 22.9932 8.89773L22.9943 8.89626C23.1168 8.73083 23.2607 8.59542 23.4262 8.49005L23.4364 8.48359L23.4423 8.47969C23.6013 8.37499 23.7872 8.28681 24.0002 8.21514L24.006 8.21321C24.0476 8.19929 24.0903 8.186 24.134 8.17333C24.3462 8.11183 24.5662 8.06059 24.7938 8.01961L24.7951 8.01938C24.8593 8.00783 24.9242 7.9971 24.9896 7.98718C25.2333 7.94719 25.4685 7.91223 25.6952 7.88231L25.6962 7.88218C25.7463 7.87557 25.796 7.8692 25.8453 7.86308C26.1178 7.82923 26.3539 7.79162 26.5538 7.75026L26.4666 7L26.4111 7.01175C26.2077 7.05403 25.9905 7.09078 25.7594 7.12198C25.7193 7.12738 25.6789 7.13262 25.6381 7.13769L25.6109 7.14103C25.3709 7.17061 25.1286 7.20367 24.884 7.24023L24.8754 7.24152C24.8119 7.25104 24.7483 7.26078 24.6844 7.27077C24.4269 7.31154 24.177 7.36669 23.9346 7.43622C23.8863 7.45007 23.8383 7.46449 23.7906 7.47949C23.518 7.5627 23.2723 7.67898 23.0534 7.82832L23.0372 7.83949L23.0277 7.84615C22.7951 8.00034 22.5898 8.19966 22.4118 8.4441C22.2822 8.62303 22.1746 8.81235 22.0891 9.01207L22.0866 9.01791C22.0581 9.08496 22.0321 9.15318 22.0085 9.22256C21.933 9.43468 21.8682 9.70938 21.814 10.0467L21.8123 10.0574C21.8071 10.0902 21.802 10.1231 21.7971 10.1562C21.7783 10.2819 21.7614 10.4101 21.7464 10.5408L21.7431 10.5705C21.7224 10.7555 21.7055 10.9455 21.6924 11.1405C21.667 11.5166 21.6597 11.8644 21.6706 12.1841C21.673 12.277 21.6769 12.368 21.6824 12.457L21.6841 12.4831C21.7234 13.0778 21.8352 13.5836 22.0194 14.0005C22.1254 14.2363 22.2519 14.4437 22.3991 14.6226C22.5547 14.8118 22.7333 14.9692 22.935 15.0949C23.3274 15.3393 23.7979 15.4634 24.3465 15.4672C24.3503 15.4672 24.3541 15.4672 24.3578 15.4672C24.3741 15.4671 24.3903 15.467 24.4065 15.4667C24.9552 15.4585 25.4312 15.3364 25.8344 15.1005C26.0604 14.9663 26.2582 14.8023 26.4279 14.6086L26.4309 14.6052C26.5736 14.4416 26.6963 14.257 26.799 14.0513ZM25.4979 10.6065C25.5339 10.6319 25.5688 10.6588 25.6027 10.6873C25.6717 10.7455 25.7362 10.81 25.7962 10.881C26.1305 11.2721 26.2976 11.8062 26.2976 12.4831C26.2976 12.7051 26.2794 12.9123 26.243 13.1047C26.2053 13.3043 26.148 13.488 26.0711 13.6557L26.0687 13.6607C25.9992 13.8113 25.9138 13.949 25.8126 14.0738C25.7083 14.2039 25.5881 14.3128 25.452 14.4004L25.4477 14.4032C25.1676 14.5823 24.8205 14.6718 24.4065 14.6718C24.3881 14.6718 24.3698 14.6716 24.3516 14.6713L24.3465 14.6712C23.9501 14.6626 23.6162 14.569 23.3447 14.3903C23.2182 14.3071 23.1052 14.2053 23.0059 14.0851C22.9008 13.958 22.8128 13.8158 22.7418 13.6585L22.7397 13.6538C22.5938 13.328 22.5208 12.9378 22.5208 12.4831C22.5208 12.473 22.5209 12.4629 22.5209 12.4528C22.521 12.4458 22.521 12.4388 22.5211 12.4318C22.5284 11.8348 22.6642 11.3515 22.9285 10.9816C22.941 10.9642 22.9537 10.947 22.9667 10.9301C22.9795 10.9135 22.9925 10.8971 23.0059 10.881C23.0737 10.7989 23.1478 10.7254 23.228 10.6606C23.2539 10.6396 23.2805 10.6195 23.3077 10.6004C23.4137 10.5257 23.5296 10.4647 23.6552 10.4173L23.6576 10.4164C23.8745 10.335 24.1205 10.2944 24.3956 10.2944C24.4569 10.2944 24.5169 10.2964 24.5754 10.3004C24.9352 10.3253 25.2417 10.4266 25.4949 10.6044L25.4979 10.6065Z" fill="#C5C5C5"/>
<path fill-rule="evenodd" clip-rule="evenodd" d="M29.1744 14.6089C29.1637 14.5953 29.1531 14.5816 29.1426 14.5678V18H28.336V9.2H29.0554V10.0382C29.0933 9.98273 29.133 9.92923 29.1744 9.87774C29.2649 9.76537 29.3637 9.66256 29.4709 9.5693L29.4742 9.5665C29.5218 9.52519 29.5712 9.48575 29.6222 9.44821C29.7082 9.38484 29.7987 9.32869 29.8938 9.27976C30.1829 9.13095 30.5138 9.04884 30.8865 9.03344C30.9296 9.03166 30.9732 9.03077 31.0173 9.03077C31.5551 9.03077 32.0165 9.17179 32.4016 9.45385L32.4096 9.45973L32.4138 9.46281C32.7929 9.74401 33.0832 10.1246 33.2845 10.6046C33.2973 10.6346 33.3097 10.6648 33.3217 10.6953C33.3554 10.7807 33.386 10.8679 33.4134 10.9569C33.5346 11.3496 33.5952 11.7774 33.5952 12.2405C33.5952 12.755 33.5213 13.2252 33.3736 13.6512C33.3564 13.7008 33.3382 13.7497 33.3191 13.7981L33.3173 13.8025C33.3067 13.8292 33.2957 13.8557 33.2845 13.8821C33.0808 14.3592 32.7893 14.7399 32.4099 15.0242L32.3907 15.0385C32.002 15.3205 31.5333 15.4615 30.9846 15.4615C30.9572 15.4615 30.9299 15.4612 30.9029 15.4604C30.5612 15.4513 30.254 15.3841 29.981 15.259C29.8498 15.1989 29.7266 15.1254 29.6113 15.0385C29.5629 15.0015 29.5161 14.9629 29.4707 14.9227C29.3635 14.8274 29.2647 14.7228 29.1744 14.6089ZM29.257 13.5041C29.2259 13.4179 29.1983 13.329 29.1744 13.2376C29.163 13.1938 29.1524 13.1494 29.1426 13.1045C29.1293 13.0435 29.1175 12.9815 29.1073 12.9183C29.0727 12.705 29.0554 12.479 29.0554 12.2405C29.0554 11.8735 29.095 11.5398 29.1744 11.2395C29.1983 11.1489 29.2259 11.0614 29.257 10.9769C29.275 10.9276 29.2942 10.8796 29.3146 10.8332L29.3156 10.831C29.4476 10.5316 29.6297 10.2925 29.862 10.1138C29.8725 10.1059 29.8831 10.098 29.8938 10.0904C29.9318 10.0632 29.971 10.038 30.0115 10.0146C30.2563 9.87394 30.5479 9.80359 30.8865 9.80359C30.931 9.80359 30.9746 9.80478 31.0173 9.80716C31.3803 9.82738 31.6837 9.93336 31.9275 10.1251L31.9374 10.1329C32.1953 10.3361 32.3906 10.6073 32.5233 10.9466L32.5254 10.9518C32.5315 10.9676 32.5375 10.9834 32.5433 10.9995C32.5686 11.0689 32.5915 11.1398 32.6121 11.2124C32.7007 11.5253 32.745 11.8681 32.745 12.2405C32.745 12.6513 32.6905 13.0266 32.5816 13.3662C32.5679 13.409 32.5533 13.4512 32.5379 13.4928C32.5329 13.5065 32.5278 13.5201 32.5226 13.5336C32.3892 13.8804 32.1927 14.1568 31.9331 14.3627L31.9292 14.3659L31.9275 14.3672C31.6733 14.5671 31.359 14.6738 30.9846 14.6873C30.9577 14.6882 30.9304 14.6887 30.9029 14.6887C30.5571 14.6887 30.2611 14.6166 30.0148 14.4724L30.0111 14.4701C30.001 14.4642 29.9909 14.4581 29.981 14.4519C29.9418 14.4274 29.904 14.4011 29.8674 14.3728C29.6687 14.2193 29.5067 14.0237 29.3814 13.7862C29.358 13.7417 29.3358 13.6957 29.3149 13.6483L29.3142 13.6468C29.2939 13.6006 29.2749 13.5531 29.257 13.5041Z" fill="#C5C5C5"/>
<path fill-rule="evenodd" clip-rule="evenodd" d="M39.4292 11.4186C39.4296 11.4481 39.4298 11.4776 39.4298 11.5072V15.2923H38.7159V14.2863C38.7146 14.2884 38.7134 14.2904 38.7122 14.2925C38.7069 14.3014 38.7016 14.3102 38.6962 14.319L38.6939 14.3228C38.6613 14.3758 38.6271 14.4271 38.5914 14.4766C38.5589 14.5215 38.5252 14.5649 38.4901 14.6068C38.3459 14.7793 38.1796 14.9269 37.991 15.0497C37.9538 15.074 37.9159 15.0972 37.8774 15.1193C37.8624 15.1279 37.8472 15.1364 37.832 15.1447C37.4676 15.3432 37.0465 15.4484 36.5686 15.4604C36.5379 15.4612 36.5071 15.4615 36.4759 15.4615C36.0753 15.4615 35.7325 15.3939 35.4476 15.2587L35.4421 15.2561C35.4137 15.2425 35.3859 15.2283 35.3587 15.2133C35.0645 15.0499 34.8429 14.8333 34.6939 14.5635L34.6884 14.5533L34.687 14.5509C34.539 14.277 34.4649 13.9789 34.4649 13.6564C34.4649 13.3255 34.5285 13.0434 34.6557 12.8103C34.6881 12.7515 34.7233 12.6955 34.7613 12.6421L34.7694 12.6308C34.8832 12.4736 35.0215 12.3397 35.1843 12.2292C35.2638 12.1762 35.3475 12.1276 35.4356 12.0834L35.4477 12.0774C35.5307 12.0363 35.6176 11.9991 35.7082 11.9658C35.7902 11.9357 35.8754 11.9088 35.9637 11.8851C36.0067 11.8743 36.0504 11.8636 36.0947 11.8531L36.1061 11.8504C36.3655 11.7895 36.6468 11.7353 36.9501 11.6877L37.0092 11.678L37.0104 11.6778C37.2771 11.6343 37.5388 11.5958 37.7957 11.5625L37.8069 11.561C37.8623 11.5539 37.9176 11.5469 37.9726 11.5402L38.0128 11.5354C38.2128 11.5095 38.3985 11.4843 38.5698 11.4596L38.5911 11.4565L38.6453 11.4487C38.6446 11.3974 38.6429 11.3474 38.6402 11.2986C38.6339 11.1847 38.6224 11.0776 38.6055 10.9771C38.6027 10.9603 38.5997 10.9437 38.5966 10.9273C38.5883 10.8837 38.5791 10.8415 38.5687 10.8006C38.5502 10.7272 38.5282 10.658 38.503 10.593L38.4988 10.5825L38.4945 10.5718C38.4445 10.4486 38.382 10.341 38.3071 10.2492C38.2468 10.1753 38.1751 10.1107 38.092 10.0557L38.0845 10.0507C37.8448 9.89481 37.5121 9.8162 37.0863 9.81489L37.0754 9.81487C36.6721 9.81487 36.3306 9.90889 36.0509 10.0969C36.0222 10.1164 35.9944 10.1371 35.9675 10.159C35.7415 10.3427 35.5776 10.6095 35.4759 10.9593L35.4677 10.9882L34.6884 10.7513C34.7043 10.6865 34.7222 10.6235 34.742 10.5622C34.8152 10.3358 34.9145 10.133 35.04 9.95366C35.1667 9.77249 35.3202 9.61528 35.5004 9.48205C35.5365 9.45539 35.5735 9.42991 35.6115 9.40562L35.6155 9.40302C36.003 9.15638 36.4896 9.0323 37.0754 9.03078L37.0863 9.03077C37.6241 9.03077 38.08 9.13607 38.4543 9.34667C38.6363 9.44629 38.7926 9.56773 38.9231 9.71098C39.0637 9.86513 39.1744 10.0446 39.2554 10.2492C39.3281 10.426 39.3753 10.6234 39.3971 10.8415C39.416 11.0311 39.4268 11.2234 39.4292 11.4186ZM38.5578 13.1431C38.5283 13.3199 38.4786 13.4866 38.4086 13.6432C38.3904 13.684 38.3708 13.7241 38.3498 13.7636C38.3126 13.8334 38.2712 13.9011 38.2254 13.9667C38.1273 14.1048 38.0114 14.2263 37.8774 14.331C37.8059 14.3869 37.7292 14.4381 37.6473 14.4845C37.6155 14.5025 37.5829 14.5198 37.5496 14.5364C37.2698 14.6756 36.9428 14.7451 36.5686 14.7451C36.5371 14.7451 36.5062 14.7446 36.4759 14.7435C36.2024 14.7337 35.979 14.6797 35.8056 14.5815C35.7742 14.5634 35.7442 14.5445 35.7156 14.5248L35.7125 14.5226C35.5706 14.4243 35.4636 14.3067 35.3914 14.1697L35.3818 14.1502C35.3046 13.9908 35.2661 13.8262 35.2661 13.6564C35.2661 13.4908 35.2943 13.3458 35.3509 13.2214L35.3527 13.2175C35.3702 13.1795 35.3904 13.1434 35.4132 13.1092C35.468 13.0302 35.5308 12.9599 35.6014 12.8984L35.6058 12.8945C35.6651 12.8434 35.7299 12.7984 35.8002 12.7595C35.9083 12.697 36.0191 12.6444 36.1325 12.6018L36.1422 12.5981C36.1894 12.5806 36.2371 12.5648 36.2852 12.5508C36.5156 12.4876 36.7713 12.4327 37.0523 12.3859L37.0579 12.385L37.1136 12.3759C37.3382 12.3403 37.5648 12.3078 37.7932 12.2782C37.8787 12.2671 37.965 12.2564 38.051 12.2462L38.098 12.2406C38.2454 12.2231 38.3876 12.2057 38.5248 12.1882L38.5914 12.1797L38.6329 12.1743L38.6311 12.3269L38.6287 12.5C38.628 12.5398 38.6268 12.5791 38.6251 12.6179C38.6225 12.6722 38.6189 12.7254 38.6141 12.7776L38.6134 12.7847C38.6077 12.8459 38.6003 12.9057 38.5914 12.964C38.5866 12.9951 38.5813 13.0258 38.5757 13.0561C38.5701 13.0855 38.5642 13.1145 38.5578 13.1431Z" fill="#C5C5C5"/>
<path fill-rule="evenodd" clip-rule="evenodd" d="M14.6792 9.2L14.6901 15.2923H16.5812C16.7152 15.2923 16.8515 15.2899 16.9902 15.2851C17.0245 15.2839 17.0589 15.2825 17.0935 15.281C17.2574 15.2704 17.41 15.2499 17.5514 15.2193L17.5537 15.2189L17.5786 15.2133C17.9241 15.1346 18.2185 14.9757 18.4617 14.7366C18.4972 14.7017 18.5318 14.6649 18.565 14.6267C18.6729 14.5025 18.7586 14.3595 18.822 14.1977C18.9123 13.9671 18.9574 13.6984 18.9574 13.3913C18.9574 13.0757 18.9123 12.8056 18.822 12.5809C18.8036 12.5351 18.7834 12.4912 18.7612 12.4492C18.6867 12.3056 18.5967 12.1797 18.4915 12.0715L18.4854 12.0653C18.4076 11.9863 18.3215 11.9168 18.2271 11.8569C18.0019 11.714 17.7439 11.6125 17.4532 11.5523L17.4416 11.5503L17.4386 11.5498C17.3115 11.5286 17.1692 11.5144 17.0118 11.5072L16.9585 11.5049L16.9574 11.5048C16.8235 11.4994 16.6873 11.4964 16.5485 11.496L16.5104 11.4959H15.4858V9.2H14.6792ZM16.5812 14.5814L16.5485 14.5815H15.4858V12.2067H16.5485C16.6684 12.2067 16.792 12.2104 16.9191 12.2179C16.94 12.2191 16.9606 12.2206 16.9811 12.2223C17.0891 12.2311 17.192 12.2466 17.2897 12.2687L17.3137 12.2743L17.3361 12.2798C17.5294 12.3295 17.6919 12.4158 17.8234 12.5387C17.8503 12.5637 17.8759 12.5903 17.9001 12.6185C17.9577 12.6837 18.0044 12.7609 18.0402 12.8502L18.0422 12.8552C18.1001 13.0018 18.129 13.1805 18.129 13.3913C18.129 13.6758 18.075 13.9019 17.9668 14.0694C17.9435 14.1056 17.9176 14.139 17.8892 14.1697C17.7502 14.3203 17.5953 14.4263 17.4247 14.4875C17.4037 14.495 17.382 14.502 17.3606 14.5082C17.2724 14.5339 17.1737 14.552 17.0646 14.5625L17.0502 14.5638C17.02 14.5666 16.9891 14.5687 16.9573 14.5703C16.8184 14.5771 16.6931 14.5808 16.5812 14.5814Z" fill="#C5C5C5"/>
<path d="M45.3339 9.2V9.96718H43.2465V15.2923H42.4454V9.96718H40.3581V9.2H45.3339Z" fill="#C5C5C5"/>
<path d="M19.6605 9.2H20.4616V15.2923H19.6605V9.2Z" fill="#C5C5C5"/>
<path d="M42.2885 22H6C3.23858 22 1 19.7614 1 17V6C1 3.23858 3.23858 1 6 1H53C55.7614 1 58 3.23858 58 6V17C58 19.7614 55.7614 22 53 22H45.2115" stroke="#C5C5C5"/>
<path d="M45.2311 24.6667V19.3333C45.2311 18.8889 44.9721 18 43.9362 18C42.9004 18 42.6414 18.8889 42.6414 19.3333V28.3333C42.5335 28.2222 42.1882 27.8667 41.6703 27.3333C41.1524 26.8 40.0271 26 39.3798 26.6667C38.697 27.3699 39.0806 28.3333 39.4043 28.6667C40.4833 29.7778 42.965 32.3333 44.2598 33.6667C45.5547 35 47.1733 35 47.8206 35C51.1871 35 53 31.6667 53 30V25.6667C53 25.2222 52.741 24.3333 51.7052 24.3333C50.6693 24.3333 50.4104 25.2222 50.4104 25.6667V24.6667C50.4104 24.2222 50.1514 23.3333 49.1155 23.3333C48.0797 23.3333 47.8207 24.2222 47.8207 24.6667M45.2311 24.6667C45.2311 24.2222 45.49 23.3333 46.5259 23.3333C47.5617 23.3333 47.8207 24.2222 47.8207 24.6667M45.2311 24.6667V25.6667M47.8207 24.6667V25.6667" stroke="#C5C5C5"/>
</svg>
