<svg width="280" height="200" viewBox="0 0 280 200" fill="none" xmlns="http://www.w3.org/2000/svg">
<path d="M145.159 25.894L71 89.3818L72.9963 91.7137L147.155 28.2259L145.159 25.894Z" fill="#262626"/>
<path d="M97.8321 26.1645L71 47.191L72.8931 49.6069L99.7252 28.5803L97.8321 26.1645Z" fill="#262626"/>
<path d="M205.621 25.4922L172.855 52.7468L174.818 55.1064L207.583 27.8518L205.621 25.4922Z" fill="#262626"/>
<path d="M95.2845 105.386L71 126.176L72.9963 128.508L97.2808 107.718L95.2845 105.386Z" fill="#262626"/>
<path d="M206.01 117.341L141.373 171.269L143.339 173.626L207.976 119.697L206.01 117.341Z" fill="#262626"/>
<path d="M105.052 142.641L71 171.269L72.9747 173.618L107.027 144.99L105.052 142.641Z" fill="#262626"/>
<path d="M205.807 66.9543L177.485 90.3394L179.439 92.7062L207.761 69.321L205.807 66.9543Z" fill="#262626"/>
<path d="M206.64 157.496L188.597 171.269L190.459 173.709L208.503 159.935L206.64 157.496Z" fill="#262626"/>
<path d="M168.096 93.0935C168.901 92.9581 168.901 91.7968 168.096 91.6613C166.966 91.4716 165.835 91.3324 164.705 91.2171C163.921 91.1408 163.137 91.0792 162.353 91.0316C160.757 90.9346 159.478 89.6568 159.381 88.0604C159.334 87.2775 159.272 86.4946 159.196 85.7117C159.08 84.5901 158.942 83.468 158.755 82.3464C158.621 81.5403 157.457 81.5403 157.323 82.3464C157.136 83.468 156.998 84.5901 156.882 85.7117C156.806 86.4958 156.744 87.28 156.697 88.0635C156.599 89.6598 155.322 90.9376 153.725 91.0353C152.941 91.0829 152.157 91.1445 151.373 91.2208C150.251 91.3361 149.129 91.474 148.007 91.6613C147.201 91.7956 147.201 92.9593 148.007 93.0935C149.129 93.2803 150.251 93.4182 151.373 93.5341C152.156 93.6104 152.939 93.672 153.721 93.7196C155.318 93.8173 156.596 95.0951 156.693 96.692C156.741 97.4761 156.802 98.2596 156.879 99.0438C156.995 100.174 157.134 101.305 157.323 102.435C157.458 103.24 158.62 103.24 158.755 102.435C158.945 101.305 159.084 100.174 159.199 99.0438C159.276 98.2609 159.337 97.478 159.385 96.695C159.482 95.0981 160.76 93.8203 162.357 93.7233C163.14 93.6757 163.923 93.6141 164.705 93.5384C165.836 93.4224 166.966 93.2833 168.096 93.0935Z" fill="#0049FF"/>
<path d="M133.941 79.0817C134.606 78.9702 134.606 78.01 133.941 77.8985C133.007 77.7418 132.073 77.6266 131.139 77.5315C130.492 77.4687 129.844 77.4175 129.197 77.3785C127.878 77.298 126.822 76.2428 126.742 74.9243C126.702 74.2775 126.652 73.6307 126.588 72.984C126.493 72.0574 126.379 71.1308 126.224 70.2036C126.113 69.5379 125.152 69.5379 125.041 70.2036C124.887 71.1302 124.773 72.0568 124.677 72.984C124.614 73.6313 124.563 74.2793 124.524 74.9267C124.444 76.2453 123.388 77.3011 122.069 77.3816C121.422 77.4212 120.774 77.4718 120.126 77.5352C119.199 77.6309 118.273 77.7449 117.345 77.8991C116.68 78.01 116.68 78.9714 117.345 79.0823C118.272 79.2365 119.199 79.3505 120.126 79.4462C120.773 79.509 121.419 79.5602 122.066 79.5993C123.385 79.6797 124.441 80.7355 124.521 82.0547C124.561 82.7021 124.611 83.3501 124.674 83.9975C124.77 84.9314 124.884 85.8646 125.041 86.7985C125.153 87.4636 126.113 87.4642 126.224 86.7985C126.381 85.8646 126.496 84.9314 126.591 83.9975C126.654 83.3507 126.705 82.7039 126.744 82.0577C126.825 80.7386 127.881 79.6828 129.199 79.6029C129.846 79.5633 130.492 79.5127 131.139 79.4499C132.073 79.353 133.007 79.2384 133.941 79.0817Z" fill="#0049FF"/>
<path d="M155.302 123.488C155.881 123.357 155.881 122.519 155.302 122.389C152.576 121.778 143.534 120.832 141.741 120.753C140.216 120.685 138.995 119.466 138.927 117.94C138.846 116.147 137.901 107.121 137.295 104.4C137.166 103.82 136.325 103.82 136.196 104.4C135.59 107.121 134.646 116.151 134.565 117.945C134.497 119.47 133.277 120.69 131.752 120.758C129.958 120.839 120.928 121.783 118.208 122.389C117.627 122.518 117.627 123.359 118.208 123.488C120.928 124.094 129.955 125.038 131.747 125.118C133.272 125.187 134.493 126.407 134.56 127.932C134.64 129.727 135.585 138.768 136.196 141.494C136.327 142.074 137.165 142.074 137.295 141.494C137.906 138.768 138.852 129.73 138.931 127.937C138.999 126.412 140.219 125.192 141.745 125.123C143.538 125.044 152.576 124.1 155.302 123.488Z" fill="#0049FF"/>
</svg>
