<svg width="280" height="200" viewBox="0 0 280 200" fill="none" xmlns="http://www.w3.org/2000/svg">
<path d="M223.05 122.041C230.597 118.1 235.77 110.164 235.77 101.031C235.77 87.9855 225.227 77.3726 212.258 77.3726L168.217 77.6177V29H166.568C152.415 29 140.9 40.5911 140.9 54.8379V145.162H140.908C140.908 145.403 140.904 145.644 140.91 145.887C141.288 159.735 153.021 171 167.068 171H222.576C235.989 171 246.9 160.016 246.9 146.514C246.9 133.173 236.244 122.297 223.05 122.041ZM164.919 32.3802V77.2949C153.352 76.4422 144.199 66.6953 144.199 54.8379C144.199 42.9805 153.352 33.2329 164.919 32.3802ZM164.919 80.6234V119.376C158.555 119.777 152.659 122.501 148.169 127.146C146.602 128.767 145.275 130.557 144.198 132.473V67.4889C148.35 74.8982 156.024 80.0529 164.919 80.6234ZM222.575 167.68H167.067C154.791 167.68 144.535 157.863 144.207 145.796C144.039 139.657 146.286 133.856 150.533 129.462C154.782 125.066 160.476 122.645 166.568 122.645H168.217V80.9375L212.267 80.6924C223.408 80.6924 232.471 89.8158 232.471 101.03C232.471 112.244 223.408 121.368 212.267 121.368V124.688C212.328 124.688 212.388 124.684 212.449 124.683L212.439 124.942L222.51 125.347L222.576 125.349C234.17 125.349 243.602 134.843 243.602 146.514C243.602 158.185 234.17 167.68 222.575 167.68Z" fill="#0049FF"/>
<path d="M41.3603 118.906L33 111.87L36.015 97.6714L46.5962 94.0312L58.6498 109.824L51.4105 117.823L41.3603 118.906ZM36.6548 110.614L42.4117 115.46L49.7995 114.663L54.342 109.645L45.4129 97.9452L38.8677 100.197L36.6548 110.614Z" fill="#262626"/>
<path d="M82.129 164.211L67.1857 163.501L65.293 148.068L76.7234 142.322L88.9877 145.74L82.129 164.211ZM70.1351 160.322L79.8657 160.785L84.6256 147.965L77.0681 145.859L68.8669 149.981L70.1351 160.322Z" fill="#262626"/>
<path d="M76.1614 85.6238L69.416 72.0249L83.0036 72.2198L86.7399 80.1267L76.1614 85.6238ZM74.7984 75.4178L77.6298 81.1257L82.3791 78.6569L80.8895 75.5047L74.7984 75.4178Z" fill="#262626"/>
<path d="M92.0844 81L127.9 94L90.9004 84.762L92.0844 81Z" fill="#262626"/>
<path d="M122.9 129L95.699 145L93.9004 141.512L122.9 129Z" fill="#262626"/>
<path d="M128.9 110.731L61.9004 112L61.9438 108L128.9 110.731Z" fill="#262626"/>
</svg>
