<svg width="280" height="200" viewBox="0 0 280 200" fill="none" xmlns="http://www.w3.org/2000/svg">
<path d="M205.639 140.103L202.941 138.177C210.33 127.828 214.234 115.613 214.234 102.851C214.234 83.1959 204.663 64.6449 188.629 53.2278L190.551 50.5283C207.456 62.5653 217.549 82.1253 217.549 102.851C217.549 116.307 213.431 129.189 205.639 140.103Z" fill="#262626"/>
<path d="M131.6 163.492C105.825 154.527 88.5078 130.157 88.5078 102.85C88.5078 80.2211 100.632 59.0176 120.149 47.5137L121.832 50.3689C103.322 61.2802 91.8225 81.3898 91.8225 102.85C91.8225 128.747 108.245 151.859 132.689 160.361L131.6 163.492Z" fill="#262626"/>
<path d="M73.6663 36.4854V38.7916C73.6663 50.8351 67.0995 61.7985 56.1001 68.1194C52.6617 70.0958 48.9272 71.5191 45 72.3507L45.6901 75.6098C49.9593 74.7069 54.0211 73.1583 57.7616 71.008C64.9678 66.8674 70.4345 60.8929 73.6663 53.9249V166.485H77V36.4854H73.6663Z" fill="#262626"/>
<path d="M151.438 116.057L135.529 100.414L137.854 98.0509L150.764 110.745L168.609 81.085L171.451 82.794L151.438 116.057Z" fill="#262626"/>
<path d="M87.7777 36.4854V38.7916C87.7777 50.8806 82.31 61.8654 73.1508 68.1777C70.3132 70.1335 67.234 71.5415 64 72.3624L64.7675 75.5976C68.3669 74.684 71.789 73.1201 74.9379 70.9491C80.6408 67.019 85.0367 61.4496 87.7777 54.958V166.485H91V36.4854H87.7777Z" fill="#0049FF"/>
<path d="M164.368 116.057L148.459 100.414L150.783 98.0509L163.694 110.745L181.538 81.085L184.379 82.794L164.368 116.057Z" fill="#0049FF"/>
<path d="M111.01 90.5293C111.09 90.0102 111.002 89.5316 110.747 89.0954C110.492 88.6592 110.13 88.3827 109.666 88.2687L109.877 86.8918C110.361 86.9919 110.8 87.2319 111.192 87.6091C111.586 87.9863 111.873 88.4536 112.057 89.0105C112.239 89.568 112.286 90.1342 112.197 90.7116C112.019 91.8718 111.491 92.7343 110.612 93.2991C109.733 93.8652 108.62 94.0449 107.278 93.838L107.035 93.8016C106.205 93.6736 105.491 93.4078 104.893 93.0047C104.294 92.6003 103.86 92.0872 103.592 91.4627C103.321 90.8396 103.247 90.1389 103.366 89.3619C103.513 88.4066 103.921 87.6581 104.59 87.1132C105.26 86.5682 106.053 86.3462 106.974 86.4436L106.762 87.8206C106.204 87.7781 105.72 87.9173 105.308 88.2375C104.895 88.5584 104.648 88.9946 104.564 89.5455C104.45 90.2847 104.627 90.8999 105.097 91.3878C105.567 91.8758 106.307 92.1979 107.314 92.3531L107.589 92.3948C108.571 92.5466 109.357 92.4598 109.95 92.1369C110.541 91.8161 110.894 91.2798 111.01 90.5293Z" fill="#0049FF"/>
<path d="M110.949 77.9985C112.202 78.3843 113.123 78.9823 113.712 79.7917C114.301 80.6012 114.444 81.4955 114.143 82.4747C113.835 83.4744 113.275 84.1632 112.464 84.5397L116.429 85.7622L115.996 87.1709L104.596 83.6567L104.993 82.3699L105.928 82.5827C105.394 81.7912 105.284 80.8843 105.599 79.8647C105.903 78.8762 106.518 78.208 107.44 77.8619C108.365 77.5165 109.491 77.5483 110.82 77.958L110.949 77.9985ZM110.355 79.3568C109.426 79.0705 108.633 79.0419 107.973 79.2726C107.313 79.502 106.876 79.9628 106.664 80.6522C106.401 81.5048 106.582 82.2598 107.206 82.9188L111.14 84.132C112.02 83.9431 112.595 83.414 112.862 82.5462C113.07 81.8714 112.968 81.2535 112.556 80.6894C112.144 80.1259 111.409 79.6824 110.355 79.3568Z" fill="#0049FF"/>
<path d="M111.374 76.3857C110.614 76.0178 110.003 75.5398 109.539 74.9464C109.077 74.3544 108.808 73.7127 108.736 73.0206C108.664 72.3285 108.792 71.6404 109.122 70.9575C109.632 69.9008 110.411 69.2226 111.457 68.9236C112.504 68.624 113.634 68.7672 114.848 69.3532L114.942 69.3976C115.697 69.7629 116.306 70.2349 116.765 70.8137C117.224 71.3924 117.493 72.0322 117.568 72.7316C117.643 73.431 117.512 74.1297 117.175 74.8278C116.666 75.8792 115.89 76.5547 114.843 76.8544C113.796 77.154 112.671 77.0122 111.466 76.4308L111.374 76.3857ZM112.175 75.1281C113.037 75.5438 113.823 75.677 114.537 75.5292C115.251 75.3813 115.769 74.9736 116.093 74.3041C116.418 73.6292 116.412 72.9662 116.075 72.3152C115.739 71.6642 115.095 71.1074 114.144 70.648C113.294 70.2369 112.506 70.107 111.782 70.2548C111.06 70.4046 110.537 70.813 110.213 71.4826C109.897 72.1376 109.904 72.7919 110.228 73.4449C110.557 74.0979 111.206 74.6594 112.175 75.1281Z" fill="#0049FF"/>
<path d="M117.905 65.8509L117.299 66.7386L120.327 68.8103L119.491 70.0334L112.38 65.1694L113.216 63.9463L116.227 66.0047L116.77 65.2105L115.396 60.7589L116.403 59.2865L117.898 64.4375L123.677 63.9132L122.621 65.4585L117.905 65.8509Z" fill="#0049FF"/>
<path d="M128.343 57.5396C128.722 57.1757 128.943 56.7434 129.007 56.2422C129.07 55.7404 128.952 55.3015 128.654 54.9276L129.66 53.9631C129.981 54.3389 130.184 54.7957 130.267 55.334C130.349 55.8723 130.293 56.4192 130.099 56.9721C129.904 57.5264 129.596 58.005 129.174 58.4081C128.327 59.2202 127.383 59.5821 126.341 59.4959C125.299 59.4104 124.309 58.8754 123.369 57.8949L123.198 57.7166C122.617 57.1107 122.212 56.4643 121.983 55.7808C121.754 55.096 121.722 54.4238 121.888 53.7648C122.055 53.1072 122.421 52.5052 122.989 51.961C123.687 51.2927 124.466 50.9467 125.328 50.9222C126.19 50.8976 126.957 51.2046 127.627 51.8423L126.62 52.8062C126.203 52.433 125.735 52.2474 125.213 52.2514C124.691 52.2553 124.229 52.4502 123.826 52.8361C123.285 53.3531 123.052 53.9498 123.128 54.6227C123.203 55.2969 123.594 56.0009 124.3 56.7375L124.492 56.9383C125.179 57.6556 125.855 58.066 126.521 58.1707C127.188 58.2755 127.794 58.0647 128.343 57.5396Z" fill="#0049FF"/>
<path d="M137.673 50.3446C138.118 50.0642 138.423 49.6863 138.587 49.2077C138.75 48.7284 138.722 48.2756 138.504 47.8486L139.684 47.1075C139.924 47.5391 140.029 48.0283 140.002 48.5712C139.973 49.1162 139.809 49.6393 139.507 50.1418C139.206 50.6456 138.807 51.052 138.312 51.3629C137.319 51.9861 136.321 52.1511 135.317 51.8561C134.313 51.5618 133.451 50.8392 132.729 49.6877L132.598 49.4788C132.151 48.7682 131.885 48.0548 131.799 47.3382C131.713 46.6209 131.817 45.9566 132.113 45.3441C132.409 44.7328 132.89 44.2177 133.555 43.7994C134.373 43.287 135.208 43.1047 136.057 43.2545C136.906 43.4043 137.595 43.8591 138.122 44.6182L136.942 45.3593C136.608 44.9105 136.187 44.6347 135.675 44.5326C135.164 44.4319 134.67 44.5287 134.199 44.825C133.564 45.2234 133.217 45.7597 133.155 46.4346C133.093 47.1095 133.333 47.8798 133.876 48.7416L134.024 48.9783C134.551 49.8189 135.131 50.3572 135.762 50.5945C136.394 50.8305 137.031 50.7477 137.673 50.3446Z" fill="#0049FF"/>
<path d="M147.194 42.0639C147.721 43.2651 147.871 44.353 147.645 45.3282C147.418 46.3027 146.835 46.9961 145.896 47.4091C144.94 47.8294 144.053 47.8566 143.235 47.49L144.905 51.288L143.556 51.8806L138.76 40.9594L139.991 40.4184L140.442 41.2644C140.692 40.3415 141.305 39.6673 142.283 39.2377C143.231 38.8214 144.137 38.8486 145.002 39.3213C145.869 39.794 146.58 40.6664 147.14 41.9399L147.194 42.0639ZM145.777 42.504C145.387 41.6144 144.889 40.9945 144.284 40.6458C143.678 40.2978 143.044 40.2686 142.383 40.559C141.568 40.9163 141.115 41.5481 141.024 42.4517L142.678 46.2211C143.398 46.7628 144.174 46.8516 145.004 46.4863C145.652 46.2026 146.053 45.72 146.209 45.0398C146.366 44.3596 146.221 43.5137 145.777 42.504Z" fill="#0049FF"/>
<path d="M148.693 41.344C148.474 40.5293 148.439 39.753 148.585 39.0158C148.732 38.2786 149.043 37.6574 149.521 37.151C149.999 36.6445 150.604 36.2931 151.338 36.0975C152.471 35.7939 153.492 35.9424 154.402 36.5391C155.311 37.137 155.94 38.0877 156.289 39.391L156.315 39.4911C156.531 40.3019 156.57 41.0703 156.432 41.7962C156.294 42.5228 155.984 43.1426 155.502 43.6564C155.023 44.1682 154.407 44.5262 153.657 44.725C152.53 45.0267 151.511 44.8775 150.6 44.2795C149.692 43.6829 149.064 42.7375 148.719 41.4455L148.693 41.344ZM150.168 41.1312C150.415 42.0547 150.827 42.7389 151.404 43.1837C151.981 43.6285 152.63 43.7545 153.348 43.5629C154.07 43.37 154.57 42.9331 154.845 42.2523C155.119 41.5728 155.12 40.7215 154.847 39.7C154.604 38.7871 154.19 38.1049 153.604 37.6541C153.019 37.2033 152.369 37.0741 151.651 37.2656C150.947 37.4526 150.455 37.8835 150.173 38.5577C149.893 39.2326 149.891 40.0904 150.168 41.1312Z" fill="#0049FF"/>
<path d="M160.944 39.4209L159.874 39.5402L160.282 43.1883L158.81 43.3521L157.854 34.7909L159.325 34.6258L159.73 38.2508L160.688 38.144L163.164 34.1982L164.936 34L162.009 38.4927L166.177 42.53L164.317 42.7382L160.944 39.4209Z" fill="#0049FF"/>
<path d="M174.026 41.9028C174.549 41.9538 175.022 41.8391 175.444 41.5594C175.865 41.281 176.12 40.9051 176.208 40.4331L177.595 40.5663C177.522 41.0556 177.307 41.507 176.952 41.9207C176.597 42.335 176.148 42.6499 175.602 42.8627C175.057 43.0769 174.492 43.1564 173.911 43.1001C172.743 42.9874 171.852 42.5081 171.238 41.6628C170.623 40.8176 170.381 39.7177 170.51 38.3647L170.535 38.1201C170.614 37.2848 170.841 36.5569 171.209 35.9363C171.578 35.3152 172.066 34.8531 172.674 34.5488C173.281 34.2452 173.977 34.1305 174.759 34.2054C175.721 34.2982 176.493 34.6622 177.074 35.2993C177.654 35.937 177.922 36.7173 177.877 37.6414L176.489 37.5075C176.501 36.9486 176.334 36.472 175.99 36.0795C175.647 35.6871 175.198 35.4637 174.642 35.4106C173.898 35.3384 173.295 35.5505 172.833 36.0477C172.372 36.5449 172.093 37.3013 171.995 38.315L171.968 38.5921C171.873 39.5805 172.003 40.3608 172.359 40.9342C172.716 41.5083 173.27 41.8312 174.026 41.9028Z" fill="#0049FF"/>
<path d="M187.547 36.8666L185.444 45.2223L184.007 44.861L185.813 37.6873L182.971 36.972L182.014 40.0573C181.56 41.4701 181.06 42.4373 180.516 42.9564C179.973 43.4768 179.276 43.6439 178.424 43.4562L177.854 43.313L178.171 42.0554L178.588 42.1264C179.064 42.192 179.463 42.007 179.786 41.5735C180.108 41.1412 180.462 40.2774 180.848 38.9841L181.903 35.4473L187.547 36.8666Z" fill="#0049FF"/>
<path d="M190.673 44.9332L194.971 39.7106L196.431 40.3059L189.468 48.2068C188.429 49.3312 187.37 49.6739 186.287 49.2331L186.039 49.1058L185.57 48.8028L186.021 47.6964L186.377 47.876C186.839 48.0643 187.238 48.1173 187.572 48.0365C187.906 47.9549 188.258 47.6997 188.628 47.2714L189.261 46.584L189.633 37.5335L191.122 38.1408L190.673 44.9332Z" fill="#0049FF"/>
<path d="M202.092 49.2059L201.215 48.6543L199.218 51.8199L197.971 51.0329L199.97 47.8674L199.093 47.3158L195.056 49.194L193.48 48.1995L198.466 46.0722L198.325 41.069L199.833 42.021L199.81 46.224L200.666 46.7623L202.568 43.7452L203.815 44.5315L201.911 47.5485L202.761 48.0849L206.556 46.2618L208.064 47.2138L203.478 49.2437L203.71 54.6532L202.134 53.6588L202.092 49.2059Z" fill="#0049FF"/>
<path d="M212.317 51.7508C213.118 52.4814 213.513 53.3326 213.507 54.3058C213.496 55.279 213.095 56.2037 212.298 57.0782L212.205 57.1783C211.658 57.7782 211.053 58.2091 210.392 58.4703C209.729 58.7315 209.062 58.7945 208.389 58.6606C207.719 58.5267 207.1 58.2019 206.535 57.6861C205.681 56.9058 205.252 55.993 205.252 54.9462C205.25 53.9001 205.688 52.8964 206.564 51.9351L207.048 51.4061C208.267 50.0676 209.485 49.2316 210.7 48.8955C211.916 48.5601 213.087 48.7477 214.213 49.459C214.851 49.8621 215.331 50.0808 215.652 50.1147C215.973 50.1485 216.246 50.0424 216.471 49.7945L217.365 50.6105C216.918 51.1005 216.459 51.3822 215.987 51.4545C215.516 51.5267 214.982 51.3981 214.395 51.068L213.416 50.5098C212.628 50.0722 211.908 49.8873 211.253 49.9556C210.598 50.0225 209.948 50.3142 209.298 50.828C210.484 50.6881 211.489 50.9951 212.317 51.7508ZM211.29 52.4522C210.756 51.9656 210.169 51.7581 209.528 51.8304C208.887 51.9033 208.275 52.2579 207.697 52.8924L207.611 52.9872C206.989 53.67 206.653 54.3542 206.605 55.041C206.558 55.7271 206.803 56.3151 207.34 56.805C207.881 57.2989 208.491 57.4879 209.171 57.3745C209.849 57.2612 210.538 56.8196 211.24 56.0506C211.788 55.4507 212.069 54.8248 212.084 54.1738C212.101 53.5235 211.835 52.9494 211.29 52.4522Z" fill="#0049FF"/>
<path d="M215.773 58.7521L217.13 60.5328C217.713 61.3164 217.98 62.0854 217.927 62.8391C217.873 63.5942 217.507 64.23 216.827 64.7477C216.144 65.2688 215.417 65.4544 214.65 65.3059C213.882 65.1574 213.199 64.6894 212.601 63.9038L210.391 61.0028L217.244 55.7815L218.137 56.9536L215.773 58.7521ZM214.818 59.4813L212.239 61.445L213.567 63.1872C213.901 63.626 214.272 63.8799 214.682 63.9482C215.092 64.0172 215.493 63.9018 215.885 63.6028C216.265 63.3138 216.488 62.9591 216.553 62.5395C216.615 62.1198 216.491 61.6962 216.179 61.2673L214.818 59.4813ZM216.422 68.9196L215.524 67.7409L222.379 62.5203L223.275 63.6983L216.422 68.9196Z" fill="#0049FF"/>
<path d="M220.939 78.0869L220.351 76.7279L229.359 72.8238L227.177 70.532L228.405 69.9997L231.538 73.2421L231.63 73.4543L220.939 78.0869Z" fill="#0049FF"/>
<path d="M228.759 86.2992C227.099 86.7692 225.785 86.8342 224.816 86.4954C223.85 86.1567 223.195 85.3843 222.855 84.1784C222.518 82.9878 222.664 81.9954 223.291 81.2005C223.919 80.4057 225.013 79.7765 226.577 79.3118L228.468 78.7761C230.109 78.3128 231.407 78.2511 232.364 78.5938C233.32 78.9346 233.971 79.7116 234.314 80.9221C234.654 82.1227 234.518 83.1157 233.911 83.8993C233.301 84.6836 232.198 85.3101 230.598 85.7788L228.759 86.2992ZM230.295 84.3329C231.497 83.9935 232.325 83.5771 232.779 83.0852C233.232 82.5927 233.354 81.9808 233.148 81.2509C232.943 80.525 232.52 80.0748 231.881 79.8965C231.239 79.7182 230.351 79.7845 229.215 80.0961L226.948 80.7378C225.741 81.0785 224.899 81.5055 224.424 82.0173C223.949 82.5297 223.811 83.1416 224.012 83.8523C224.21 84.5517 224.627 84.9945 225.264 85.1821C225.903 85.3684 226.806 85.3048 227.976 84.9905L230.295 84.3329Z" fill="#0049FF"/>
<path d="M233.851 99.2114L225.249 99.7126L225.163 98.2336L232.549 97.8046L232.378 94.8791L229.148 94.8917C227.665 94.8824 226.593 94.6955 225.934 94.3322C225.274 93.9682 224.907 93.353 224.828 92.4865L224.794 91.8979L226.09 91.8229L226.146 92.2426C226.228 92.7166 226.524 93.0427 227.034 93.2204C227.543 93.3981 228.473 93.477 229.823 93.4564L233.512 93.4014L233.851 99.2114Z" fill="#0049FF"/>
<path d="M224.717 105.031C224.824 103.868 225.292 102.957 226.124 102.297C226.954 101.638 228.009 101.366 229.288 101.483L229.557 101.507C230.409 101.585 231.153 101.817 231.792 102.204C232.431 102.59 232.913 103.093 233.238 103.711C233.562 104.331 233.693 104.98 233.632 105.661C233.53 106.777 233.082 107.611 232.292 108.162C231.5 108.713 230.42 108.926 229.051 108.801L228.44 108.745L228.972 102.932C228.124 102.875 227.418 103.06 226.854 103.486C226.29 103.912 225.975 104.489 225.907 105.219C225.86 105.737 225.927 106.185 226.104 106.564C226.283 106.942 226.534 107.283 226.859 107.584L226.078 108.416C225.04 107.597 224.586 106.469 224.717 105.031ZM232.425 105.552C232.48 104.96 232.31 104.443 231.916 104.002C231.523 103.561 230.94 103.257 230.172 103.092L229.78 107.389L229.89 107.399C230.639 107.425 231.235 107.276 231.678 106.955C232.121 106.633 232.37 106.166 232.425 105.552Z" fill="#0049FF"/>
<path d="M230.096 117.517L230.748 114.701L223.517 113.027L223.85 111.592L231.08 113.265L231.719 110.504L232.882 110.772L231.26 117.786L230.096 117.517Z" fill="#0049FF"/>
<path d="M220.908 123.706C220.693 124.186 220.649 124.67 220.778 125.159C220.908 125.647 221.18 126.009 221.598 126.245L221.026 127.515C220.587 127.288 220.229 126.94 219.95 126.472C219.673 126.003 219.521 125.476 219.494 124.89C219.466 124.304 219.572 123.745 219.813 123.212C220.295 122.143 221.036 121.454 222.034 121.144C223.032 120.833 224.151 120.958 225.39 121.517L225.615 121.617C226.38 121.962 226.997 122.408 227.465 122.957C227.934 123.506 228.215 124.119 228.307 124.792C228.399 125.464 228.284 126.159 227.962 126.877C227.564 127.757 226.972 128.37 226.181 128.715C225.39 129.061 224.565 129.063 223.706 128.722L224.278 127.453C224.804 127.642 225.309 127.638 225.791 127.439C226.275 127.24 226.629 126.887 226.858 126.378C227.165 125.696 227.157 125.057 226.836 124.46C226.514 123.863 225.888 123.356 224.959 122.936L224.705 122.822C223.8 122.414 223.019 122.286 222.361 122.439C221.704 122.592 221.221 123.014 220.908 123.706Z" fill="#0049FF"/>
<path d="M217.549 135.87C216.446 135.16 215.721 134.336 215.372 133.398C215.022 132.459 215.126 131.56 215.68 130.698C216.246 129.819 216.969 129.306 217.852 129.162L214.364 126.916L215.161 125.677L225.191 132.134L224.463 133.266L223.621 132.809C223.921 133.715 223.782 134.618 223.205 135.515C222.645 136.385 221.872 136.863 220.89 136.946C219.909 137.03 218.832 136.697 217.663 135.943L217.549 135.87ZM218.487 134.722C219.303 135.248 220.061 135.489 220.758 135.445C221.456 135.402 222 135.076 222.39 134.47C222.873 133.719 222.902 132.943 222.48 132.14L219.018 129.911C218.119 129.856 217.424 130.211 216.932 130.974C216.55 131.568 216.481 132.191 216.726 132.845C216.972 133.499 217.558 134.124 218.487 134.722Z" fill="#0049FF"/>
<path d="M216.687 137.308C217.319 137.869 217.776 138.496 218.06 139.193C218.342 139.889 218.425 140.581 218.305 141.266C218.186 141.952 217.875 142.577 217.369 143.145C216.591 144.022 215.656 144.461 214.567 144.464C213.479 144.466 212.43 144.019 211.423 143.124L211.346 143.055C210.719 142.498 210.263 141.878 209.979 141.196C209.694 140.513 209.612 139.825 209.73 139.131C209.85 138.438 210.167 137.802 210.682 137.222C211.458 136.35 212.389 135.912 213.478 135.91C214.567 135.909 215.611 136.351 216.612 137.24L216.687 137.308ZM215.573 138.298C214.859 137.664 214.137 137.32 213.411 137.267C212.683 137.214 212.073 137.465 211.58 138.02C211.083 138.581 210.906 139.22 211.052 139.938C211.198 140.658 211.665 141.368 212.455 142.07C213.162 142.697 213.883 143.039 214.62 143.093C215.355 143.148 215.971 142.897 216.465 142.341C216.948 141.798 217.121 141.167 216.985 140.449C216.849 139.731 216.379 139.015 215.573 138.298Z" fill="#0049FF"/>
<path d="M207.527 145.658L208.353 144.969L206.001 142.149L207.14 141.201L212.657 147.819L211.518 148.768L209.184 145.966L208.444 146.584L208.554 151.24L207.183 152.383L207.149 147.02L201.445 145.948L202.882 144.749L207.527 145.658Z" fill="#0049FF"/>
<path d="M195.555 159.197L191.558 151.563L192.871 150.877L196.302 157.43L198.898 156.071L197.558 153.132C196.955 151.776 196.683 150.722 196.743 149.972C196.802 149.221 197.212 148.633 197.972 148.205L198.494 147.933L199.096 149.081L198.736 149.305C198.338 149.574 198.162 149.977 198.21 150.516C198.259 151.054 198.569 151.933 199.143 153.155L200.712 156.494L195.555 159.197Z" fill="#0049FF"/>
<path d="M186.473 153.283C187.576 152.9 188.6 152.95 189.544 153.435C190.488 153.919 191.17 154.768 191.591 155.981L191.682 156.237C191.962 157.045 192.057 157.82 191.971 158.56C191.883 159.302 191.626 159.949 191.194 160.499C190.766 161.05 190.227 161.439 189.581 161.664C188.523 162.031 187.578 161.969 186.749 161.475C185.921 160.983 185.281 160.086 184.829 158.788L184.628 158.208L190.142 156.292C189.843 155.497 189.382 154.93 188.761 154.592C188.141 154.254 187.484 154.206 186.793 154.445C186.302 154.617 185.921 154.862 185.648 155.181C185.379 155.5 185.171 155.869 185.032 156.29L183.952 155.923C184.268 154.638 185.109 153.758 186.473 153.283ZM189.183 160.519C189.745 160.324 190.143 159.956 190.383 159.415C190.623 158.874 190.659 158.218 190.494 157.451L186.416 158.867L186.454 158.973C186.739 159.667 187.12 160.147 187.596 160.418C188.072 160.687 188.6 160.722 189.183 160.519Z" fill="#0049FF"/>
<path d="M177.324 163.34L180.158 162.771L178.698 155.495L180.143 155.204L181.602 162.48L184.382 161.923L184.617 163.094L177.558 164.511L177.324 163.34Z" fill="#0049FF"/>
<path d="M168.938 165.166L168.391 156.567L169.87 156.472L170.338 163.855L173.265 163.669L173.233 160.44C173.235 158.956 173.416 157.884 173.774 157.222C174.134 156.561 174.748 156.189 175.615 156.107L176.203 156.069L176.286 157.365L175.867 157.424C175.393 157.507 175.069 157.804 174.894 158.315C174.719 158.826 174.644 159.757 174.671 161.106L174.746 164.795L168.938 165.166Z" fill="#0049FF"/>
<path d="M163.491 158.425L160.972 164.701L159.402 164.575L163.651 154.939C164.301 153.553 165.206 152.907 166.372 153L166.647 153.046L167.187 153.194L167.091 154.384L166.696 154.32C166.199 154.28 165.802 154.35 165.509 154.529C165.215 154.708 164.957 155.056 164.733 155.577L164.338 156.423L166.718 165.163L165.115 165.034L163.491 158.425Z" fill="#0049FF"/>
<path d="M151.325 157.807L152.326 158.068L153.268 154.445L154.693 154.817L153.752 158.439L154.754 158.699L158.031 155.684L159.835 156.153L155.731 159.694L157.38 164.419L155.655 163.969L154.401 159.958L153.422 159.702L152.525 163.155L151.099 162.784L151.998 159.331L151.025 159.079L147.962 161.968L146.235 161.52L149.989 158.192L148.125 153.109L149.929 153.578L151.325 157.807Z" fill="#0049FF"/>
<path d="M140.823 158.514C139.838 158.065 139.201 157.375 138.909 156.446C138.618 155.517 138.719 154.514 139.21 153.437L139.267 153.314C139.604 152.575 140.048 151.979 140.598 151.528C141.15 151.076 141.765 150.81 142.444 150.733C143.124 150.656 143.813 150.775 144.508 151.094C145.561 151.574 146.247 152.313 146.569 153.308C146.891 154.304 146.781 155.393 146.242 156.577L145.944 157.228C145.193 158.875 144.289 160.044 143.235 160.736C142.181 161.428 141.01 161.608 139.72 161.276C138.988 161.088 138.463 161.027 138.149 161.093C137.833 161.159 137.605 161.344 137.467 161.648L136.365 161.146C136.641 160.542 136.993 160.134 137.42 159.92C137.847 159.707 138.392 159.665 139.056 159.798L140.156 160.03C141.039 160.207 141.783 160.161 142.385 159.897C142.987 159.632 143.519 159.155 143.978 158.467C142.894 158.964 141.842 158.979 140.823 158.514ZM141.586 157.531C142.244 157.832 142.866 157.849 143.453 157.584C144.041 157.318 144.515 156.794 144.873 156.011L144.924 155.896C145.307 155.054 145.417 154.301 145.253 153.634C145.087 152.966 144.674 152.482 144.013 152.179C143.346 151.876 142.707 151.881 142.096 152.197C141.484 152.514 140.962 153.145 140.531 154.092C140.193 154.83 140.118 155.513 140.303 156.136C140.487 156.761 140.915 157.225 141.586 157.531Z" fill="#0049FF"/>
<path d="M131.661 143.42L132.876 144.268L127.944 151.332L126.73 150.484L131.661 143.42ZM135.382 152.904L133.547 151.623C132.753 151.055 132.265 150.404 132.086 149.67C131.906 148.936 132.06 148.219 132.55 147.516C133.042 146.812 133.675 146.413 134.454 146.322C135.229 146.229 136.023 146.466 136.832 147.031L139.822 149.119L134.889 156.182L133.683 155.34L135.382 152.904ZM136.071 151.918L137.927 149.262L136.131 148.008C135.679 147.691 135.247 147.563 134.836 147.623C134.426 147.683 134.078 147.915 133.795 148.319C133.522 148.712 133.419 149.117 133.486 149.536C133.553 149.955 133.802 150.321 134.229 150.633L136.071 151.918Z" fill="#0049FF"/>
<path d="M124.586 136.065L125.56 137.182L118.159 143.634L120.934 145.156L119.926 146.035L115.959 143.895L115.807 143.721L124.586 136.065Z" fill="#0049FF"/>
<path d="M114.646 130.614C116.086 129.663 117.319 129.203 118.343 129.232C119.367 129.262 120.227 129.799 120.916 130.845C121.598 131.877 121.761 132.866 121.404 133.814C121.048 134.763 120.194 135.695 118.847 136.612L117.204 137.696C115.782 138.635 114.565 139.087 113.549 139.052C112.533 139.017 111.678 138.474 110.985 137.424C110.298 136.384 110.124 135.397 110.466 134.466C110.808 133.532 111.67 132.601 113.052 131.669L114.646 130.614ZM113.778 132.953C112.738 133.642 112.075 134.289 111.792 134.896C111.509 135.503 111.577 136.124 111.996 136.757C112.411 137.386 112.95 137.688 113.615 137.663C114.278 137.637 115.106 137.304 116.093 136.663L118.062 135.365C119.106 134.673 119.779 134.012 120.076 133.379C120.374 132.747 120.32 132.122 119.913 131.508C119.512 130.9 118.98 130.605 118.316 130.621C117.651 130.635 116.81 130.971 115.79 131.625L113.778 132.953Z" fill="#0049FF"/>
<path d="M105.871 119.892L113.906 116.786L114.441 118.168L107.54 120.834L108.597 123.567L111.668 122.569C113.085 122.124 114.161 121.975 114.9 122.118C115.639 122.262 116.178 122.736 116.516 123.538L116.728 124.089L115.518 124.556L115.335 124.174C115.115 123.748 114.733 123.527 114.193 123.515C113.653 123.501 112.744 123.709 111.465 124.141L107.969 125.321L105.871 119.892Z" fill="#0049FF"/>
<path d="M112.777 111.534C113.032 112.674 112.865 113.685 112.277 114.568C111.688 115.449 110.766 116.031 109.513 116.311L109.249 116.37C108.415 116.557 107.634 116.564 106.908 116.393C106.182 116.22 105.569 115.89 105.071 115.4C104.571 114.91 104.248 114.332 104.099 113.663C103.854 112.571 104.025 111.64 104.609 110.873C105.193 110.106 106.156 109.572 107.499 109.272L108.097 109.138L109.371 114.834C110.196 114.627 110.809 114.236 111.216 113.659C111.622 113.081 111.747 112.434 111.588 111.719C111.474 111.211 111.273 110.805 110.988 110.499C110.702 110.193 110.358 109.946 109.958 109.758L110.444 108.727C111.684 109.189 112.462 110.125 112.777 111.534ZM105.28 113.398C105.409 113.978 105.729 114.419 106.238 114.718C106.749 115.017 107.395 115.128 108.178 115.052L107.236 110.839L107.127 110.863C106.406 111.069 105.884 111.392 105.562 111.834C105.239 112.277 105.145 112.798 105.28 113.398Z" fill="#0049FF"/>
<path d="M103.836 101.276L104.075 104.156L111.471 103.544L111.593 105.012L104.197 105.626L104.432 108.45L103.242 108.549L102.646 101.375L103.836 101.276Z" fill="#0049FF"/>
</svg>
