<svg xmlns="http://www.w3.org/2000/svg" fill="none" viewBox="0 0 280 200"><path fill="#0049FF" d="M189.103 73.105a.958.958 0 1 0 0-1.917.958.958 0 0 0 0 1.917zM185.155 72.585a.958.958 0 1 0 .001-1.917.958.958 0 0 0-.001 1.917zM188.612 76.824a.96.96 0 1 0 0-1.918.96.96 0 0 0 0 1.918zM184.666 76.305a.958.958 0 1 0 0-1.917.958.958 0 0 0 0 1.917zM188.124 80.543a.96.96 0 1 0 0-1.918.96.96 0 0 0 0 1.918zM184.177 80.023a.96.96 0 1 0 0-1.918.96.96 0 0 0 0 1.918zM187.656 84.085a.96.96 0 1 0 0-1.918.96.96 0 0 0 0 1.918zM183.71 83.566a.96.96 0 1 0 0-1.918.96.96 0 0 0 0 1.918zM187.167 87.806a.96.96 0 1 0 0-1.918.96.96 0 0 0 0 1.918zM183.221 87.286a.958.958 0 1 0 0-1.916.958.958 0 0 0 0 1.916zM186.677 91.525a.958.958 0 1 0 .001-1.916.958.958 0 0 0-.001 1.916zM182.73 91.006a.958.958 0 1 0 0-1.917.958.958 0 0 0 0 1.917zM186.187 95.245a.958.958 0 1 0 .001-1.917.958.958 0 0 0-.001 1.917zM182.241 94.725a.958.958 0 1 0 0-1.917.958.958 0 0 0 0 1.917zM185.698 98.964a.958.958 0 1 0 0-1.917.958.958 0 0 0 0 1.917zM181.751 98.444a.958.958 0 1 0 0-1.917.958.958 0 0 0 0 1.917zM185.208 102.683a.958.958 0 1 0 0-1.917.958.958 0 0 0 0 1.917zM181.261 102.163a.959.959 0 1 0 0-1.917.959.959 0 0 0 0 1.917zM184.719 106.402a.958.958 0 1 0 0-1.917.958.958 0 0 0 0 1.917zM180.772 105.882a.958.958 0 1 0 0-1.917.958.958 0 0 0 0 1.917zM184.228 110.121a.96.96 0 1 0 0-1.918.96.96 0 0 0 0 1.918zM180.282 109.601a.958.958 0 1 0 .001-1.917.958.958 0 0 0-.001 1.917zM183.737 113.84a.959.959 0 1 0 0-1.917.959.959 0 0 0 0 1.917zM179.792 113.32a.958.958 0 1 0 0-1.916.958.958 0 0 0 0 1.916zM171.19 70.746a.958.958 0 1 0 0-1.916.958.958 0 0 0 0 1.916zM167.244 70.227a.96.96 0 1 0 0-1.919.96.96 0 0 0 0 1.918zM171.681 67.027a.958.958 0 1 0 0-1.916.958.958 0 0 0 0 1.916zM167.734 66.508a.958.958 0 1 0 0-1.917.958.958 0 0 0 0 1.917zM172.169 63.307a.958.958 0 1 0 0-1.917.958.958 0 0 0 0 1.917zM168.223 62.788a.958.958 0 1 0 .001-1.917.958.958 0 0 0-.001 1.917zM170.701 74.465a.958.958 0 1 0 0-1.916.958.958 0 0 0 0 1.916zM166.754 73.946a.958.958 0 1 0 0-1.917.958.958 0 0 0 0 1.917zM170.211 78.184a.958.958 0 1 0 .001-1.916.958.958 0 0 0-.001 1.916zM166.264 77.665a.96.96 0 1 0 0-1.918.96.96 0 0 0 0 1.918zM169.745 81.728a.958.958 0 1 0 0-1.916.958.958 0 0 0 0 1.916zM165.797 81.209a.96.96 0 1 0 0-1.919.96.96 0 0 0 0 1.919zM169.255 85.448a.96.96 0 1 0 0-1.919.96.96 0 0 0 0 1.919zM165.309 84.928a.958.958 0 1 0 0-1.917.958.958 0 0 0 0 1.917zM168.764 89.167a.958.958 0 1 0 .001-1.917.958.958 0 0 0-.001 1.917zM164.819 88.647a.958.958 0 1 0 0-1.917.958.958 0 0 0 0 1.917zM168.275 92.886a.958.958 0 1 0 .001-1.917.958.958 0 0 0-.001 1.917zM164.329 92.366a.958.958 0 1 0 .001-1.917.958.958 0 0 0-.001 1.917zM167.787 96.606a.958.958 0 1 0 0-1.917.958.958 0 0 0 0 1.917zM163.839 96.086a.958.958 0 1 0 0-1.917.958.958 0 0 0 0 1.917zM167.296 100.324a.958.958 0 1 0 0-1.916.958.958 0 0 0 0 1.916zM163.349 99.804a.958.958 0 1 0 .001-1.917.958.958 0 0 0-.001 1.917zM166.807 104.044a.958.958 0 1 0 0-1.917.958.958 0 0 0 0 1.917zM162.86 103.524a.958.958 0 1 0 0-1.916.958.958 0 0 0 0 1.916zM166.317 107.763a.958.958 0 1 0 0-1.917.958.958 0 0 0 0 1.917zM162.369 107.243a.958.958 0 1 0 .001-1.917.958.958 0 0 0-.001 1.917zM165.828 111.483a.958.958 0 1 0 0-1.917.958.958 0 0 0 0 1.917zM161.881 110.963a.958.958 0 1 0 0-1.917.958.958 0 0 0 0 1.917zM183.251 117.537a.959.959 0 1 0 0-1.918.959.959 0 0 0 0 1.918zM179.304 117.018a.96.96 0 1 0 0-1.918.96.96 0 0 0 0 1.918zM182.763 121.257a.959.959 0 1 0 0-1.918.959.959 0 0 0 0 1.918zM178.815 120.738a.959.959 0 1 0 0-1.917.959.959 0 0 0 0 1.917zM174.573 116.395a.958.958 0 1 0 .001-1.917.958.958 0 0 0-.001 1.917zM170.627 115.875a.958.958 0 1 0 0-1.916.958.958 0 0 0 0 1.916zM174.262 120.137a.958.958 0 1 0 .001-1.917.958.958 0 0 0-.001 1.917zM170.315 119.618a.958.958 0 1 0 .001-1.917.958.958 0 0 0-.001 1.917zM165.338 115.179a.959.959 0 1 0 0-1.918.959.959 0 0 0 0 1.918zM161.393 114.66a.959.959 0 1 0-.002-1.918.959.959 0 0 0 .002 1.918zM165.765 119.019a.959.959 0 1 0 0-1.918.959.959 0 0 0 0 1.918zM161.818 118.5a.959.959 0 1 0 0-1.917.959.959 0 0 0 0 1.917zM157.205 114.108a.958.958 0 1 0 0-1.917.958.958 0 0 0 0 1.917zM157.266 117.9a.96.96 0 1 0 0-1.918.96.96 0 0 0 0 1.918zM173.775 123.84a.958.958 0 1 0 .001-1.917.958.958 0 0 0-.001 1.917zM169.827 123.321a.958.958 0 1 0 0-1.917.958.958 0 0 0 0 1.917zM165.277 122.722a.96.96 0 1 0 0-1.918.96.96 0 0 0 0 1.918zM161.329 122.202a.958.958 0 1 0 .001-1.917.958.958 0 0 0-.001 1.917zM156.778 121.602a.958.958 0 1 0 .001-1.917.958.958 0 0 0-.001 1.917zM181.787 128.661a.958.958 0 1 0 .001-1.917.958.958 0 0 0-.001 1.917zM169.343 127.023a.958.958 0 1 0 0-1.917.958.958 0 0 0 0 1.917zM164.791 126.423a.958.958 0 1 0 0-1.917.958.958 0 0 0 0 1.917zM160.843 125.904a.959.959 0 1 0-.002-1.918.959.959 0 0 0 .002 1.918zM156.291 125.305a.959.959 0 1 0-.002-1.918.959.959 0 0 0 .002 1.918zM181.299 132.363a.959.959 0 1 0 0-1.918.959.959 0 0 0 0 1.918zM177.353 131.843a.958.958 0 1 0 0-1.916.958.958 0 0 0 0 1.916zM172.799 131.244a.959.959 0 1 0 0-1.917.959.959 0 0 0 0 1.917zM168.853 130.724a.958.958 0 1 0 0-1.916.958.958 0 0 0 0 1.916zM164.301 130.125a.959.959 0 1 0 0-1.918.959.959 0 0 0 0 1.918zM160.355 129.606a.959.959 0 1 0-.002-1.918.959.959 0 0 0 .002 1.918zM155.803 129.006a.958.958 0 1 0 0-1.916.958.958 0 0 0 0 1.916zM180.814 136.066a.958.958 0 1 0 0-1.917.958.958 0 0 0 0 1.917zM176.866 135.546a.959.959 0 1 0 0-1.917.959.959 0 0 0 0 1.917zM172.315 134.946a.958.958 0 1 0 .001-1.917.958.958 0 0 0-.001 1.917zM168.368 134.427a.959.959 0 1 0 0-1.917.959.959 0 0 0 0 1.917zM163.816 133.828a.958.958 0 1 0 0-1.917.958.958 0 0 0 0 1.917zM159.869 133.308a.958.958 0 1 0 .001-1.917.958.958 0 0 0-.001 1.917zM155.317 132.708a.958.958 0 1 0 .001-1.917.958.958 0 0 0-.001 1.917zM180.325 139.768a.958.958 0 1 0 0-1.916.958.958 0 0 0 0 1.916zM176.378 139.248a.959.959 0 1 0 0-1.918.959.959 0 0 0 0 1.918zM171.825 138.649a.958.958 0 1 0 0-1.917.958.958 0 0 0 0 1.917zM167.878 138.13a.96.96 0 1 0 0-1.918.96.96 0 0 0 0 1.918zM163.327 137.531a.958.958 0 1 0 0-1.917.958.958 0 0 0 0 1.917zM159.38 137.011a.958.958 0 1 0 0-1.917.958.958 0 0 0 0 1.917zM154.828 136.411a.958.958 0 1 0 0-1.917.958.958 0 0 0 0 1.917zM150.882 135.891a.958.958 0 1 0 0-1.916.958.958 0 0 0 0 1.916zM179.838 143.47a.958.958 0 1 0 .001-1.917.958.958 0 0 0-.001 1.917zM175.892 142.951a.959.959 0 1 0-.002-1.918.959.959 0 0 0 .002 1.918zM171.338 142.35a.958.958 0 1 0 .001-1.917.958.958 0 0 0-.001 1.917zM167.392 141.831a.958.958 0 1 0 0-1.917.958.958 0 0 0 0 1.917zM162.839 141.232a.958.958 0 1 0 .001-1.917.958.958 0 0 0-.001 1.917zM158.892 140.712a.958.958 0 1 0 0-1.916.958.958 0 0 0 0 1.916zM154.342 140.113a.958.958 0 1 0 0-1.917.958.958 0 0 0 0 1.917zM150.395 139.593a.959.959 0 1 0 0-1.918.959.959 0 0 0 0 1.918zM179.35 147.173a.958.958 0 1 0 0-1.917.958.958 0 0 0 0 1.917zM175.404 146.653a.958.958 0 1 0 0-1.916.958.958 0 0 0 0 1.916zM170.852 146.053a.958.958 0 1 0 0-1.916.958.958 0 0 0 0 1.916zM166.905 145.534a.959.959 0 1 0-.002-1.918.959.959 0 0 0 .002 1.918zM162.354 144.935a.958.958 0 1 0 0-1.916.958.958 0 0 0 0 1.916zM158.406 144.415a.958.958 0 1 0 0-1.916.958.958 0 0 0 0 1.916zM153.854 143.815a.958.958 0 1 0 .001-1.917.958.958 0 0 0-.001 1.917zM149.907 143.295a.958.958 0 1 0 .001-1.917.958.958 0 0 0-.001 1.917zM178.863 150.875a.958.958 0 1 0 .001-1.917.958.958 0 0 0-.001 1.917zM174.918 150.355a.958.958 0 1 0 0-1.917.958.958 0 0 0 0 1.917zM170.362 149.756a.96.96 0 1 0 0-1.918.96.96 0 0 0 0 1.918zM166.416 149.235a.958.958 0 1 0 0-1.916.958.958 0 0 0 0 1.916zM161.864 148.637a.958.958 0 1 0 .001-1.917.958.958 0 0 0-.001 1.917zM157.918 148.117a.958.958 0 1 0 0-1.916.958.958 0 0 0 0 1.916zM153.366 147.517a.958.958 0 1 0 .001-1.917.958.958 0 0 0-.001 1.917zM149.42 146.998a.958.958 0 1 0 0-1.917.958.958 0 0 0 0 1.917zM178.374 154.576a.959.959 0 1 0 0-1.917.959.959 0 0 0 0 1.917zM174.428 154.057a.959.959 0 1 0 0-1.917.959.959 0 0 0 0 1.917zM169.877 153.458a.959.959 0 1 0 0-1.917.959.959 0 0 0 0 1.917zM165.93 152.938a.959.959 0 1 0 0-1.918.959.959 0 0 0 0 1.918zM161.378 152.338a.958.958 0 1 0 .001-1.917.958.958 0 0 0-.001 1.917zM157.431 151.819a.959.959 0 1 0 0-1.918.959.959 0 0 0 0 1.918zM152.879 151.219a.958.958 0 1 0 .001-1.917.958.958 0 0 0-.001 1.917zM148.932 150.699a.959.959 0 1 0 0-1.918.959.959 0 0 0 0 1.918zM207.136 120.459a.96.96 0 1 0 0-1.918.96.96 0 0 0 0 1.918zM203.191 119.939a.958.958 0 1 0 0-1.916.958.958 0 0 0 0 1.916zM202.576 123.682a.959.959 0 1 0 0-1.918.959.959 0 0 0 0 1.918zM198.63 123.162a.959.959 0 1 0 0-1.918.959.959 0 0 0 0 1.918zM198.119 127.045a.959.959 0 1 0 0-1.918.959.959 0 0 0 0 1.918zM194.172 126.526a.96.96 0 1 0 0-1.918.96.96 0 0 0 0 1.918zM193.443 130.196a.959.959 0 1 0 0-1.918.959.959 0 0 0 0 1.918zM189.497 129.676a.958.958 0 1 0 .001-1.917.958.958 0 0 0-.001 1.917zM189.009 133.378a.958.958 0 1 0 0-1.916.958.958 0 0 0 0 1.916zM185.062 132.859a.958.958 0 1 0 0-1.917.958.958 0 0 0 0 1.917zM190.008 125.789a.958.958 0 1 0 .001-1.917.958.958 0 0 0-.001 1.917zM185.55 129.156a.958.958 0 1 0 .001-1.917.958.958 0 0 0-.001 1.917zM184.575 136.561a.959.959 0 1 0 0-1.918.959.959 0 0 0 0 1.918zM108.958 39.264a.958.958 0 1 0 .001-1.916.958.958 0 0 0-.001 1.916zM112.923 38.917a.958.958 0 1 0 0-1.917.958.958 0 0 0 0 1.917zM92.015 52.404a.958.958 0 1 0 0-1.916.958.958 0 0 0 0 1.916zM95.98 52.057a.958.958 0 1 0 0-1.917.958.958 0 0 0 0 1.917zM92.342 56.14a.958.958 0 1 0 0-1.916.958.958 0 0 0 0 1.917zM96.307 55.794a.959.959 0 1 0 0-1.917.959.959 0 0 0 0 1.917zM92.669 59.879a.958.958 0 1 0 0-1.917.958.958 0 0 0 0 1.917zM96.634 59.531a.958.958 0 1 0 0-1.916.958.958 0 0 0 0 1.916zM92.98 63.438a.958.958 0 1 0 0-1.916.958.958 0 0 0 0 1.916zM96.945 63.091a.958.958 0 1 0 0-1.917.958.958 0 0 0 0 1.917zM93.307 67.176a.958.958 0 1 0 0-1.917.958.958 0 0 0 0 1.917zM97.273 66.829a.958.958 0 1 0 0-1.917.958.958 0 0 0 0 1.917zM93.637 70.913a.958.958 0 1 0 0-1.917.958.958 0 0 0 0 1.917zM97.601 70.566a.958.958 0 1 0 0-1.917.958.958 0 0 0 0 1.917zM93.963 74.65a.958.958 0 1 0 0-1.917.958.958 0 0 0 0 1.916zM97.928 74.302a.958.958 0 1 0 0-1.917.958.958 0 0 0 0 1.917zM94.292 78.387a.958.958 0 1 0 0-1.917.958.958 0 0 0 0 1.917zM98.256 78.04a.958.958 0 1 0 0-1.917.958.958 0 0 0 0 1.917zM94.616 82.124a.958.958 0 1 0 0-1.917.958.958 0 0 0 0 1.917zM98.58 81.776a.958.958 0 1 0 .001-1.916.958.958 0 0 0 0 1.916zM94.944 85.86a.958.958 0 1 0 0-1.916.958.958 0 0 0 0 1.917zM98.908 85.514a.958.958 0 1 0 0-1.917.958.958 0 0 0 0 1.917zM95.27 89.598a.958.958 0 1 0 0-1.917.958.958 0 0 0 0 1.917zM99.235 89.25a.958.958 0 1 0 0-1.916.958.958 0 0 0 0 1.916zM95.598 93.335a.958.958 0 1 0 0-1.917.958.958 0 0 0 0 1.917zM99.563 92.988a.958.958 0 1 0 0-1.917.958.958 0 0 0 0 1.917zM110.013 50.829a.958.958 0 1 0 .001-1.917.958.958 0 0 0-.001 1.917zM113.978 50.481a.96.96 0 1 0 0-1.918.96.96 0 0 0 0 1.918zM109.688 47.092a.958.958 0 1 0 0-1.916.958.958 0 0 0 0 1.916zM113.652 46.745a.959.959 0 1 0 0-1.917.959.959 0 0 0 0 1.917zM109.359 43.355a.958.958 0 1 0 .001-1.917.958.958 0 0 0-.001 1.917zM113.324 43.008a.958.958 0 1 0 0-1.917.958.958 0 0 0 0 1.917zM110.34 54.566a.958.958 0 1 0 0-1.917.958.958 0 0 0 0 1.917zM114.306 54.219a.958.958 0 1 0 0-1.917.958.958 0 0 0 0 1.917zM110.667 58.303a.958.958 0 1 0 0-1.917.958.958 0 0 0 0 1.917zM114.632 57.955a.96.96 0 1 0 0-1.918.96.96 0 0 0 0 1.918zM110.979 61.863a.958.958 0 1 0 .001-1.917.958.958 0 0 0-.001 1.917zM114.944 61.516a.96.96 0 1 0 0-1.918.96.96 0 0 0 0 1.918zM111.305 65.6a.96.96 0 1 0 0-1.918.96.96 0 0 0 0 1.918zM115.27 65.253a.958.958 0 1 0 0-1.916.958.958 0 0 0 0 1.916zM111.633 69.338a.958.958 0 1 0 0-1.917.958.958 0 0 0 0 1.917zM115.597 68.99a.958.958 0 1 0 .001-1.916.958.958 0 0 0-.001 1.916zM111.96 73.074a.96.96 0 1 0 0-1.918.96.96 0 0 0 0 1.918zM115.925 72.727a.958.958 0 1 0 0-1.917.958.958 0 0 0 0 1.917zM112.289 76.812a.958.958 0 1 0 .001-1.917.958.958 0 0 0-.001 1.917zM116.254 76.465a.958.958 0 1 0 0-1.917.958.958 0 0 0 0 1.917zM112.615 80.548a.958.958 0 1 0 0-1.917.958.958 0 0 0 0 1.917zM116.58 80.2a.958.958 0 1 0 0-1.916.958.958 0 0 0 0 1.917zM112.941 84.285a.958.958 0 1 0 0-1.916.958.958 0 0 0 0 1.916zM116.906 83.938a.958.958 0 1 0 .001-1.917.958.958 0 0 0-.001 1.917zM113.268 88.022a.96.96 0 1 0 0-1.918.96.96 0 0 0 0 1.918zM117.234 87.675a.958.958 0 1 0 0-1.916.958.958 0 0 0 0 1.916zM113.595 91.76a.958.958 0 1 0 0-1.916.958.958 0 0 0 0 1.916zM117.559 91.413a.958.958 0 1 0 .001-1.917.958.958 0 0 0-.001 1.917zM127.448 49.302a.958.958 0 1 0 .001-1.917.958.958 0 0 0-.001 1.917zM131.413 48.955a.958.958 0 1 0 0-1.917.958.958 0 0 0 0 1.917zM127.776 53.04a.958.958 0 1 0 0-1.917.958.958 0 0 0 0 1.916zM131.74 52.692a.958.958 0 1 0 .001-1.917.958.958 0 0 0-.001 1.917zM128.103 56.777a.958.958 0 1 0 .001-1.917.958.958 0 0 0-.001 1.917zM132.069 56.43a.958.958 0 1 0 0-1.917.958.958 0 0 0 0 1.916zM128.414 60.337a.958.958 0 1 0 .001-1.917.958.958 0 0 0-.001 1.916zM132.379 59.99a.958.958 0 1 0 0-1.917.958.958 0 0 0 0 1.916zM128.742 64.074a.958.958 0 1 0 0-1.917.958.958 0 0 0 0 1.917zM132.707 63.727a.958.958 0 1 0 0-1.917.958.958 0 0 0 0 1.917zM129.07 67.81a.958.958 0 1 0 .001-1.916.958.958 0 0 0-.001 1.917zM133.035 67.463a.958.958 0 1 0 0-1.916.958.958 0 0 0 0 1.916zM129.396 71.548a.958.958 0 1 0 0-1.917.958.958 0 0 0 0 1.917zM133.361 71.2a.958.958 0 1 0 0-1.916.958.958 0 0 0 0 1.917zM129.724 75.285a.958.958 0 1 0 .001-1.917.958.958 0 0 0-.001 1.917zM133.689 74.938a.958.958 0 1 0 0-1.917.958.958 0 0 0 0 1.917zM130.051 79.022a.958.958 0 1 0 0-1.916.958.958 0 0 0 0 1.916zM134.016 78.675a.958.958 0 1 0 0-1.916.958.958 0 0 0 0 1.916zM130.377 82.759a.958.958 0 1 0 .001-1.917.958.958 0 0 0-.001 1.917zM134.342 82.412a.96.96 0 1 0 0-1.918.96.96 0 0 0 0 1.918zM130.705 86.496a.958.958 0 1 0 0-1.917.958.958 0 0 0 0 1.917zM134.671 86.149a.958.958 0 1 0 0-1.917.958.958 0 0 0 0 1.917zM131.032 90.233a.958.958 0 1 0 0-1.917.958.958 0 0 0 0 1.917zM134.997 89.886a.96.96 0 1 0 0-1.918.96.96 0 0 0 0 1.918zM143.905 55.393a.959.959 0 1 0 0-1.917.959.959 0 0 0 0 1.917zM147.87 55.046a.958.958 0 1 0 0-1.916.958.958 0 0 0 0 1.916zM144.217 58.954a.958.958 0 1 0 0-1.917.958.958 0 0 0 0 1.917zM148.181 58.606a.96.96 0 1 0 0-1.918.96.96 0 0 0 0 1.918zM144.545 62.69a.958.958 0 1 0 0-1.916.958.958 0 0 0 0 1.917zM148.509 62.344a.958.958 0 1 0 .001-1.917.958.958 0 0 0-.001 1.917zM144.871 66.428a.958.958 0 1 0 .001-1.917.958.958 0 0 0-.001 1.917zM148.836 66.08a.96.96 0 1 0 0-1.918.96.96 0 0 0 0 1.918zM145.198 70.165a.958.958 0 1 0 0-1.917.958.958 0 0 0 0 1.917zM149.163 69.817a.958.958 0 1 0 0-1.916.958.958 0 0 0 0 1.916zM145.525 73.902a.958.958 0 1 0 0-1.916.958.958 0 0 0 0 1.916zM149.489 73.555a.958.958 0 1 0 .001-1.917.958.958 0 0 0-.001 1.917zM145.852 77.64a.958.958 0 1 0 0-1.917.958.958 0 0 0 0 1.916zM149.817 77.292a.958.958 0 1 0 0-1.917.958.958 0 0 0 0 1.917zM146.179 81.376a.958.958 0 1 0 0-1.917.958.958 0 0 0 0 1.916zM150.143 81.028a.958.958 0 1 0 .001-1.917.958.958 0 0 0-.001 1.917zM146.506 85.113a.96.96 0 1 0 0-1.918.96.96 0 0 0 0 1.918zM150.471 84.766a.958.958 0 1 0 0-1.917.958.958 0 0 0 0 1.917zM146.835 88.85a.958.958 0 1 0 0-1.917.958.958 0 0 0 0 1.917zM150.8 88.503a.96.96 0 1 0 0-1.919.96.96 0 0 0 0 1.919zM95.923 97.05a.958.958 0 1 0 0-1.916.958.958 0 0 0 0 1.916zM99.887 96.703a.958.958 0 1 0 0-1.917.958.958 0 0 0 0 1.917zM96.25 100.787a.958.958 0 1 0 0-1.917.958.958 0 0 0 0 1.917zM100.214 100.44a.958.958 0 1 0 0-1.917.958.958 0 0 0 0 1.917zM104.643 96.287a.958.958 0 1 0 .001-1.917.958.958 0 0 0-.001 1.917zM108.608 95.94a.958.958 0 1 0 0-1.917.958.958 0 0 0 0 1.917zM104.789 100.04a.959.959 0 1 0 0-1.917.959.959 0 0 0 0 1.917zM108.754 99.693a.958.958 0 1 0 0-1.917.958.958 0 0 0 0 1.917zM113.92 95.475a.958.958 0 1 0 .001-1.917.958.958 0 0 0-.001 1.917zM117.886 95.128a.958.958 0 1 0 0-1.917.958.958 0 0 0 0 1.917zM113.329 99.292a.959.959 0 1 0 0-1.917.959.959 0 0 0 0 1.917zM117.294 98.945a.958.958 0 1 0 0-1.917.958.958 0 0 0 0 1.917zM122.094 94.759a.958.958 0 1 0 0-1.917.958.958 0 0 0 0 1.917zM126.059 94.411a.958.958 0 1 0 .001-1.917.958.958 0 0 0-.001 1.917zM121.869 98.545a.958.958 0 1 0 .001-1.917.958.958 0 0 0-.001 1.917zM125.834 98.198a.958.958 0 1 0 0-1.917.958.958 0 0 0 0 1.916zM131.357 93.948a.958.958 0 1 0 .001-1.917.958.958 0 0 0-.001 1.916zM135.322 93.6a.958.958 0 1 0 0-1.916.958.958 0 0 0 0 1.916zM130.407 97.797a.958.958 0 1 0 0-1.917.958.958 0 0 0 0 1.917zM134.371 97.45a.958.958 0 1 0 .001-1.917.958.958 0 0 0-.001 1.917zM138.947 97.05a.958.958 0 1 0 0-1.916.958.958 0 0 0 0 1.916zM142.911 96.703a.958.958 0 1 0 .001-1.917.958.958 0 0 0-.001 1.917zM147.159 92.566a.958.958 0 1 0 .001-1.917.958.958 0 0 0-.001 1.917zM151.125 92.218a.958.958 0 1 0 0-1.916.958.958 0 0 0 0 1.916zM147.486 96.302a.958.958 0 1 0 0-1.916.958.958 0 0 0 0 1.916zM151.451 95.955a.958.958 0 1 0 .001-1.917.958.958 0 0 0-.001 1.917zM105.115 103.759a.958.958 0 1 0 .001-1.917.958.958 0 0 0-.001 1.917zM109.08 103.412a.958.958 0 1 0 0-1.916.958.958 0 0 0 0 1.916zM113.654 103.012a.958.958 0 1 0 .001-1.917.958.958 0 0 0-.001 1.917zM117.62 102.665a.958.958 0 1 0 0-1.916.958.958 0 0 0 0 1.916zM122.196 102.264a.958.958 0 1 0 .001-1.917.958.958 0 0 0-.001 1.917zM126.161 101.917a.958.958 0 1 0 0-1.916.958.958 0 0 0 0 1.916zM130.735 101.518a.959.959 0 1 0 0-1.917.959.959 0 0 0 0 1.917zM134.7 101.171a.958.958 0 1 0 0-1.917.958.958 0 0 0 0 1.917zM139.275 100.77a.958.958 0 1 0 0-1.916.958.958 0 0 0 0 1.916zM143.239 100.423a.96.96 0 1 0 0-1.918.96.96 0 0 0 0 1.918zM147.813 100.023a.959.959 0 1 0-.001-1.917.959.959 0 0 0 .001 1.917zM151.778 99.675a.958.958 0 1 0 .001-1.916.958.958 0 0 0-.001 1.916zM96.901 108.226a.958.958 0 1 0 0-1.916.958.958 0 0 0 0 1.916zM109.406 107.132a.958.958 0 1 0 0-1.917.958.958 0 0 0 0 1.917zM113.982 106.731a.958.958 0 1 0 0-1.916.958.958 0 0 0 0 1.916zM117.947 106.384a.959.959 0 1 0 0-1.918.959.959 0 0 0 0 1.918zM122.519 105.983a.958.958 0 1 0 0-1.916.958.958 0 0 0 0 1.916zM126.483 105.636a.958.958 0 1 0 .001-1.917.958.958 0 0 0-.001 1.917zM131.059 105.237a.959.959 0 1 0-.002-1.918.959.959 0 0 0 .002 1.918zM135.024 104.889a.958.958 0 1 0 0-1.916.958.958 0 0 0 0 1.916zM139.598 104.489a.959.959 0 1 0-.002-1.918.959.959 0 0 0 .002 1.918zM143.564 104.141a.958.958 0 1 0 0-1.916.958.958 0 0 0 0 1.916zM148.138 103.741a.959.959 0 1 0 0-1.918.959.959 0 0 0 0 1.918zM152.103 103.394a.958.958 0 1 0 0-1.917.958.958 0 0 0 0 1.917zM97.227 111.947a.958.958 0 1 0 0-1.917.958.958 0 0 0 0 1.917zM101.192 111.6a.958.958 0 1 0 0-1.916.958.958 0 0 0 0 1.916zM105.767 111.2a.959.959 0 1 0 0-1.917.959.959 0 0 0 0 1.917zM109.733 110.853a.959.959 0 1 0-.002-1.918.959.959 0 0 0 .002 1.918zM114.307 110.453a.959.959 0 1 0-.002-1.918.959.959 0 0 0 .002 1.918zM118.271 110.105a.959.959 0 1 0 0-1.918.959.959 0 0 0 0 1.918zM122.846 109.705a.958.958 0 1 0 0-1.916.958.958 0 0 0 0 1.916zM126.81 109.358a.959.959 0 1 0 0-1.917.959.959 0 0 0 0 1.917zM131.386 108.957a.958.958 0 1 0 0-1.916.958.958 0 0 0 0 1.916zM135.35 108.61a.958.958 0 1 0 .001-1.917.958.958 0 0 0-.001 1.917zM139.925 108.21a.958.958 0 1 0 0-1.917.958.958 0 0 0 0 1.917zM143.89 107.863a.959.959 0 1 0 0-1.917.959.959 0 0 0 0 1.917zM148.464 107.462a.958.958 0 1 0 0-1.917.958.958 0 0 0 0 1.917zM97.555 115.666a.958.958 0 1 0 0-1.917.958.958 0 0 0 0 1.917zM101.52 115.319a.958.958 0 1 0 0-1.917.958.958 0 0 0 0 1.917zM106.094 114.918a.959.959 0 1 0 0-1.918.959.959 0 0 0 0 1.918zM110.06 114.571a.958.958 0 1 0 0-1.916.958.958 0 0 0 0 1.916zM114.632 114.172a.959.959 0 1 0 0-1.917.959.959 0 0 0 0 1.917zM118.597 113.825a.958.958 0 1 0 0-1.917.958.958 0 0 0 0 1.917zM123.172 113.425a.959.959 0 1 0 0-1.917.959.959 0 0 0 0 1.917zM127.137 113.078a.959.959 0 1 0-.002-1.918.959.959 0 0 0 .002 1.918zM131.711 112.676a.958.958 0 1 0 0-1.917.958.958 0 0 0 0 1.917zM135.675 112.329a.959.959 0 1 0 0-1.917.959.959 0 0 0 0 1.917zM140.252 111.928a.958.958 0 1 0 0-1.916.958.958 0 0 0 0 1.916zM144.217 111.581a.958.958 0 1 0 .001-1.917.958.958 0 0 0-.001 1.917zM148.79 111.181a.959.959 0 1 0 0-1.918.959.959 0 0 0 0 1.918zM97.878 119.386a.958.958 0 1 0 0-1.917.958.958 0 0 0 0 1.917zM101.843 119.039a.958.958 0 1 0 0-1.916.958.958 0 0 0 0 1.916zM106.419 118.639a.96.96 0 1 0 0-1.918.96.96 0 0 0 0 1.918zM110.385 118.292a.958.958 0 1 0 0-1.917.958.958 0 0 0 0 1.917zM114.957 117.892a.959.959 0 1 0 0-1.917.959.959 0 0 0 0 1.917zM118.922 117.545a.958.958 0 1 0 0-1.917.958.958 0 0 0 0 1.917zM123.497 117.144a.959.959 0 1 0 0-1.917.959.959 0 0 0 0 1.917zM127.462 116.797a.958.958 0 1 0 0-1.917.958.958 0 0 0 0 1.917zM132.035 116.397a.958.958 0 1 0 0-1.917.958.958 0 0 0 0 1.917zM136 116.049a.958.958 0 1 0 .001-1.917.958.958 0 0 0-.001 1.917zM140.576 115.65a.959.959 0 1 0-.002-1.918.959.959 0 0 0 .002 1.918zM144.54 115.302a.958.958 0 1 0 .001-1.917.958.958 0 0 0-.001 1.917zM149.115 114.902a.958.958 0 1 0 0-1.916.958.958 0 0 0 0 1.916zM98.206 123.107a.958.958 0 1 0 0-1.917.958.958 0 0 0 0 1.917zM102.171 122.76a.959.959 0 1 0 0-1.917.959.959 0 0 0 0 1.917zM106.744 122.359a.959.959 0 1 0-.002-1.918.959.959 0 0 0 .002 1.918zM110.709 122.011a.958.958 0 1 0 0-1.916.958.958 0 0 0 0 1.916zM115.284 121.612a.958.958 0 1 0 0-1.917.958.958 0 0 0 0 1.917zM119.249 121.264a.958.958 0 1 0 0-1.916.958.958 0 0 0 0 1.916zM123.823 120.864a.959.959 0 1 0 0-1.918.959.959 0 0 0 0 1.918zM127.788 120.517a.958.958 0 1 0 0-1.917.958.958 0 0 0 0 1.917zM132.362 120.117a.959.959 0 1 0 0-1.917.959.959 0 0 0 0 1.917zM136.328 119.769a.958.958 0 1 0 0-1.916.958.958 0 0 0 0 1.916zM140.901 119.369a.958.958 0 1 0 .001-1.917.958.958 0 0 0-.001 1.917zM144.866 119.022a.96.96 0 1 0 0-1.918.96.96 0 0 0 0 1.918zM149.441 118.622a.958.958 0 1 0 .001-1.917.958.958 0 0 0-.001 1.917zM98.53 126.827a.958.958 0 1 0 0-1.917.958.958 0 0 0 0 1.917zM102.495 126.479a.958.958 0 1 0 0-1.916.958.958 0 0 0 0 1.916zM107.068 126.079a.959.959 0 1 0 0-1.918.959.959 0 0 0 0 1.918zM111.034 125.731a.958.958 0 1 0 0-1.916.958.958 0 0 0 0 1.916zM115.609 125.333a.96.96 0 1 0 0-1.918.96.96 0 0 0 0 1.918zM119.575 124.985a.958.958 0 1 0 0-1.916.958.958 0 0 0 0 1.916zM124.149 124.585a.96.96 0 1 0 0-1.918.96.96 0 0 0 0 1.918zM128.114 124.237a.958.958 0 1 0 0-1.916.958.958 0 0 0 0 1.916zM132.687 123.837a.959.959 0 1 0 0-1.917.959.959 0 0 0 0 1.917zM136.652 123.489a.958.958 0 1 0 0-1.916.958.958 0 0 0 0 1.916zM141.226 123.09a.958.958 0 1 0 .001-1.917.958.958 0 0 0-.001 1.917zM145.191 122.743a.959.959 0 1 0 0-1.918.959.959 0 0 0 0 1.918zM149.766 122.342a.958.958 0 1 0 .001-1.917.958.958 0 0 0-.001 1.917zM98.856 130.546a.959.959 0 1 0 0-1.917.959.959 0 0 0 0 1.917zM102.82 130.198a.958.958 0 1 0 .001-1.917.958.958 0 0 0-.001 1.917zM107.395 129.798a.958.958 0 1 0 0-1.917.958.958 0 0 0 0 1.917zM111.361 129.45a.958.958 0 1 0 0-1.916.958.958 0 0 0 0 1.916zM115.936 129.052a.958.958 0 1 0 0-1.916.958.958 0 0 0 0 1.916zM119.901 128.705a.958.958 0 1 0 0-1.916.958.958 0 0 0 0 1.916zM124.474 128.305a.959.959 0 1 0 0 0zM128.439 127.957a.958.958 0 1 0 0-1.916.958.958 0 0 0 0 1.916zM133.012 127.557a.958.958 0 1 0 .001-1.917.958.958 0 0 0-.001 1.917zM136.977 127.21a.958.958 0 1 0 0-1.917.958.958 0 0 0 0 1.917zM141.552 126.809a.958.958 0 1 0 .001-1.917.958.958 0 0 0-.001 1.917zM145.517 126.462a.96.96 0 1 0 0-1.918.96.96 0 0 0 0 1.918zM150.092 126.061a.958.958 0 1 0 0-1.916.958.958 0 0 0 0 1.916zM99.18 134.267a.958.958 0 1 0 0-1.917.958.958 0 0 0 0 1.917zM103.145 133.92a.959.959 0 1 0 0-1.917.959.959 0 0 0 0 1.917zM107.722 133.519a.958.958 0 1 0 0-1.916.958.958 0 0 0 0 1.916zM111.687 133.172a.958.958 0 1 0 .001-1.917.958.958 0 0 0-.001 1.917zM116.261 132.771a.958.958 0 1 0 0-1.916.958.958 0 0 0 0 1.916zM120.225 132.424a.958.958 0 1 0 .001-1.917.958.958 0 0 0-.001 1.917zM124.801 132.025a.959.959 0 1 0-.002-1.918.959.959 0 0 0 .002 1.918zM128.765 131.677a.958.958 0 1 0 .001-1.917.958.958 0 0 0-.001 1.917zM133.338 131.277a.959.959 0 1 0 0 0zM137.303 130.929a.958.958 0 1 0 0-1.916.958.958 0 0 0 0 1.916zM141.878 130.529a.958.958 0 1 0 .001-1.917.958.958 0 0 0-.001 1.917zM145.844 130.182a.958.958 0 1 0 0-1.917.958.958 0 0 0 0 1.917zM71.933 98.927a.958.958 0 1 0 0-1.917.958.958 0 0 0 0 1.917zM75.897 98.58a.958.958 0 1 0 0-1.918.958.958 0 0 0 0 1.917zM76.35 102.346a.958.958 0 1 0 0-1.917.958.958 0 0 0 0 1.917zM80.314 101.999a.96.96 0 1 0-.001-1.918.96.96 0 0 0 .001 1.918zM80.656 105.901a.958.958 0 1 0 0-1.917.958.958 0 0 0 0 1.917zM84.621 105.554a.958.958 0 1 0 0-1.917.958.958 0 0 0 0 1.917zM85.19 109.252a.958.958 0 1 0 0-1.917.958.958 0 0 0 0 1.917zM89.155 108.905a.958.958 0 1 0 0-1.917.958.958 0 0 0 0 1.917zM89.48 112.625a.958.958 0 1 0 .001-1.917.958.958 0 0 0 0 1.917zM93.445 112.278a.958.958 0 1 0 0-1.917.958.958 0 0 0 0 1.917zM88.813 104.999a.958.958 0 1 0 0-1.917.958.958 0 0 0 0 1.917zM93.12 108.557a.958.958 0 1 0 0-1.917.958.958 0 0 0 0 1.917zM93.772 115.998a.96.96 0 1 0-.002-1.918.96.96 0 0 0 .002 1.918z"/><path stroke="#0049FF" stroke-miterlimit="10" stroke-width=".25" d="M189.103 73.105a.958.958 0 1 0 0-1.917.958.958 0 0 0 0 1.917zM185.155 72.585a.958.958 0 1 0 .001-1.917.958.958 0 0 0-.001 1.917zM188.612 76.824a.96.96 0 1 0 0-1.918.96.96 0 0 0 0 1.918zM184.666 76.305a.958.958 0 1 0 0-1.917.958.958 0 0 0 0 1.917zM188.124 80.543a.96.96 0 1 0 0-1.918.96.96 0 0 0 0 1.918zM184.177 80.023a.96.96 0 1 0 0-1.918.96.96 0 0 0 0 1.918zM187.656 84.085a.96.96 0 1 0 0-1.918.96.96 0 0 0 0 1.918zM183.71 83.566a.96.96 0 1 0 0-1.918.96.96 0 0 0 0 1.918zM187.167 87.806a.96.96 0 1 0 0-1.918.96.96 0 0 0 0 1.918zM183.221 87.286a.958.958 0 1 0 0-1.916.958.958 0 0 0 0 1.916zM186.677 91.525a.958.958 0 1 0 .001-1.916.958.958 0 0 0-.001 1.916zM182.73 91.006a.958.958 0 1 0 0-1.917.958.958 0 0 0 0 1.917zM186.187 95.245a.958.958 0 1 0 .001-1.917.958.958 0 0 0-.001 1.917zM182.241 94.725a.958.958 0 1 0 0-1.917.958.958 0 0 0 0 1.917zM185.698 98.964a.958.958 0 1 0 0-1.917.958.958 0 0 0 0 1.917zM181.751 98.444a.958.958 0 1 0 0-1.917.958.958 0 0 0 0 1.917zM185.208 102.683a.958.958 0 1 0 0-1.917.958.958 0 0 0 0 1.917zM181.261 102.163a.959.959 0 1 0 0-1.917.959.959 0 0 0 0 1.917zM184.719 106.402a.958.958 0 1 0 0-1.917.958.958 0 0 0 0 1.917zM180.772 105.882a.958.958 0 1 0 0-1.917.958.958 0 0 0 0 1.917zM184.228 110.121a.96.96 0 1 0 0-1.918.96.96 0 0 0 0 1.918zM180.282 109.601a.958.958 0 1 0 .001-1.917.958.958 0 0 0-.001 1.917zM183.737 113.84a.959.959 0 1 0 0-1.917.959.959 0 0 0 0 1.917zM179.792 113.32a.958.958 0 1 0 0-1.916.958.958 0 0 0 0 1.916zM171.19 70.746a.958.958 0 1 0 0-1.916.958.958 0 0 0 0 1.916zM167.244 70.227a.96.96 0 1 0 0-1.919.96.96 0 0 0 0 1.918zM171.681 67.027a.958.958 0 1 0 0-1.916.958.958 0 0 0 0 1.916zM167.734 66.508a.958.958 0 1 0 0-1.917.958.958 0 0 0 0 1.917zM172.169 63.307a.958.958 0 1 0 0-1.917.958.958 0 0 0 0 1.917zM168.223 62.788a.958.958 0 1 0 .001-1.917.958.958 0 0 0-.001 1.917zM170.701 74.465a.958.958 0 1 0 0-1.916.958.958 0 0 0 0 1.916zM166.754 73.946a.958.958 0 1 0 0-1.917.958.958 0 0 0 0 1.917zM170.211 78.184a.958.958 0 1 0 .001-1.916.958.958 0 0 0-.001 1.916zM166.264 77.665a.96.96 0 1 0 0-1.918.96.96 0 0 0 0 1.918zM169.745 81.728a.958.958 0 1 0 0-1.916.958.958 0 0 0 0 1.916zM165.797 81.209a.96.96 0 1 0 0-1.919.96.96 0 0 0 0 1.919zM169.255 85.448a.96.96 0 1 0 0-1.919.96.96 0 0 0 0 1.919zM165.309 84.928a.958.958 0 1 0 0-1.917.958.958 0 0 0 0 1.917zM168.764 89.167a.958.958 0 1 0 .001-1.917.958.958 0 0 0-.001 1.917zM164.819 88.647a.958.958 0 1 0 0-1.917.958.958 0 0 0 0 1.917zM168.275 92.886a.958.958 0 1 0 .001-1.917.958.958 0 0 0-.001 1.917zM164.329 92.366a.958.958 0 1 0 .001-1.917.958.958 0 0 0-.001 1.917zM167.787 96.606a.958.958 0 1 0 0-1.917.958.958 0 0 0 0 1.917zM163.839 96.086a.958.958 0 1 0 0-1.917.958.958 0 0 0 0 1.917zM167.296 100.324a.958.958 0 1 0 0-1.916.958.958 0 0 0 0 1.916zM163.349 99.804a.958.958 0 1 0 .001-1.917.958.958 0 0 0-.001 1.917zM166.807 104.044a.958.958 0 1 0 0-1.917.958.958 0 0 0 0 1.917zM162.86 103.524a.958.958 0 1 0 0-1.916.958.958 0 0 0 0 1.916zM166.317 107.763a.958.958 0 1 0 0-1.917.958.958 0 0 0 0 1.917zM162.369 107.243a.958.958 0 1 0 .001-1.917.958.958 0 0 0-.001 1.917zM165.828 111.483a.958.958 0 1 0 0-1.917.958.958 0 0 0 0 1.917zM161.881 110.963a.958.958 0 1 0 0-1.917.958.958 0 0 0 0 1.917zM183.251 117.537a.959.959 0 1 0 0-1.918.959.959 0 0 0 0 1.918zM179.304 117.018a.96.96 0 1 0 0-1.918.96.96 0 0 0 0 1.918zM182.763 121.257a.959.959 0 1 0 0-1.918.959.959 0 0 0 0 1.918zM178.815 120.738a.959.959 0 1 0 0-1.917.959.959 0 0 0 0 1.917zM174.573 116.395a.958.958 0 1 0 .001-1.917.958.958 0 0 0-.001 1.917zM170.627 115.875a.958.958 0 1 0 0-1.916.958.958 0 0 0 0 1.916zM174.262 120.137a.958.958 0 1 0 .001-1.917.958.958 0 0 0-.001 1.917zM170.315 119.618a.958.958 0 1 0 .001-1.917.958.958 0 0 0-.001 1.917zM165.338 115.179a.959.959 0 1 0 0-1.918.959.959 0 0 0 0 1.918zM161.393 114.66a.959.959 0 1 0-.002-1.918.959.959 0 0 0 .002 1.918zM165.765 119.019a.959.959 0 1 0 0-1.918.959.959 0 0 0 0 1.918zM161.818 118.5a.959.959 0 1 0 0-1.917.959.959 0 0 0 0 1.917zM157.205 114.108a.958.958 0 1 0 0-1.917.958.958 0 0 0 0 1.917zM157.266 117.9a.96.96 0 1 0 0-1.918.96.96 0 0 0 0 1.918zM173.775 123.84a.958.958 0 1 0 .001-1.917.958.958 0 0 0-.001 1.917zM169.827 123.321a.958.958 0 1 0 0-1.917.958.958 0 0 0 0 1.917zM165.277 122.722a.96.96 0 1 0 0-1.918.96.96 0 0 0 0 1.918zM161.329 122.202a.958.958 0 1 0 .001-1.917.958.958 0 0 0-.001 1.917zM156.778 121.602a.958.958 0 1 0 .001-1.917.958.958 0 0 0-.001 1.917zM181.787 128.661a.958.958 0 1 0 .001-1.917.958.958 0 0 0-.001 1.917zM169.343 127.023a.958.958 0 1 0 0-1.917.958.958 0 0 0 0 1.917zM164.791 126.423a.958.958 0 1 0 0-1.917.958.958 0 0 0 0 1.917zM160.843 125.904a.959.959 0 1 0-.002-1.918.959.959 0 0 0 .002 1.918zM156.291 125.305a.959.959 0 1 0-.002-1.918.959.959 0 0 0 .002 1.918zM181.299 132.363a.959.959 0 1 0 0-1.918.959.959 0 0 0 0 1.918zM177.353 131.843a.958.958 0 1 0 0-1.916.958.958 0 0 0 0 1.916zM172.799 131.244a.959.959 0 1 0 0-1.917.959.959 0 0 0 0 1.917zM168.853 130.724a.958.958 0 1 0 0-1.916.958.958 0 0 0 0 1.916zM164.301 130.125a.959.959 0 1 0 0-1.918.959.959 0 0 0 0 1.918zM160.355 129.606a.959.959 0 1 0-.002-1.918.959.959 0 0 0 .002 1.918zM155.803 129.006a.958.958 0 1 0 0-1.916.958.958 0 0 0 0 1.916zM180.814 136.066a.958.958 0 1 0 0-1.917.958.958 0 0 0 0 1.917zM176.866 135.546a.959.959 0 1 0 0-1.917.959.959 0 0 0 0 1.917zM172.315 134.946a.958.958 0 1 0 .001-1.917.958.958 0 0 0-.001 1.917zM168.368 134.427a.959.959 0 1 0 0-1.917.959.959 0 0 0 0 1.917zM163.816 133.828a.958.958 0 1 0 0-1.917.958.958 0 0 0 0 1.917zM159.869 133.308a.958.958 0 1 0 .001-1.917.958.958 0 0 0-.001 1.917zM155.317 132.708a.958.958 0 1 0 .001-1.917.958.958 0 0 0-.001 1.917zM180.325 139.768a.958.958 0 1 0 0-1.916.958.958 0 0 0 0 1.916zM176.378 139.248a.959.959 0 1 0 0-1.918.959.959 0 0 0 0 1.918zM171.825 138.649a.958.958 0 1 0 0-1.917.958.958 0 0 0 0 1.917zM167.878 138.13a.96.96 0 1 0 0-1.918.96.96 0 0 0 0 1.918zM163.327 137.531a.958.958 0 1 0 0-1.917.958.958 0 0 0 0 1.917zM159.38 137.011a.958.958 0 1 0 0-1.917.958.958 0 0 0 0 1.917zM154.828 136.411a.958.958 0 1 0 0-1.917.958.958 0 0 0 0 1.917zM150.882 135.891a.958.958 0 1 0 0-1.916.958.958 0 0 0 0 1.916zM179.838 143.47a.958.958 0 1 0 .001-1.917.958.958 0 0 0-.001 1.917zM175.892 142.951a.959.959 0 1 0-.002-1.918.959.959 0 0 0 .002 1.918zM171.338 142.35a.958.958 0 1 0 .001-1.917.958.958 0 0 0-.001 1.917zM167.392 141.831a.958.958 0 1 0 0-1.917.958.958 0 0 0 0 1.917zM162.839 141.232a.958.958 0 1 0 .001-1.917.958.958 0 0 0-.001 1.917zM158.892 140.712a.958.958 0 1 0 0-1.916.958.958 0 0 0 0 1.916zM154.342 140.113a.958.958 0 1 0 0-1.917.958.958 0 0 0 0 1.917zM150.395 139.593a.959.959 0 1 0 0-1.918.959.959 0 0 0 0 1.918zM179.35 147.173a.958.958 0 1 0 0-1.917.958.958 0 0 0 0 1.917zM175.404 146.653a.958.958 0 1 0 0-1.916.958.958 0 0 0 0 1.916zM170.852 146.053a.958.958 0 1 0 0-1.916.958.958 0 0 0 0 1.916zM166.905 145.534a.959.959 0 1 0-.002-1.918.959.959 0 0 0 .002 1.918zM162.354 144.935a.958.958 0 1 0 0-1.916.958.958 0 0 0 0 1.916zM158.406 144.415a.958.958 0 1 0 0-1.916.958.958 0 0 0 0 1.916zM153.854 143.815a.958.958 0 1 0 .001-1.917.958.958 0 0 0-.001 1.917zM149.907 143.295a.958.958 0 1 0 .001-1.917.958.958 0 0 0-.001 1.917zM178.863 150.875a.958.958 0 1 0 .001-1.917.958.958 0 0 0-.001 1.917zM174.918 150.355a.958.958 0 1 0 0-1.917.958.958 0 0 0 0 1.917zM170.362 149.756a.96.96 0 1 0 0-1.918.96.96 0 0 0 0 1.918zM166.416 149.235a.958.958 0 1 0 0-1.916.958.958 0 0 0 0 1.916zM161.864 148.637a.958.958 0 1 0 .001-1.917.958.958 0 0 0-.001 1.917zM157.918 148.117a.958.958 0 1 0 0-1.916.958.958 0 0 0 0 1.916zM153.366 147.517a.958.958 0 1 0 .001-1.917.958.958 0 0 0-.001 1.917zM149.42 146.998a.958.958 0 1 0 0-1.917.958.958 0 0 0 0 1.917zM178.374 154.576a.959.959 0 1 0 0-1.917.959.959 0 0 0 0 1.917zM174.428 154.057a.959.959 0 1 0 0-1.917.959.959 0 0 0 0 1.917zM169.877 153.458a.959.959 0 1 0 0-1.917.959.959 0 0 0 0 1.917zM165.93 152.938a.959.959 0 1 0 0-1.918.959.959 0 0 0 0 1.918zM161.378 152.338a.958.958 0 1 0 .001-1.917.958.958 0 0 0-.001 1.917zM157.431 151.819a.959.959 0 1 0 0-1.918.959.959 0 0 0 0 1.918zM152.879 151.219a.958.958 0 1 0 .001-1.917.958.958 0 0 0-.001 1.917zM148.932 150.699a.959.959 0 1 0 0-1.918.959.959 0 0 0 0 1.918zM207.136 120.459a.96.96 0 1 0 0-1.918.96.96 0 0 0 0 1.918zM203.191 119.939a.958.958 0 1 0 0-1.916.958.958 0 0 0 0 1.916zM202.576 123.682a.959.959 0 1 0 0-1.918.959.959 0 0 0 0 1.918zM198.63 123.162a.959.959 0 1 0 0-1.918.959.959 0 0 0 0 1.918zM198.119 127.045a.959.959 0 1 0 0-1.918.959.959 0 0 0 0 1.918zM194.172 126.526a.96.96 0 1 0 0-1.918.96.96 0 0 0 0 1.918zM193.443 130.196a.959.959 0 1 0 0-1.918.959.959 0 0 0 0 1.918zM189.497 129.676a.958.958 0 1 0 .001-1.917.958.958 0 0 0-.001 1.917zM189.009 133.378a.958.958 0 1 0 0-1.916.958.958 0 0 0 0 1.916zM185.062 132.859a.958.958 0 1 0 0-1.917.958.958 0 0 0 0 1.917zM190.008 125.789a.958.958 0 1 0 .001-1.917.958.958 0 0 0-.001 1.917zM185.55 129.156a.958.958 0 1 0 .001-1.917.958.958 0 0 0-.001 1.917zM184.575 136.561a.959.959 0 1 0 0-1.918.959.959 0 0 0 0 1.918zM108.958 39.264a.958.958 0 1 0 .001-1.916.958.958 0 0 0-.001 1.916zM112.923 38.917a.958.958 0 1 0 0-1.917.958.958 0 0 0 0 1.917zM92.015 52.404a.958.958 0 1 0 0-1.916.958.958 0 0 0 0 1.916zM95.98 52.057a.958.958 0 1 0 0-1.917.958.958 0 0 0 0 1.917zM92.342 56.14a.958.958 0 1 0 0-1.916.958.958 0 0 0 0 1.917zM96.307 55.794a.959.959 0 1 0 0-1.917.959.959 0 0 0 0 1.917zM92.669 59.879a.958.958 0 1 0 0-1.917.958.958 0 0 0 0 1.917zM96.634 59.531a.958.958 0 1 0 0-1.916.958.958 0 0 0 0 1.916zM92.98 63.438a.958.958 0 1 0 0-1.916.958.958 0 0 0 0 1.916zM96.945 63.091a.958.958 0 1 0 0-1.917.958.958 0 0 0 0 1.917zM93.307 67.176a.958.958 0 1 0 0-1.917.958.958 0 0 0 0 1.917zM97.273 66.829a.958.958 0 1 0 0-1.917.958.958 0 0 0 0 1.917zM93.637 70.913a.958.958 0 1 0 0-1.917.958.958 0 0 0 0 1.917zM97.601 70.566a.958.958 0 1 0 0-1.917.958.958 0 0 0 0 1.917zM93.963 74.65a.958.958 0 1 0 0-1.917.958.958 0 0 0 0 1.916zM97.928 74.302a.958.958 0 1 0 0-1.917.958.958 0 0 0 0 1.917zM94.292 78.387a.958.958 0 1 0 0-1.917.958.958 0 0 0 0 1.917zM98.256 78.04a.958.958 0 1 0 0-1.917.958.958 0 0 0 0 1.917zM94.616 82.124a.958.958 0 1 0 0-1.917.958.958 0 0 0 0 1.917zM98.58 81.776a.958.958 0 1 0 .001-1.916.958.958 0 0 0 0 1.916zM94.944 85.86a.958.958 0 1 0 0-1.916.958.958 0 0 0 0 1.917zM98.908 85.514a.958.958 0 1 0 0-1.917.958.958 0 0 0 0 1.917zM95.27 89.598a.958.958 0 1 0 0-1.917.958.958 0 0 0 0 1.917zM99.235 89.25a.958.958 0 1 0 0-1.916.958.958 0 0 0 0 1.916zM95.598 93.335a.958.958 0 1 0 0-1.917.958.958 0 0 0 0 1.917zM99.563 92.988a.958.958 0 1 0 0-1.917.958.958 0 0 0 0 1.917zM110.013 50.829a.958.958 0 1 0 .001-1.917.958.958 0 0 0-.001 1.917zM113.978 50.481a.96.96 0 1 0 0-1.918.96.96 0 0 0 0 1.918zM109.688 47.092a.958.958 0 1 0 0-1.916.958.958 0 0 0 0 1.916zM113.652 46.745a.959.959 0 1 0 0-1.917.959.959 0 0 0 0 1.917zM109.359 43.355a.958.958 0 1 0 .001-1.917.958.958 0 0 0-.001 1.917zM113.324 43.008a.958.958 0 1 0 0-1.917.958.958 0 0 0 0 1.917zM110.34 54.566a.958.958 0 1 0 0-1.917.958.958 0 0 0 0 1.917zM114.306 54.219a.958.958 0 1 0 0-1.917.958.958 0 0 0 0 1.917zM110.667 58.303a.958.958 0 1 0 0-1.917.958.958 0 0 0 0 1.917zM114.632 57.955a.96.96 0 1 0 0-1.918.96.96 0 0 0 0 1.918zM110.979 61.863a.958.958 0 1 0 .001-1.917.958.958 0 0 0-.001 1.917zM114.944 61.516a.96.96 0 1 0 0-1.918.96.96 0 0 0 0 1.918zM111.305 65.6a.96.96 0 1 0 0-1.918.96.96 0 0 0 0 1.918zM115.27 65.253a.958.958 0 1 0 0-1.916.958.958 0 0 0 0 1.916zM111.633 69.338a.958.958 0 1 0 0-1.917.958.958 0 0 0 0 1.917zM115.597 68.99a.958.958 0 1 0 .001-1.916.958.958 0 0 0-.001 1.916zM111.96 73.074a.96.96 0 1 0 0-1.918.96.96 0 0 0 0 1.918zM115.925 72.727a.958.958 0 1 0 0-1.917.958.958 0 0 0 0 1.917zM112.289 76.812a.958.958 0 1 0 .001-1.917.958.958 0 0 0-.001 1.917zM116.254 76.465a.958.958 0 1 0 0-1.917.958.958 0 0 0 0 1.917zM112.615 80.548a.958.958 0 1 0 0-1.917.958.958 0 0 0 0 1.917zM116.58 80.2a.958.958 0 1 0 0-1.916.958.958 0 0 0 0 1.917zM112.941 84.285a.958.958 0 1 0 0-1.916.958.958 0 0 0 0 1.916zM116.906 83.938a.958.958 0 1 0 .001-1.917.958.958 0 0 0-.001 1.917zM113.268 88.022a.96.96 0 1 0 0-1.918.96.96 0 0 0 0 1.918zM117.234 87.675a.958.958 0 1 0 0-1.916.958.958 0 0 0 0 1.916zM113.595 91.76a.958.958 0 1 0 0-1.916.958.958 0 0 0 0 1.916zM117.559 91.413a.958.958 0 1 0 .001-1.917.958.958 0 0 0-.001 1.917zM127.448 49.302a.958.958 0 1 0 .001-1.917.958.958 0 0 0-.001 1.917zM131.413 48.955a.958.958 0 1 0 0-1.917.958.958 0 0 0 0 1.917zM127.776 53.04a.958.958 0 1 0 0-1.917.958.958 0 0 0 0 1.916zM131.74 52.692a.958.958 0 1 0 .001-1.917.958.958 0 0 0-.001 1.917zM128.103 56.777a.958.958 0 1 0 .001-1.917.958.958 0 0 0-.001 1.917zM132.069 56.43a.958.958 0 1 0 0-1.917.958.958 0 0 0 0 1.916zM128.414 60.337a.958.958 0 1 0 .001-1.917.958.958 0 0 0-.001 1.916zM132.379 59.99a.958.958 0 1 0 0-1.917.958.958 0 0 0 0 1.916zM128.742 64.074a.958.958 0 1 0 0-1.917.958.958 0 0 0 0 1.917zM132.707 63.727a.958.958 0 1 0 0-1.917.958.958 0 0 0 0 1.917zM129.07 67.81a.958.958 0 1 0 .001-1.916.958.958 0 0 0-.001 1.917zM133.035 67.463a.958.958 0 1 0 0-1.916.958.958 0 0 0 0 1.916zM129.396 71.548a.958.958 0 1 0 0-1.917.958.958 0 0 0 0 1.917zM133.361 71.2a.958.958 0 1 0 0-1.916.958.958 0 0 0 0 1.917zM129.724 75.285a.958.958 0 1 0 .001-1.917.958.958 0 0 0-.001 1.917zM133.689 74.938a.958.958 0 1 0 0-1.917.958.958 0 0 0 0 1.917zM130.051 79.022a.958.958 0 1 0 0-1.916.958.958 0 0 0 0 1.916zM134.016 78.675a.958.958 0 1 0 0-1.916.958.958 0 0 0 0 1.916zM130.377 82.759a.958.958 0 1 0 .001-1.917.958.958 0 0 0-.001 1.917zM134.342 82.412a.96.96 0 1 0 0-1.918.96.96 0 0 0 0 1.918zM130.705 86.496a.958.958 0 1 0 0-1.917.958.958 0 0 0 0 1.917zM134.671 86.149a.958.958 0 1 0 0-1.917.958.958 0 0 0 0 1.917zM131.032 90.233a.958.958 0 1 0 0-1.917.958.958 0 0 0 0 1.917zM134.997 89.886a.96.96 0 1 0 0-1.918.96.96 0 0 0 0 1.918zM143.905 55.393a.959.959 0 1 0 0-1.917.959.959 0 0 0 0 1.917zM147.87 55.046a.958.958 0 1 0 0-1.916.958.958 0 0 0 0 1.916zM144.217 58.954a.958.958 0 1 0 0-1.917.958.958 0 0 0 0 1.917zM148.181 58.606a.96.96 0 1 0 0-1.918.96.96 0 0 0 0 1.918zM144.545 62.69a.958.958 0 1 0 0-1.916.958.958 0 0 0 0 1.917zM148.509 62.344a.958.958 0 1 0 .001-1.917.958.958 0 0 0-.001 1.917zM144.871 66.428a.958.958 0 1 0 .001-1.917.958.958 0 0 0-.001 1.917zM148.836 66.08a.96.96 0 1 0 0-1.918.96.96 0 0 0 0 1.918zM145.198 70.165a.958.958 0 1 0 0-1.917.958.958 0 0 0 0 1.917zM149.163 69.817a.958.958 0 1 0 0-1.916.958.958 0 0 0 0 1.916zM145.525 73.902a.958.958 0 1 0 0-1.916.958.958 0 0 0 0 1.916zM149.489 73.555a.958.958 0 1 0 .001-1.917.958.958 0 0 0-.001 1.917zM145.852 77.64a.958.958 0 1 0 0-1.917.958.958 0 0 0 0 1.916zM149.817 77.292a.958.958 0 1 0 0-1.917.958.958 0 0 0 0 1.917zM146.179 81.376a.958.958 0 1 0 0-1.917.958.958 0 0 0 0 1.916zM150.143 81.028a.958.958 0 1 0 .001-1.917.958.958 0 0 0-.001 1.917zM146.506 85.113a.96.96 0 1 0 0-1.918.96.96 0 0 0 0 1.918zM150.471 84.766a.958.958 0 1 0 0-1.917.958.958 0 0 0 0 1.917zM146.835 88.85a.958.958 0 1 0 0-1.917.958.958 0 0 0 0 1.917zM150.8 88.503a.96.96 0 1 0 0-1.919.96.96 0 0 0 0 1.919zM95.923 97.05a.958.958 0 1 0 0-1.916.958.958 0 0 0 0 1.916zM99.887 96.703a.958.958 0 1 0 0-1.917.958.958 0 0 0 0 1.917zM96.25 100.787a.958.958 0 1 0 0-1.917.958.958 0 0 0 0 1.917zM100.214 100.44a.958.958 0 1 0 0-1.917.958.958 0 0 0 0 1.917zM104.643 96.287a.958.958 0 1 0 .001-1.917.958.958 0 0 0-.001 1.917zM108.608 95.94a.958.958 0 1 0 0-1.917.958.958 0 0 0 0 1.917zM104.789 100.04a.959.959 0 1 0 0-1.917.959.959 0 0 0 0 1.917zM108.754 99.693a.958.958 0 1 0 0-1.917.958.958 0 0 0 0 1.917zM113.92 95.475a.958.958 0 1 0 .001-1.917.958.958 0 0 0-.001 1.917zM117.886 95.128a.958.958 0 1 0 0-1.917.958.958 0 0 0 0 1.917zM113.329 99.292a.959.959 0 1 0 0-1.917.959.959 0 0 0 0 1.917zM117.294 98.945a.958.958 0 1 0 0-1.917.958.958 0 0 0 0 1.917zM122.094 94.759a.958.958 0 1 0 0-1.917.958.958 0 0 0 0 1.917zM126.059 94.411a.958.958 0 1 0 .001-1.917.958.958 0 0 0-.001 1.917zM121.869 98.545a.958.958 0 1 0 .001-1.917.958.958 0 0 0-.001 1.917zM125.834 98.198a.958.958 0 1 0 0-1.917.958.958 0 0 0 0 1.916zM131.357 93.948a.958.958 0 1 0 .001-1.917.958.958 0 0 0-.001 1.916zM135.322 93.6a.958.958 0 1 0 0-1.916.958.958 0 0 0 0 1.916zM130.407 97.797a.958.958 0 1 0 0-1.917.958.958 0 0 0 0 1.917zM134.371 97.45a.958.958 0 1 0 .001-1.917.958.958 0 0 0-.001 1.917zM138.947 97.05a.958.958 0 1 0 0-1.916.958.958 0 0 0 0 1.916zM142.911 96.703a.958.958 0 1 0 .001-1.917.958.958 0 0 0-.001 1.917zM147.159 92.566a.958.958 0 1 0 .001-1.917.958.958 0 0 0-.001 1.917zM151.125 92.218a.958.958 0 1 0 0-1.916.958.958 0 0 0 0 1.916zM147.486 96.302a.958.958 0 1 0 0-1.916.958.958 0 0 0 0 1.916zM151.451 95.955a.958.958 0 1 0 .001-1.917.958.958 0 0 0-.001 1.917zM105.115 103.759a.958.958 0 1 0 .001-1.917.958.958 0 0 0-.001 1.917zM109.08 103.412a.958.958 0 1 0 0-1.916.958.958 0 0 0 0 1.916zM113.654 103.012a.958.958 0 1 0 .001-1.917.958.958 0 0 0-.001 1.917zM117.62 102.665a.958.958 0 1 0 0-1.916.958.958 0 0 0 0 1.916zM122.196 102.264a.958.958 0 1 0 .001-1.917.958.958 0 0 0-.001 1.917zM126.161 101.917a.958.958 0 1 0 0-1.916.958.958 0 0 0 0 1.916zM130.735 101.518a.959.959 0 1 0 0-1.917.959.959 0 0 0 0 1.917zM134.7 101.171a.958.958 0 1 0 0-1.917.958.958 0 0 0 0 1.917zM139.275 100.77a.958.958 0 1 0 0-1.916.958.958 0 0 0 0 1.916zM143.239 100.423a.96.96 0 1 0 0-1.918.96.96 0 0 0 0 1.918zM147.813 100.023a.959.959 0 1 0-.001-1.917.959.959 0 0 0 .001 1.917zM151.778 99.675a.958.958 0 1 0 .001-1.916.958.958 0 0 0-.001 1.916zM96.901 108.226a.958.958 0 1 0 0-1.916.958.958 0 0 0 0 1.916zM109.406 107.132a.958.958 0 1 0 0-1.917.958.958 0 0 0 0 1.917zM113.982 106.731a.958.958 0 1 0 0-1.916.958.958 0 0 0 0 1.916zM117.947 106.384a.959.959 0 1 0 0-1.918.959.959 0 0 0 0 1.918zM122.519 105.983a.958.958 0 1 0 0-1.916.958.958 0 0 0 0 1.916zM126.483 105.636a.958.958 0 1 0 .001-1.917.958.958 0 0 0-.001 1.917zM131.059 105.237a.959.959 0 1 0-.002-1.918.959.959 0 0 0 .002 1.918zM135.024 104.889a.958.958 0 1 0 0-1.916.958.958 0 0 0 0 1.916zM139.598 104.489a.959.959 0 1 0-.002-1.918.959.959 0 0 0 .002 1.918zM143.564 104.141a.958.958 0 1 0 0-1.916.958.958 0 0 0 0 1.916zM148.138 103.741a.959.959 0 1 0 0-1.918.959.959 0 0 0 0 1.918zM152.103 103.394a.958.958 0 1 0 0-1.917.958.958 0 0 0 0 1.917zM97.227 111.947a.958.958 0 1 0 0-1.917.958.958 0 0 0 0 1.917zM101.192 111.6a.958.958 0 1 0 0-1.916.958.958 0 0 0 0 1.916zM105.767 111.2a.959.959 0 1 0 0-1.917.959.959 0 0 0 0 1.917zM109.733 110.853a.959.959 0 1 0-.002-1.918.959.959 0 0 0 .002 1.918zM114.307 110.453a.959.959 0 1 0-.002-1.918.959.959 0 0 0 .002 1.918zM118.271 110.105a.959.959 0 1 0 0-1.918.959.959 0 0 0 0 1.918zM122.846 109.705a.958.958 0 1 0 0-1.916.958.958 0 0 0 0 1.916zM126.81 109.358a.959.959 0 1 0 0-1.917.959.959 0 0 0 0 1.917zM131.386 108.957a.958.958 0 1 0 0-1.916.958.958 0 0 0 0 1.916zM135.35 108.61a.958.958 0 1 0 .001-1.917.958.958 0 0 0-.001 1.917zM139.925 108.21a.958.958 0 1 0 0-1.917.958.958 0 0 0 0 1.917zM143.89 107.863a.959.959 0 1 0 0-1.917.959.959 0 0 0 0 1.917zM148.464 107.462a.958.958 0 1 0 0-1.917.958.958 0 0 0 0 1.917zM97.555 115.666a.958.958 0 1 0 0-1.917.958.958 0 0 0 0 1.917zM101.52 115.319a.958.958 0 1 0 0-1.917.958.958 0 0 0 0 1.917zM106.094 114.918a.959.959 0 1 0 0-1.918.959.959 0 0 0 0 1.918zM110.06 114.571a.958.958 0 1 0 0-1.916.958.958 0 0 0 0 1.916zM114.632 114.172a.959.959 0 1 0 0-1.917.959.959 0 0 0 0 1.917zM118.597 113.825a.958.958 0 1 0 0-1.917.958.958 0 0 0 0 1.917zM123.172 113.425a.959.959 0 1 0 0-1.917.959.959 0 0 0 0 1.917zM127.137 113.078a.959.959 0 1 0-.002-1.918.959.959 0 0 0 .002 1.918zM131.711 112.676a.958.958 0 1 0 0-1.917.958.958 0 0 0 0 1.917zM135.675 112.329a.959.959 0 1 0 0-1.917.959.959 0 0 0 0 1.917zM140.252 111.928a.958.958 0 1 0 0-1.916.958.958 0 0 0 0 1.916zM144.217 111.581a.958.958 0 1 0 .001-1.917.958.958 0 0 0-.001 1.917zM148.79 111.181a.959.959 0 1 0 0-1.918.959.959 0 0 0 0 1.918zM97.878 119.386a.958.958 0 1 0 0-1.917.958.958 0 0 0 0 1.917zM101.843 119.039a.958.958 0 1 0 0-1.916.958.958 0 0 0 0 1.916zM106.419 118.639a.96.96 0 1 0 0-1.918.96.96 0 0 0 0 1.918zM110.385 118.292a.958.958 0 1 0 0-1.917.958.958 0 0 0 0 1.917zM114.957 117.892a.959.959 0 1 0 0-1.917.959.959 0 0 0 0 1.917zM118.922 117.545a.958.958 0 1 0 0-1.917.958.958 0 0 0 0 1.917zM123.497 117.144a.959.959 0 1 0 0-1.917.959.959 0 0 0 0 1.917zM127.462 116.797a.958.958 0 1 0 0-1.917.958.958 0 0 0 0 1.917zM132.035 116.397a.958.958 0 1 0 0-1.917.958.958 0 0 0 0 1.917zM136 116.049a.958.958 0 1 0 .001-1.917.958.958 0 0 0-.001 1.917zM140.576 115.65a.959.959 0 1 0-.002-1.918.959.959 0 0 0 .002 1.918zM144.54 115.302a.958.958 0 1 0 .001-1.917.958.958 0 0 0-.001 1.917zM149.115 114.902a.958.958 0 1 0 0-1.916.958.958 0 0 0 0 1.916zM98.206 123.107a.958.958 0 1 0 0-1.917.958.958 0 0 0 0 1.917zM102.171 122.76a.959.959 0 1 0 0-1.917.959.959 0 0 0 0 1.917zM106.744 122.359a.959.959 0 1 0-.002-1.918.959.959 0 0 0 .002 1.918zM110.709 122.011a.958.958 0 1 0 0-1.916.958.958 0 0 0 0 1.916zM115.284 121.612a.958.958 0 1 0 0-1.917.958.958 0 0 0 0 1.917zM119.249 121.264a.958.958 0 1 0 0-1.916.958.958 0 0 0 0 1.916zM123.823 120.864a.959.959 0 1 0 0-1.918.959.959 0 0 0 0 1.918zM127.788 120.517a.958.958 0 1 0 0-1.917.958.958 0 0 0 0 1.917zM132.362 120.117a.959.959 0 1 0 0-1.917.959.959 0 0 0 0 1.917zM136.328 119.769a.958.958 0 1 0 0-1.916.958.958 0 0 0 0 1.916zM140.901 119.369a.958.958 0 1 0 .001-1.917.958.958 0 0 0-.001 1.917zM144.866 119.022a.96.96 0 1 0 0-1.918.96.96 0 0 0 0 1.918zM149.441 118.622a.958.958 0 1 0 .001-1.917.958.958 0 0 0-.001 1.917zM98.53 126.827a.958.958 0 1 0 0-1.917.958.958 0 0 0 0 1.917zM102.495 126.479a.958.958 0 1 0 0-1.916.958.958 0 0 0 0 1.916zM107.068 126.079a.959.959 0 1 0 0-1.918.959.959 0 0 0 0 1.918zM111.034 125.731a.958.958 0 1 0 0-1.916.958.958 0 0 0 0 1.916zM115.609 125.333a.96.96 0 1 0 0-1.918.96.96 0 0 0 0 1.918zM119.575 124.985a.958.958 0 1 0 0-1.916.958.958 0 0 0 0 1.916zM124.149 124.585a.96.96 0 1 0 0-1.918.96.96 0 0 0 0 1.918zM128.114 124.237a.958.958 0 1 0 0-1.916.958.958 0 0 0 0 1.916zM132.687 123.837a.959.959 0 1 0 0-1.917.959.959 0 0 0 0 1.917zM136.652 123.489a.958.958 0 1 0 0-1.916.958.958 0 0 0 0 1.916zM141.226 123.09a.958.958 0 1 0 .001-1.917.958.958 0 0 0-.001 1.917zM145.191 122.743a.959.959 0 1 0 0-1.918.959.959 0 0 0 0 1.918zM149.766 122.342a.958.958 0 1 0 .001-1.917.958.958 0 0 0-.001 1.917zM98.856 130.546a.959.959 0 1 0 0-1.917.959.959 0 0 0 0 1.917zM102.82 130.198a.958.958 0 1 0 .001-1.917.958.958 0 0 0-.001 1.917zM107.395 129.798a.958.958 0 1 0 0-1.917.958.958 0 0 0 0 1.917zM111.361 129.45a.958.958 0 1 0 0-1.916.958.958 0 0 0 0 1.916zM115.936 129.052a.958.958 0 1 0 0-1.916.958.958 0 0 0 0 1.916zM119.901 128.705a.958.958 0 1 0 0-1.916.958.958 0 0 0 0 1.916zM124.474 128.305a.959.959 0 1 0 0 0zM128.439 127.957a.958.958 0 1 0 0-1.916.958.958 0 0 0 0 1.916zM133.012 127.557a.958.958 0 1 0 .001-1.917.958.958 0 0 0-.001 1.917zM136.977 127.21a.958.958 0 1 0 0-1.917.958.958 0 0 0 0 1.917zM141.552 126.809a.958.958 0 1 0 .001-1.917.958.958 0 0 0-.001 1.917zM145.517 126.462a.96.96 0 1 0 0-1.918.96.96 0 0 0 0 1.918zM150.092 126.061a.958.958 0 1 0 0-1.916.958.958 0 0 0 0 1.916zM99.18 134.267a.958.958 0 1 0 0-1.917.958.958 0 0 0 0 1.917zM103.145 133.92a.959.959 0 1 0 0-1.917.959.959 0 0 0 0 1.917zM107.722 133.519a.958.958 0 1 0 0-1.916.958.958 0 0 0 0 1.916zM111.687 133.172a.958.958 0 1 0 .001-1.917.958.958 0 0 0-.001 1.917zM116.261 132.771a.958.958 0 1 0 0-1.916.958.958 0 0 0 0 1.916zM120.225 132.424a.958.958 0 1 0 .001-1.917.958.958 0 0 0-.001 1.917zM124.801 132.025a.959.959 0 1 0-.002-1.918.959.959 0 0 0 .002 1.918zM128.765 131.677a.958.958 0 1 0 .001-1.917.958.958 0 0 0-.001 1.917zM133.338 131.277a.959.959 0 1 0 0 0zM137.303 130.929a.958.958 0 1 0 0-1.916.958.958 0 0 0 0 1.916zM141.878 130.529a.958.958 0 1 0 .001-1.917.958.958 0 0 0-.001 1.917zM145.844 130.182a.958.958 0 1 0 0-1.917.958.958 0 0 0 0 1.917zM71.933 98.927a.958.958 0 1 0 0-1.917.958.958 0 0 0 0 1.917zM75.897 98.58a.958.958 0 1 0 0-1.918.958.958 0 0 0 0 1.917zM76.35 102.346a.958.958 0 1 0 0-1.917.958.958 0 0 0 0 1.917zM80.314 101.999a.96.96 0 1 0-.001-1.918.96.96 0 0 0 .001 1.918zM80.656 105.901a.958.958 0 1 0 0-1.917.958.958 0 0 0 0 1.917zM84.621 105.554a.958.958 0 1 0 0-1.917.958.958 0 0 0 0 1.917zM85.19 109.252a.958.958 0 1 0 0-1.917.958.958 0 0 0 0 1.917zM89.155 108.905a.958.958 0 1 0 0-1.917.958.958 0 0 0 0 1.917zM89.48 112.625a.958.958 0 1 0 .001-1.917.958.958 0 0 0 0 1.917zM93.445 112.278a.958.958 0 1 0 0-1.917.958.958 0 0 0 0 1.917zM88.813 104.999a.958.958 0 1 0 0-1.917.958.958 0 0 0 0 1.917zM93.12 108.557a.958.958 0 1 0 0-1.917.958.958 0 0 0 0 1.917zM93.772 115.998a.96.96 0 1 0-.002-1.918.96.96 0 0 0 .002 1.918z"/><path fill="#262626" d="M189.882 116.557l-3.637-.525 6.777-46.909a4.464 4.464 0 0 0-3.616-5.036 4.445 4.445 0 0 0-3.404.75 4.443 4.443 0 0 0-1.834 2.964l-6.135 39.106a3.504 3.504 0 0 1-1.443 2.333 3.506 3.506 0 0 1-2.681.598 3.541 3.541 0 0 1-2.877-3.9l5.723-47.605c.345-2.858-1.696-5.488-4.549-5.864-2.872-.376-5.522 1.645-5.916 4.51l-6.737 48.754c-.25 1.711-1.724 2.853-3.429 2.68-1.705-.177-2.912-1.602-2.806-3.313l3.844-39.779c.169-1.465-.264-2.848-1.215-3.93a4.959 4.959 0 0 0-3.708-1.7l.041-3.675a8.702 8.702 0 0 1 6.424 2.947 8.707 8.707 0 0 1 2.112 6.747l-1.297 13.419 3.13-22.651c.67-4.86 5.181-8.293 10.036-7.652 4.841.637 8.304 5.1 7.719 9.947l-4.791 39.844 4.924-31.384a8.085 8.085 0 0 1 3.339-5.394 8.096 8.096 0 0 1 6.198-1.365 8.127 8.127 0 0 1 6.586 9.173l-6.778 46.91zM179.262 171.789l-3.657-.369a36.68 36.68 0 0 1 2.855-10.954l1.781-4.107a37.022 37.022 0 0 1 9.594-13.106l23.496-20.458a3.584 3.584 0 0 0 1.162-3.372 6.117 6.117 0 0 0-3.376-4.386 6.115 6.115 0 0 0-5.534.087l-20.158 10.515-10.636 1.299-.445-3.648 9.973-1.218 19.566-10.207a9.754 9.754 0 0 1 8.831-.138 9.754 9.754 0 0 1 5.387 6.998 7.272 7.272 0 0 1-2.357 6.842l-23.496 20.457a33.318 33.318 0 0 0-8.635 11.798l-1.782 4.106a33.078 33.078 0 0 0-2.569 9.861z"/><path fill="#262626" d="M147.169 162.962l-1.036-13.715c-.059-4.062 1.194-7.076 2.521-10.266.402-.966.818-1.965 1.215-3.032a45.588 45.588 0 0 0 2.863-17.131l-1.57-64.228c.006-1.985-1.502-3.549-3.435-3.61-.973-.044-1.855.311-2.548.963a3.526 3.526 0 0 0-1.112 2.451l.424 32.539v.037c-.051 1.85-1.426 3.303-3.27 3.455-1.839.154-3.439-1.056-3.793-2.872l-.03-.23-2.778-42.59a4.992 4.992 0 0 0-4.743-3.95c-1.462-.063-2.782.499-3.78 1.538a4.962 4.962 0 0 0-1.387 3.836l2.105 39.881c.034 1.778-1.233 3.148-2.944 3.251-1.736.078-3.134-1.107-3.308-2.812l-4.607-49.016c-.269-2.88-2.828-5.02-5.713-4.764-2.867.25-5.021 2.79-4.801 5.659l3.642 47.81a3.538 3.538 0 0 1-3.044 3.77 3.497 3.497 0 0 1-2.653-.714 3.506 3.506 0 0 1-1.339-2.397l-4.425-39.332a4.447 4.447 0 0 0-1.703-3.043 4.443 4.443 0 0 0-3.367-.898 4.466 4.466 0 0 0-3.834 4.876l4.727 47.157-3.657.366-4.726-47.159a8.13 8.13 0 0 1 6.979-8.88 8.08 8.08 0 0 1 6.132 1.635 8.088 8.088 0 0 1 3.102 5.538l3.549 31.554-3.047-40.004c-.374-4.867 3.279-9.174 8.144-9.6 4.881-.431 9.235 3.198 9.693 8.082l2.141 22.781-.713-13.513a8.684 8.684 0 0 1 2.404-6.612 8.688 8.688 0 0 1 6.547-2.665 8.65 8.65 0 0 1 8.254 7.028l.03.23 2.476 37.973-.364-27.975.001-.037a7.174 7.174 0 0 1 2.267-5.06 7.177 7.177 0 0 1 5.186-1.96 7.187 7.187 0 0 1 6.99 7.245l1.57 64.171a49.236 49.236 0 0 1-3.093 18.507 87.405 87.405 0 0 1-1.265 3.162c-1.271 3.056-2.277 5.473-2.241 8.746l1.027 13.547-3.663.277z"/><path fill="#262626" d="M98.99 166.726l-.996-15.115a33.095 33.095 0 0 0-2.138-9.979l-1.6-4.181a33.32 33.32 0 0 0-8.114-12.162L63.56 103.827a7.274 7.274 0 0 1-2.057-6.937 9.755 9.755 0 0 1 5.688-6.758 9.755 9.755 0 0 1 8.817.523l19.1 11.05 9.911 1.651-.604 3.625-10.568-1.761-19.68-11.383a6.111 6.111 0 0 0-5.526-.328 6.116 6.116 0 0 0-3.564 4.235 3.585 3.585 0 0 0 1.014 3.42l22.582 21.461a37.042 37.042 0 0 1 9.014 13.512l1.601 4.181a36.665 36.665 0 0 1 2.373 11.069l.994 15.099-3.665.24z"/></svg>