<?xml version="1.0" encoding="UTF-8"?>
<svg viewBox="0 0 280 200" xmlns="http://www.w3.org/2000/svg">
<path d="m205.64 140.1-2.698-1.926c7.389-10.349 11.293-22.564 11.293-35.326 0-19.655-9.571-38.206-25.605-49.623l1.922-2.6995c16.905 12.037 26.998 31.597 26.998 52.323 0 13.456-4.118 26.338-11.91 37.252z" fill="#262626"/>
<path d="m131.6 163.49c-25.775-8.965-43.092-33.335-43.092-60.642 0-22.629 12.124-43.832 31.641-55.336l1.683 2.8552c-18.51 10.911-30.01 31.021-30.01 52.481 0 25.897 16.422 49.009 40.866 57.511l-1.089 3.131z" fill="#262626"/>
<path d="m73.666 36.485v2.3062c0 12.044-6.5668 23.007-17.566 29.328-3.4384 1.9764-7.1729 3.3997-11.1 4.2313l0.6901 3.2591c4.2692-0.9029 8.331-2.4515 12.072-4.6018 7.2062-4.1406 12.673-10.115 15.905-17.083v112.56h3.3337v-130h-3.3337z" fill="#262626"/>
<path d="m151.44 116.06-15.909-15.643 2.325-2.3631 12.91 12.694 17.845-29.66 2.842 1.709-20.013 33.263z" fill="#262626"/>
<path d="m87.778 36.485v2.3062c0 12.089-5.4677 23.074-14.627 29.386-2.8376 1.9558-5.9168 3.3638-9.1508 4.1847l0.7675 3.2352c3.5994-0.9136 7.0215-2.4775 10.17-4.6485 5.7029-3.9301 10.099-9.4995 12.84-15.991v111.53h3.2223v-130h-3.2223z" fill="#0049FF"/>
<path d="m164.37 116.06-15.909-15.643 2.324-2.3631 12.911 12.694 17.844-29.66 2.841 1.709-20.011 33.263z" fill="#0049FF"/>
<path d="m111.01 90.529c0.08-0.5191-8e-3 -0.9977-0.263-1.4339s-0.617-0.7127-1.081-0.8267l0.211-1.3769c0.484 0.1001 0.923 0.3401 1.315 0.7173 0.394 0.3772 0.681 0.8445 0.865 1.4014 0.182 0.5575 0.229 1.1237 0.14 1.7011-0.178 1.1602-0.706 2.0227-1.585 2.5875-0.879 0.5661-1.992 0.7458-3.334 0.5389l-0.243-0.0364c-0.83-0.128-1.544-0.3938-2.142-0.7969-0.599-0.4044-1.033-0.9175-1.301-1.542-0.271-0.6231-0.345-1.3238-0.226-2.1008 0.147-0.9553 0.555-1.7038 1.224-2.2487 0.67-0.545 1.463-0.767 2.384-0.6696l-0.212 1.377c-0.558-0.0425-1.042 0.0967-1.454 0.4169-0.413 0.3209-0.66 0.7571-0.744 1.308-0.114 0.7392 0.063 1.3544 0.533 1.8423 0.47 0.488 1.21 0.8101 2.217 0.9653l0.275 0.0417c0.982 0.1518 1.768 0.065 2.361-0.2579 0.591-0.3208 0.944-0.8571 1.06-1.6076z" fill="#0049FF"/>
<path d="m110.95 77.998c1.253 0.3858 2.174 0.9838 2.763 1.7932 0.589 0.8095 0.732 1.7038 0.431 2.683-0.308 0.9997-0.868 1.6885-1.679 2.065l3.965 1.2225-0.433 1.4087-11.4-3.5142 0.397-1.2868 0.935 0.2128c-0.534-0.7915-0.644-1.6984-0.329-2.718 0.304-0.9885 0.919-1.6567 1.841-2.0028 0.925-0.3454 2.051-0.3136 3.38 0.0961l0.129 0.0405zm-0.594 1.3583c-0.929-0.2863-1.722-0.3149-2.382-0.0842-0.66 0.2294-1.097 0.6902-1.309 1.3796-0.263 0.8526-0.082 1.6076 0.542 2.2666l3.934 1.2132c0.88-0.1889 1.455-0.718 1.722-1.5858 0.208-0.6748 0.106-1.2927-0.306-1.8568-0.412-0.5635-1.147-1.007-2.201-1.3326z" fill="#0049FF"/>
<path d="m111.37 76.386c-0.76-0.3679-1.371-0.8459-1.835-1.4393-0.462-0.592-0.731-1.2337-0.803-1.9258s0.056-1.3802 0.386-2.0631c0.51-1.0567 1.289-1.7349 2.335-2.0339 1.047-0.2996 2.177-0.1564 3.391 0.4296l0.094 0.0444c0.755 0.3653 1.364 0.8373 1.823 1.4161 0.459 0.5787 0.728 1.2185 0.803 1.9179s-0.056 1.3981-0.393 2.0962c-0.509 1.0514-1.285 1.7269-2.332 2.0266-1.047 0.2996-2.172 0.1578-3.377-0.4236l-0.092-0.0451zm0.801-1.2576c0.862 0.4157 1.648 0.5489 2.362 0.4011 0.714-0.1479 1.232-0.5556 1.556-1.2251 0.325-0.6749 0.319-1.3379-0.018-1.9889-0.336-0.651-0.98-1.2078-1.931-1.6672-0.85-0.4111-1.638-0.541-2.362-0.3932-0.722 0.1498-1.245 0.5582-1.569 1.2278-0.316 0.655-0.309 1.3093 0.015 1.9623 0.329 0.653 0.978 1.2145 1.947 1.6832z" fill="#0049FF"/>
<path d="m117.9 65.851-0.606 0.8877 3.028 2.0717-0.836 1.2231-7.111-4.864 0.836-1.2231 3.011 2.0584 0.543-0.7942-1.374-4.4516 1.007-1.4724 1.495 5.151 5.779-0.5243-1.056 1.5453-4.716 0.3924z" fill="#0049FF"/>
<path d="m128.34 57.54c0.379-0.3639 0.6-0.7962 0.664-1.2974 0.063-0.5018-0.055-0.9407-0.353-1.3146l1.006-0.9645c0.321 0.3758 0.524 0.8326 0.607 1.3709 0.082 0.5383 0.026 1.0852-0.168 1.6381-0.195 0.5543-0.503 1.0329-0.925 1.436-0.847 0.8121-1.791 1.174-2.833 1.0878-1.042-0.0855-2.032-0.6205-2.972-1.601l-0.171-0.1783c-0.581-0.6059-0.986-1.2523-1.215-1.9358-0.229-0.6848-0.261-1.357-0.095-2.016 0.167-0.6576 0.533-1.2596 1.101-1.8038 0.698-0.6683 1.477-1.0143 2.339-1.0388 0.862-0.0246 1.629 0.2824 2.299 0.9201l-1.007 0.9639c-0.417-0.3732-0.885-0.5588-1.407-0.5548-0.522 0.0039-0.984 0.1988-1.387 0.5847-0.541 0.517-0.774 1.1137-0.698 1.7866 0.075 0.6742 0.466 1.3782 1.172 2.1148l0.192 0.2008c0.687 0.7173 1.363 1.1277 2.029 1.2324 0.667 0.1048 1.273-0.106 1.822-0.6311z" fill="#0049FF"/>
<path d="m137.67 50.345c0.445-0.2804 0.75-0.6583 0.914-1.1369 0.163-0.4793 0.135-0.9321-0.083-1.3591l1.18-0.7411c0.24 0.4316 0.345 0.9208 0.318 1.4637-0.029 0.545-0.193 1.0681-0.495 1.5706-0.301 0.5038-0.7 0.9102-1.195 1.2211-0.993 0.6232-1.991 0.7882-2.995 0.4932-1.004-0.2943-1.866-1.0169-2.588-2.1684l-0.131-0.2089c-0.447-0.7106-0.713-1.424-0.799-2.1406-0.086-0.7173 0.018-1.3816 0.314-1.9941 0.296-0.6113 0.777-1.1264 1.442-1.5447 0.818-0.5124 1.653-0.6947 2.502-0.5449s1.538 0.6046 2.065 1.3637l-1.18 0.7411c-0.334-0.4488-0.755-0.7246-1.267-0.8267-0.511-0.1007-1.005-0.0039-1.476 0.2924-0.635 0.3984-0.982 0.9347-1.044 1.6096s0.178 1.4452 0.721 2.307l0.148 0.2367c0.527 0.8406 1.107 1.3789 1.738 1.6162 0.632 0.236 1.269 0.1532 1.911-0.2499z" fill="#0049FF"/>
<path d="m147.19 42.064c0.527 1.2012 0.677 2.2891 0.451 3.2643-0.227 0.9745-0.81 1.6679-1.749 2.0809-0.956 0.4203-1.843 0.4475-2.661 0.0809l1.67 3.798-1.349 0.5926-4.796-10.921 1.231-0.541 0.451 0.846c0.25-0.9229 0.863-1.5971 1.841-2.0267 0.948-0.4163 1.854-0.3891 2.719 0.0836 0.867 0.4727 1.578 1.3451 2.138 2.6186l0.054 0.124zm-1.417 0.4401c-0.39-0.8896-0.888-1.5095-1.493-1.8582-0.606-0.348-1.24-0.3772-1.901-0.0868-0.815 0.3573-1.268 0.9891-1.359 1.8927l1.654 3.7694c0.72 0.5417 1.496 0.6305 2.326 0.2652 0.648-0.2837 1.049-0.7663 1.205-1.4465 0.157-0.6802 0.012-1.5261-0.432-2.5358z" fill="#0049FF"/>
<path d="m148.69 41.344c-0.219-0.8147-0.254-1.591-0.108-2.3282 0.147-0.7372 0.458-1.3584 0.936-1.8648 0.478-0.5065 1.083-0.8579 1.817-1.0535 1.133-0.3036 2.154-0.1551 3.064 0.4416 0.909 0.5979 1.538 1.5486 1.887 2.8519l0.026 0.1001c0.216 0.8108 0.255 1.5792 0.117 2.3051-0.138 0.7266-0.448 1.3464-0.93 1.8602-0.479 0.5118-1.095 0.8698-1.845 1.0686-1.127 0.3017-2.146 0.1525-3.057-0.4455-0.908-0.5966-1.536-1.542-1.881-2.834l-0.026-0.1015zm1.475-0.2128c0.247 0.9235 0.659 1.6077 1.236 2.0525s1.226 0.5708 1.944 0.3792c0.722-0.1929 1.222-0.6298 1.497-1.3106 0.274-0.6795 0.275-1.5308 2e-3 -2.5523-0.243-0.9129-0.657-1.5951-1.243-2.0459-0.585-0.4508-1.235-0.58-1.953-0.3885-0.704 0.187-1.196 0.6179-1.478 1.2921-0.28 0.6749-0.282 1.5327-5e-3 2.5735z" fill="#0049FF"/>
<path d="m160.94 39.421-1.07 0.1193 0.408 3.6481-1.472 0.1638-0.956-8.5612 1.471-0.1651 0.405 3.625 0.958-0.1068 2.476-3.9458 1.772-0.1982-2.927 4.4927 4.168 4.0373-1.86 0.2082-3.373-3.3173z" fill="#0049FF"/>
<path d="m174.03 41.903c0.523 0.051 0.996-0.0637 1.418-0.3434 0.421-0.2784 0.676-0.6543 0.764-1.1263l1.387 0.1332c-0.073 0.4893-0.288 0.9407-0.643 1.3544-0.355 0.4143-0.804 0.7292-1.35 0.942-0.545 0.2142-1.11 0.2937-1.691 0.2374-1.168-0.1127-2.059-0.592-2.673-1.4373-0.615-0.8452-0.857-1.9451-0.728-3.2981l0.025-0.2446c0.079-0.8353 0.306-1.5632 0.674-2.1838 0.369-0.6211 0.857-1.0832 1.465-1.3875 0.607-0.3036 1.303-0.4183 2.085-0.3434 0.962 0.0928 1.734 0.4568 2.315 1.0939 0.58 0.6377 0.848 1.418 0.803 2.3421l-1.388-0.1339c0.012-0.5589-0.155-1.0355-0.499-1.428-0.343-0.3924-0.792-0.6158-1.348-0.6689-0.744-0.0722-1.347 0.1399-1.809 0.6371-0.461 0.4972-0.74 1.2536-0.838 2.2673l-0.027 0.2771c-0.095 0.9884 0.035 1.7687 0.391 2.3421 0.357 0.5741 0.911 0.897 1.667 0.9686z" fill="#0049FF"/>
<path d="m187.55 36.867-2.103 8.3557-1.437-0.3613 1.806-7.1737-2.842-0.7153-0.957 3.0853c-0.454 1.4128-0.954 2.38-1.498 2.8991-0.543 0.5204-1.24 0.6875-2.092 0.4998l-0.57-0.1432 0.317-1.2576 0.417 0.071c0.476 0.0656 0.875-0.1194 1.198-0.5529 0.322-0.4323 0.676-1.2961 1.062-2.5894l1.055-3.5368 5.644 1.4193z" fill="#0049FF"/>
<path d="m190.67 44.933 4.298-5.2226 1.46 0.5953-6.963 7.9009c-1.039 1.1244-2.098 1.4671-3.181 1.0263l-0.248-0.1273-0.469-0.303 0.451-1.1064 0.356 0.1796c0.462 0.1883 0.861 0.2413 1.195 0.1605 0.334-0.0816 0.686-0.3368 1.056-0.7651l0.633-0.6874 0.372-9.0505 1.489 0.6073-0.449 6.7924z" fill="#0049FF"/>
<path d="m202.09 49.206-0.877-0.5516-1.997 3.1656-1.247-0.787 1.999-3.1655-0.877-0.5516-4.037 1.8782-1.576-0.9945 4.986-2.1273-0.141-5.0032 1.508 0.952-0.023 4.203 0.856 0.5383 1.902-3.0171 1.247 0.7863-1.904 3.017 0.85 0.5364 3.795-1.8231 1.508 0.952-4.586 2.0299 0.232 5.4095-1.576-0.9944-0.042-4.4529z" fill="#0049FF"/>
<path d="m212.32 51.751c0.801 0.7306 1.196 1.5818 1.19 2.555-0.011 0.9732-0.412 1.8979-1.209 2.7724l-0.093 0.1001c-0.547 0.5999-1.152 1.0308-1.813 1.292-0.663 0.2612-1.33 0.3242-2.003 0.1903-0.67-0.1339-1.289-0.4587-1.854-0.9745-0.854-0.7803-1.283-1.6931-1.283-2.7399-2e-3 -1.0461 0.436-2.0498 1.312-3.0111l0.484-0.529c1.219-1.3385 2.437-2.1745 3.652-2.5106 1.216-0.3354 2.387-0.1478 3.513 0.5635 0.638 0.4031 1.118 0.6218 1.439 0.6557 0.321 0.0338 0.594-0.0723 0.819-0.3202l0.894 0.816c-0.447 0.49-0.906 0.7717-1.378 0.844-0.471 0.0722-1.005-0.0564-1.592-0.3865l-0.979-0.5582c-0.788-0.4376-1.508-0.6225-2.163-0.5542-0.655 0.0669-1.305 0.3586-1.955 0.8724 1.186-0.1399 2.191 0.1671 3.019 0.9228zm-1.027 0.7014c-0.534-0.4866-1.121-0.6941-1.762-0.6218-0.641 0.0729-1.253 0.4275-1.831 1.062l-0.086 0.0948c-0.622 0.6828-0.958 1.367-1.006 2.0538-0.047 0.6861 0.198 1.2741 0.735 1.764 0.541 0.4939 1.151 0.6829 1.831 0.5695 0.678-0.1133 1.367-0.5549 2.069-1.3239 0.548-0.5999 0.829-1.2258 0.844-1.8768 0.017-0.6503-0.249-1.2244-0.794-1.7216z" fill="#0049FF"/>
<path d="m215.77 58.752 1.357 1.7807c0.583 0.7836 0.85 1.5526 0.797 2.3063-0.054 0.7551-0.42 1.3909-1.1 1.9086-0.683 0.5211-1.41 0.7067-2.177 0.5582-0.768-0.1485-1.451-0.6165-2.049-1.4021l-2.21-2.901 6.853-5.2213 0.893 1.1721-2.364 1.7985zm-0.955 0.7292-2.579 1.9637 1.328 1.7422c0.334 0.4388 0.705 0.6927 1.115 0.761 0.41 0.069 0.811-0.0464 1.203-0.3454 0.38-0.289 0.603-0.6437 0.668-1.0633 0.062-0.4197-0.062-0.8433-0.374-1.2722l-1.361-1.786zm1.604 9.4383-0.898-1.1787 6.855-5.2206 0.896 1.178-6.853 5.2213z" fill="#0049FF"/>
<path d="m220.94 78.087-0.588-1.359 9.008-3.9041-2.182-2.2918 1.228-0.5323 3.133 3.2424 0.092 0.2122-10.691 4.6326z" fill="#0049FF"/>
<path d="m228.76 86.299c-1.66 0.47-2.974 0.535-3.943 0.1962-0.966-0.3387-1.621-1.1111-1.961-2.317-0.337-1.1906-0.191-2.183 0.436-2.9779 0.628-0.7948 1.722-1.424 3.286-1.8887l1.891-0.5357c1.641-0.4633 2.939-0.525 3.896-0.1823 0.956 0.3408 1.607 1.1178 1.95 2.3283 0.34 1.2006 0.204 2.1936-0.403 2.9772-0.61 0.7843-1.713 1.4108-3.313 1.8795l-1.839 0.5204zm1.536-1.9663c1.202-0.3394 2.03-0.7558 2.484-1.2477 0.453-0.4925 0.575-1.1044 0.369-1.8343-0.205-0.7259-0.628-1.1761-1.267-1.3544-0.642-0.1783-1.53-0.112-2.666 0.1996l-2.267 0.6417c-1.207 0.3407-2.049 0.7677-2.524 1.2795-0.475 0.5124-0.613 1.1243-0.412 1.835 0.198 0.6994 0.615 1.1422 1.252 1.3298 0.639 0.1863 1.542 0.1227 2.712-0.1916l2.319-0.6576z" fill="#0049FF"/>
<path d="m233.85 99.211-8.602 0.5012-0.086-1.479 7.386-0.429-0.171-2.9255-3.23 0.0126c-1.483-0.0093-2.555-0.1962-3.214-0.5595-0.66-0.364-1.027-0.9792-1.106-1.8457l-0.034-0.5886 1.296-0.075 0.056 0.4197c0.082 0.474 0.378 0.8001 0.888 0.9778 0.509 0.1777 1.439 0.2566 2.789 0.236l3.689-0.055 0.339 5.81z" fill="#0049FF"/>
<path d="m224.72 105.03c0.107-1.163 0.575-2.074 1.407-2.734 0.83-0.659 1.885-0.931 3.164-0.814l0.269 0.024c0.852 0.078 1.596 0.31 2.235 0.697 0.639 0.386 1.121 0.889 1.446 1.507 0.324 0.62 0.455 1.269 0.394 1.95-0.102 1.116-0.55 1.95-1.34 2.501-0.792 0.551-1.872 0.764-3.241 0.639l-0.611-0.056 0.532-5.813c-0.848-0.057-1.554 0.128-2.118 0.554s-0.879 1.003-0.947 1.733c-0.047 0.518 0.02 0.966 0.197 1.345 0.179 0.378 0.43 0.719 0.755 1.02l-0.781 0.832c-1.038-0.819-1.492-1.947-1.361-3.385zm7.708 0.521c0.055-0.592-0.115-1.109-0.509-1.55-0.393-0.441-0.976-0.745-1.744-0.91l-0.392 4.297 0.11 0.01c0.749 0.026 1.345-0.123 1.788-0.444 0.443-0.322 0.692-0.789 0.747-1.403z" fill="#0049FF"/>
<path d="m230.1 117.52 0.652-2.816-7.231-1.674 0.333-1.435 7.23 1.673 0.639-2.761 1.163 0.268-1.622 7.014-1.164-0.269z" fill="#0049FF"/>
<path d="m220.91 123.71c-0.215 0.48-0.259 0.964-0.13 1.453 0.13 0.488 0.402 0.85 0.82 1.086l-0.572 1.27c-0.439-0.227-0.797-0.575-1.076-1.043-0.277-0.469-0.429-0.996-0.456-1.582-0.028-0.586 0.078-1.145 0.319-1.678 0.482-1.069 1.223-1.758 2.221-2.068 0.998-0.311 2.117-0.186 3.356 0.373l0.225 0.1c0.765 0.345 1.382 0.791 1.85 1.34 0.469 0.549 0.75 1.162 0.842 1.835 0.092 0.672-0.023 1.367-0.345 2.085-0.398 0.88-0.99 1.493-1.781 1.838-0.791 0.346-1.616 0.348-2.475 7e-3l0.572-1.269c0.526 0.189 1.031 0.185 1.513-0.014 0.484-0.199 0.838-0.552 1.067-1.061 0.307-0.682 0.299-1.321-0.022-1.918-0.322-0.597-0.948-1.104-1.877-1.524l-0.254-0.114c-0.905-0.408-1.686-0.536-2.344-0.383-0.657 0.153-1.14 0.575-1.453 1.267z" fill="#0049FF"/>
<path d="m217.55 135.87c-1.103-0.71-1.828-1.534-2.177-2.472-0.35-0.939-0.246-1.838 0.308-2.7 0.566-0.879 1.289-1.392 2.172-1.536l-3.488-2.246 0.797-1.239 10.03 6.457-0.728 1.132-0.842-0.457c0.3 0.906 0.161 1.809-0.416 2.706-0.56 0.87-1.333 1.348-2.315 1.431-0.981 0.084-2.058-0.249-3.227-1.003l-0.114-0.073zm0.938-1.148c0.816 0.526 1.574 0.767 2.271 0.723 0.698-0.043 1.242-0.369 1.632-0.975 0.483-0.751 0.512-1.527 0.09-2.33l-3.462-2.229c-0.899-0.055-1.594 0.3-2.086 1.063-0.382 0.594-0.451 1.217-0.206 1.871 0.246 0.654 0.832 1.279 1.761 1.877z" fill="#0049FF"/>
<path d="m216.69 137.31c0.632 0.561 1.089 1.188 1.373 1.885 0.282 0.696 0.365 1.388 0.245 2.073-0.119 0.686-0.43 1.311-0.936 1.879-0.778 0.877-1.713 1.316-2.802 1.319-1.088 2e-3 -2.137-0.445-3.144-1.34l-0.077-0.069c-0.627-0.557-1.083-1.177-1.367-1.859-0.285-0.683-0.367-1.371-0.249-2.065 0.12-0.693 0.437-1.329 0.952-1.909 0.776-0.872 1.707-1.31 2.796-1.312 1.089-1e-3 2.133 0.441 3.134 1.33l0.075 0.068zm-1.114 0.99c-0.714-0.634-1.436-0.978-2.162-1.031-0.728-0.053-1.338 0.198-1.831 0.753-0.497 0.561-0.674 1.2-0.528 1.918 0.146 0.72 0.613 1.43 1.403 2.132 0.707 0.627 1.428 0.969 2.165 1.023 0.735 0.055 1.351-0.196 1.845-0.752 0.483-0.543 0.656-1.174 0.52-1.892s-0.606-1.434-1.412-2.151z" fill="#0049FF"/>
<path d="m207.53 145.66 0.826-0.689-2.352-2.82 1.139-0.948 5.517 6.618-1.139 0.949-2.334-2.802-0.74 0.618 0.11 4.656-1.371 1.143-0.034-5.363-5.704-1.072 1.437-1.199 4.645 0.909z" fill="#0049FF"/>
<path d="m195.56 159.2-3.997-7.634 1.313-0.686 3.431 6.553 2.596-1.359-1.34-2.939c-0.603-1.356-0.875-2.41-0.815-3.16 0.059-0.751 0.469-1.339 1.229-1.767l0.522-0.272 0.602 1.148-0.36 0.224c-0.398 0.269-0.574 0.672-0.526 1.211 0.049 0.538 0.359 1.417 0.933 2.639l1.569 3.339-5.157 2.703z" fill="#0049FF"/>
<path d="m186.47 153.28c1.103-0.383 2.127-0.333 3.071 0.152 0.944 0.484 1.626 1.333 2.047 2.546l0.091 0.256c0.28 0.808 0.375 1.583 0.289 2.323-0.088 0.742-0.345 1.389-0.777 1.939-0.428 0.551-0.967 0.94-1.613 1.165-1.058 0.367-2.003 0.305-2.832-0.189-0.828-0.492-1.468-1.389-1.92-2.687l-0.201-0.58 5.514-1.916c-0.299-0.795-0.76-1.362-1.381-1.7-0.62-0.338-1.277-0.386-1.968-0.147-0.491 0.172-0.872 0.417-1.145 0.736-0.269 0.319-0.477 0.688-0.616 1.109l-1.08-0.367c0.316-1.285 1.157-2.165 2.521-2.64zm2.71 7.236c0.562-0.195 0.96-0.563 1.2-1.104s0.276-1.197 0.111-1.964l-4.078 1.416 0.038 0.106c0.285 0.694 0.666 1.174 1.142 1.445 0.476 0.269 1.004 0.304 1.587 0.101z" fill="#0049FF"/>
<path d="m177.32 163.34 2.834-0.569-1.46-7.276 1.445-0.291 1.459 7.276 2.78-0.557 0.235 1.171-7.059 1.417-0.234-1.171z" fill="#0049FF"/>
<path d="m168.94 165.17-0.547-8.599 1.479-0.095 0.468 7.383 2.927-0.186-0.032-3.229c2e-3 -1.484 0.183-2.556 0.541-3.218 0.36-0.661 0.974-1.033 1.841-1.115l0.588-0.038 0.083 1.296-0.419 0.059c-0.474 0.083-0.798 0.38-0.973 0.891s-0.25 1.442-0.223 2.791l0.075 3.689-5.808 0.371z" fill="#0049FF"/>
<path d="m163.49 158.42-2.519 6.276-1.57-0.126 4.249-9.636c0.65-1.386 1.555-2.032 2.721-1.939l0.275 0.046 0.54 0.148-0.096 1.19-0.395-0.064c-0.497-0.04-0.894 0.03-1.187 0.209-0.294 0.179-0.552 0.527-0.776 1.048l-0.395 0.846 2.38 8.74-1.603-0.129-1.624-6.609z" fill="#0049FF"/>
<path d="m151.32 157.81 1.001 0.261 0.942-3.623 1.425 0.372-0.941 3.622 1.002 0.26 3.277-3.015 1.804 0.469-4.104 3.541 1.649 4.725-1.725-0.45-1.254-4.011-0.979-0.256-0.897 3.453-1.426-0.371 0.899-3.453-0.973-0.252-3.063 2.889-1.727-0.448 3.754-3.328-1.864-5.083 1.804 0.469 1.396 4.229z" fill="#0049FF"/>
<path d="m140.82 158.51c-0.985-0.449-1.622-1.139-1.914-2.068-0.291-0.929-0.19-1.932 0.301-3.009l0.057-0.123c0.337-0.739 0.781-1.335 1.331-1.786 0.552-0.452 1.167-0.718 1.846-0.795 0.68-0.077 1.369 0.042 2.064 0.361 1.053 0.48 1.739 1.219 2.061 2.214 0.322 0.996 0.212 2.085-0.327 3.269l-0.298 0.651c-0.751 1.647-1.655 2.816-2.709 3.508s-2.225 0.872-3.515 0.54c-0.732-0.188-1.257-0.249-1.571-0.183-0.316 0.066-0.544 0.251-0.682 0.555l-1.102-0.502c0.276-0.604 0.628-1.012 1.055-1.226 0.427-0.213 0.972-0.255 1.636-0.122l1.1 0.232c0.883 0.177 1.627 0.131 2.229-0.133 0.602-0.265 1.134-0.742 1.593-1.43-1.084 0.497-2.136 0.512-3.155 0.047zm0.763-0.983c0.658 0.301 1.28 0.318 1.867 0.053 0.588-0.266 1.062-0.79 1.42-1.573l0.051-0.115c0.383-0.842 0.493-1.595 0.329-2.262-0.166-0.668-0.579-1.152-1.24-1.455-0.667-0.303-1.306-0.298-1.917 0.018-0.612 0.317-1.134 0.948-1.565 1.895-0.338 0.738-0.413 1.421-0.228 2.044 0.184 0.625 0.612 1.089 1.283 1.395z" fill="#0049FF"/>
<path d="m131.66 143.42 1.215 0.848-4.932 7.064-1.214-0.848 4.931-7.064zm3.721 9.484-1.835-1.281c-0.794-0.568-1.282-1.219-1.461-1.953-0.18-0.734-0.026-1.451 0.464-2.154 0.492-0.704 1.125-1.103 1.904-1.194 0.775-0.093 1.569 0.144 2.378 0.709l2.99 2.088-4.933 7.063-1.206-0.842 1.699-2.436zm0.689-0.986 1.856-2.656-1.796-1.254c-0.452-0.317-0.884-0.445-1.295-0.385-0.41 0.06-0.758 0.292-1.041 0.696-0.273 0.393-0.376 0.798-0.309 1.217s0.316 0.785 0.743 1.097l1.842 1.285z" fill="#0049FF"/>
<path d="m124.59 136.06 0.974 1.117-7.401 6.452 2.775 1.522-1.008 0.879-3.967-2.14-0.152-0.174 8.779-7.656z" fill="#0049FF"/>
<path d="m114.65 130.61c1.44-0.951 2.673-1.411 3.697-1.382 1.024 0.03 1.884 0.567 2.573 1.613 0.682 1.032 0.845 2.021 0.488 2.969-0.356 0.949-1.21 1.881-2.557 2.798l-1.643 1.084c-1.422 0.939-2.639 1.391-3.655 1.356s-1.871-0.578-2.564-1.628c-0.687-1.04-0.861-2.027-0.519-2.958 0.342-0.934 1.204-1.865 2.586-2.797l1.594-1.055zm-0.868 2.339c-1.04 0.689-1.703 1.336-1.986 1.943s-0.215 1.228 0.204 1.861c0.415 0.629 0.954 0.931 1.619 0.906 0.663-0.026 1.491-0.359 2.478-1l1.969-1.298c1.044-0.692 1.717-1.353 2.014-1.986 0.298-0.632 0.244-1.257-0.163-1.871-0.401-0.608-0.933-0.903-1.597-0.887-0.665 0.014-1.506 0.35-2.526 1.004l-2.012 1.328z" fill="#0049FF"/>
<path d="m105.87 119.89 8.035-3.106 0.535 1.382-6.901 2.666 1.057 2.733 3.071-0.998c1.417-0.445 2.493-0.594 3.232-0.451 0.739 0.144 1.278 0.618 1.616 1.42l0.212 0.551-1.21 0.467-0.183-0.382c-0.22-0.426-0.602-0.647-1.142-0.659-0.54-0.014-1.449 0.194-2.728 0.626l-3.496 1.18-2.098-5.429z" fill="#0049FF"/>
<path d="m112.78 111.53c0.255 1.14 0.088 2.151-0.5 3.034-0.589 0.881-1.511 1.463-2.764 1.743l-0.264 0.059c-0.834 0.187-1.615 0.194-2.341 0.023-0.726-0.173-1.339-0.503-1.837-0.993-0.5-0.49-0.823-1.068-0.972-1.737-0.245-1.092-0.074-2.023 0.51-2.79s1.547-1.301 2.89-1.601l0.598-0.134 1.274 5.696c0.825-0.207 1.438-0.598 1.845-1.175 0.406-0.578 0.531-1.225 0.372-1.94-0.114-0.508-0.315-0.914-0.6-1.22-0.286-0.306-0.63-0.553-1.03-0.741l0.486-1.031c1.24 0.462 2.018 1.398 2.333 2.807zm-7.497 1.864c0.129 0.58 0.449 1.021 0.958 1.32 0.511 0.299 1.157 0.41 1.94 0.334l-0.942-4.213-0.109 0.024c-0.721 0.206-1.243 0.529-1.565 0.971-0.323 0.443-0.417 0.964-0.282 1.564z" fill="#0049FF"/>
<path d="m103.84 101.28 0.239 2.88 7.396-0.612 0.122 1.468-7.396 0.614 0.235 2.824-1.19 0.099-0.596-7.174 1.19-0.099z" fill="#0049FF"/>
</svg>
