<svg width="280" height="200" viewBox="0 0 280 200" fill="none" xmlns="http://www.w3.org/2000/svg">
<path d="M191.378 125.114H187.026C183.158 125.114 179.521 123.408 177.049 120.433L162.438 102.848C159.816 99.6919 155.959 97.8821 151.855 97.8821H58.9599C56.6774 97.8821 54.6535 96.5993 53.6784 94.5349C52.7032 92.4712 52.9988 90.0933 54.4487 88.3305L74.136 64.4004C78.1574 59.5119 83.8062 56.2171 90.0405 55.1239L90.2255 55.102L136.497 52.2819L198.64 36.073C200.537 35.7436 202.359 36.5437 203.394 38.1699C204.429 39.7968 204.384 41.7876 203.278 43.366L185.093 69.3048C180.95 75.2123 180.438 82.8639 183.755 89.2725L197.282 115.408C198.359 117.487 198.275 119.922 197.058 121.922C195.844 123.92 193.719 125.114 191.378 125.114ZM57.0089 90.4347C56.3725 91.209 56.2479 92.2127 56.6755 93.1189C57.1038 94.0251 57.9582 94.5668 58.9599 94.5668H151.855C156.947 94.5668 161.733 96.8135 164.988 100.729L179.599 118.314C181.439 120.529 184.146 121.8 187.026 121.8H191.378C192.552 121.8 193.618 121.201 194.228 120.198C194.839 119.194 194.88 117.974 194.341 116.93L180.813 90.7953C176.926 83.2869 177.527 74.3219 182.38 67.4002L200.565 41.4614C201.05 40.77 200.713 40.1282 200.599 39.9479C200.487 39.7722 200.06 39.216 199.269 39.3281L137.022 55.5694L90.5232 58.4028C85.103 59.376 80.1959 62.2512 76.6962 66.5046L57.0089 90.4347Z" fill="#262626"/>
<path d="M53.3147 145.201H50V164.411H53.3147V145.201Z" fill="#262626"/>
<path d="M71.5384 151.831H68.2237V164.411H71.5384V151.831Z" fill="#262626"/>
<path d="M89.7608 151.831H86.4461V164.411H89.7608V151.831Z" fill="#262626"/>
<path d="M107.984 151.831H104.67V164.411H107.984V151.831Z" fill="#262626"/>
<path d="M126.208 145.201H122.893V164.411H126.208V145.201Z" fill="#262626"/>
<path d="M144.431 151.831H141.117V164.411H144.431V151.831Z" fill="#262626"/>
<path d="M162.654 151.831H159.339V164.411H162.654V151.831Z" fill="#262626"/>
<path d="M180.877 151.831H177.562V164.411H180.877V151.831Z" fill="#262626"/>
<path d="M199.1 145.201H195.786V164.411H199.1V145.201Z" fill="#262626"/>
<path d="M223.568 50.0587C221.743 50.4708 219.937 51.0047 218.127 51.4757C214.172 52.5063 210.217 53.5363 206.261 54.5669C195.94 57.2554 185.619 59.9444 175.298 62.6335C168.935 64.2906 162.524 65.824 156.195 67.6094C156.101 67.6359 156.006 67.659 155.912 67.6835C155.066 67.9038 154.456 68.734 154.452 69.5973C154.439 72.3505 154.427 75.1037 154.414 77.857C153.906 75.375 153.399 72.8923 152.892 70.4096C152.72 69.5708 151.803 68.945 150.974 68.953C146.555 68.9933 142.135 69.0337 137.716 69.074C130.981 69.1355 124.246 69.1971 117.512 69.2586C116.049 69.2718 114.511 69.1474 113.063 69.4094C107.142 70.4811 101.548 73.7397 97.6359 78.2922C94.4478 82.002 91.4053 85.8454 88.2953 89.62C84.699 93.9847 81.0875 98.3382 77.5058 102.715C77.4382 102.797 77.37 102.879 77.3024 102.962C76.2834 104.259 75.6148 105.769 75.7652 107.456C75.9037 109.016 76.5517 110.535 77.7211 111.608C78.9475 112.734 80.4865 113.277 82.1423 113.288C83.2586 113.295 84.3757 113.288 85.4921 113.288C91.1185 113.288 96.7441 113.288 102.371 113.288C110.558 113.288 118.747 113.288 126.934 113.288C135.348 113.288 143.762 113.288 152.177 113.288C158.399 113.288 164.621 113.288 170.843 113.288C172.403 113.288 173.962 113.288 175.522 113.288C178.387 113.288 181.059 113.808 183.55 115.337C186.142 116.926 187.98 119.546 189.902 121.856C192.541 125.027 195.181 128.199 197.82 131.371C198.829 132.584 199.84 133.797 200.849 135.011C201.525 135.824 202.181 136.662 202.969 137.372C205.497 139.648 208.737 140.88 212.137 140.906C213.657 140.917 215.193 140.969 216.712 140.901C219.982 140.755 222.905 138.362 223.434 135.081C223.725 133.281 223.297 131.663 222.474 130.076C221.142 127.505 219.81 124.935 218.477 122.365C215.339 116.311 212.175 110.268 209.06 104.201C209.033 104.148 209.005 104.095 208.978 104.041C208.952 103.993 208.93 103.947 208.905 103.896C208.901 103.887 208.899 103.882 208.894 103.874C208.839 103.734 208.786 103.591 208.735 103.449C208.279 102.19 207.939 100.894 207.531 99.6195C207.274 98.8145 206.506 98.1232 205.615 98.1622C204.228 98.2231 202.842 98.2839 201.456 98.3448C201.841 98.2456 202.225 98.1457 202.609 98.0464C203.535 97.8076 204.461 97.5682 205.386 97.3287C206.28 97.0972 206.783 96.2842 206.845 95.4149C207.111 91.7257 208.142 87.4496 210.316 84.2247C210.807 83.4964 211.324 82.7846 211.829 82.0655C214.541 78.2043 217.252 74.343 219.963 70.4811C222.586 66.7461 225.208 63.0119 227.83 59.2769C228.521 58.2939 229.335 57.3255 229.613 56.1295C230.449 52.552 227.145 49.2503 223.568 50.0587ZM154.023 82.6556C154.442 82.4148 154.718 82.0503 154.863 81.6349C155.119 81.9703 155.463 82.2289 155.862 82.2858C156.982 82.4446 158.103 82.6033 159.222 82.7621C158.418 82.9195 157.614 83.0776 156.81 83.2351C154.89 83.6122 152.968 83.9892 151.048 84.3663C151.481 84.1169 151.916 83.8675 152.35 83.6175C152.908 83.2966 153.466 82.9764 154.023 82.6556ZM225.734 55.2662C225.612 55.5056 225.63 55.4951 225.667 55.4421C225.648 55.4726 225.631 55.4977 225.601 55.5473C225.531 55.6611 225.519 55.673 225.476 55.7385C225.325 55.9667 225.162 56.1863 225.005 56.4099C222.714 59.6725 220.423 62.9351 218.132 66.1977C215.272 70.272 212.41 74.3463 209.549 78.4206C208.771 79.5299 207.992 80.6393 207.213 81.748C205.611 84.0289 204.578 86.6816 203.873 89.366C203.488 90.8326 203.204 92.3309 203.023 93.8392C196.986 95.4004 190.947 96.9616 184.909 98.5227C183.984 98.7622 183.058 99.0017 182.133 99.2405C179.995 99.7929 180.39 103.238 182.661 103.139C189.364 102.844 196.066 102.55 202.769 102.256C203.233 102.236 203.696 102.215 204.162 102.195C204.564 103.554 204.973 104.914 205.615 106.178C206 106.937 206.399 107.689 206.79 108.445C208.472 111.69 210.155 114.935 211.837 118.18C213.635 121.647 215.432 125.114 217.23 128.581C217.785 129.652 218.34 130.723 218.896 131.794C219.011 132.017 219.127 132.24 219.242 132.463C219.277 132.531 219.311 132.598 219.343 132.666C219.353 132.705 219.432 132.922 219.442 132.961C219.482 133.111 219.521 133.261 219.553 133.413C219.56 133.465 219.569 133.53 219.571 133.552C219.583 133.754 219.574 133.954 219.571 134.157C219.569 134.218 219.57 134.257 219.572 134.288C219.561 134.316 219.548 134.356 219.531 134.417C219.494 134.543 219.468 134.672 219.429 134.798C219.402 134.89 219.367 134.984 219.333 135.075C219.304 135.126 219.23 135.277 219.205 135.317C218.972 135.688 218.557 136.198 218.253 136.395C217.546 136.851 217.066 136.936 216.147 136.936C214.424 136.936 212.64 137.069 210.924 136.878C208.481 136.606 206.232 135.265 204.6 133.334C204.028 132.656 203.465 131.97 202.899 131.289C198.577 126.095 194.264 120.895 189.934 115.709C186.569 111.679 181.571 109.348 176.318 109.318C175.437 109.313 174.555 109.318 173.674 109.318C168.522 109.318 163.369 109.318 158.216 109.318C150.324 109.318 142.431 109.318 134.538 109.318C126.199 109.318 117.86 109.318 109.521 109.318C102.941 109.318 96.3606 109.318 89.7801 109.318C87.8495 109.318 85.9194 109.318 83.9888 109.318C83.4766 109.318 82.9645 109.318 82.4523 109.318C82.3311 109.318 82.2099 109.319 82.0886 109.318C82.0621 109.318 82.0356 109.318 82.0098 109.318C82.0038 109.318 81.9978 109.318 81.9925 109.318C81.9925 109.318 81.9918 109.318 81.9912 109.318C81.8779 109.318 81.764 109.311 81.6507 109.302C81.6348 109.299 81.6189 109.296 81.5924 109.29C81.43 109.255 81.2717 109.212 81.114 109.159C81.1888 109.184 81.4174 109.317 81.0557 109.133C80.9424 109.075 80.8344 109.011 80.7258 108.945C80.6754 108.915 80.6436 108.897 80.6164 108.882C80.5959 108.861 80.5734 108.838 80.5336 108.801C80.4627 108.734 80.205 108.429 80.1871 108.428C80.1023 108.3 80.0214 108.17 79.9479 108.035C79.9346 108.011 79.9101 107.954 79.8922 107.912C79.8459 107.759 79.7803 107.511 79.7498 107.408C79.7445 107.308 79.7226 107.075 79.7226 107.084C79.722 107 79.7266 106.915 79.7312 106.831C79.7392 106.769 79.7551 106.637 79.771 106.583C79.8174 106.429 79.8525 106.272 79.9121 106.122C79.7803 106.452 80.2792 105.56 80.1162 105.768C83.152 102.083 86.1884 98.3984 89.2242 94.7137C92.786 90.3914 96.346 86.067 99.9091 81.746C102.628 78.449 106.062 75.7983 110.108 74.3304C110.8 74.0797 111.502 73.8588 112.214 73.6682C112.55 73.5783 112.888 73.4956 113.226 73.4202C113.397 73.3818 113.568 73.3461 113.738 73.311C113.876 73.2832 114.014 73.266 114.06 73.2581C114.093 73.2581 114.126 73.2574 114.159 73.2574C114.835 73.2594 115.512 73.2449 116.188 73.2389C122.557 73.1807 128.927 73.1225 135.296 73.0649C138.599 73.0345 141.903 73.0047 145.207 72.9743C146.589 72.9617 147.981 72.9895 149.367 72.9664C149.841 75.289 150.316 77.6109 150.791 79.9335C147.308 81.9359 143.825 83.9383 140.342 85.9407C139.784 86.2615 139.225 86.5824 138.668 86.9032C137.817 87.3921 137.464 88.4928 137.855 89.3819C138.27 90.3259 139.2 90.7268 140.199 90.531C144.783 89.6313 149.366 88.7316 153.949 87.832C157.643 87.1069 161.336 86.3819 165.03 85.6569C167.221 85.2269 169.412 84.7969 171.603 84.3669C173.45 84.0044 173.55 80.8153 171.603 80.5394C167.327 79.9328 163.05 79.3269 158.773 78.7209C158.645 78.703 158.515 78.6845 158.387 78.666C158.399 76.1549 158.41 73.6431 158.421 71.132C163.121 69.9075 167.821 68.6831 172.52 67.4592C182.654 64.8191 192.788 62.1797 202.921 59.5396C209.879 57.727 216.836 55.9151 223.794 54.1026C224.037 54.0391 224.279 53.9636 224.525 53.9121C224.548 53.9074 224.569 53.9015 224.592 53.8949C224.63 53.9008 224.796 53.8935 224.796 53.8935C225.045 53.9074 225.068 53.9094 224.866 53.8982C224.954 53.918 225.038 53.9478 225.123 53.9756C225.142 53.9954 225.251 54.0582 225.337 54.1079C225.358 54.1363 225.441 54.215 225.508 54.2785C225.524 54.3116 225.585 54.4022 225.635 54.477C225.655 54.5418 225.753 54.7687 225.762 54.8011C225.804 54.9394 225.814 55.1067 225.734 55.2662Z" fill="#0049FF"/>
</svg>
